<?xml version="1.0" encoding="utf-8"?>
<!-- Generator: Adobe Illustrator 24.0.3, SVG Export Plug-In . SVG Version: 6.00 Build 0)  -->
<svg version="1.1" id="Capa_1" xmlns="http://www.w3.org/2000/svg" xmlns:xlink="http://www.w3.org/1999/xlink" x="0px" y="0px"
	 viewBox="0 0 1065 34" style="enable-background:new 0 0 1065 34;" xml:space="preserve">
<style type="text/css">
	.st0{fill:none;stroke:#333333;stroke-width:1.72;stroke-miterlimit:10;}
	.st1{fill:none;stroke:#333333;stroke-width:1.21;stroke-miterlimit:10;}
</style>
<title>itacate</title>
<path class="st0" d="M145.4,5.8c0,13.1-10.6,23.6-23.6,23.6S98.1,18.8,98.1,5.8"/>
<path class="st0" d="M179.8,29.4C179.5,16.4,189.9,5.6,203,5.3s23.9,10.1,24.1,23.1c0,0.3,0,0.6,0,1"/>
<path class="st0" d="M12.2,29.4c0-13.1,10.6-23.6,23.6-23.6s23.6,10.6,23.6,23.6"/>
<circle class="st1" cx="163.9" cy="17.8" r="8.2"/>
<circle class="st1" cx="77.1" cy="17.8" r="8.2"/>
<path class="st0" d="M313.9,5.8c0.3,13.1-10.1,23.9-23.1,24.1c-13.1,0.3-23.9-10.1-24.1-23.1c0-0.3,0-0.6,0-1"/>
<path class="st0" d="M348.3,29.4c0-13.1,10.6-23.6,23.6-23.6c13.1,0,23.6,10.6,23.6,23.6"/>
<circle class="st1" cx="332.4" cy="17.8" r="8.2"/>
<circle class="st1" cx="245.6" cy="17.8" r="8.2"/>
<path class="st0" d="M481.5,5.8c0,13.1-10.6,23.6-23.6,23.6c-13.1,0-23.6-10.6-23.6-23.6"/>
<path class="st0" d="M515.9,29.4c0-13.1,10.6-23.6,23.7-23.6c13,0,23.6,10.6,23.6,23.6"/>
<circle class="st1" cx="500" cy="17.8" r="8.2"/>
<circle class="st1" cx="413.2" cy="17.8" r="8.2"/>
<path class="st0" d="M649.2,5.8c0,13.1-10.6,23.6-23.6,23.6s-23.6-10.6-23.6-23.6"/>
<path class="st0" d="M683.5,29.4c0-13.1,10.6-23.6,23.6-23.6s23.6,10.6,23.6,23.6"/>
<circle class="st1" cx="667.6" cy="17.8" r="8.2"/>
<circle class="st1" cx="580.8" cy="17.8" r="8.2"/>
<path class="st0" d="M815,5.8c0,13.1-10.6,23.6-23.7,23.6c-13,0-23.6-10.6-23.6-23.6"/>
<path class="st0" d="M849.4,29.4c0-13.1,10.6-23.7,23.6-23.7c13.1,0,23.7,10.6,23.7,23.6c0,0,0,0,0,0.1"/>
<circle class="st1" cx="833.5" cy="17.8" r="8.2"/>
<circle class="st1" cx="746.7" cy="17.8" r="8.2"/>
<path class="st0" d="M983.5,5.8c0,13.1-10.6,23.6-23.6,23.6s-23.6-10.6-23.6-23.6"/>
<path class="st0" d="M1017.9,29.4c0-13.1,10.6-23.6,23.7-23.6c13,0,23.6,10.6,23.6,23.6"/>
<circle class="st1" cx="1002" cy="17.8" r="8.2"/>
<circle class="st1" cx="915.2" cy="17.8" r="8.2"/>
</svg>
