<svg id="Capa_1" data-name="Capa 1" xmlns="http://www.w3.org/2000/svg" viewBox="0 0 77 80"><defs><style>.cls-1{fill:#ea153e;}</style></defs><title>itacate</title><g id="_0PN3gQ" data-name="0PN3gQ"><path class="cls-1" d="M13,70H66.17c0-.71.08-1.34.08-2,0-7.27,0-14.53,0-21.79a6.57,6.57,0,0,1,.37-2.59A3,3,0,0,1,70,41.87a3.13,3.13,0,0,1,2.78,2.79,6.23,6.23,0,0,1,0,1.06q0,13.55,0,27.1c0,2.65-1.14,3.8-3.77,3.8H10.2c-2.6,0-3.73-1.18-3.74-3.83q0-13.56,0-27.11c0-2.37,1.24-3.82,3.21-3.85S13,43.28,13,45.74c0,7.38,0,14.77,0,22.15Z"/><path class="cls-1" d="M39.58,8.11,22.75,23.35q-7.68,7-15.36,13.92c-1.72,1.55-3.7,1.62-5,.21S1.19,34,3,32.36Q20,16.9,37.09,1.46c1.72-1.56,3.33-1.57,5,0Q59.35,17,76.54,32.56A3.27,3.27,0,0,1,77,37.27c-1.27,1.47-3.35,1.55-5,0-5.23-4.69-10.42-9.42-15.63-14.13L40.59,8.92C40.29,8.65,40,8.41,39.58,8.11Z"/></g></svg>