<svg id="Capa_1" data-name="Capa 1" xmlns="http://www.w3.org/2000/svg" viewBox="0 0 101 99"><defs><style>.cls-1{fill:#ea153e;}</style></defs><title>itacate</title><path class="cls-1" d="M40.58,31.12a9.24,9.24,0,0,1,9.05,9.18,9,9,0,0,1-9.13,9.2,9.26,9.26,0,0,1-9.25-9.19A9.45,9.45,0,0,1,40.58,31.12ZM37.9,71.59c-.91.92-1.56,1-2.48,0-4-4.09-3.71-2.9-.16-6.48,10.45-10.54,21-21,31.4-31.57,1.29-1.3,2.2-1.5,3.35,0,.77,1,1.94,1.65,2.45,2.8a2.11,2.11,0,0,1-.86,1.4Q54.76,54.68,37.9,71.59Zm26.52,2a9.25,9.25,0,0,1-9.05-9.18,9,9,0,0,1,9.13-9.2,9.25,9.25,0,0,1,9.25,9.19A9.42,9.42,0,0,1,64.42,73.63Z"/><path class="cls-1" d="M40.44,43.11a2.84,2.84,0,0,0,2.8-2.8,2.68,2.68,0,0,0-2.76-2.58,2.46,2.46,0,0,0-2.62,2.62A2.69,2.69,0,0,0,40.44,43.11Z"/><path class="cls-1" d="M64.6,61.64a2.83,2.83,0,0,0-2.84,2.76A2.67,2.67,0,0,0,64.47,67a2.45,2.45,0,0,0,2.67-2.58A2.68,2.68,0,0,0,64.6,61.64Z"/><path class="cls-1" d="M72.46,36.37c-.51-1.15-1.68-1.81-2.45-2.8-1.15-1.5-2.06-1.3-3.35,0-10.43,10.56-20.95,21-31.4,31.57-3.55,3.58-3.79,2.39.16,6.48.92.95,1.57.89,2.48,0Q54.73,54.65,71.6,37.77A2.11,2.11,0,0,0,72.46,36.37Z"/><path class="cls-1" d="M64.5,55.25a9,9,0,0,0-9.13,9.2,9.25,9.25,0,0,0,9.05,9.18,9.42,9.42,0,0,0,9.33-9.19A9.25,9.25,0,0,0,64.5,55.25Zm0,11.77a2.67,2.67,0,0,1-2.71-2.62,2.83,2.83,0,0,1,2.84-2.76,2.68,2.68,0,0,1,2.54,2.8A2.45,2.45,0,0,1,64.47,67Z"/><path class="cls-1" d="M40.5,49.5a9,9,0,0,0,9.13-9.2,9.24,9.24,0,0,0-9.05-9.18,9.45,9.45,0,0,0-9.33,9.19A9.26,9.26,0,0,0,40.5,49.5Zm0-11.77a2.68,2.68,0,0,1,2.76,2.58,2.84,2.84,0,0,1-2.8,2.8,2.69,2.69,0,0,1-2.58-2.76A2.46,2.46,0,0,1,40.48,37.73Z"/><path class="cls-1" d="M51.33,99.4a3,3,0,0,1-1.88-.67l-11.13-9L24,90.48A3,3,0,0,1,21,88.26l-3.73-13.8-12-7.81a3,3,0,0,1-1.17-3.58L9.21,49.71,4.12,36.35a3,3,0,0,1,1.17-3.58l12-7.82L21,11.15A3,3,0,0,1,24,8.94l14.28.71,11.13-9a3,3,0,0,1,3.76,0l11.14,9,14.28-.71a3,3,0,0,1,3,2.21L85.41,25l12,7.82a3,3,0,0,1,1.16,3.58L93.45,49.71l5.09,13.36a3,3,0,0,1-1.16,3.58l-12,7.81-3.74,13.8a3,3,0,0,1-3,2.22l-14.28-.72-11.14,9A2.93,2.93,0,0,1,51.33,99.4Zm-12-15.69a2.94,2.94,0,0,1,1.88.67l10.14,8.16,10.14-8.16a3,3,0,0,1,2-.66l13,.64,3.41-12.57a3,3,0,0,1,1.25-1.73l10.9-7.12L87.44,50.77a3,3,0,0,1,0-2.13l4.63-12.17-10.9-7.12a3,3,0,0,1-1.25-1.73L76.51,15.05l-13,.65a3,3,0,0,1-2-.66L51.33,6.87,41.19,15a3,3,0,0,1-2,.66l-13-.65-3.4,12.57a3,3,0,0,1-1.25,1.73L10.59,36.47l4.64,12.17a3,3,0,0,1,0,2.13L10.59,62.94,21.5,70.06a3,3,0,0,1,1.25,1.73l3.4,12.57,13-.64Z"/></svg>