<svg xmlns="http://www.w3.org/2000/svg" xmlns:xlink="http://www.w3.org/1999/xlink" viewBox="0 0 216 216"><defs><style>.cls-1{isolation:isolate;}.cls-2{fill:#ccc;}.cls-3,.cls-4,.cls-5{mix-blend-mode:multiply;}.cls-3{fill:url(#radial-gradient);}.cls-4{fill:url(#radial-gradient-2);}.cls-5{fill:url(#radial-gradient-3);}.cls-6{fill:url(#radial-gradient-4);}.cls-7{fill:#f8efe7;}.cls-8{fill:#f6e8e0;}.cls-9{fill:#f2dac7;}.cls-10{fill:#f5e4ca;}.cls-11{fill:#f7ebe5;}.cls-12{fill:#efd1b2;}.cls-13{fill:#f6e8dd;}.cls-14{fill:#f9f2ea;}.cls-15{fill:#faf5ee;}.cls-16{fill:#f1d3b5;}.cls-17{fill:#ecc9a9;}.cls-18{fill:#f6e6d9;}.cls-19{fill:#f1d7cb;}.cls-20{fill:#faf6f1;}.cls-21{fill:#ecccb3;}.cls-22{fill:#f2dac8;}.cls-23{fill:#f5e5d3;}.cls-24{fill:#f8f1ea;}.cls-25{fill:#f6e9e1;}.cls-26{fill:#f9f1e9;}.cls-27{fill:#f6e9e0;}.cls-28{fill:#f6e8de;}.cls-29{fill:#f3ded5;}.cls-30{fill:#edcfb9;}.cls-31{fill:#f8eee7;}.cls-32{fill:#f6e6da;}.cls-33{fill:#f2ddd4;}.cls-34{fill:#faf4eb;}.cls-35{fill:#efd3be;}.cls-36{fill:#f1d7bd;}.cls-37{fill:#f2dcd4;}.cls-38{fill:#f8efe6;}.cls-39{fill:#ebc9b2;}.cls-40{fill:#f6e8df;}.cls-41{fill:#f3decc;}.cls-42{fill:#f6eae3;}.cls-43{fill:#f9f4ed;}.cls-44{fill:#f4e2d6;}.cls-45{fill:#faf5ef;}.cls-46{fill:#f6eae4;}.cls-47{fill:#f9f6f3;}.cls-48{fill:#f1d6b8;}.cls-49{fill:#faf5f0;}.cls-50{fill:#f4e3dc;}.cls-51{fill:#eeceae;}.cls-52{fill:#f0d2b4;}.cls-53{fill:#f9f2e9;}.cls-54{fill:#f3dfd5;}.cls-55{fill:url(#linear-gradient);}.cls-56{fill:url(#linear-gradient-2);}.cls-57{fill:url(#linear-gradient-3);}.cls-58{fill:url(#radial-gradient-5);}.cls-59{fill:url(#linear-gradient-4);}.cls-60{fill:url(#linear-gradient-5);}.cls-61{fill:url(#linear-gradient-6);}.cls-62{fill:url(#linear-gradient-7);}.cls-63{fill:#d5722e;}.cls-64{fill:url(#radial-gradient-6);}.cls-65{fill:url(#linear-gradient-8);}.cls-66{fill:url(#linear-gradient-9);}.cls-67{fill:#a55f32;}.cls-68{fill:#34160d;}.cls-69{fill:url(#linear-gradient-10);}.cls-70{fill:url(#linear-gradient-11);}.cls-71{fill:#c5713d;}.cls-72{fill:#783c20;}.cls-73{fill:#984b24;}.cls-74{fill:#ce875a;}.cls-75{fill:#532314;}.cls-76{fill:url(#linear-gradient-12);}.cls-77{fill:url(#linear-gradient-13);}.cls-78{fill:url(#linear-gradient-14);}.cls-79{fill:url(#linear-gradient-15);}.cls-80{fill:url(#linear-gradient-16);}.cls-81{fill:url(#linear-gradient-17);}.cls-82{fill:url(#linear-gradient-18);}.cls-83{fill:url(#linear-gradient-19);}.cls-84{fill:url(#linear-gradient-20);}.cls-85{fill:url(#linear-gradient-21);}.cls-86{fill:#bbdf5f;}.cls-87{fill:url(#radial-gradient-7);}.cls-88{fill:url(#radial-gradient-8);}.cls-89{fill:url(#linear-gradient-22);}.cls-90{fill:url(#radial-gradient-9);}.cls-91{fill:url(#radial-gradient-10);}.cls-92{fill:url(#radial-gradient-11);}.cls-93{fill:#1b2207;}.cls-94{fill:#091404;}.cls-95{fill:#9bc631;}.cls-96{fill:url(#radial-gradient-12);}.cls-97{fill:url(#linear-gradient-23);}.cls-98{fill:#cae680;}.cls-99{fill:url(#linear-gradient-24);}.cls-100{fill:url(#linear-gradient-25);}.cls-101{fill:#a9c45e;}.cls-102{fill:url(#linear-gradient-26);}.cls-103{fill:url(#linear-gradient-27);}.cls-104{fill:#eaf6c3;}.cls-105{fill:url(#radial-gradient-13);}.cls-106{fill:#a7df5a;}.cls-107{fill:#c7e883;}.cls-108{fill:url(#linear-gradient-28);}.cls-109{fill:url(#linear-gradient-29);}.cls-110{fill:#a7ce56;}.cls-111{fill:#99cb2b;}.cls-112{fill:#cce39a;}.cls-113{fill:url(#linear-gradient-30);}.cls-114{fill:#a8d836;}.cls-115{fill:#a4d53b;}.cls-116{fill:#b5de37;}.cls-117{fill:#a7da38;}.cls-118{fill:url(#linear-gradient-31);}.cls-119{fill:url(#linear-gradient-32);}.cls-120{fill:url(#linear-gradient-33);}.cls-121{fill:#4f6915;}.cls-122{fill:url(#linear-gradient-34);}.cls-123{fill:url(#linear-gradient-35);}.cls-124{fill:#638721;}.cls-125{fill:url(#linear-gradient-36);}.cls-126{fill:url(#linear-gradient-37);}.cls-127{fill:url(#linear-gradient-38);}.cls-128{fill:url(#radial-gradient-14);}.cls-129{fill:url(#linear-gradient-39);}.cls-130{fill:url(#radial-gradient-15);}.cls-131{fill:url(#linear-gradient-40);}.cls-132{fill:#263711;}.cls-133{fill:#b7d769;}.cls-134{fill:url(#radial-gradient-16);}.cls-135{fill:#76a52c;}.cls-136{fill:url(#linear-gradient-41);}.cls-137{fill:url(#linear-gradient-42);}.cls-138{fill:url(#linear-gradient-43);}.cls-139{fill:#a8db2b;}.cls-140{fill:#6b942a;}.cls-141{fill:url(#linear-gradient-44);}.cls-142{fill:url(#linear-gradient-45);}.cls-143{fill:url(#linear-gradient-46);}.cls-144{fill:url(#radial-gradient-17);}.cls-145{fill:url(#radial-gradient-18);}.cls-146{fill:url(#radial-gradient-19);}.cls-147{fill:url(#radial-gradient-20);}.cls-148{fill:#a3ca46;}.cls-149{fill:url(#radial-gradient-21);}.cls-150{fill:url(#radial-gradient-22);}.cls-151{fill:#85b623;}.cls-152{fill:url(#linear-gradient-47);}.cls-153{fill:#88ad2a;}.cls-154{fill:url(#linear-gradient-48);}</style><radialGradient id="radial-gradient" cx="363.74" cy="-6288.49" r="25.9" gradientTransform="matrix(2.1, -0.02, 0, 0.51, -671.39, 3384.19)" gradientUnits="userSpaceOnUse"><stop offset="0" stop-color="#7b6c4e"/><stop offset="0.34" stop-color="#a99f8c"/><stop offset="0.57" stop-color="#cac4b8"/><stop offset="0.68" stop-color="#d9d5cc"/><stop offset="0.91" stop-color="#fff"/></radialGradient><radialGradient id="radial-gradient-2" cx="381.36" cy="-6283.95" r="25.9" xlink:href="#radial-gradient"/><radialGradient id="radial-gradient-3" cx="399.47" cy="-6287.26" r="25.9" xlink:href="#radial-gradient"/><radialGradient id="radial-gradient-4" cx="652.87" cy="54365.49" r="613.57" gradientTransform="matrix(0.17, 0, 0, -0.07, -235.84, 3661.39)" gradientUnits="userSpaceOnUse"><stop offset="0" stop-color="#f9efda"/><stop offset="0.44" stop-color="#f7c67e"/><stop offset="0.89" stop-color="#c15b1d"/><stop offset="1" stop-color="#d5722e"/></radialGradient><linearGradient id="linear-gradient" x1="881.24" y1="13018.53" x2="883.42" y2="13044.58" gradientTransform="matrix(0.34, 0, 0, -0.34, -144.87, 4516.11)" gradientUnits="userSpaceOnUse"><stop offset="0" stop-color="#f7ca87"/><stop offset="1" stop-color="#c56224"/></linearGradient><linearGradient id="linear-gradient-2" x1="594.76" y1="13026.11" x2="584.84" y2="13051.62" gradientTransform="matrix(0.34, 0, 0, -0.34, -144.87, 4516.11)" gradientUnits="userSpaceOnUse"><stop offset="0" stop-color="#f9ebd2"/><stop offset="1" stop-color="#f7ca86"/></linearGradient><linearGradient id="linear-gradient-3" x1="750.38" y1="13014.97" x2="775.1" y2="13048.96" gradientTransform="matrix(0.34, 0, 0, -0.34, -144.87, 4516.11)" gradientUnits="userSpaceOnUse"><stop offset="0" stop-color="#f9e6c7"/><stop offset="1" stop-color="#f7cd8e"/></linearGradient><radialGradient id="radial-gradient-5" cx="151.36" cy="-72193.14" r="613.45" gradientTransform="matrix(0.18, 0.01, 0, 0.04, -198.32, 3199.44)" xlink:href="#radial-gradient-4"/><linearGradient id="linear-gradient-4" x1="2068.11" y1="33556.92" x2="2063.77" y2="33511.34" gradientTransform="matrix(0.11, 0, 0, -0.11, -162.93, 3712.06)" gradientUnits="userSpaceOnUse"><stop offset="0" stop-color="#f9eacf"/><stop offset="1" stop-color="#f8d196"/></linearGradient><linearGradient id="linear-gradient-5" x1="2397.51" y1="33551.9" x2="2399.68" y2="33510.66" gradientTransform="matrix(0.11, 0, 0, -0.11, -162.93, 3712.06)" gradientUnits="userSpaceOnUse"><stop offset="0" stop-color="#f9f1d5"/><stop offset="1" stop-color="#f8d8a8"/></linearGradient><linearGradient id="linear-gradient-6" x1="2645.45" y1="33547.61" x2="3049.54" y2="33538.19" gradientTransform="matrix(0.11, 0, 0, -0.11, -162.93, 3712.06)" gradientUnits="userSpaceOnUse"><stop offset="0" stop-color="#f9e9c7"/><stop offset="0.26" stop-color="#ecc79a"/><stop offset="1" stop-color="#d37f3d"/></linearGradient><linearGradient id="linear-gradient-7" x1="2517.3" y1="33335.47" x2="2517.3" y2="33371.09" gradientTransform="matrix(0.11, 0, 0, -0.11, -162.93, 3712.06)" gradientUnits="userSpaceOnUse"><stop offset="0" stop-color="#d5722e"/><stop offset="1" stop-color="#c56324"/></linearGradient><radialGradient id="radial-gradient-6" cx="1462.66" cy="358014.49" r="1445.45" gradientTransform="matrix(0.09, 0, 0, -0.01, -102.62, 3418.01)" gradientUnits="userSpaceOnUse"><stop offset="0" stop-color="#aa6335"/><stop offset="1" stop-color="#5a250c"/></radialGradient><linearGradient id="linear-gradient-8" x1="4512.06" y1="64687.84" x2="6200.88" y2="64652.84" gradientTransform="matrix(0.05, 0, 0, -0.05, -135.39, 3465.58)" gradientUnits="userSpaceOnUse"><stop offset="0" stop-color="#532314"/><stop offset="1" stop-color="#401b10"/></linearGradient><linearGradient id="linear-gradient-9" x1="3382.01" y1="64808.02" x2="4243.92" y2="64864.9" gradientTransform="matrix(0.05, 0, 0, -0.05, -135.39, 3465.58)" gradientUnits="userSpaceOnUse"><stop offset="0" stop-color="#95552d"/><stop offset="0.23" stop-color="#b96937"/><stop offset="1" stop-color="#a86234"/></linearGradient><linearGradient id="linear-gradient-10" x1="5585.15" y1="64736.43" x2="5572.02" y2="64867.69" gradientTransform="matrix(0.05, 0, 0, -0.05, -135.39, 3465.58)" gradientUnits="userSpaceOnUse"><stop offset="0" stop-color="#702f1b"/><stop offset="1" stop-color="#88471f"/></linearGradient><linearGradient id="linear-gradient-11" x1="5136.76" y1="64947.43" x2="4423.6" y2="64938.68" gradientTransform="matrix(0.05, 0, 0, -0.05, -135.39, 3465.58)" gradientUnits="userSpaceOnUse"><stop offset="0" stop-color="#71301b"/><stop offset="1" stop-color="#793f21"/></linearGradient><linearGradient id="linear-gradient-12" x1="381.93" y1="23088.22" x2="380.36" y2="23055.24" gradientTransform="matrix(0.16, 0, 0, -0.16, 10.36, 3926.02)" gradientUnits="userSpaceOnUse"><stop offset="0" stop-color="#d28636"/><stop offset="1" stop-color="#ffcf6e"/></linearGradient><linearGradient id="linear-gradient-13" x1="169.35" y1="23046.1" x2="378.24" y2="22994.27" gradientTransform="matrix(0.16, 0, 0, -0.16, 10.36, 3926.02)" gradientUnits="userSpaceOnUse"><stop offset="0" stop-color="#fbeb9a"/><stop offset="1" stop-color="#f9bf48"/></linearGradient><linearGradient id="linear-gradient-14" x1="474.03" y1="23119.92" x2="621.67" y2="23179.6" gradientTransform="matrix(0.16, 0, 0, -0.16, 10.53, 3944.09)" gradientUnits="userSpaceOnUse"><stop offset="0" stop-color="#fae39e"/><stop offset="0.74" stop-color="#f4e7a5"/><stop offset="1" stop-color="#98451a"/></linearGradient><linearGradient id="linear-gradient-15" x1="-2830.79" y1="23091.22" x2="-2826.77" y2="23051.53" gradientTransform="translate(-317.9 3926.02) rotate(180) scale(0.16)" gradientUnits="userSpaceOnUse"><stop offset="0" stop-color="#d28636"/><stop offset="0.41" stop-color="#eec04c"/><stop offset="1" stop-color="#ffd786"/></linearGradient><linearGradient id="linear-gradient-16" x1="-3081.43" y1="23048.83" x2="-2880.37" y2="22988.06" gradientTransform="translate(-317.9 3926.02) rotate(180) scale(0.16)" gradientUnits="userSpaceOnUse"><stop offset="0" stop-color="#fbeb9a"/><stop offset="1" stop-color="#f8b52c"/></linearGradient><linearGradient id="linear-gradient-17" x1="-2837.46" y1="23124.91" x2="-2591.51" y2="23195.77" gradientTransform="translate(-318.07 3944.09) rotate(180) scale(0.16)" gradientUnits="userSpaceOnUse"><stop offset="0" stop-color="#fae39e"/><stop offset="0.6" stop-color="#faf3d2"/><stop offset="1" stop-color="#f9e39f"/></linearGradient><linearGradient id="linear-gradient-18" x1="2284.09" y1="47794.89" x2="3405.72" y2="47800.38" gradientTransform="matrix(0.07, 0, 0, -0.07, -130.63, 3623.83)" gradientUnits="userSpaceOnUse"><stop offset="0" stop-color="#a9281d"/><stop offset="0.1" stop-color="#da3628"/><stop offset="0.2" stop-color="#de4639"/><stop offset="0.38" stop-color="#ffb2ab"/><stop offset="0.7" stop-color="#da3628"/><stop offset="0.79" stop-color="#681912"/><stop offset="0.96" stop-color="#cd1809"/><stop offset="1" stop-color="#da3628"/></linearGradient><linearGradient id="linear-gradient-19" x1="2905.88" y1="39996.03" x2="3094.94" y2="40031.48" gradientTransform="matrix(0.09, 0, 0, -0.09, -170.02, 3641.56)" gradientUnits="userSpaceOnUse"><stop offset="0" stop-color="#cc3225"/><stop offset="1" stop-color="#701911"/></linearGradient><linearGradient id="linear-gradient-20" x1="-1639.03" y1="47987.65" x2="-516.56" y2="47993.15" gradientTransform="matrix(0.07, 0.01, 0.01, -0.07, -120.83, 3625.77)" gradientUnits="userSpaceOnUse"><stop offset="0" stop-color="#a9281d"/><stop offset="0.06" stop-color="#da3628"/><stop offset="0.15" stop-color="#de4639"/><stop offset="0.29" stop-color="#ffb2ab"/><stop offset="0.58" stop-color="#da3628"/><stop offset="0.79" stop-color="#a4271c"/><stop offset="0.96" stop-color="#cd1809"/><stop offset="1" stop-color="#da3628"/></linearGradient><linearGradient id="linear-gradient-21" x1="-405.9" y1="40125.77" x2="-216.9" y2="40161.21" gradientTransform="matrix(0.09, 0.01, 0.01, -0.09, -160.85, 3639.85)" gradientUnits="userSpaceOnUse"><stop offset="0" stop-color="#cc3225"/><stop offset="1" stop-color="#a6261b"/></linearGradient><radialGradient id="radial-gradient-7" cx="-14255.95" cy="11812.21" r="84.77" gradientTransform="matrix(0.09, 0.16, 0.19, -0.1, -711.56, 3675.14)" gradientUnits="userSpaceOnUse"><stop offset="0" stop-color="#709724"/><stop offset="1" stop-color="#88b52b"/></radialGradient><radialGradient id="radial-gradient-8" cx="-25483.36" cy="5518.17" r="53.32" gradientTransform="matrix(0.03, 0.12, 0.41, -0.1, -1394.83, 3662.68)" gradientUnits="userSpaceOnUse"><stop offset="0" stop-color="#547019"/><stop offset="1" stop-color="#5f8223"/></radialGradient><linearGradient id="linear-gradient-22" x1="2020.49" y1="24173.48" x2="1990.56" y2="24065.89" gradientTransform="matrix(0.15, 0, 0, -0.15, -123.08, 3759.09)" gradientUnits="userSpaceOnUse"><stop offset="0" stop-color="#8bb437"/><stop offset="1" stop-color="#72932f"/></linearGradient><radialGradient id="radial-gradient-9" cx="12259.68" cy="32969.96" r="46.08" gradientTransform="matrix(0.14, -0.09, -0.05, -0.07, 24.42, 3605.09)" gradientUnits="userSpaceOnUse"><stop offset="0" stop-color="#2f3c0a"/><stop offset="1" stop-color="#4b6110"/></radialGradient><radialGradient id="radial-gradient-10" cx="38277.41" cy="10888.76" r="121.75" gradientTransform="matrix(0.04, -0.06, -0.15, -0.11, 351.27, 3713.07)" gradientUnits="userSpaceOnUse"><stop offset="0" stop-color="#6a8e28"/><stop offset="1" stop-color="#a3c847"/></radialGradient><radialGradient id="radial-gradient-11" cx="20232.5" cy="25070.15" r="113.21" gradientTransform="matrix(0.07, -0.05, -0.05, -0.1, 58.18, 3697.71)" gradientUnits="userSpaceOnUse"><stop offset="0" stop-color="#1b2207"/><stop offset="1" stop-color="#76a026"/></radialGradient><radialGradient id="radial-gradient-12" cx="27589.33" cy="7680.94" r="130.06" gradientTransform="matrix(0.03, -0.11, -0.12, -0.04, 235.96, 3463.58)" gradientUnits="userSpaceOnUse"><stop offset="0" stop-color="#010b01"/><stop offset="1" stop-color="#a0c741"/></radialGradient><linearGradient id="linear-gradient-23" x1="2579.62" y1="29702.49" x2="2633.88" y2="29710.14" gradientTransform="matrix(0.11, 0, 0, -0.12, -112.54, 3664.03)" gradientUnits="userSpaceOnUse"><stop offset="0" stop-color="#40600c"/><stop offset="1" stop-color="#a6ca42"/></linearGradient><linearGradient id="linear-gradient-24" x1="2530.97" y1="29808.14" x2="2528.19" y2="29836.65" gradientTransform="matrix(0.11, 0, 0, -0.12, -112.54, 3664.03)" gradientUnits="userSpaceOnUse"><stop offset="0" stop-color="#5b7c15"/><stop offset="1" stop-color="#a8d429"/></linearGradient><linearGradient id="linear-gradient-25" x1="2535.74" y1="29781.5" x2="2557.3" y2="29803.76" gradientTransform="matrix(0.11, 0, 0, -0.12, -112.54, 3664.03)" gradientUnits="userSpaceOnUse"><stop offset="0" stop-color="#010102"/><stop offset="1" stop-color="#3a480c"/></linearGradient><linearGradient id="linear-gradient-26" x1="2616.74" y1="29760.81" x2="2642.48" y2="29764.29" gradientTransform="matrix(0.11, 0, 0, -0.12, -112.54, 3664.03)" gradientUnits="userSpaceOnUse"><stop offset="0" stop-color="#0a1d00"/><stop offset="1" stop-color="#85b218"/></linearGradient><linearGradient id="linear-gradient-27" x1="2685.09" y1="29699.55" x2="2664.21" y2="29690.51" gradientTransform="matrix(0.11, 0, 0, -0.12, -112.54, 3664.03)" gradientUnits="userSpaceOnUse"><stop offset="0" stop-color="#2e4907"/><stop offset="1" stop-color="#223605"/></linearGradient><radialGradient id="radial-gradient-13" cx="3599.49" cy="39606.88" r="138.56" gradientTransform="matrix(0.12, -0.01, 0, -0.09, -96.34, 3645.29)" gradientUnits="userSpaceOnUse"><stop offset="0" stop-color="#000004"/><stop offset="0.74" stop-color="#77a429"/><stop offset="1" stop-color="#9ec337"/></radialGradient><linearGradient id="linear-gradient-28" x1="2394.84" y1="34011.73" x2="2427.52" y2="33866.3" gradientTransform="matrix(0.11, 0, 0, -0.11, -162.93, 3712.44)" gradientUnits="userSpaceOnUse"><stop offset="0" stop-color="#9bc635"/><stop offset="1" stop-color="#121701"/></linearGradient><linearGradient id="linear-gradient-29" x1="2343.86" y1="33918.65" x2="2366.79" y2="33969.97" gradientTransform="matrix(0.11, 0, 0, -0.11, -162.93, 3712.44)" gradientUnits="userSpaceOnUse"><stop offset="0" stop-color="#212a07"/><stop offset="1" stop-color="#9bc635"/></linearGradient><linearGradient id="linear-gradient-30" x1="792.97" y1="27114.65" x2="818.53" y2="27172.4" gradientTransform="matrix(0.13, 0, 0, -0.13, -72.24, 3715.45)" gradientUnits="userSpaceOnUse"><stop offset="0" stop-color="#76a212"/><stop offset="0.75" stop-color="#99c039"/><stop offset="1" stop-color="#cdd3ae"/></linearGradient><linearGradient id="linear-gradient-31" x1="902.07" y1="27072.81" x2="887.87" y2="27044.41" gradientTransform="matrix(0.13, 0, 0, -0.13, -72.24, 3715.45)" gradientUnits="userSpaceOnUse"><stop offset="0" stop-color="#5f8221"/><stop offset="1" stop-color="#99cb2b"/></linearGradient><linearGradient id="linear-gradient-32" x1="2687.97" y1="23555.35" x2="2662.39" y2="23570.21" gradientTransform="matrix(0.15, -0.02, -0.02, -0.15, -6.53, 3762.38)" gradientUnits="userSpaceOnUse"><stop offset="0" stop-color="#73a025"/><stop offset="1" stop-color="#8ab72b"/></linearGradient><linearGradient id="linear-gradient-33" x1="2654.03" y1="23624.2" x2="2630.1" y2="23576.35" gradientTransform="matrix(0.15, -0.02, -0.02, -0.15, -6.53, 3762.38)" gradientUnits="userSpaceOnUse"><stop offset="0" stop-color="#4e6714"/><stop offset="1" stop-color="#719c29"/></linearGradient><linearGradient id="linear-gradient-34" x1="2721.12" y1="23649.6" x2="2764.85" y2="23610.82" gradientTransform="matrix(0.15, -0.02, -0.02, -0.15, -7.04, 3762.27)" gradientUnits="userSpaceOnUse"><stop offset="0" stop-color="#acdb39"/><stop offset="1" stop-color="#8db532"/></linearGradient><linearGradient id="linear-gradient-35" x1="2799.77" y1="23621.71" x2="2724.67" y2="23559.82" gradientTransform="matrix(0.15, -0.02, -0.02, -0.15, -7.04, 3762.27)" gradientUnits="userSpaceOnUse"><stop offset="0" stop-color="#688f23"/><stop offset="1" stop-color="#8ab331"/></linearGradient><linearGradient id="linear-gradient-36" x1="2179.97" y1="33909.59" x2="2190.31" y2="33814.25" gradientTransform="matrix(0.11, 0, 0, -0.11, -162.93, 3712.44)" gradientUnits="userSpaceOnUse"><stop offset="0" stop-color="#8db532"/><stop offset="1" stop-color="#638721"/></linearGradient><linearGradient id="linear-gradient-37" x1="-4112.47" y1="44569.92" x2="-4139.97" y2="44404.89" gradientTransform="translate(-220.54 3484.5) rotate(180) scale(0.08)" gradientUnits="userSpaceOnUse"><stop offset="0" stop-color="#a9d04e"/><stop offset="1" stop-color="#dcec94"/></linearGradient><linearGradient id="linear-gradient-38" x1="-3956.65" y1="44518.45" x2="-3928.46" y2="44429.06" gradientTransform="translate(-220.54 3484.5) rotate(180) scale(0.08)" gradientUnits="userSpaceOnUse"><stop offset="0" stop-color="#dcec94"/><stop offset="1" stop-color="#a5c859"/></linearGradient><radialGradient id="radial-gradient-14" cx="-39278" cy="8327.27" r="77.23" gradientTransform="matrix(-0.02, 0.08, -0.11, -0.03, 91.78, 3514.2)" gradientUnits="userSpaceOnUse"><stop offset="0" stop-color="#2f3a06"/><stop offset="1" stop-color="#9ec73b"/></radialGradient><linearGradient id="linear-gradient-39" x1="-3995.26" y1="44478.08" x2="-3893.49" y2="44489.08" gradientTransform="translate(-220.54 3484.5) rotate(180) scale(0.08)" gradientUnits="userSpaceOnUse"><stop offset="0" stop-color="#50710e"/><stop offset="1" stop-color="#9bc64a"/></linearGradient><radialGradient id="radial-gradient-15" cx="13299.66" cy="1881.2" r="41.99" gradientTransform="matrix(0.02, -0.23, 0.14, 0.01, -510.74, 3187.52)" gradientUnits="userSpaceOnUse"><stop offset="0" stop-color="#1c1e01"/><stop offset="1" stop-color="#50710e"/></radialGradient><linearGradient id="linear-gradient-40" x1="-3459.56" y1="33028.32" x2="-3470.35" y2="33008.17" gradientTransform="matrix(0.1, 0.02, 0.02, -0.1, -158.68, 3626.02)" gradientUnits="userSpaceOnUse"><stop offset="0" stop-color="#84b131"/><stop offset="1" stop-color="#607c14"/></linearGradient><radialGradient id="radial-gradient-16" cx="-22455.02" cy="7829.6" r="72.41" gradientTransform="matrix(0.02, 0.14, 0.15, -0.02, -606.73, 3494.94)" gradientUnits="userSpaceOnUse"><stop offset="0" stop-color="#4b6512"/><stop offset="1" stop-color="#a3c54f"/></radialGradient><linearGradient id="linear-gradient-41" x1="-3519.88" y1="33036.18" x2="-3643.68" y2="33066.41" gradientTransform="matrix(0.1, 0.02, 0.02, -0.1, -158.68, 3626.02)" gradientUnits="userSpaceOnUse"><stop offset="0" stop-color="#759e28"/><stop offset="1" stop-color="#c1e86b"/></linearGradient><linearGradient id="linear-gradient-42" x1="-3598.56" y1="33065.51" x2="-3607.2" y2="33080.63" gradientTransform="matrix(0.1, 0.02, 0.02, -0.1, -158.68, 3626.02)" gradientUnits="userSpaceOnUse"><stop offset="0" stop-color="#537414"/><stop offset="1" stop-color="#aadc39"/></linearGradient><linearGradient id="linear-gradient-43" x1="-3424.94" y1="32941.23" x2="-3378.41" y2="32977.22" gradientTransform="matrix(0.1, 0.02, 0.02, -0.1, -158.68, 3626.02)" gradientUnits="userSpaceOnUse"><stop offset="0" stop-color="#131801"/><stop offset="0.75" stop-color="#313f05"/><stop offset="1" stop-color="#699327"/></linearGradient><linearGradient id="linear-gradient-44" x1="-3775.66" y1="32975.93" x2="-3760.22" y2="32966.54" gradientTransform="matrix(0.1, 0.02, 0.02, -0.1, -158.68, 3626.02)" gradientUnits="userSpaceOnUse"><stop offset="0" stop-color="#aed251"/><stop offset="1" stop-color="#8fb441"/></linearGradient><linearGradient id="linear-gradient-45" x1="-3719.76" y1="32976.71" x2="-3737.21" y2="32895.49" gradientTransform="matrix(0.1, 0.02, 0.02, -0.1, -158.68, 3626.02)" gradientUnits="userSpaceOnUse"><stop offset="0" stop-color="#131801"/><stop offset="0.25" stop-color="#313f05"/><stop offset="1" stop-color="#7bad2e"/></linearGradient><linearGradient id="linear-gradient-46" x1="-3714.76" y1="33030.6" x2="-3728.86" y2="32975.56" gradientTransform="matrix(0.1, 0.02, 0.02, -0.1, -158.68, 3626.02)" gradientUnits="userSpaceOnUse"><stop offset="0" stop-color="#000104"/><stop offset="1" stop-color="#161c00"/></linearGradient><radialGradient id="radial-gradient-17" cx="-29654.49" cy="9426.08" r="107.41" gradientTransform="matrix(0.03, 0.1, 0.19, -0.06, -720.37, 3604.67)" gradientUnits="userSpaceOnUse"><stop offset="0" stop-color="#000007"/><stop offset="1" stop-color="#4d6a1e"/></radialGradient><radialGradient id="radial-gradient-18" cx="-16435.7" cy="13936.86" r="78.08" gradientTransform="matrix(0.09, 0.13, 0.16, -0.11, -603.15, 3779.89)" gradientUnits="userSpaceOnUse"><stop offset="0" stop-color="#0a1006"/><stop offset="1" stop-color="#89bc3f"/></radialGradient><radialGradient id="radial-gradient-19" cx="9062.69" cy="46780.68" r="45.2" gradientTransform="matrix(0.12, -0.03, -0.02, -0.07, -29.55, 3565.05)" gradientUnits="userSpaceOnUse"><stop offset="0" stop-color="#6e961d"/><stop offset="1" stop-color="#3a4b05"/></radialGradient><radialGradient id="radial-gradient-20" cx="-4824.75" cy="12428.06" r="70.28" gradientTransform="matrix(0.17, 0.06, 0.11, -0.32, -384.52, 4388.43)" gradientUnits="userSpaceOnUse"><stop offset="0" stop-color="#42560f"/><stop offset="1" stop-color="#91c744"/></radialGradient><radialGradient id="radial-gradient-21" cx="20468.31" cy="2686.25" r="60.56" gradientTransform="matrix(0.01, -0.15, -0.19, -0.01, 443.87, 3322.37)" gradientUnits="userSpaceOnUse"><stop offset="0" stop-color="#050700"/><stop offset="1" stop-color="#60831c"/></radialGradient><radialGradient id="radial-gradient-22" cx="-41047.24" cy="8043.86" r="71.42" gradientTransform="matrix(0.01, 0.08, 0.17, -0.03, -677.94, 3513.28)" gradientUnits="userSpaceOnUse"><stop offset="0" stop-color="#020300"/><stop offset="0.75" stop-color="#506e1a"/><stop offset="1" stop-color="#7dae27"/></radialGradient><linearGradient id="linear-gradient-47" x1="2677.3" y1="33883.96" x2="2647.23" y2="33898.74" gradientTransform="matrix(0.11, 0, 0, -0.11, -162.93, 3712.44)" gradientUnits="userSpaceOnUse"><stop offset="0" stop-color="#6b921c"/><stop offset="1" stop-color="#212e11"/></linearGradient><linearGradient id="linear-gradient-48" x1="2434.37" y1="33908.53" x2="2391.47" y2="33956.39" gradientTransform="matrix(0.11, 0, 0, -0.11, -162.93, 3712.44)" gradientUnits="userSpaceOnUse"><stop offset="0" stop-color="#202906"/><stop offset="1" stop-color="#678321"/></linearGradient></defs><title>itacate</title><g class="cls-1"><g id="Capa_1" data-name="Capa 1"><rect class="cls-2" x="0.5" y="0.5" width="216" height="216" rx="20.85"/><path class="cls-3" d="M119.63,178.45c.06,7.28-24.23,13.38-54.26,13.63S11,186.63,10.9,179.35,35.13,166,65.15,165.73,119.57,171.17,119.63,178.45Z"/><path class="cls-4" d="M156.63,180.45c.06,7.28-24.23,13.38-54.26,13.63S48,188.63,47.9,181.35,72.13,168,102.15,167.73,156.57,173.17,156.63,180.45Z"/><path class="cls-5" d="M194.63,178.45c.06,7.28-24.23,13.38-54.26,13.63S86,186.63,85.9,179.35s24.23-13.38,54.25-13.62S194.57,171.17,194.63,178.45Z"/><g id="g6491"><g id="g4395"><path id="path13426-4" class="cls-6" d="M106.08,70.64C56,71.52,44.17,86.36,37,97.34c-1.24,1.9-3.34,8.59-1.31,13.65,66.67.5,101.1-.62,145.3,0,0,0,1.93-8.34-2.87-15.18-8.36-11.95-25.54-26-72-25.21Z"/><g id="g4296"><path id="path17506" class="cls-7" d="M87,102.41l-.06.22-.48,1c.14,1-.37-.75.09.64.66.39.24.26,1.32,0s.67-.14,1.52-.35c1.17-.68.66-.26,1.54-1.23,1.1-2.9-2.58-3-3.38-1.19A4,4,0,0,0,87,102.41Z"/><path id="path17508" class="cls-8" d="M94,107c-1.52-1.32-2.15.73-2,2,.18.92,0,.33.61,1.71.38.37.2.19.55.55a1.81,1.81,0,0,1,.22.32c.48,0,.55-.47.58-.58l.55-.68A3,3,0,0,0,94,107Z"/><path id="path17510" class="cls-9" d="M96.15,108.47c-.29.18-.26.21-.36.57.12.51,0,.37.47.41a2.82,2.82,0,0,1,1,.21,3.41,3.41,0,0,0,3.77-1c-.35-2.86-3.42-1.6-4.57-.44C96.37,108.31,96.25,108.37,96.15,108.47Z"/><path id="path17512" class="cls-10" d="M96.77,91.24c-1.06-.5-1.71.34-1.16,1.07a3.74,3.74,0,0,0,.15,1.57,2.53,2.53,0,0,0,2.43,1,1.5,1.5,0,0,0,.89-1.37c.07-.7-.69-1.4-1-1.6-.73-.36-.37-.25-1-.38Z"/><path id="path17514" class="cls-7" d="M106.62,98.54c-.33-.92-1.39-1.38-1.81-.42a3.18,3.18,0,0,1-.33.92c-.45.91-.09,1.67.09,2.58a2,2,0,0,0,1.63,1.84c.43.08.68-.14,1-.33a2.2,2.2,0,0,0,.47-1.87,4.31,4.31,0,0,0-1.09-2.72Z"/><path id="path17536" class="cls-11" d="M78.77,88.36c-.12.27-.27.3-.51.45a3.9,3.9,0,0,0-2.1,2c0,.47,0,.43.23.81a3.24,3.24,0,0,0,2.85-1.34c.39-1,.29-.51.39-1.27C79.9,88.05,79.48,87.92,78.77,88.36Z"/><path id="path17538" class="cls-12" d="M80.25,86.17c-.34.24-.36.23-.77.15L79,86.11c-.74-.24-1.32-.52-1.48-1.28,0-1.1.93-1,1.78-1.06s2,.83,1.3,1.72C80.65,85.94,80.65,86,80.25,86.17Z"/><path id="path17540" class="cls-11" d="M85.17,79c-1.28,0-2.08.93-1.6,2a1.76,1.76,0,0,0,1.66.59,3.76,3.76,0,0,0,1.19-.24h.92c.45-.27.22-.6.06-1A1.68,1.68,0,0,0,85.17,79Z"/><path id="path17542" class="cls-13" d="M88.2,80.86c-.45-.35.1-.42.5-.59a4.32,4.32,0,0,1,2.7-.69c.67-.06.58,0,1,.33-.23.52-.55.55-1,.77a16.67,16.67,0,0,1-1.87.18,4.36,4.36,0,0,1-.8-.09C88.48,80.92,88.42,80.88,88.2,80.86Z"/><path id="path17576" class="cls-14" d="M113.25,97c-2.21-.33-2.75,1.8-2.35,3.55a1.58,1.58,0,0,0,.32.74,6.7,6.7,0,0,0,.07,1c.6.27.28.23,1,.07.62-.48.45-.24.68-.62a3.27,3.27,0,0,0,1.7-3.5c-.16-.73-.81-1-1.4-1.22Z"/><path id="path17578" class="cls-15" d="M113.37,91.77a1.87,1.87,0,0,0-2.68-1.58c-1.07,1-.06,2.25.62,3.11l.94.69c.21.91,1.36.27,1-.33A8.15,8.15,0,0,0,113.37,91.77Z"/><path id="path17602" class="cls-16" d="M132.29,99.69c-1.36.35-1.71,1.37-2,2.48-.49.41-.74,1.3-.09,1.68.53,0,.17,0,1-.38a4.92,4.92,0,0,0,2-.62,2.09,2.09,0,0,0,.81-1.91A1.41,1.41,0,0,0,132.29,99.69Z"/><path id="path17604" class="cls-17" d="M146.74,98.59c-1.54-.13-2.08,1.3-2,2.56l.13.78v.56l.17.7c.41.56,1.06,0,1.34-.46a2.71,2.71,0,0,0,1.51-1.94c0-.85-.26-1.94-1.15-2.2Z"/><path id="path4162" class="cls-18" d="M148.24,102.49a11.67,11.67,0,0,0-.7,1c.1.83.54,1,1.33.9.47,0,.91,0,1.36,0a3.62,3.62,0,0,0,1.83-1c1.18-2.16-1.29-3.42-2.92-2.19A4.24,4.24,0,0,0,148.24,102.49Z"/><path id="path4164" class="cls-19" d="M164.33,100.5c-.53-.84-1.4-1.69-2.59-1.16-1.06,1-.42,2.34.53,3,.44.51,1.15.47,1.83.47a3.5,3.5,0,0,1,.66.1c.48-.19.52-.67.43-1.1-.42-.35-.52-.89-.86-1.36Z"/><path id="path4166" class="cls-20" d="M160,93.61c-.2.59-.65.61-1.23.73a1.45,1.45,0,0,1-.76.33c-.59,0-.77-.31-.77-.83-.3-1.72.21-2.42,2-2.37A1.34,1.34,0,0,1,160,93.61Z"/><path id="path4168" class="cls-11" d="M158.62,89.53c-.16.45,0,.55.3.76a2.28,2.28,0,0,0,.8-.13,3.12,3.12,0,0,0,1.66,0,1.26,1.26,0,0,0,1-1.16c0-1.54-2.35-1.94-3.18-.83C158.69,88.45,158.68,89,158.62,89.53Z"/><path id="path4170" class="cls-21" d="M164.36,85.84c0,.58.38.62.76.83-1.17,1.43,0,2.65,1.53,3,.89.18,1.21-.38,1.43-1.1.26.24.42.16.73.07.25-.6-.17-.92-.6-1.16a3.34,3.34,0,0,1-.3-1.1c-.21-.42-.59-.35-.93-.3a2.27,2.27,0,0,0-2.62-.2Z"/><path id="path4172" class="cls-22" d="M60.75,99.81c1.55-.3,1.74.37,1.74,1.8a4.46,4.46,0,0,1-.69,2.46c0,.4-.24.47-.48.61a3.43,3.43,0,0,1-.55-.52c-.23-.46-.59-.78-.85-1.26C59.46,101.9,59.43,99.81,60.75,99.81Z"/><path id="path4174" class="cls-23" d="M68.79,94.23c-.18.07-.3,0-.43-.08-.7-1-3.16-1.31-3.92-.29-1.43,1.4,1,2.41,2,2.69.83.12,1.16-.36,1.8-.74C69.1,95.56,69.75,94.66,68.79,94.23Z"/><path id="path4176" class="cls-24" d="M67.5,90.68c.57.33.25.64-.09,1-.89.78-3.4.87-3.75-.4s1.21-1.22,2.18-1.32a1.79,1.79,0,0,1-.26-2.15,1,1,0,0,1,1.26,0c1,.49,2.32.84,2.66,2C69.5,90.66,68.23,90.68,67.5,90.68Z"/><path id="path4178-1" class="cls-25" d="M69.87,84a.76.76,0,0,0-.85.48c-.72.34-1.87.91-1.66,1.92a1.68,1.68,0,0,0,2.43.17,3.36,3.36,0,0,0,.83-1.71C70.45,84.46,70.31,84.15,69.87,84Z"/><path id="path4180" class="cls-11" d="M59.57,81.76c-.37-.09-.62-.16-1-.23-.41.26-.64.5-.54,1-.62,1.78,1,3.17,2.57,1.83C61.52,83.2,60.57,82.2,59.57,81.76Z"/><path id="path4182" class="cls-26" d="M62.61,80.84c-2,.61-.43,2,1,1.6A5,5,0,0,0,65,81.9a.69.69,0,0,0,.09-.63c-.2-.22-.38-.2-.66-.2A7.11,7.11,0,0,0,62.61,80.84Z"/><path id="path4184" class="cls-27" d="M64.52,79.38c-.87,1.85,1.39.55,2,.43,1-.49,1.12-1.1,1.51-1.4s-.1-.4-.63-.4C66.41,78.5,65.29,78.62,64.52,79.38Z"/><path id="path4186" class="cls-28" d="M58.4,86.53c-2.54-.81-4,3.16-.69,2.55.8.08,1,.12,1.18-.66S59.23,86.9,58.4,86.53Z"/><path id="path4188" class="cls-23" d="M127.31,91c1.05-3.86-3.59-3.36-2.71-1.38.21.66.81.85,1.26,1.18C125.83,91.46,127.39,91.79,127.31,91Z"/><path id="path4190" class="cls-29" d="M123.8,78.38c-1.57-.08-1.39.69-.2,1.17a5.19,5.19,0,0,0,4.52.81C129.35,78.48,124.83,78.48,123.8,78.38Z"/><path id="path4192" class="cls-30" d="M125.63,76.12c-.67,1.21,2.16,1.16,2.64.67.29-.6-.22-.85-.68-1a1.05,1.05,0,0,0-1.33-.06A3.63,3.63,0,0,0,125.63,76.12Z"/><path id="path4194" class="cls-30" d="M131.25,79.1c-.64-.85-2.54-1.29-2.68.09s1.45,1.56,2.37,1.65c.34.07.93,0,.93-.4a1.27,1.27,0,0,0-.62-1.34Z"/><path id="path4196" class="cls-31" d="M128,73c-1.31,0-.34.83.29,1.08a11.68,11.68,0,0,0,2.5.43c.32,0,.43-.09.5-.33a2,2,0,0,0-1.43-.78C129.28,73.25,128.68,73.1,128,73Z"/><path id="path4198" class="cls-11" d="M97.43,85c-1.31-2.27-4.7.51-1.62,1.88.55.52,1,.72,1.36,0A3,3,0,0,0,97.43,85Z"/><path id="path4200" class="cls-32" d="M110.62,82.75c-1.26-1-2.34-1.48-3.87-.87-1.63,1.55,2.07,1.77,3.12,1.77C110.94,84.38,112,83.34,110.62,82.75Z"/><path id="path4210" class="cls-11" d="M111.46,83.13c.27.53.86.49,1.33.23a5.17,5.17,0,0,0,2.46-1c.77-2.34-3.7-2-3.7-.08A7.51,7.51,0,0,0,111.46,83.13Z"/><path id="path4212" class="cls-33" d="M110.39,76.93c-.83.23-1.58,1.2-.55,1.65.4.53.67.38,1.13,0,.79-.13,1.2-.52,1.13-1.3A1.2,1.2,0,0,0,110.39,76.93Z"/><path id="path4214" class="cls-34" d="M106.25,74.39c-1.45-.23-2.85.67-1.12,1.53.26.46.71.8,1.07.32C107.52,75.77,107.64,74.8,106.25,74.39Z"/><path id="path4216" class="cls-35" d="M111.87,74.88a3.65,3.65,0,0,0-2.55.55c.21.67,1,.6,1.68.72.81.27,2.68.57,3-.43C114,75,112.49,74.94,111.87,74.88Z"/><path id="path4218" class="cls-36" d="M115.31,74.42c-2.45.16-.76,1.08.81,1.24a4.2,4.2,0,0,0,2.66-.32c-.5-.51-1.38-.52-2.08-.66.8-.11,1.8.2,2.52-.12a1.25,1.25,0,0,0,.11-.75c-.55-1.54-2.94-1.23-4.4-1.1a3.9,3.9,0,0,0-2.25-.14c-.38-.39-1.2-.2-1.74-.09-.51,0-.93-.12-1.45-.12.48-1.22-1.42-1.07-2.34-1.07-1.43,1.1.61,1.07,1.56,1.07-1.68,1.25.53,2.08,2,1.51.55.62,2.09.26,3,.26a.86.86,0,0,0,.46-.09A6.29,6.29,0,0,1,115.31,74.42Z"/><path id="path4220" class="cls-37" d="M101.65,71.06c-.4-1.42,2.27-1.14,3-.52a5.7,5.7,0,0,1,2.32.35,2.39,2.39,0,0,1-.87.37h-3A3.78,3.78,0,0,1,101.65,71.06Z"/><path id="path4222" class="cls-38" d="M98.07,75c-.09-2.08,2.93-.63,3.7,0,0,.31-.17.37-.41.49a15.3,15.3,0,0,1-2.72-.15,1.85,1.85,0,0,1-1.44.52c-.52,0-3.26-.52-2.37-1.18C95.9,73.81,97.22,75.37,98.07,75Z"/><path id="path4228" class="cls-39" d="M91.85,74.71c-.07.64,1.06.22,1.53.08a8.27,8.27,0,0,0,1.45-.26C96.88,72.41,92.57,74.16,91.85,74.71Z"/><path id="path4230" class="cls-40" d="M95,72.07c-.79.51-2.31.49-2.69,1.36.57.36,1.12-.05,1.68-.2,1,.6,5-1.19,3.41-1.5a2.62,2.62,0,0,0,1.85-.52c-.54-.59-1.91-.38-2.72-.29-1.07-.92-2.64-.15-3.7.17-.73-1.12-2.44-.39-3.3.09a4.94,4.94,0,0,0-1.88.6,1.8,1.8,0,0,0,1.21.15c-1.32,1.14,1.92.86,2.58.66a1,1,0,0,0,0-.89,3.16,3.16,0,0,0,1.3,0,8.11,8.11,0,0,0,2,0C94.81,71.9,94.91,71.94,95,72.07Z"/><path id="path4232" class="cls-34" d="M87.68,75c.42-.15.9-.08,1.33-.21,2.32.47.22,1.65-1.24,1.65-.53.81-2.09,1.61-2.81.78-.1-1.27.75-1.66,1.65-2.11C87,74.75,87.43,74.36,87.68,75Z"/><path id="path4234" class="cls-41" d="M77,76.1c-1-.55-2.61,1.25-1.47,1.7.5,1.71,2.51,1.49,3.24.18a1.78,1.78,0,0,0-.23-1.1c.07-.88-.45-1-1.22-1a4.68,4.68,0,0,0,2.49-1.39.91.91,0,0,0,.58.12c-.2,1,2.29,1,2.89.52.4-.17.3-.52.18-.84a7.66,7.66,0,0,0,1.38-.26c-.11,1.27,2.06.45,2.55.12s.75-1.1-.2-1.1a1.24,1.24,0,0,0-1.62.08,4.34,4.34,0,0,0-1.8.29,1.52,1.52,0,0,0-1,0c-.09-.23-.26-.3-.4-.4a17.25,17.25,0,0,0-2.38.46.8.8,0,0,1-.55-.14,2.23,2.23,0,0,0-2.14.81.62.62,0,0,0,.23.66C76.73,74.82,76.32,75.66,77,76.1Z"/><path id="path4236" class="cls-34" d="M73.41,77c.73-.19.71.28.5.75a2.17,2.17,0,0,1-2.35,2.09c-.27-.37-.09-.66,0-1C72.11,78,72.39,77.18,73.41,77Z"/><path id="path4238" class="cls-42" d="M73,80.26a1.58,1.58,0,0,0-1.62.9c0,1.19.69,1.66,1.77,1.76.87-.07,1.24-.89,1.56-1.53C74.69,80.44,73.71,80.34,73,80.26Z"/><path id="path4240" class="cls-43" d="M75.76,74.16c-2.81-.59-4.22,1.77-.35,1.39.39-.18.74-.38,1.13-.55.57-.23.65-.7.06-.76A8.3,8.3,0,0,1,75.76,74.16Z"/><path id="path4242" class="cls-44" d="M39.53,100.8c.54.2.43.63.29,1.1,0,1.46-.16,3.38-1.72,3.69-1.24-.94.17-3.08.81-3.93A4.37,4.37,0,0,1,39.53,100.8Z"/><path id="path4244" class="cls-45" d="M39.1,94.9c3.08-1.33,1.75,2.56-.33,3C36.91,97.36,37.26,95.27,39.1,94.9Z"/><path id="path4246" class="cls-14" d="M44.61,91.4c-.48-2.18-2.18,1.27-2.49,2.3a1.24,1.24,0,0,0,.05,1,3.27,3.27,0,0,0,2.4-.77C45.81,92.91,46.82,91.4,44.61,91.4Z"/><path id="path4248" class="cls-11" d="M49.6,90.59c-1,.37-1.45,1.27-2.06,2.06-.22.31-.4.48-.58.72,0,.3.22.28.34.43.61.09,1.22-.36,1.82-.58C51.92,93.41,51.81,88.93,49.6,90.59Z"/><path id="path4250" class="cls-46" d="M47.78,94.09c1.23-.48,1.55-.12,1.77,1,.49.52.43,1-.38,1C47.6,98.08,45.89,94.6,47.78,94.09Z"/><path id="path4252" class="cls-47" d="M46.24,94.66c-5.79.11-1.45,5.5-.19,1.3C46.42,95.37,46.7,95.26,46.24,94.66Z"/><path id="path4254" class="cls-48" d="M52,88.77c0-.61.36-.63.91-.58,1.51-.27,2.59.23,2.15,1.68a1.94,1.94,0,0,1-2.39.62C51.84,90,51.58,89.59,52,88.77Z"/><path id="path4256" class="cls-49" d="M55.45,82c.5.87,1.14.22,1.63-.15C59.72,79.72,54.67,79.17,55.45,82Z"/><path id="path4258" class="cls-49" d="M56,82.92c.52,1.83,0,3.75-1.63,4.46a1.85,1.85,0,0,1-1.15-.44c-1.48.43-1.51-.77-1.19-1.82-1.18-1,.62-1.73,1.43-2.06a1.28,1.28,0,0,1,1.92-.52C55.66,82.62,55.67,82.72,56,82.92Z"/><path id="path4260" class="cls-34" d="M143.19,86.68c.7,1,2,.21,2.88-.07-.22,1.86,1.35,2,2.64,1.61.54-1.23-.32-1.79-1.09-2.38C148,83.09,143.77,84.71,143.19,86.68Z"/><path id="path4262" class="cls-9" d="M144.92,80.39c-.87-.08-.71.07-.77.64-.1,2,1.39,2.41,2.95,2.57C149.08,82,145.68,81.15,144.92,80.39Z"/><path id="path4264" class="cls-50" d="M145.75,78c.59,1.35,2.82,1.75,4.31,1.61.1-.23,0-.24-.07-.39-1-.9-2.76-2-4.24-1.22Z"/><path id="path4266" class="cls-51" d="M138.79,80.21c-2.15.21-.11,1.4.43,1.81.29.35,1.34,1.11,1.57.33C142.36,80.85,140,80.33,138.79,80.21Z"/><path id="path4268" class="cls-52" d="M138.67,78.61c-1.26-.24-2.07,1.11-.4,1.27,1.06.2,2.68.53,3.46-.35,0-.33-.36-.43-.51-.64,0-.18.23-.31.18-.53-.19-.74-3.3-1.06-4.08-1.06-1.19.67.85,1.2,1.41,1.31Z"/><path id="path4270" class="cls-32" d="M135.48,75.18c-1.86-.64-2.71,2.18-.59,2.18.47.33.75.42,1-.11C136.67,76.58,136.81,75.18,135.48,75.18Z"/><path id="path4272" class="cls-53" d="M121,71.62c-1.52-.47-1.83.93-.47,1.48,1.11.28,2.1.41,2.59-.48a3.1,3.1,0,0,1,1.54.16,2,2,0,0,0,1.21-.32C125.44,71.13,120.52,69,121,71.62Z"/><path id="path4274" class="cls-26" d="M127.85,71.29c-.61,0-1.22.06-1.78.06.85,1.29,3.08,1.31,4.39,1a1.56,1.56,0,0,0,.22.68,5.65,5.65,0,0,0,2.75.16c-1.66,1.66,1.7,1.22,2.8,1.22.23-.14.51-.27.69-.37a5.49,5.49,0,0,0,3.23.69c-.11,1.26,1.13,1.13,1.91.9a1.85,1.85,0,0,0,2.17,0c-.09-.94-1.06-1.17-2-1.17-.94-1.71-2.85-1.59-4.87-1.59-.68-1.15-2.08-.77-3.34-.9a4.29,4.29,0,0,0-3.44,0A4.38,4.38,0,0,0,127.85,71.29ZM135,72.64a2.56,2.56,0,0,1,1.28.25,1.77,1.77,0,0,1,.1.84c-.55-.16-1.06-.4-1.69-.63,0-.14.41-.39-.16-.42Z"/><path id="path4279" class="cls-54" d="M68.71,77.08c1.62-2.2-.75-1.59-1.9-1.24C65.19,76,63.59,76,62.35,77a6,6,0,0,0-1.13-.12c-.31.66-1.13.85-1.77,1.21a2.22,2.22,0,0,0-1.52.56,1.86,1.86,0,0,0-.49.69c-1.95-.26-4.69-.83-5.11,1.63-1.35-.21-1.56.54-2,1.46a5.06,5.06,0,0,0,3.34-1.32,13.58,13.58,0,0,0,1.45,0,8.93,8.93,0,0,0,1.37-1.17c.38-.08.86-.15,1.2-.24a13.22,13.22,0,0,0,3.22-1.21,6.09,6.09,0,0,0,1.65-.88,8,8,0,0,0,3.3-1C64.67,77.93,67.92,77.2,68.71,77.08Z"/></g><path id="path4365" class="cls-55" d="M125.33,110.25c3.79.39,3.61-3,5.07-5.17.23,1.28.35,2.65.5,3.88.81,0,.65-.42.89-1.09a1.92,1.92,0,0,0,1.29-1.79v2.28c.62,2.24,3.58,1.29,5.56,1.29a6.88,6.88,0,0,0,3.08-2.18v2c4.18.28,8.79-.08,10.73-3.58.51,1.28-.15,2-.59,3.08h2.68a4.3,4.3,0,0,0,1.59-1.09v1.68c1.7-1.61,1.79-3.25,1.79-5.36a3.22,3.22,0,0,1-.3-1.39c1.08,2,.8,4.16.8,6.36.35.53.77.19,1.19.3.92-.67,1-1.82,1.29-2.59v-1.09a18.75,18.75,0,0,1,.2,3.08c.38.72.51.52,1.29.6a4.42,4.42,0,0,1,2.38-.6c.32-.93.85-1.71,1.2-2.58a7.91,7.91,0,0,1-.2,2.68c2.16-1.15,3.24-2.44,3.48-4.77.59,1.3.39,2.9.39,4.37.72.16,1.09-.39,1.59-.79v1a3.58,3.58,0,0,0,2.29-1.29v1c2.37-.89,3.38-2.71,3.38-5.36a7.48,7.48,0,0,1,0,4.77c0,.33.26.53.39.79,2.55-.78,3.33-5.2,3.08-8,.35,2.59,2.44,8.2.3,10.33a9.09,9.09,0,0,1-1.79.2c-.6-.44-.66-.24-1.09-.39a12.35,12.35,0,0,0-2.29.1c-1.52.76-3.25.16-4.86,0h-3.28a16,16,0,0,1-4.67.49,11.49,11.49,0,0,0-5-.79,39.63,39.63,0,0,0-5,.79,24.67,24.67,0,0,0-5.46-.69,37.57,37.57,0,0,1-4-.1c-2.15.06-4.29.1-6.45.1-3,.77-9.5,1.53-11.53-.5Z"/><path id="path4375" class="cls-56" d="M41.42,107.57c-.59.82.6,1,.8,1.28a12.16,12.16,0,0,1,2.24-6.4,8.57,8.57,0,0,0-.64,4.32,18.46,18.46,0,0,0,1.6-3.84,11.51,11.51,0,0,0-.16,6.72c1.07-.23.56-.94,1-1.6-.35-2.94.87-4.83,1.76-7a45.23,45.23,0,0,0-.32,5c-.85,1.58-.35,2,.16,3.2h1.43v-1.76c.17-3.1,1.37-5.61,2.24-8-.81,2.18-.86,4.61-1.28,6.71a7.5,7.5,0,0,0,1,1.12c.21-.52.44-1,.64-1.44a4,4,0,0,0,.48,2.4c1.28-.36,1-1.2,1-2.56a9.31,9.31,0,0,1,1,2.88c1.32-2.12,2.93-1.25,3-1.28-.13.63.49,1.1.63,1.44.92-.38,1.17-1.31,1.6-2.08-.47.83.41,1.77.48,2.08a6,6,0,0,1,1.6-1.28c1.31-.28.45.67.64,1,1.77.1,3.13-.32,4.79-.32.66,1.46,1.62,1.45,3,1.6a6.81,6.81,0,0,1,4.8.63h2.71c-1.36.76-2.66.32-4.15.32-2.31,2.1-6,.56-8.79.32H60.12c-1.24.16-2.67.22-3.83.32a10.3,10.3,0,0,1-4.8-.32,14.11,14.11,0,0,1-5.59,1c-1.16.26-2.44-.41-3.2-.64H39a9.11,9.11,0,0,1-2.88-.16,32.36,32.36,0,0,1-.48-5.59c-.26,2.21,1.28,3.2,2.4,4.47a15.49,15.49,0,0,1,2.23-6.39c-.88,2.62-.89,4.78.32,6.39a4.25,4.25,0,0,0,.8-2.39Z"/><path id="path4385" class="cls-57" d="M96.71,110.25a11.7,11.7,0,0,0,3.72.18A13.56,13.56,0,0,1,102,105.5a6.76,6.76,0,0,0,.44,3.72,24.45,24.45,0,0,1,2.07-5.1,17.75,17.75,0,0,0,1,4.06,2.53,2.53,0,0,0,.17,1.3c.65.16,1-.19,1.3-.35,1.52-1.73.8-4.11,1.38-6-.07,2.15.86,3.54.86,5.45.72,0,.94-.11,1.47-.18.44.22.74.4,1.13.61a9.17,9.17,0,0,0,.86-4.84c1.1,1.28.42,3.14,1.12,4.41.84.08,1.08-.47,1.56-1,.15.57.53.82.78,1.21a7.68,7.68,0,0,0,1.9-1,3.59,3.59,0,0,1,.43.69,34.57,34.57,0,0,1,4.66.77c.84.84,1.77.77,2.77,1-4,1-7.56.52-11.58.52a33.39,33.39,0,0,1-5.1,0,20.82,20.82,0,0,1-4.4.18c-1.06-.09-2.13-.09-3.2-.09-1.2.54-7.1-.15-4.84-.61Z"/></g><g id="g5456"><g id="g4517"><path id="path13455-9" class="cls-58" d="M110.05,182.33C70,183.72,49.85,180.46,41,179.19c-10.68-1.52-8.16-22.62-3.13-24,55.2.36,90.37.27,142.65-.19,2.87,1.73,7.49,19.6-7,22.77C162.48,180.14,143.68,181.17,110.05,182.33Z"/><path id="path4467" class="cls-59" d="M40.83,157a15.92,15.92,0,0,1,1.84-1.37c.72.27,1.11,1.29,1.38,1.6,1.11-.52,1.57-.85,2.53-1.37.75-.31,1.7.17,2.3.23.57-.43,1.23-.16,1.84-.23-.81.55-.31,1.38-.46,2.06.62-.5,1.3-1.14,1.84-1.6l1.15.46c1-.23,1.36-.91,2.07-1.38a5.82,5.82,0,0,1,2.06.69c.84-.8,1.84-.31,2.76-.46,1-.51,1.15.65,1.61.92a31.7,31.7,0,0,0,3.91-.23c.61-1,1.71.42,1.84.46,1.69.92,3.29.12,4.82-.23a8.48,8.48,0,0,1,4.14,1.14H73c-1.63,2.58-3.45,1.26-5.51.69-3.53-.65-2.41,2.09-5.75.23A16.35,16.35,0,0,1,58.3,158c-2.78-.53-1.36,1.23-2.29,2.07-1.15.79-.9-.29-1.38-.46-.29,2.14-1.08,1.21-1.84,2.07-1.26.08-1.29-1.28-1.84-1.84-2.19-.06-2.44,1-3.45,2.3-1.06-.69-.94-2-1.38-3-1.17-.51-1.75.64-2.53.92-1,1.19-1.48-.33-2.07-.46-1.05.73-1.78,1.34-2.75,2.07-1.64-.53-.59-1.62-.92-2.53-1.65,1-1.44,1.74-1.61,3.45-1.6-3.18.19-5,1.84-6.89C38.66,157.13,39.82,156.53,40.83,157Z"/><path id="path4477" class="cls-60" d="M98.3,158.18a7.73,7.73,0,0,1-1.38-.69c-1.22.67-1.46-.84-2.53,1.38A15,15,0,0,0,93,157.49c-.31.27-3.4-1.91-1.38,1.15-.76-.68-.89-1.92-2.3-2.06-.69.68-1.38,1.37-2.06,2.06-.3-.24-.25-1.43-1.15-.92-.53.6-.61,1.46-1.61,1.84-.33-.74-1-1.05-.92-2.07-.33.58-.51.83-.92,1.61-.46-1-.16-2.37-1.38-3a12.23,12.23,0,0,1-2.3,2.06l-1.15-.69c-.65.56-.4,1.19-1.61,1.38-.35-.47-.34-1.54-1.38-1.84l-2.07,1.38a14.28,14.28,0,0,1-1.6.92l-.92-.92c-.6.23-1,1.19-1.84.69a17.72,17.72,0,0,1-4.37.23H62.21c.52,1.8,1.61.88,2.53,1.38H68c1.22-.13,1.74.83,2.53,1.61a17.29,17.29,0,0,0,4.36-1.38,8.59,8.59,0,0,0,6,.69,6.93,6.93,0,0,0,3-.92c.64,1.42,1.37,1.07,2.07,1.61,1,0,1.5-.75,2.29-1.15,1.3.19,2.21.44,3.45.69,1,0,1.79-.81,2.53-1.15a8.38,8.38,0,0,1,3.22,1.15,26,26,0,0,0,3.91-.69c1.12.06,1.62,1.14,2.3,1.61a19.4,19.4,0,0,1,5.74-2.3c.61.62,1.23,1.23,1.84,1.84.32-2.33,1.33-1,2.07-1.61a19.6,19.6,0,0,0,6.66,1.38c0-1-.62-1.4-.91-2.07h-1.61c-1.08.24-1.92-.87-2.53-1.15-1.16-.15-1.32.4-2.3.69-1.49.07-2.81-1-3.91-1.61-1.41.59-2.26,1.67-3.45,2.53.43-.75-.41-1.85-.46-2.07-1.87-.44-.49,1-.69,1.38-1.12.29-1.28-1-1.83-1.38-1.16,0-1.39,1.08-2.07,1.61A12.31,12.31,0,0,1,98.3,158.18Z"/><path id="path4491" class="cls-61" d="M108.18,157.49a16.2,16.2,0,0,0,3.91-1.14l1.15,1.14c-.56-2.49.92-.76,1.38-1.14,1.57-.07,1.83,1,3,1.6.57,0,.77-.61,1.15-.92,1.06,0,2.13.81,3,1.38a6.2,6.2,0,0,0,2.2-.81c.48-.1.86.19,1.28.28-.33-.93.78-.66,1-.85a7.6,7.6,0,0,1,2.43.28h2.56a10.5,10.5,0,0,0,.86,1.71,8.58,8.58,0,0,0,2.85-1l1.72.15c.59-.16,1-.67,1.42-1a6.39,6.39,0,0,1,3.28.57,24.15,24.15,0,0,1,5.57-.14,10.21,10.21,0,0,0,8.41,0,6.73,6.73,0,0,0,1,1.42,15.44,15.44,0,0,0-3.42.15,13.35,13.35,0,0,1-5.57.71c-.55.15-.57-.38-.85-.57-.62-.06-1.33,1-1.71,1.28a5.57,5.57,0,0,1-2.43-.57c-1,.08-1.84.9-2.71,1.43a4.8,4.8,0,0,1-2.14-1.14,11.45,11.45,0,0,0-.57,2c-1.11.11-2-.57-3-1-1,.11-1,1.06-1.43,1.57-.91-.32-1.59-.91-2.43-1.28-1.35.24-2.63.88-3.85,1.14-.93,0-1.23-1-1.71-1.43.43-.16-1.76-1.15-3.28.72a11.69,11.69,0,0,1-1.71-2.28A11.66,11.66,0,0,0,115,159c-.34,1.13-.9.36-1.42.57-.43-1-1.62-1-2.29-1.42A14.63,14.63,0,0,1,108.18,157.49Z"/><path id="path4505" class="cls-62" d="M43.84,174.82c4.81,2.35,9.2,2.43,14.28,2.43,2.68,2.76,5.63,2.77,9.16,3a47.15,47.15,0,0,1,8.08-1.34c1.25,1.07,2.81,1.2,4.31,1.61.8-.5,2-1.16,2.7-1.61,1.14,0,1,1.57,1.34,2.15,1.79-.49,3.59-.18,5.39-.27,4-.16,4.13-.65,6.47-2.69,2,.47,3.69,1.88,5.39,3,3.16-.24,6.36-.61,9.43-1.08a50.16,50.16,0,0,1,8.62-.27c5.22.75,10.43-.1,15.63-.54,3.59.28,7.18.27,10.78.27A127.23,127.23,0,0,0,160,177c1.08.92,2.31.36,3.5.54a23.88,23.88,0,0,1-6.74,2.15,25.7,25.7,0,0,0-6.73,0c-2.51.46-5,.83-7.55,1.08h-6.19a55.08,55.08,0,0,0-11,.54l-8.89,1.08H109c-2.47.88-5.26-.18-7.81,0s-5.07-.44-7.55-.81c-2,.47-3.72.42-5.65.81-4.65.15-9.94.13-14-.81-3.32-.28-6.66-.53-10-.81-2.69-.29-5.48-.28-8.09-.54C51.48,179.3,47.85,176.83,43.84,174.82Z"/><path id="path4515" class="cls-63" d="M161,158.12c1-.32,2.68.22,3.24.27a10.35,10.35,0,0,1,2.69,1.08c.6-1.43,1.81-.55,2.7-.81a14.73,14.73,0,0,0,2.42,2.69c1.85,0,.43-.07,1.62-.27,1.23-1.15,1.61.72,2.42,1.08a12.94,12.94,0,0,0,3.78,0c1.28-.08,2,1,2.69,1.35.36-3.5-.11-5.23-2.16-7.28,0,.55-1.11,1.34-1.34,1.62-1.36.56-2.32-.36-3.51-.54.68,1.92-1,.6-1.34.81a17.1,17.1,0,0,1-4.85-.81c-2.83.25-5.6.35-8.36.81Z"/></g><g id="g4669"><path id="path4525" class="cls-64" d="M114.77,136.93a21.39,21.39,0,0,0,6.34-.06,7.46,7.46,0,0,1,3.6.32c.58-.05,1.28-.05,1.89-.1a11.7,11.7,0,0,1,3.17.48c1.24-.14,2.47-.32,3.71-.38a2.53,2.53,0,0,1,2.8.54c.64,0,1.29.13,1.88.16a12.59,12.59,0,0,1,2.37.22,2.3,2.3,0,0,1,.91-.49c2,0,3.94.32,5.92.17a1.8,1.8,0,0,1,1.07,1.13,9.71,9.71,0,0,1,1.19.16,2.47,2.47,0,0,1,3.54.37,15.44,15.44,0,0,1,1.73-.21,3.07,3.07,0,0,1,.86-.11,4.15,4.15,0,0,1,2.31,1,7.57,7.57,0,0,1,2.26-.11,12,12,0,0,1,2.2-.7,24.06,24.06,0,0,0,4.57,0,6.85,6.85,0,0,1,4.2.59,15.32,15.32,0,0,1,2.69-.48,7.61,7.61,0,0,1,3.65.86,5.9,5.9,0,0,1,2.86.43,9,9,0,0,1,1.88,2.85,5,5,0,0,1,1,0c.41.37.77.67.64,1.4a1.79,1.79,0,0,0,.49.81,7,7,0,0,1-.11,2c.22.22.51.33.59.7a7.41,7.41,0,0,0-.21,2.2,3.26,3.26,0,0,1-.27,1.78,1.84,1.84,0,0,1-.86,2.31,4.41,4.41,0,0,1-.65.75c0,.92.15,1.57-.86,1.83-.13.44,0,.69-.59.76a2.82,2.82,0,0,1-2.15.91,10.05,10.05,0,0,1-4.52-.43,22.3,22.3,0,0,1-3.65-.32,20.61,20.61,0,0,1-5.71-.06c-1,.05-2.28.09-3.38.06a7.85,7.85,0,0,0-3-.7,16.88,16.88,0,0,1-4.93.22c-3.27,0-6.5.28-9.77.45a40.93,40.93,0,0,0-9.31.23,16.57,16.57,0,0,1-7-.68h-7.72a16.72,16.72,0,0,1-6.14-.68c-.94.31-1.28,1.45-2.72.91-1.23.61-2.62,1.51-4.09,1.36-4.17,0-8.31-.5-12.5-.23H84.24c-2.9,0-5.81.17-8.63-.68-2.64,0-5.46-.62-7.73.91a13.46,13.46,0,0,1-5.22-1.13c-1.4,0-3-.4-4.32.68H44.94a9.51,9.51,0,0,0-2.72-.46c-1.47.34-3.08,1.31-5,0-.59-.58-1.63-.81-1.82-1.82-1.81-1-2.54-1.37-2.72-3.86.49-.65,1.57-.7,1.36-1.81-.27-.53-1.8-.38-.91-1.82.26-.36,1.09-.85,1.14-1.59-.2-.59-1.76-1.49-.91-2.73l3.4-2c1.12-.47,2.05-2,4.09-1.14h2.28c.37-.52,1.4-.61,1.13-1.59.83-.07,1.58-1.08,2.73-.22h4.09c3.29-2.11,4.56-1.62,8,.22a3.71,3.71,0,0,0,.29-1c2.3-1.18,4.95-1.13,7.47-1.13a1.65,1.65,0,0,1,.81.32c1.18,0,2.36.06,3.55.06a6.89,6.89,0,0,1,4-.43,22,22,0,0,0,3.23.37,18.86,18.86,0,0,1,5-.58c2.3-1.83,3.94-1.48,6.51-.45H101.4c3.29,0,6.57-.23,9.87-.23C113.44,135.25,113.61,136.52,114.77,136.93Z"/><path id="path4547" class="cls-65" d="M62.87,153.69c.73,1.8,1.75,2.2,3.36,2.68,1.77.07,1.63-1.35,2.24-2.68,1.25-2.34,1-1.81,3.14-2v2.91c1.33.53,2.69.86,4,1.35,1.39.27,1.64-1.05,2.46-1.57,1.2-1.79,1-.58,2-1.12.38.87,1.19,1.34,1.79,2,2.26.86,2.48-.55,4-.89,1.37.27.94-1.1,1.35-1.57,2.12-.22,4.36-.36,6.49-.45-.61,1.3.37,1,.67,1.79,4.17.15,5.46-1.79,7.17-4.92a48.7,48.7,0,0,1,6.28.22c-.46,1.34.74.9,1.12,1.34,1.32,1.16,2.42.57,3.8.9,1.74,1.1,1.35-.75,2-1.12a6.78,6.78,0,0,1,6.27.9c2.7,1.31,5.55,1.12,8.51,1.12,3.09-4.22,2.33-1,4.93-2,1.78.25,2.86,1.74,3.81,2.69a50.49,50.49,0,0,0,7.17.22c1.68-1.28,3.34.88,4.26,1.12,4.09,1.84,7.86,1,11.87-.67,2.81-2,6.07-2.46,9.41-2.46,2.74.18,5.34-1,7.84-2,2.91-.31,3.31,1.73,4.48,3.14.46,1.29-.45,2.23-.68,3.36-.48,3.72-3.4,2.87-6.27,2-1.43-1.2-2.77-1-4.25-1.34-1.81,1.06-3.42.92-5.38,1.12a16.85,16.85,0,0,0-3.14-.9c-2.71.1-5.1.45-7.84.45-3.83-.63-7.61-.58-11.42-1.12-2.82,2.15-6.6,1.73-9.86,2.24-2,.1-3.55-.68-5.37-1.34-3.3-.7-6.72-.45-10.08-.45a15,15,0,0,0-7.4.22c-2.55,2.26-5.36,1.57-8.51,1.57-2.69-1.75-5.88-2-9-2.46-5.43.15-9.94,1.79-15.46,1.79H74.52c-1.41-.47-2.94-.79-4.26-1.12-1.54-.07-3.1.74-4.48,1.12-2,.73-3.51.05-5.15-.67a15.74,15.74,0,0,1-4,.89,12.25,12.25,0,0,0-3.36-.22,8.43,8.43,0,0,0-3.36-.9c-2,.47-3.87,1-5.83,1.35-3.76-.07-5.86,1.13-7.39-2.24,2.05,1,4.78.26,6.5,0,.69-.8,1.3-1.45,2-2.24.9,1.3,2,1.64,3.36,2.24,1.36.27,2.14-.68,3.14-1.35.8.78,1.91,1.34,2.69,2,2,.39,3.74-.16,5.6-.45a4.56,4.56,0,0,1,.45-1.57A9.71,9.71,0,0,1,62.87,153.69Z"/><path id="path4567" class="cls-66" d="M44.5,144.5c-1,1.5.13,3.31.22,3.81,3.14,0,3.52-.75,4-3.58,3.15-3,3-1.32,4.7-.45,1.06,1.62,2.81,1.8,4.26,2.46C61.35,146,59,145,60,143.61c2.71-1.9,4.46-.81,6.94-.23,1.4,1,2.44.83,4,.67.44-1.26,1.35-1.29,2.47-1.79,3-1.9,1.21.08,3.36.23.17.95,1.12,1.6,1.57,2.24,1.26-1.63,3.19-1.17,4.7-1.8a21.77,21.77,0,0,0,2.24,1.57H82.81c-.57,3.44-1.15,1.14-2.47,2.47a7.31,7.31,0,0,0-1.79-1.57c-2.1.5-2.39-1.19-3.58-1.79-.81,2.31-1.54,2.22-3.59,2-.69-.9-1.82-.61-2.69-.89-1.76-.24-1.6,1.31-2.46,2-1.45.19-2.6-.68-3.81-1.34-.48,2.64-2,1.11-3.13,1.79-2.08,0-1.71.42-2.92,1.79-1,0-2.14-1.61-2.69-2-1.72-1.06-1.88,1.2-2.46,1.56-.73.17-1.24-.46-1.79-.67a13.87,13.87,0,0,1-2,2.24c-.84.67-.93-.46-1.34-.67-1.26-.9-2.13.82-2.91,1.12-1.66-2.37-2.79-1.75-4.71-.9-.21-2.54-.15-1.59,2-2.46.57-1.63-1-1.52-1.35-2.35C40.74,144.85,43.24,144.6,44.5,144.5Z"/><path id="path4579" class="cls-67" d="M78.33,145.85c1.47,1.24,3.39,1,4.92,1.12.49-3.62,1.11-1.44,2.92-2.92.19.59,1.08,1.27,1.34,1.57,1.29-.33,1.6-1.49,2.24-2.46,2.06-1.79,2.44-.51,3.58,1.79,2.47-1.19.4-3,4-3.36,1.74,1.32.54,2.54,0,4,5.19-.14,1.14-1.71,1.79-2.69,3.46-2,4.28-.69,6.27.9.76,1.08,2,.37,2.47.45,1.58-2.74,4.93-1,6.94-.45.63,1.47-.27,1.78-.9,2.91,1.73,1,3.29.15,4.93-.45,2.59-.22,3.4.51,4.71,2.47-2.33,1.08-3.35.68-5.38-.23-1.25-.69-2.66-.44-4-.44-1.75,2.5-3.45,1.5-5.6-.23-.19-1.58-1.64-.59-2.47-.89-.4,2.47-2.16,2.07-4.25,2.46-1.18.39-1.55-.93-2.24-1.34-2.1,3-3.32,3-6.28,2.68-4.26-10.65.79,2.37-1.12-3.36-.73,2.67-.88,2-4,3.36-4.85,2.18-1-1.29-1.34-1.79-1.72,1.1-3.35.32-5.15-.22-1.44,2.23-1.74,1.64-3.81,2-1.18-1.46-1.56-1-3.36-1.12-1.33,2.19-4,.88-5.15.68-.5-1.47-2.79-.6-3.81-.45.84-3.9,2.69-2.5,5.15-1.79a8.76,8.76,0,0,1,1.79.67c.12-2,1.41-1.51,3.14-1.79,1.07.05,1.17,1,1.79,1.56C76.37,145.6,78,146.8,78.33,145.85Z"/><path id="path4581" class="cls-68" d="M98,158.17c2.86.52,1.77-1.18,2.69-1.8.9-3.36,2.48-1.89,3.81-1.56-.49,2.83,1.07,1.88,1.79,3.13,1.56.78,2.51-1,3.36-1.34s1.32.29,2,.45a22.37,22.37,0,0,1,1.35-2.47c.68-1.85,1.31-1.41,2.91-1.57.25.9.73,2.36.9,2.92,1.35.82,2.77.56,4.25.67,1.88-4,1.27.21,1.35.22-1.91.92-4.68.79-6.5,1.12-1.18.3-2-.85-2.69-1.12-1.15,1.6-2.48,1.8-4.25,2.24h-4.26C101.64,160.33,100.2,160.33,98,158.17Z"/><path id="path4583" class="cls-68" d="M45,156.37a16.57,16.57,0,0,1,3.13,2c2,.33,1.65-.58,2.92-1.57,2-1,2.12.85,3.36,1.35,1,.62,1.46-.3,2.24-.45,2.79.49,3.16-.32,3.81-2.69,2.51-1.46,1.05.7,2,1.34a14.33,14.33,0,0,1,1.35,1.35H60.85c-.82,1.31-2.1.75-3.13,1.12a55.43,55.43,0,0,0-6-.23c-1,.45-1.93.15-2.91.23-2.63,1.61-3.52,1-5.16-.67a11.59,11.59,0,0,0-3.58-.23C42.37,158.42,43.29,157.43,45,156.37Z"/><path id="path4585" class="cls-68" d="M127.83,155.68c1.71,1.39,4.06.79,5.83,1.06s2.43-1.21,3.13-1.77c.9-.59,1.93-.23,2.91-.35,1.09,1,2.53.94,3.81,1.41a6.65,6.65,0,0,0,2.91-1.59h1.13a5.42,5.42,0,0,0,2,.18c1.36,1,1.66-.53,2.24-.71.2,2.21,1.37,1.18,2.47,2.12a20.19,20.19,0,0,1-4,.18,7.83,7.83,0,0,0-2.46-.18c-1.45.26-2.84.69-4.26,1.06a28.76,28.76,0,0,0-4.25-.7c-1-.37-1.7.36-2.47.53a41.82,41.82,0,0,1-4.48.35h-6.72C126.09,156.51,127.09,156.21,127.83,155.68Z"/><path id="path4587" class="cls-69" d="M129.18,146.52c2.25.55,3.63-.8,5.37-1.79,1.37-.21,1.38.76,2,1.12a13.53,13.53,0,0,0,3.13-.68c2.07.43,1,2,1.57,3.14,1.47,0,2.56-1.27,3.59-2,2.49-3.08,1.5-1.48,3.36,0,.86,1,2,1,3.13,1.35.8-.94.3-2.08.45-3.14,3-1,2.23-.28,3.36,1.79a6.61,6.61,0,0,1,2.47.23,9.78,9.78,0,0,0-.68-2.47h3.14c1.1-.33,1.36,1.56,1.57,1.8.84.43,1.18-.68,1.57-.9,1.46-.33,3,.26,4.25.45l2.69.22.45-.45a10.82,10.82,0,0,1,3.13,2.69c-.91,1.12-2.51.17-3.36.23-.77-1.18-1.94-.45-2.91-.68.52,1.39-1,2-1.34,2.69-1.36,1.37-3.54,0-4.48,0-.69-.26-1-.89-1.57-1.34-4.08-.82-.75,1-1.12,1.57,1.76-.36.6.74.9,1.12-1.38.07-2.69.29-4,.44-1,.5-.87-.87-1.12-1.12.19,1.32-1.2,1.2-1.56,1.57a16.92,16.92,0,0,1-3.81-1.57c-.42,2.92-1.71,1.28-2.69,2-2.61-.92-1.46-1.34-2.69-2.46-1.2-.32-1.59.39-2.69.67a23.16,23.16,0,0,1-4.93.22c.33-.92-.44-1.49-.67-2.24-1.78-.08-3.29.6-4.93.9-1.8,1.19-2.48.24-3.8,0C126.77,146.92,126.76,147.24,129.18,146.52Z"/><path id="path4597" class="cls-70" d="M116,141.81c1.3.91,2.34.3,3.58.45.38.6,1.45.81,2,1.12,1.86-.37,1.59-.5,2.91-2,.39,1.94,1.5,1.52,2.69,2.24a15,15,0,0,1,1.34-1.8c.47-1.93,2.26-1.41,3.59-1.79a9.89,9.89,0,0,1,2.46,1.79,6.07,6.07,0,0,1,2.47-.22c2.24-1,2.93.3,4.25.9,1.9.12,3.34-.64,4.93-1.35.89-1-.45-1.2-.67-1.79a37.45,37.45,0,0,1-9.19.67,10.82,10.82,0,0,0-3.13-1.57h-9.86c-2.85-1.34-5.91-1.21-9-1.34-.29,1.21-1.84,1.67-2.46,2.24a15.06,15.06,0,0,0-7.17-1.79,45.71,45.71,0,0,0-6.72-.23c-2.33,2.16-4.66,1.57-7.62,1.57-2.12-1.35-.78.47-1.12.67,2.75,2.45,5.82,1.65,8.74,1.35.09-1.86,1.57-1.14,2.46-1.79,2.06-.38,3,.49,4.26,1.56,1.49,0,2.26-.74,3.36-1.56,1.39,3.12,2.43,3.16,4.7.89,1.06-.92,1.68.31,2.47.45C114.25,143.22,115.82,141.54,116,141.81Z"/><path id="path4599" class="cls-71" d="M86.61,145.62c-2.5,1.24.66,1.54.68,1.57,1.09.61,1.86-.68,2.46-.9a9.08,9.08,0,0,1,2.46.68c-.56-4.69,1.35-.75,2-1.12.74.79,1.78.74,2.69,1.12l.89-.9c-.44-1.29-1.73-1-2.68-1.12s-1.66-.75-2.47-1.12c-1.73-.15-2,1.28-2.69,2C88.12,144,88.09,145.72,86.61,145.62Z"/><path id="path4601" class="cls-71" d="M62.65,144.73a11.65,11.65,0,0,1,3.13-.9c.27.83-.47,1.25-.67,1.79,2,2.4,1.23.45,2.46.9h2.92c-.43.68.14,1.19.22,1.79H67.57c-.8.09-1.15.58-1.79.9-1.27-.32-.76-1.52-1.12-2.24l-.45,2.24H64c-1.59,1-1.61-.3-2.46-.45,1.12,2.48-1,1-1.35,1.34l-1.57-1.34c-.69-.38-1.53.77-1.79.89-1.25.21-1.13-1.13-1.57-1.56.75-1,2-.6,2.91-.9.91-.11,1.42.79,2,1.12a6.82,6.82,0,0,0,2.47-.9C59.7,145,62.48,145.09,62.65,144.73Z"/><path id="path4603" class="cls-71" d="M75.86,145.62c1.1-1.16,1.64-.68,2.69-1.12,1.55-1.37,1.68.61,2.46.9.64-4.22,1.1-.82,2.69-2,3-2.13,2.26.65,3.14.9-.86.78-1.77.29-2.69.45,1.15,1.71-1.28,1.46-1.57,1.79-1,.48-1.74-.64-2.46-.9C78.29,147.18,77.27,146.19,75.86,145.62Z"/><path id="path4613" class="cls-72" d="M43.83,141.37c1.09.39,2-.46,2.91-.68,2.47,8,1.07.92,3.14,2.69.5-2.39,1.35-.86,2.46-1.57,1.59-2.07,1.83.31,2.69.45.81-1.49,2.08-1.41,3.36-1.79a34.26,34.26,0,0,0,4,.45c2.22-.79,2.7-.45,4.48.89,1.15-.63,2.27-1.51,3.36-2.24A12.71,12.71,0,0,0,73,141.81c1.89-.9,4-.7,6-.89a18.53,18.53,0,0,0,2-1.35c-1.51-1.13-2.72-.43-4.25-.67.14,2.07-1.24.62-1.79.9-1.39,0-2.32-.94-3.36-1.57a9.08,9.08,0,0,0-3.36.9,10.29,10.29,0,0,1-4-.68H61.08c-.87,0-1.38.77-2,1.12-1.27.25-2.29-.61-3.36-.89-.4,1.15-1,.69-1.57,1.12a38.14,38.14,0,0,1-4.48.67A15.1,15.1,0,0,1,45.4,140C44.79,139.73,44,141.21,43.83,141.37Z"/><path id="path4623" class="cls-73" d="M119.77,143.61c1.11.51,2.81.22,3.58.22,4.85-1.58,3.82-1.79,7.84-.45,1,.59,2,0,2.91,0,2.07-1.37,3.27-.18,5.16.45,2.39-1.34,3.21-.66,5.37,0-1.12,2-2.61,1.64-4.7,1.79a16.63,16.63,0,0,1-2.91-.22c-1.12,3.08-1.44.82-3.14,1.79-.79-.57-1.71-1.09-2.46-1.57-.72,1.45-2.07,1.65-3.14,2.24-1.7.85-1.79-.89-2.69-1.34-1.36,1.13-2.3.94-4,1.12-1.83.65-1.7-.85-2.69-1.35-1.16,1.52-2,.66-3.36,1.12-4,.94-.76-1.06-1.12-1.56-1.75.77-2.88.42-4.7,0,1.19-2.88,2.72-2.22,4.93-.9C116.34,144.56,118,144.09,119.77,143.61Z"/><path id="path4625" class="cls-74" d="M54,143.8c1.07.29.53.34,1.59-.28,1.08.35,1.27,1.19,1.45,2.15a4.81,4.81,0,0,0,1.25.27,2.47,2.47,0,0,1-3-.69,4.28,4.28,0,0,1-1.38-.48,1.79,1.79,0,0,1-1.63.48C53.05,143.53,53,142.91,54,143.8Z"/><path id="path4627" class="cls-74" d="M65.35,143.45a8.92,8.92,0,0,1,1.46-.06c1.22-1.24.42-.18,1.38-.56.34.2.87.61,1.18.83.24-.57.53-.46,1-.55a2,2,0,0,1,2.29.34h-1c0,.12-.36.6-.42.7a6,6,0,0,1-1.66-.21c-.35.92-.64.48-1.1.83-.54-.21-1.12-.33-1.66-.49a7,7,0,0,1-1.25.9c-.71.64-.24.69-.07,1.11-.46-.21-.92-.47-1.31-.69-.1-.9.34-.65.83-.9C64.76,143.9,65.13,143.91,65.35,143.45Z"/><path id="path4629" class="cls-74" d="M42.87,144.35l1.18.56c.15,0,.09.18.13.27-.76,1.45,0,.64,0,1.53a9.58,9.58,0,0,1-1.1-1.11c-.33-.76-1-.78-1.66-.87C41.84,144.36,42.32,144.46,42.87,144.35Z"/><path id="path4631" class="cls-75" d="M40.52,152.79c.82-.9.77-.76,1.8-.76a10.84,10.84,0,0,1,1.59,2.22,3.62,3.62,0,0,1-1.8-.42c-.76.73-1.56.41-2.42.21-.47-.57-1-.59-1.59-.83a4.48,4.48,0,0,0,.65-1.49C39.19,152.51,39.62,152.59,40.52,152.79Z"/><path id="path4633" class="cls-75" d="M54.22,149.13c.52-.57.74,0,1,.07.22,1.35.27,1.19,1,1.73.72-.74,1.28-.28,2.28,0-.37.68.07,1.25.21,1.86,1.26-.33,1.18,0,1.73.83a21.09,21.09,0,0,1,2.08-1.45c.79.71-.27.8-.35,1a11.85,11.85,0,0,1-2.14.83c-.05.49-.57.58-.9.76a5.1,5.1,0,0,1-2.36-1.52c-.27.39-.7.4-1,.55a5,5,0,0,1-.63-2,6,6,0,0,0-1.93.07c0-.4-.1-.84-.14-1.24a4.38,4.38,0,0,1-2.7,1.17v-1.31a4.43,4.43,0,0,1,1.66-.14c.43.31.88.18,1.32.21C53.55,149.61,53.85,149.59,54.22,149.13Z"/><path id="path4635" class="cls-71" d="M107.82,145.33c.8,3.77.46.41,1,.88l1.32.71c.55-.69.25-.41.87-.87.44-.49,1.06-.41,1.64-.5a3.22,3.22,0,0,0,2.9-.11c.53-.75,1.16-.65,2-.65-.92-.83-1.83-.24-2.73.16a3.74,3.74,0,0,0-1.42-1.09c-1.4-.45-.64.33-1,.54a3.79,3.79,0,0,0-1.86-.6,2.74,2.74,0,0,0-1.09,1.1A4.23,4.23,0,0,0,107.82,145.33Z"/></g><g id="g4816"><g id="g4691"><path id="path4651" class="cls-76" d="M27.18,148.06c2.46-6,8.17-9.19,14.18-10.83l77.06-1c-11.76,2-23.66,8.94-34.28,13.66C66.15,138.91,44.71,136.37,27.18,148.06Z"/><path id="path4637" class="cls-77" d="M28.73,152.44a20.42,20.42,0,0,1,7.47-7.73c7.11-3.75,13.23-4.05,21.13-3.09,9.73,1.17,19.72,6.32,27.32,11.85v-3.86c-16.22-13.55-49.42-15.78-57.47-1.16,1.33,1.46.49,2.76,1.55,4Z"/><path id="path4639" class="cls-78" d="M84.14,149.09l6.7-3.87c17.37-7.41,17.58-7.92,27.83-3.35-11.35-2.55-23.26,6.44-34,11.56Z"/></g><g id="g4696"><path id="path4698" class="cls-79" d="M191.7,148.06c-2.46-6-8.17-9.19-14.17-10.83l-77.07-1c11.76,2,42,9.86,52.62,14.58C171.07,139.83,176.19,133.44,191.7,148.06Z"/><path id="path4700" class="cls-80" d="M190.15,152.44c-1.73-3.23-2.89-6.36-5.82-8.07-9.89-6.28-21.75,2.27-31.2,9.23v-3.87c16.23-13.54,30.52-15.9,38.57-1.28C190.37,149.91,191.21,151.21,190.15,152.44Z"/><path id="path4702" class="cls-81" d="M153.77,149.72l-18.29-6.13c-17.37-7.41-29.43-8.18-42.08-7.14,11.66.23,42.44,10.09,59.86,17.61Z"/></g></g><g id="g4808"><g id="g4776"><path id="path4732" class="cls-82" d="M113.17,130.34c-3.15,0-5.31.12-8.43-.81-8.17,0-16.31-.71-24.49-.4-14.92,0-29.28,2.77-44.15,2,.25,1.5-.26,2.94-.4,4.41v2c4.89,1.14,9.62.27,14.45.4,8.59.95,17,1.75,25.69,2,8,.65,16.16-1,24.08-2h17.66c.33-3.25,2-3.51,2-7.22C117.1,131.3,115.25,130.7,113.17,130.34Z"/><path id="path4766" class="cls-83" d="M81.84,138.48a21.25,21.25,0,0,0,7.66-.62,15.21,15.21,0,0,1,2-2c.65,1.13,1,.59,1.66,1,1.6-.55,1.39-.54,2.28-1.76,5.68,1.42-1.27-.28,1.86.41.26-.93,1.21-1.13,1.76-1.65a10.23,10.23,0,0,0,.73-1.76c1.24.74,1,2.86,1.24,4.24-1,.45-2,.84-3,1.24a5.24,5.24,0,0,0-2.28.42c-2,1.12-1,.82-2.8,1.14a25.69,25.69,0,0,0-3.72-.11c-1.35.87-2.8.47-4.25.42a42.45,42.45,0,0,1-7,.2A19.2,19.2,0,0,0,81.84,138.48Z"/></g><g id="g4780"><path id="path4782" class="cls-84" d="M178.07,132.66c-3.13-.31-5.29-.39-8.31-1.62-8.13-.8-16.16-2.31-24.32-2.79-14.86-1.46-29.3,1.48-44-.72.1,1.52-.66,1.3-.94,2.75l.83.07c4.76,1.61,11.71,6.67,16.5,7.28,8.46,1.78,13,.89,22.18,1,7.91,1.43,16.19.57,24.17.36l17.57,1.72c.65-3.2,2.34-3.29,2.7-7C181.9,134,180.11,133.23,178.07,132.66Z"/><path id="path4784" class="cls-85" d="M146.1,137.71a21.32,21.32,0,0,0,7.68.13,15.42,15.42,0,0,1,2.15-1.77c.54,1.19.88.68,1.55,1.2,1.65-.4,1.43-.41,2.44-1.53,5.51,2-1.23-.41,1.81.59.35-.9,1.31-1,1.91-1.48a9.38,9.38,0,0,0,.9-1.68c1.16.87.77,3,.82,4.35-1,.35-2.07.64-3.11.94a5.26,5.26,0,0,0-2.31.19c-2.09.92-1.11.71-2.89.86a25.46,25.46,0,0,0-3.7-.47c-1.42.73-2.83.2-4.26,0a41.27,41.27,0,0,1-7-.48A19.75,19.75,0,0,0,146.1,137.71Z"/></g></g></g><g id="g5560"><path id="path5548" class="cls-86" d="M174.84,106.43a2.88,2.88,0,0,1,1.83-.42,13.3,13.3,0,0,1,2.14.3c1,.71,2.26.43,3.42.43.43.25.88,0,1.28-.06a6,6,0,0,0,2.8,1.77c7.73,1.56,8.1,3.59,8.24,4-.14,4.17-3.89,7.1-6.77,9.58-2.1-.52-7.55-1.54-9.15-2.81C175.82,117,175.22,109.78,174.84,106.43Z"/><path id="path5546" class="cls-87" d="M168.2,122c.79-2.43-.23-4.7-.37-7.14a25.61,25.61,0,0,1,1.89-3.29c2.59-.53,3.75-3.2,5.25-5.06,2.66,0,5.23,1.29,7.87.36a6.12,6.12,0,0,0,4.51,2.32,11.3,11.3,0,0,1,4,1.46,21.22,21.22,0,0,1,2.81,1.89c-1,3.33-3.08,6.31-4.94,9.09a3.41,3.41,0,0,0-.43,1.59,5.87,5.87,0,0,0,1.1,2.32c-4.22,6.91-17.79-.16-21.65-3.54Z"/><g id="g5540"><path id="path5530" class="cls-88" d="M168.75,129a16.63,16.63,0,0,1,4.08,1.89c1.45,1.13,5.37,2.78,7,1.59-1.56-1.49-3.2-2.5-4.52-4.21a7.88,7.88,0,0,1-2-3.84c1.41-2.63,3.5-4.71,5.06-7.26a34.89,34.89,0,0,1-5.91,2.32c-4.19,1.26-9.94,5.48-9.15,10.09A15.23,15.23,0,0,1,168.75,129Z"/><g id="g5526"><path id="path5508" class="cls-89" d="M188.14,109.91c-1.24.54-2.45,1.2-3.66,1.83-3.38,1-4.94,3.92-7,6.41-1.3,1.7-2.81,3.17-4,4.94a4.29,4.29,0,0,0-.3,1.77c.71,3.34,3,5.3,5.61,7.25a3.08,3.08,0,0,1,.91.49,1.82,1.82,0,0,1,.43-.24c-.64-.53-1.3-1-2-1.53.85-3.55,4.12-16.13,9.88-20.25C188.23,110.39,188.1,110.14,188.14,109.91Z"/><path id="path5506" class="cls-90" d="M173.87,125.34c-.3-.62.31-1.22.55-1.77,1.14-1.32,2.17-2.74,3.29-4.08a25.26,25.26,0,0,1,10.19-8.72,29.12,29.12,0,0,0-1.28,8c-.24,1.49-1.13,2.48-1.34,4-.26,2.28,1.53,3.56,2.44,5.37l.36,1.52V130a3,3,0,0,1-2,1.34c-.7-.06-1.38-.06-2.07-.06-2.15.19-4.38.25-6.29-.79C176.53,128.87,174.46,127.31,173.87,125.34Z"/></g></g></g><g id="g6464"><path id="path6452" class="cls-91" d="M149.46,110.47c.3-.8,1.11-1.09,1.72-1.53l1.64-1.84-1-1.83.09-.11,1-1.93.18-.51c2.4,1.6,1.51,1.29,4,1.42,5-2.81,3.24-1.32,5.72-3.67l4.08-.81h.28l.9,5.4.09.21c2.59,3.71,1.91,1.94,2.73,4.89.69,1.16,1.39,2.31,2.09,3.47v.1c1.13,2.32.49,1.73,2,3C172.57,127.2,142.69,121.53,149.46,110.47Z"/><path id="path6440" class="cls-92" d="M156.09,109.14c.14-1.44,1.24-1.47,2.18-1.94a6.45,6.45,0,0,1,3.9,1.84c1.6,1.9,1.24,3.24,2.45,4.9a17.13,17.13,0,0,1,4.27-1.23c1.52.13,1.81,1,2.63,2.14l1.28,1.64.36.81c3.77,1.93-.91-.39,1.63.72,1.72,2.52,1,1.44,2.27,3.26,5.63,4.13,3.7,8.09-.18,12.44,1.06.93-.12.62-.18.92-1.32-2-4-2.85-5.9-4.28C164.63,126.28,154.47,119.11,156.09,109.14Z"/><path id="path6442" class="cls-93" d="M159.63,116.59c.8.54,1.63,1,2.45,1.53l4.18,1.43,3,.91c.13,1.09.25,2.18.37,3.27-.09.54-.18,1.09-.28,1.63-3.58-.1-6-3.35-9.17-4.28l-.63-3.68Z"/><g id="g6417"><path id="path6415" class="cls-94" d="M129.48,126.89c1.3-.34.79-2.63,1.91-3.57,2.21-1.86,6.32-3.11,9.08-3.47-2.66,5.19-2.82,8.46-2.82,13.67C134.24,132.74,131.7,129.88,129.48,126.89Z"/><g id="g6394"><path id="path6392" class="cls-95" d="M122.67,109.45c1.77,1.43,1.7,3.78,2.27,5.91,3,4.08,2.06,2.37,3.36,4.8a9.19,9.19,0,0,1,.91,4.38c-.49.6,0,1.67.09,2l.54.62c2.62-5,7.57-6.46,12.17-7.55C140.32,113.06,128.33,107.86,122.67,109.45Z"/><path id="path6382-0" class="cls-96" d="M125.39,108.33c1-.09,2.09-.24,3.09-.31,2.47-2,1.48-1,3.09-2.86l1.18-3.06a10.45,10.45,0,0,1,3.72,2.45l1.82.72.82.2c2.32.13,3.26-1,5.44-1.73,1.59,1.12,1.55,3.05,2,4.89l1.73.72a3.34,3.34,0,0,1,1.27,2.75l.63,2.86.55.61c-3.41,2.09-7.24,2.42-11,3.16l-1.27-.1h-.09c-3.46,2.13-1.76,1.53-5,2.14l-2.27,1.53-.1.1-.63.1c-.08-2.76-1.6-5-1.82-7.75l-2.36-.41h-.82l-1.81-3.46c-.18.05-.24-.21-.37-.31l-.81-1,2.45-1.22Z"/><g id="g6364"><path id="path6354" class="cls-97" d="M160.08,120.33a11.64,11.64,0,0,1,6.41.42c.94,1.31,2.06,2.3,2.58,3.89,1.24,3.09,2.6,6.14,3.75,9.26-1.45,6.14-.25.37-1.47,2.16a3.08,3.08,0,0,1-2.14-.91c-2.49-1.79-5.44-2.48-7.88-4.31C157.53,127.13,154.15,121.85,160.08,120.33Z"/><g id="g6338"><path id="path6336" class="cls-98" d="M150.43,115h1.62a2.72,2.72,0,0,0,2.21-.83c.78-2,1.38-4.14,2.21-6.13l-.08.09-.51.66c-.92.8-1.9,1.71-2.88,2.48-.53.6-.73,0-1.1,1.24-.25.34-.88.23-.74,1-.1.22.81.74-.29.66-.21-.42-.57-.57-.59-1.16a4.65,4.65,0,0,1-.37-2l-.15-.41c-.12-.36-.24-.72-.37-1.08-.24-.15-.35-.95-.81-.49a4,4,0,0,0,.81,1.49v2.48C149.27,114.22,149.77,114.41,150.43,115Z"/><g id="g6322"><g id="g6313"><path id="path6303" class="cls-99" d="M156.39,108.42c0,1.11-.06,2.19,0,3.31,1.64,3,3.76,5.16,3.76,8.77a93.48,93.48,0,0,0-8.77-3.48c-.09-.36-.19-.71-.29-1.07l-.07-.17a2.47,2.47,0,0,1,.73-1.41c0-1.21.19-.77.37-1.49.7-1,.82-.52,1.55-1A9.39,9.39,0,0,0,156.39,108.42Z"/><path id="path6256" class="cls-100" d="M147.33,116a22.31,22.31,0,0,1,6.56-.91c2.16.67,4.49,1.59,5.89,3.55.13.64.25,1.27.37,1.91l.07.25c-1.21,2.69-.45.43-1.39,1.32A7.83,7.83,0,0,0,162,127.2C155.88,130.23,148.48,122.68,147.33,116Z"/><g id="g6297"><path id="path6295" class="cls-101" d="M163,122.07a3.32,3.32,0,0,1,1.7-1.08c2.26-.6,3.53.62,4.05,3,.53,1,1.12,2,1.55,3a22.23,22.23,0,0,1,1.69,2.49c.67,1.43,1.84,2.29,2.73,3.55.7.4,1.33.88,2,1.33-.08.27-.15.55-.22.83a5.64,5.64,0,0,0-1.62-1.74c-1.43-.9-2.22-2.32-3.32-3.56a5,5,0,0,1-1.25-2c-.53-.93-.95-1.92-1.4-2.89-.66,1,.09,1.91.29,3.06.45,2.22,1.59,4,1.77,6.29l1.18,2,.07.09h-.66c-1.06-1.2-.76-.55-1.1-1.82a44,44,0,0,0-1.18-4.31l-1-2.64c0-.06-.05-.12-.07-.17a21.32,21.32,0,0,1,.29-3.31l-.37-.75a12,12,0,0,1-3.53.25c-3.77-1.45-.31-.3-1.63-1.57Z"/><g id="g6291"><path id="path6271" class="cls-102" d="M166,121.16a3.42,3.42,0,0,0-2.21,1.08c.62.88,1.34.85,2.29,1a9.4,9.4,0,0,1,1.76-.08A3.33,3.33,0,0,0,166,121.16Z"/><path id="path6281" class="cls-103" d="M168.7,125.05c.7.45.82,1.46,1.1,2.23l1.55,2.65V130l.66.25a16,16,0,0,0,3.47,3.4,9.68,9.68,0,0,0-2.88,2h-.88a11.17,11.17,0,0,1-1.7-3.89,16.48,16.48,0,0,0-.73-2.89l-.15-1.41c-.17-.14-.34-.28-.52-.41l.15-1.49C168.75,125.38,168.72,125.22,168.7,125.05Z"/></g></g></g><g id="g6258"><path id="path6254-4" class="cls-104" d="M133.58,125.35a4.24,4.24,0,0,0-.88,2.71,15.56,15.56,0,0,1,1.37,3.22c1.45,1.45.92,1.32,2.42,1.63l1.76.29a14.15,14.15,0,0,0,4,.35l1.28-.39h0c2.42-.06,1.37.12,3.17-.35.94-.48,2.25-1.28,3.17-1.83a2.44,2.44,0,0,1,1.54.3l1.76,1a17.17,17.17,0,0,0,4.1,2.07,6.62,6.62,0,0,0,3.3,1.39c1.24.14,0,0,.52-.4a18.81,18.81,0,0,1-3.87-3.11l-.75-.6h-.13c2.45-1,3.94-1.75,6-2.81v-.45c-2-.9-3.55-2.84-5.15-4.4a11.13,11.13,0,0,0-6.73-4.2c-1.41-2.27-2.42-3.79-4.89-4.55a3.79,3.79,0,0,1-2.37,2.28l-1.32,0h-.18c-1.1,2.37-3.34,3.79-5.32,5.15C135.24,123.22,134.52,124.38,133.58,125.35Z"/><path id="path6240" class="cls-105" d="M137.08,132.05c-3.17,0-3.12-1.35-3.27-4.26-.25-1.43.34-1.86.95-2.72a7.5,7.5,0,0,1,2.11-2,13.35,13.35,0,0,0,5.48-4.85c2.42,0,2.66-.42,3.79-2.25,2.06.94,2.57,2.09,3.59,3.79.67.87,1.65.83,2.52,1.07a8.89,8.89,0,0,1,3.48,2.48,24.09,24.09,0,0,1,3.27,3,6.5,6.5,0,0,1,2.21,2.37c1.33.51,1.44-.29,2.21-1.42,1.41,4-.58,1.45-.94,2.36.45,2.9.67,1.83,1.26,3.44-2.61-1.54-5-2.51-7.69-.83a11.13,11.13,0,0,1-3.37-.95l-2.85-1.06-.42-.12-3.37,1.3-.95.35A12.7,12.7,0,0,1,137.08,132.05Z"/><path id="path6238" class="cls-106" d="M160.58,135.36c-2.48-.33-4-1.94-6-3.07-6.46-1.21,1.35.35-1.79-.48-.89-1-2-1.12-3.06-1.53-3.1,2.28-5.34,2.36-8.74,2.83a8.44,8.44,0,0,1-4.22-1.18h6.64c2.39-1.84,3.72-1.91,6.39-2.27l3.31,1.56.21.24,3.58.35h.32c1.14.44,1,1.13,1.58,1.78C164.21,136.74,159.18,134,160.58,135.36Z"/></g></g></g></g></g></g></g><g id="g6171"><path id="path6145" class="cls-107" d="M64.51,111.53c1.7-2.63,3.67-3.55,6.31-4.73a3.18,3.18,0,0,1,3.45.3c3.93,1,8.28,7.65,10,4.49,8.36-15,9.43,2.11,13.28-2.47,1.94-2.3,3.41-4.18,6-4.47s9.18,3.46,9.61,3.86c-1.74,1.41-27.21,10.16-29.07,11.4C77.24,124.47,60.05,121.1,64.51,111.53Z"/><path id="path6135" class="cls-108" d="M65.5,111.65c6.63-8.92,11.94-3,11.94,5.53l.69.35L79,116v-3.29l3.46-3.63c3.32-2.13,9.18-6.89,10-1.16-.27,4.66,1.19,3.74,2.64,4,2,.41,5.23-7.21,9-7,44,16.65-14.09,28.4-28.81,23.53C67.72,128,60.53,117.86,65.5,111.65Z"/><path id="path6149" class="cls-109" d="M78,117.44c.76,1.59,3,2,4.63,2.89,2.82,1.66,3.8,4.73,6,6.94.61.7,1.27.66,2.08.81-1.83-2.54-2.51-5.61-3.35-8.56-2.32-2.35-3.44-5.7-5.32-8.21C78.33,112,80.38,115.37,78,117.44Z"/><g id="g6075"><path id="path6073" class="cls-110" d="M61.86,129.47c0,1.25.69,1.6,1.1,2.55l.36,1.71c1.87,1.24,1,.63,2.68,1.82a10.75,10.75,0,0,0,3.16,1.34C80.59,139.35,71.76,119.57,61.86,129.47Z"/><g id="g5321"><g id="g5244"><path id="path5207-2" class="cls-111" d="M37.55,107.39l-4.4-4.28c-1.48-2.55-5.17-1.73-7.17-.5-3.27,2.15-1.56,6.23.13,8.93a12.83,12.83,0,0,1-.25,3.89c-2.23,3.77-4.25,6.47-4.78,10.69.66,2.45,3.07,3.16,5.15,4.27,1.73,1.27,4.26.79,6.29.38,2.38-1.62,2.19-4.24,4-6.41,1.38-1.44,3-1.49,4.78-1.76,2.25,1.48,4.36,1.51,6.91,1.51,4.44.34,8.72.11,13.08,1.13-3.44-2.84-4.59-6.49-6.29-10.31-1.94-4.65-3.18-7.94-7.67-10.18-3.54.59-6.41,1.18-8.8,3.77Z"/><path id="path5211-5" class="cls-112" d="M30,101.44a8,8,0,0,0-4,1.17,3.86,3.86,0,0,0-1.84,3.1c1.62-2.25,3.54-3.77,6.75-3.6a4.84,4.84,0,0,1,3.39,4.9c-.73,1.6-1.09,2.46-2.77,3.27-1.35.75-2.2,1.14-2.76,2.76.19,2.78,1.85,3.73,3,5,.79-.23,1.12-.81,1.63-1.38a11.36,11.36,0,0,1,3.65-2.14c2.37-1.61,2.89-3.23,1.5-5.4,2.83-3.08,6.75-4.61,10.44-2.77,3.81,2.39,5.2,12,10.72,18.54.53.09,1.06.19,1.6.32-3.44-2.84-4.59-6.49-6.29-10.31-1.94-4.65-3.18-7.94-7.67-10.18-3.54.59-6.41,1.18-8.8,3.77l-1-1.13-4.4-4.28A3.46,3.46,0,0,0,30,101.44Z"/><path id="path5209" class="cls-113" d="M34.66,104.5c1.1,4.58-2,5.7-4.53,7.92-1.38,2.29.05,2.94,1.51,4.27.78-.45,1.67-.9,2.39-1.38A10.56,10.56,0,0,0,38.18,112a5.41,5.41,0,0,0,.12-3.77Z"/><path id="path5226" class="cls-114" d="M32.14,118c2.46,1.36,5.55.75,8.3.75A27.2,27.2,0,0,0,46.6,121c3.85.27,7.26-.18,10.56,2a6,6,0,0,0-4.78-2.64c-2.53-.69-4.91-1.54-7.29-2.39a17.18,17.18,0,0,1-4.9-1.89,12,12,0,0,0-1.89-1.88C36,115.05,33.59,116.08,32.14,118Z"/><path id="path5228-6" class="cls-115" d="M40.44,108.9A6.18,6.18,0,0,1,44,106.63c3.48-.54,5.61.7,7.29,3.65,2.23,3.87,3.22,8.54,5.78,12.19a11.56,11.56,0,0,0-6-3.77,10.41,10.41,0,0,0-4.4-2.89C44.32,113.63,42.54,111.23,40.44,108.9Z"/><path id="path5230-9" class="cls-116" d="M26,116.94a8.34,8.34,0,0,0-.38,3.4,10,10,0,0,1,2.77.25,11.11,11.11,0,0,0,2.39.5c1.5-.22,1.85.59,2.77,1.51a9.27,9.27,0,0,1,2.76.5c-.79,1.69-1.7,3.37-2.39,5a5.63,5.63,0,0,1-3.27,2.14,11.86,11.86,0,0,1-8-2.52A9.74,9.74,0,0,1,21.46,125C21.4,121.28,23.05,118.82,26,116.94Z"/><path id="path5232-3" class="cls-117" d="M25.48,109.15c-1.3-2.07-1.8-3.81,0-5.16,1.93-1.82,3.31-1.63,5.66-1.13,1.85.25,2.12,1.07,2.51,2.77a5.49,5.49,0,0,1-.5,3,6.65,6.65,0,0,1-3.14,2A10.68,10.68,0,0,0,25.48,109.15Z"/><path id="path5234-6" class="cls-118" d="M34.66,118.83C38.92,121,41.13,121.4,42,122c.13.59,2.07.25,2.39.63,4.49,2.9,10.43.19,14.83,1.51a31,31,0,0,0-3.9-2.39c-2.3-.93-4.73-.88-7.16-.88C45.29,121.1,41.18,118.34,34.66,118.83Z"/></g><g id="g5311"><g id="g5276"><path id="path5264-5" class="cls-119" d="M31.92,131.67a27.62,27.62,0,0,1,4.59-1.09c.89-.29,1.3.27,2,.7a5.48,5.48,0,0,0,3.71,1.53c1.74.49,3.3-.25,4.88-.73A22,22,0,0,0,50,129.25a6.12,6.12,0,0,0,1-1.74c-6.15-5.93-14-2.09-20.22,2.88A9.45,9.45,0,0,1,31.92,131.67Z"/><path id="path5254-3" class="cls-120" d="M30.86,130a38,38,0,0,1,2.41-5.19c2.87-.23,2.3-1.92,3.64-3a8,8,0,0,1,5.85.06,20.71,20.71,0,0,0,5.83-.07c-.84.11-1,.88-1.52,1.29-.33.64.35.92.51,1.35a9.48,9.48,0,0,1-2.21,2c.94,5.17-4.77,7.81-5.79,1.85a2.77,2.77,0,0,0-1.34,1.91,8,8,0,0,0-4.62-.56c-.77.23-.37-.3-.69-.57-.84-.05-1.41.58-2.07,1Z"/><path id="path5274" class="cls-121" d="M40.88,132.44c1.81.26,3.15.3,4.48-1a4.7,4.7,0,0,0,.92-3.52,6.43,6.43,0,0,1,1.34-1.9c.08-.35.37-.55.55-.82A5.91,5.91,0,0,0,51,127.63c-1,1.64-1.81,3.32-3.38,4.4C45.1,132.73,43.27,133.35,40.88,132.44Z"/></g><g id="g5306"><path id="path5281" class="cls-107" d="M53.84,117.06c-.94,2.2-1.45.65-2.19,1a17,17,0,0,0-4.75,4.66c-.31,2.83,1.14,3.71,3.41,4.87-1.72.86-2.08,2.27-2.67,3.82a32.47,32.47,0,0,0,11.65,1l1.91-1.2.26,0c3.59,1.06,7.05.35,10.62-.41a38.78,38.78,0,0,0,5.86-2.36c-2-6.71-7.51-12-12.54-16.41-8.29-3.81-6.06-7.22-9.74-2.21l-1.93-.19a5.67,5.67,0,0,0-2,4.13A11.93,11.93,0,0,0,53.84,117.06Z"/><path id="path5283" class="cls-122" d="M53.88,116.17a7.1,7.1,0,0,1-.77-3.86c.24-.9,1.09-1.31,1.73-1.83l1.26-.12a8.37,8.37,0,0,1,2.58-2.16,9.84,9.84,0,0,1,1.81,1.6A12.86,12.86,0,0,1,64.13,112a10.38,10.38,0,0,1,2.78,2.39c.2.4.59.49.83.68a6.73,6.73,0,0,1-5,3.16c1.54,3.16.33,5.37-1.76,7.92-.32,1.48.52,2.32,1.23,3.44-2,1.27-4.4,1.32-6.71,1.55a9.46,9.46,0,0,1-6.37-.26,7.22,7.22,0,0,1,1.72-3.09,10.71,10.71,0,0,1-3.14-3.5c.42-2.9,2.32-4.33,4.64-5.79C54.36,119.53,54.76,117.71,53.88,116.17Z"/><path id="path5285" class="cls-123" d="M59.42,115.46c-.78.06-1.43.67-2.09,2.27.23,1.49.5,3,.58,4.51-.26,2-.07,3-1.08,4.55-1.64,1.28-2.34,2.09-4.34,2.34a2.89,2.89,0,0,0,1.7,2.29,10.85,10.85,0,0,0,1.29-.3,17.7,17.7,0,0,0,6-1.15c.24-.15.48-.29.7-.45-.7-1.09-1.52-1.93-1.2-3.39,2.09-2.55,3.3-4.76,1.76-7.92a6.23,6.23,0,0,0,2.12-.58c0-.08,0-.17,0-.26a26.52,26.52,0,0,0-2.5-.89A6.42,6.42,0,0,0,59.42,115.46Z"/></g></g></g><g id="g6069"><path id="path6057" class="cls-124" d="M72,133.24a6.66,6.66,0,0,1,1.22,2.67c-4.43,2.33-8.5-1.53-10.34-5.23,1.49-2.24.5-1.64,2.67-2.19,2.36-.73,4,.13,6.21.49A5.92,5.92,0,0,0,72,133.24Z"/><path id="path6059" class="cls-125" d="M63,130.44a15.07,15.07,0,0,0-.37-4.14l.61-.36c.24-.81.49-1.62.73-2.43,1.58-1.9,1.13-2.71.37-4.63,1.9-.88,3.22-1.11,3.77-2.92,7.38,2.69,7.14,10.18,4,15.82C69.3,129.92,66.08,130.44,63,130.44Z"/></g><g id="g6049"><path id="path6039" class="cls-126" d="M84.92,117.37c-.1,7.64-2.68,9.34,2.59,16.31,1.63,1.35,4.38,3,6.6,2,1.65-1,2-2.1,2.64-3.69A15.71,15.71,0,0,0,98,126.51a8.43,8.43,0,0,0-1-3.69c-.26.1-.1.32-.15.47,3.39,9.5-9.21,8.65-10.39,1C86.82,123.2,88.38,115.78,84.92,117.37Z"/><path id="path6029-0" class="cls-127" d="M86.79,117.22c-.33-1.3-1.7-1.87-3-2-2.43-.33-3.24.8-4.57,2.5a9.52,9.52,0,0,1-2.6,2.23,36.45,36.45,0,0,1-5,2.54A3.69,3.69,0,0,0,70.54,125c-.06,2.81-.15,5.3,1,7.84a4.29,4.29,0,0,1,1.5,3c.12.18.27.14.42.21,2-4.6,4-9.82,7.37-13.6,1.95-2.19,3.63-1.86,3.63-5.25,1.79-.11,1.75,1.73,1.87,3A4.89,4.89,0,0,0,86.79,117.22Z"/><path id="path5991" class="cls-128" d="M95.3,128.64c-1.4.06-2.74.16-4.15.16-5.53-2.86-2.57-7.94-4.52-12.15.55,2.71-1.46,4.82-1.76,7.58a22.72,22.72,0,0,0,2.85,7.94c1.29,2.29,3.47,3,6,3.17a10.77,10.77,0,0,0,2.44-4,5.92,5.92,0,0,0,.73-3.53A6.35,6.35,0,0,1,95.3,128.64Z"/><g id="g6025"><path id="path6013" class="cls-129" d="M83,116.08c-1.55,0-2.36,1.49-3.17,2.64a18.77,18.77,0,0,1-5.14,3.17,9.87,9.87,0,0,0-3.17,1.71c-.55,2.22,0,4.48.11,6.7-.17,1.46.32,2,1.3,2.86a8.75,8.75,0,0,1,.62,3c1.75-3.62,4.55-7.38,8.72-7.53C80.67,124.25,83,120.29,83,116.08Z"/><path id="path6003" class="cls-130" d="M82.69,116.08c3.08.25,3.33,2.28,2.28,4.65-.8,2.79-1.35,5.81.08,8.89a17.73,17.73,0,0,0-5.17-.71,10.38,10.38,0,0,0-.78-4c-.13-1.75-.21-1.48.47-2.76a3.48,3.48,0,0,1,1.82-1.59C81.93,118.93,81.53,117.12,82.69,116.08Z"/></g></g><g id="g5945"><path id="path5801" class="cls-131" d="M116.13,99.47c.42-.24.77-.1,1.2-.16,1.81,1.1,3.78,1.8,5.4,3a10.07,10.07,0,0,1,3,3.2c.44,1.75,1.28,3.32,1.68,5a10,10,0,0,0,1.71,2.49,6.61,6.61,0,0,0,2.25,2.06l1.12.21c1.8,3-.48-.66.87,1.17.49,1,.53.8,1.44,1a10.73,10.73,0,0,1-.33,3.43c0,1,.41,1.87.47,2.88a6.29,6.29,0,0,0,.77,2.47l.85.86.3.06,2.79-.8.2-.27,1.74-.14.51.17c2.14,1.76,3.63,4,6.35,5-3.44,0-7.59.18-10.76-1.4-6.5-1.78-13.28-2.06-20-2.83C119.39,119.31,115.5,107.3,116.13,99.47Z"/><path id="path5803" class="cls-132" d="M129.6,115.74a18.3,18.3,0,0,0,3.24,2.55l.92.87c0,.11.06.22.1.33,0,.8-.05,1.59-.07,2.39a2.47,2.47,0,0,0,.49,2l-2.12.15-.32,0C125.72,123.64,128.26,119.29,129.6,115.74Z"/><path id="path5635" class="cls-133" d="M118.56,115.26c-.29.22-.22.64-.32.92-.38.88.19,1.32.4,1.87.63,1.14,1.87,1.61,2.84,2.41a20.92,20.92,0,0,1-2.9,5.83c-.91,2.76-2.86,3.79-5,5.36a8.15,8.15,0,0,0-2.72,1.73c-.25-.13-.33.15-.49.21l.23.35a2.55,2.55,0,0,0,1.85-1.08,2.34,2.34,0,0,1,1.74-.87C121.65,131.4,127.57,117.55,118.56,115.26Z"/><path id="path5637" class="cls-134" d="M118.32,115.74a4.83,4.83,0,0,1,3.2-1.87,4.7,4.7,0,0,1,4-1.05,2.06,2.06,0,0,1,1.54,1,3.75,3.75,0,0,1,3.48,3.81c.25,1,.84,1.14,1.58,1.57-1.27,2.34-.12,3.9.48,6.23-1.8.36-2.66,1.87-2.85,3.59a13.54,13.54,0,0,0-3.42.26,18.88,18.88,0,0,0,.15,4.37,11,11,0,0,1-5.57-.67,2.22,2.22,0,0,1-1.61,1c-3.54-1.58-3.82-.77-1.62-4.13,1.86-2.85,4.54-6.59,5.17-10-1.82-1-4.29-1.75-4.48-4.07Z"/><path id="path5707" class="cls-135" d="M102.25,132a9.12,9.12,0,0,1-3-.2c-1.77-1.28-3-2.17-5.11-2,.22-.47.5-.92.76-1.38C96.42,128.79,102.22,129,102.25,132Z"/><g id="g5789"><path id="path5777" class="cls-136" d="M95.75,118.29c-.06-.82.42-1.18.73-1.8l1.39-1.21.3-.34a3.92,3.92,0,0,1,1.08-2.43,8.73,8.73,0,0,1,3.4-1.61,5.06,5.06,0,0,0,4.15-1l.8-.94.19-.2c.92.44,1.58,0,2.37-.25,2.89-.57,3.24-4.66,4-7.09a9.46,9.46,0,0,0,1.93-2c3.79,1.69,6.9,3.22,9.23,6.63,1.36,2.76,1.14,5.66,2.76,8.43C123.91,123.56,99.3,130.72,95.75,118.29Z"/><path id="path5779" class="cls-137" d="M108.73,112.82a14.88,14.88,0,0,0,3.71.08,28.86,28.86,0,0,0,7.81-.7c-1.94.76-2.8,1.07-3.51,1.35a18.28,18.28,0,0,1-4.22,3.47C111,116.52,109.09,114.06,108.73,112.82Z"/></g><path id="path5805" class="cls-138" d="M131.77,125.61c1.4,1.8,3.78,3,5.53,4-3.2.06-6-1.18-9-2A16.12,16.12,0,0,0,131.77,125.61Z"/><path id="path5755" class="cls-139" d="M99.47,114.64c.45-.38,1-.79,1.45-1.12,1.08-1.68,2.94-2.09,4.73-2.45l.36.54a6.65,6.65,0,0,1,2.63,0c2.54,2.11,3.92,5.63,7.8,4.34a6.11,6.11,0,0,1,.27-1c.16-1.19.44-.58.93-1.22,2-1.23,4.51-1.51,6.34-2.76,1.89.53,2.36,1.33,2.2,3.13C120.91,120.63,104.71,123.25,99.47,114.64Z"/><path id="path5735" class="cls-140" d="M100,115.28a20.81,20.81,0,0,1,1.71-1.69,12.1,12.1,0,0,1,3.12-2.13c.82.13,1.39.91,2,1.46a3.76,3.76,0,0,1,1.6,1C107.1,115.75,101.94,116.38,100,115.28Z"/><path id="path5709" class="cls-141" d="M94.25,129.57a2.64,2.64,0,0,1-.8-1.16c-.59-1.2-.41-.6-.6-1.78a8.85,8.85,0,0,1-.42-2.39l.41-2.17a5.24,5.24,0,0,1,.47-2.15c1.62-.36,1.21-.86,1.79-2.2a2,2,0,0,0,3-1.31c.3-1.23,1.36-1.9,2.37-2.6C99,118.75,99.67,126.69,94.25,129.57Z"/><g id="g5693"><path id="path5681" class="cls-142" d="M95.24,118.91c-.32.63-1,.93-1.63,1.36a16.57,16.57,0,0,1-.6,3.21,2.33,2.33,0,0,0,.07,1.9c.64,2.11.53,1.15.55,2.85,2.44,2.75-.51-.63.77.94,1.91-.19,3.6,1.07,5.27,1.93a10.93,10.93,0,0,0,2.81.46C104.52,118.62,103.61,121.59,95.24,118.91Z"/><path id="path5663" class="cls-143" d="M106.87,114a22.12,22.12,0,0,0-7.68,1.59c0,.91-.65,1.5-1,2.13-.57,1.27-1.55,1.06-2.78.92-.1.23-.23.45-.34.66,1.79.73,3.77.65,5.62.92l.62.55.18.18A10.5,10.5,0,0,0,106.87,114Z"/><path id="path5647" class="cls-144" d="M102.4,132a10.35,10.35,0,0,1,5-.59,6.32,6.32,0,0,1,3.32,2.36c5.13-2.58,10.31-5.67,11.9-11.72.08.23,1.67-7.1,2-6.65.59.86.27-2.19,1.4-2,.06-1-.78-1.36-1.45-1.94a47.48,47.48,0,0,0-6.86,2.62l-.41,1.44-.18.55c-1.52.72-3.32.56-5,.58-3.43,2.16-6.25,5.33-9.87,7.12a17.83,17.83,0,0,0-2.24,1.09,4.08,4.08,0,0,0,.67,2.23,2.74,2.74,0,0,1-.58,1.55c.12,1.91,1.08,2.46,2.32,3.41Z"/><g id="g5630"><path id="path5607" class="cls-145" d="M127,114.23a3.32,3.32,0,0,1,2.63,2c.17.58.36,1.43.51,2a4.51,4.51,0,0,1,1.3,1.07,12.84,12.84,0,0,0-.36,3.08,24.24,24.24,0,0,0,.77,2.32c-1.9.86-2.06,2.33-2.57,4.09a20,20,0,0,1-3.09.09c-.32,1.36-.27,2.62-.6,3.94-1.49.68-3.22.2-4.75-.22a5.57,5.57,0,0,1-1.74.87c-2-.36-3.82-1.1-5.8-1.47a5.54,5.54,0,0,0,3.2-1.87,22.12,22.12,0,0,0,2.16-2.67,20.26,20.26,0,0,0,3.59-6.37,4.36,4.36,0,0,0-.12-.92,6.88,6.88,0,0,1-2.57-1.91C117.7,113.84,124.16,113.89,127,114.23Z"/><path id="path5597" class="cls-146" d="M119.61,118.46a2,2,0,0,1-.93-1.45c-.58-1.5.67-1.89,1.91-2.19a11.1,11.1,0,0,1,3.33-1.32c1.86-.68,3.32.68,4.53,1.83a11,11,0,0,1-4.94-.86,4.61,4.61,0,0,0-2.62.78A2.8,2.8,0,0,0,119.61,118.46Z"/><path id="path5609" class="cls-147" d="M129.84,126.94c-3.25.34-6.75.44-9.9-1.07l-.08.06a15.49,15.49,0,0,1-1.2,1.57,22.12,22.12,0,0,1-2.16,2.67,5.54,5.54,0,0,1-3.2,1.87c2,.37,3.79,1.11,5.8,1.47a5.57,5.57,0,0,0,1.74-.87c1.53.42,3.26.9,4.75.22.33-1.32.28-2.58.6-3.94a20,20,0,0,0,3.09-.09C129.48,128.15,129.62,127.51,129.84,126.94Z"/></g><g id="g5657"><path id="path5595" class="cls-148" d="M109.76,113.83c-.63-.07-.86-.75-1.38-1a1.69,1.69,0,0,0-1.37.5c-.37.8-.77,1.62-1.13,2.41a21.4,21.4,0,0,0-2.21,3,14.26,14.26,0,0,1-2.14,1.85,8.36,8.36,0,0,0,.16,2.73c-.31,3.14,1.75,3.84,4,5.4a5.42,5.42,0,0,0,1.37.71,7.62,7.62,0,0,0,3.54.29c1.32-.16,2.6-.37,3.91-.46a8.56,8.56,0,0,0,3.34-.2c-.22-.25,0-.5,0-.75-.83-1.17-2.3-1.35-3.33-2.2,2-3.25-.47.76.86-1.41.49-1.67.47-.93.34-2.19a7.19,7.19,0,0,0-1.68-2.64,18,18,0,0,0-1.54-3.74C111.7,115.2,110.37,114.84,109.76,113.83Z"/><g id="g5591"><path id="path5569" class="cls-149" d="M113.58,124.6c.58-.14.88-.74,1.17-1.06.78-.22.18-.66.27-1-.49-.9-1.14-1.69-1.69-2.56a21.72,21.72,0,0,1-1.21-4,7.92,7.92,0,0,1-3.09-2.68c-1.45-.33-1.47.34-2,1a19.24,19.24,0,0,1-2.52,4.63c-.79.61-1.39,1.35-2.11,2a5.81,5.81,0,0,0,.44,3.68c3.57.47,7.24.16,10.82.24Z"/><path id="path5579" class="cls-150" d="M102.62,124.26c.47,1.93,2.22,2.81,3.79,3.79,1,.74,2.4.75,3.64,1,2.62-.2,5.31-.18,7.91-.61a12.6,12.6,0,0,0-3.8-2.14,7.29,7.29,0,0,1-1.14-1.49,15.82,15.82,0,0,0-5.36-.18C106,124.22,104.64,124.66,102.62,124.26Z"/></g></g></g><path id="path5931" class="cls-151" d="M113.91,131.89l.32-.06c4.39-1.75,7.35-7.39,9.07-11.82l-.06-.05-.48-.48c-1-.7-2.67-.48-3.08-2.33a1.69,1.69,0,0,0-.65.38,4.72,4.72,0,0,0,3.35,2.54c.05,1-.71,1.49-1.08,2.27-.4,1.86-1.39,3.06-2.32,4.64-1,.83-1.24,2.11-2.16,2.86A14.31,14.31,0,0,1,113.91,131.89Z"/><path id="path5935-5" class="cls-152" d="M119,118a7.74,7.74,0,0,0,3.56,2.22,12.54,12.54,0,0,1-1.13,2.21,15.3,15.3,0,0,1-3.19,5.94c-.13-.94-.11-.81-.75-1.19l-1-.43a11.36,11.36,0,0,1,1.19-2.49C118.18,122.14,118.59,120.06,119,118Z"/></g></g><path id="path6147" class="cls-153" d="M74.56,107.1c3,1.41,3.17,4.11,3.65,7,0-1.64.05-1.4.88-2.75.7-.59,1.43-1,2.07-1.58C79.32,108.05,76.45,108.13,74.56,107.1Z"/><path id="path6159" class="cls-153" d="M90.64,105.21c2.68.76,4.91,2.58,7.51,3.58-2,1.68-2.71,3.85-4.54,1.49C93.47,107.86,93,106.07,90.64,105.21Z"/><path id="path6161" class="cls-154" d="M94.57,118.49c0,.75-.57.82-1,1.14A11.78,11.78,0,0,0,92.38,123c-1,1.19-1.7.82-2.79.87,1.22-1.86,1-2.28,1.13-4.37,2.46-2.38,2.14-5.23,2.32-8.17A16.59,16.59,0,0,1,94.57,118.49Z"/></g></g></g></g></svg>