<svg id="Capa_1" data-name="Capa 1" xmlns="http://www.w3.org/2000/svg" viewBox="0 0 1065 34"><defs><style>.cls-1,.cls-2{fill:none;stroke:#ea153e;stroke-miterlimit:10;}.cls-1{stroke-width:1.72px;}.cls-2{stroke-width:3px;}</style></defs><title>itacate</title><path class="cls-1" d="M145.42,5.78a23.64,23.64,0,1,1-47.28,0"/><path class="cls-1" d="M179.81,29.42a23.64,23.64,0,1,1,47.27,0"/><path class="cls-1" d="M12.18,29.42a23.64,23.64,0,0,1,47.28,0"/><circle class="cls-1" cx="163.9" cy="17.82" r="8.2"/><circle class="cls-1" cx="77.08" cy="17.82" r="8.2"/><path class="cls-1" d="M313.9,5.78a23.64,23.64,0,1,1-47.27,0"/><path class="cls-1" d="M348.29,29.42a23.64,23.64,0,0,1,47.28,0"/><circle class="cls-1" cx="332.38" cy="17.82" r="8.2"/><circle class="cls-1" cx="245.57" cy="17.82" r="8.2"/><path class="cls-1" d="M481.53,5.78a23.64,23.64,0,1,1-47.28,0"/><path class="cls-1" d="M515.91,29.42a23.64,23.64,0,0,1,47.28,0"/><circle class="cls-1" cx="500.01" cy="17.82" r="8.2"/><circle class="cls-1" cx="413.19" cy="17.82" r="8.2"/><path class="cls-1" d="M649.15,5.78a23.64,23.64,0,1,1-47.28,0"/><path class="cls-1" d="M683.53,29.42a23.64,23.64,0,0,1,47.28,0"/><circle class="cls-1" cx="667.63" cy="17.82" r="8.2"/><circle class="cls-1" cx="580.81" cy="17.82" r="8.2"/><path class="cls-1" d="M815.05,5.78a23.64,23.64,0,0,1-47.28,0"/><path class="cls-1" d="M849.43,29.42a23.64,23.64,0,1,1,47.28,0"/><circle class="cls-1" cx="833.53" cy="17.82" r="8.2"/><circle class="cls-1" cx="746.71" cy="17.82" r="8.2"/><path class="cls-1" d="M983.53,5.78a23.64,23.64,0,0,1-47.28,0"/><path class="cls-1" d="M1017.91,29.42a23.64,23.64,0,0,1,47.28,0"/><circle class="cls-1" cx="1002.01" cy="17.82" r="8.2"/><circle class="cls-1" cx="915.19" cy="17.82" r="8.2"/><polyline class="cls-2" points="948 -741 1187 -741 1187 25 1280 25"/></svg>