<?xml version="1.0" encoding="utf-8"?>
<!-- Generator: Adobe Illustrator 24.0.3, SVG Export Plug-In . SVG Version: 6.00 Build 0)  -->
<svg version="1.1" id="Capa_1" xmlns="http://www.w3.org/2000/svg" xmlns:xlink="http://www.w3.org/1999/xlink" x="0px" y="0px"
	 viewBox="0 0 77 80" style="enable-background:new 0 0 77 80;" xml:space="preserve">
<style type="text/css">
	.st0{fill:#333333;}
</style>
<title>itacate</title>
<g id="_0PN3gQ">
	<path class="st0" d="M13,70h53.2c0-0.7,0.1-1.3,0.1-2c0-7.3,0-14.5,0-21.8c-0.1-0.9,0.1-1.8,0.4-2.6c0.6-1.3,2-2,3.4-1.8
		c1.5,0.2,2.6,1.3,2.8,2.8c0,0.4,0,0.7,0,1.1c0,9,0,18.1,0,27.1c0,2.7-1.1,3.8-3.8,3.8H10.2c-2.6,0-3.7-1.2-3.7-3.8
		c0-9,0-18.1,0-27.1c0-2.4,1.2-3.8,3.2-3.8s3.3,1.4,3.3,3.9c0,7.4,0,14.8,0,22.1V70z"/>
	<path class="st0" d="M39.6,8.1L22.8,23.4C17.6,28,12.5,32.7,7.4,37.3c-1.7,1.5-3.7,1.6-5,0.2S1.2,34,3,32.4
		C14.3,22.1,25.7,11.8,37.1,1.5c1.7-1.6,3.3-1.6,5,0c11.5,10.4,23,20.7,34.5,31.1c1.4,1.1,1.7,3.2,0.6,4.6c0,0-0.1,0.1-0.1,0.1
		c-1.3,1.5-3.3,1.5-5,0c-5.2-4.7-10.4-9.4-15.6-14.1L40.6,8.9C40.3,8.6,40,8.4,39.6,8.1z"/>
</g>
</svg>
