<?xml version="1.0" encoding="utf-8"?>
<!-- Generator: Adobe Illustrator 24.0.3, SVG Export Plug-In . SVG Version: 6.00 Build 0)  -->
<svg version="1.1" id="Capa_1" xmlns="http://www.w3.org/2000/svg" xmlns:xlink="http://www.w3.org/1999/xlink" x="0px" y="0px"
	 viewBox="0 0 1065 34" style="enable-background:new 0 0 1065 34;" xml:space="preserve">
<style type="text/css">
	.st0{fill:#B3B3B3;}
</style>
<title>itacate</title>
<g>
	<path class="st0" d="M98.2,21.1c-0.9,4-4.5,7.1-8.8,7.1c-3.7,0-6.7-3-6.7-6.7c0-2.7,2.2-4.9,4.9-4.9c1.4,0,2.6,0.8,3.1,2
		c0.4,0.9,1.3,1.4,2.2,1.4c1.8,0,3-1.8,2.2-3.4c-1.3-2.9-4.2-4.9-7.6-4.9c-3.3,0-6.2,1.6-8,4.2c-1.1,1.6-1.8,3.5-1.8,5.6
		c0,0.6,0,1.1,0.1,1.7c0.2,1.9,0.9,3.7,2,5.2c2,2.9,5.3,4.7,8.8,4.7c3.7,0,7-1.2,9.5-3.1l0-7.1C98.1,22.2,98.2,21.7,98.2,21.1z"/>
	<path class="st0" d="M86.5,2.4c-5.1,0-10,1.9-13.8,5.4c-1.2,1.1-2.3,2.4-3.2,3.8c-2.8-5.4-8.4-9.2-15-9.2c0,0,0,0,0,0c0,0,0,0,0,0
		c-0.1,0-0.2,0-0.3,0c0,0-0.1,0-0.1,0c-6.9,0.2-13,3.8-16.6,9.2c-2.8-5.4-8.4-9.2-15-9.2c-11.2,0-20.4,9.1-20.4,20.4l0,10.2H7
		l0-10.2c0-8.5,7-15.5,15.5-15.5c4,0,7.5,2,9.7,5c1.4,1.9,2.2,4.3,2.2,6.9c0,0,0,0,0,0c-0.1,0.7-0.2,1.4-0.3,2.2
		c-1,3.9-4.5,6.9-8.8,6.9c-3.7,0-6.7-3-6.7-6.7c0-2.7,2.2-4.9,4.9-4.9c1.4,0,2.6,0.8,3.1,2c0.4,0.9,1.3,1.4,2.2,1.4
		c1.8,0,3-1.8,2.2-3.4c-1.3-2.9-4.2-4.9-7.6-4.9c-2.2,0-4.2,0.7-5.9,1.9c-2.3,2-3.8,5-3.8,8.3c0,6.2,5.5,11,11.1,11
		c4.4,0,8.4-1.9,11-4.7h-0.1c0.5-0.5,0.9-1.1,1.3-1.7c0.9-1.4,1.5-2.9,1.8-4.6c0.1-0.6,0.2-1.1,0.2-1.7c0-0.1,0-0.3,0.1-0.4
		c0.6-3.3,2.3-6.3,4.8-8.6c2.9-2.6,6.6-4.1,10.4-4.1c4,0,7.6,2,9.8,5.1c1.3,1.9,2.1,4.3,2.1,6.8c0,0.2,0,0.4,0,0.5
		c-0.1,0.4-0.1,0.8-0.1,1.2c-0.8,4.2-4.5,7.3-8.8,7.4c-3.7,0-6.7-3-6.7-6.7c0-2.7,2.2-4.9,4.9-4.9c1.4,0,2.6,0.8,3.1,2
		c0.4,0.9,1.3,1.4,2.2,1.4c0,0,0,0,0,0c0,0,0,0,0,0c1.8,0,3-1.8,2.2-3.4c-1.3-2.9-4.2-4.9-7.6-4.9c0,0,0,0,0,0c0,0,0,0,0,0
		c-5.4,0-9.8,4.4-9.8,9.8c0,2.5,0.8,4.9,2.2,6.8h-0.1C50,31.1,53.5,33,57,33c4.4,0,8.4-1.9,11-4.7h-0.1c2-2.3,3.2-5.1,3.4-8.3
		c0-0.1,0-0.2,0-0.2c0.6-3.2,2.3-6.1,4.7-8.4c2.9-2.6,6.6-4.1,10.5-4.1c4,0,7.6,2,9.7,5c1.4,1.9,2.2,4.3,2.2,6.9c0,0.1,0,0.2,0,0.3
		c0.5-2.9,1.5-5.6,3.1-7.9C98.7,6.1,93.1,2.4,86.5,2.4z"/>
	<path class="st0" d="M103.3,19.9c-0.1,0.6-0.2,1.2-0.2,1.9C103.2,21.2,103.3,20.5,103.3,19.9z"/>
	<path class="st0" d="M98.2,21.1c0.1-0.5,0.2-1.1,0.2-1.6C98.3,20.1,98.3,20.6,98.2,21.1z"/>
	<path class="st0" d="M182.6,2.4c-5.1,0-10,1.9-13.8,5.4c-1.2,1.1-2.3,2.4-3.2,3.8c-2.8-5.4-8.4-9.2-15-9.2c0,0,0,0,0,0c0,0,0,0,0,0
		c-0.1,0-0.2,0-0.3,0c0,0-0.1,0-0.1,0c-6.9,0.2-13,3.8-16.6,9.2c-2.8-5.4-8.4-9.2-15-9.2c-7.1,0-13.4,3.7-17,9.2
		c1.2,2.3,1.8,4.9,1.8,7.6c0,0.2,0,0.4,0,0.6c0,0.1,0,0.1,0,0.2c1.3-7.2,7.7-12.6,15.2-12.6c4,0,7.5,2,9.7,5
		c1.4,1.9,2.2,4.3,2.2,6.9c0,0,0,0,0,0c-0.1,0.7-0.2,1.4-0.3,2.2c-1,3.9-4.5,6.9-8.8,6.9c-3.7,0-6.7-3-6.7-6.7
		c0-2.7,2.2-4.9,4.9-4.9c1.4,0,2.6,0.8,3.1,2c0.4,0.9,1.3,1.4,2.2,1.4c1.8,0,3-1.8,2.2-3.4c-1.3-2.9-4.2-4.9-7.6-4.9
		c-2.2,0-4.2,0.7-5.9,1.9c-2.3,2-3.8,5-3.8,8.3c0,6.2,5.5,11,11.1,11c4.4,0,8.4-1.9,11-4.7h-0.1c0.5-0.5,0.9-1.1,1.3-1.7
		c0.9-1.4,1.5-2.9,1.8-4.6c0.1-0.6,0.2-1.1,0.2-1.7c0-0.1,0-0.3,0.1-0.4c0.6-3.3,2.3-6.3,4.8-8.6c2.9-2.6,6.6-4.1,10.4-4.1
		c4,0,7.6,2,9.8,5.1c1.3,1.9,2.1,4.3,2.1,6.8c0,0.2,0,0.4,0,0.5c-0.1,0.4-0.1,0.8-0.1,1.2c-0.8,4.2-4.5,7.3-8.8,7.4
		c-3.7,0-6.7-3-6.7-6.7c0-2.7,2.2-4.9,4.9-4.9c1.4,0,2.6,0.8,3.1,2c0.4,0.9,1.3,1.4,2.2,1.4c0,0,0,0,0,0c0,0,0,0,0,0
		c1.8,0,3-1.8,2.2-3.4c-1.3-2.9-4.2-4.9-7.6-4.9c0,0,0,0,0,0c0,0,0,0,0,0c-5.4,0-9.8,4.4-9.8,9.8c0,2.5,0.8,4.9,2.2,6.8h-0.1
		c2.2,2.8,5.7,4.7,9.1,4.7c4.4,0,8.4-1.9,11-4.7H164c2-2.3,3.2-5.1,3.4-8.3c0-0.1,0-0.2,0-0.2c0.6-3.2,2.3-6.1,4.7-8.4
		c2.9-2.6,6.6-4.1,10.5-4.1c4,0,7.6,2,9.7,5c1.4,1.9,2.2,4.3,2.2,6.9c0,5-4.1,9-9,9c-3.7,0-6.7-3-6.7-6.7c0-2.7,2.2-4.9,4.9-4.9
		c1.4,0,2.6,0.8,3.1,2c0.4,0.9,1.3,1.4,2.2,1.4c1.8,0,3-1.8,2.2-3.4c-1.3-2.9-4.2-4.9-7.6-4.9c-3.3,0-6.2,1.6-8,4.2
		c-1.1,1.6-1.8,3.5-1.8,5.6c0,0.6,0,1.1,0.1,1.7c0.2,1.9,0.9,3.7,2,5.2c2,2.9,5.3,4.7,8.8,4.7c4.8,0,8.8-2,11.5-4.9
		c1.9-2.3,3.1-5.2,3.2-8.3c0-0.2,0-0.4,0-0.6C199.4,9.9,191.8,2.4,182.6,2.4z"/>
	<path class="st0" d="M278.5,2.4c-5.1,0-10,1.9-13.8,5.4c-1.2,1.1-2.3,2.4-3.2,3.8c-2.8-5.4-8.4-9.2-15-9.2c0,0,0,0,0,0c0,0,0,0,0,0
		c-0.1,0-0.2,0-0.3,0c0,0-0.1,0-0.1,0c-6.9,0.2-13,3.8-16.6,9.2c-2.8-5.4-8.4-9.2-15-9.2c-7.1,0-13.4,3.7-17,9.2
		c1.2,2.3,1.8,4.9,1.8,7.6c0,0.2,0,0.4,0,0.6c0,0.1,0,0.1,0,0.2c1.3-7.2,7.7-12.6,15.2-12.6c4,0,7.5,2,9.7,5
		c1.4,1.9,2.2,4.3,2.2,6.9c0,0,0,0,0,0c-0.1,0.7-0.2,1.4-0.3,2.2c-1,3.9-4.5,6.9-8.8,6.9c-3.7,0-6.7-3-6.7-6.7
		c0-2.7,2.2-4.9,4.9-4.9c1.4,0,2.6,0.8,3.1,2c0.4,0.9,1.3,1.4,2.2,1.4c1.8,0,3-1.8,2.2-3.4c-1.3-2.9-4.2-4.9-7.6-4.9
		c-2.2,0-4.2,0.7-5.9,1.9c-2.3,2-3.8,5-3.8,8.3c0,6.2,5.5,11,11.1,11c4.4,0,8.4-1.9,11-4.7h-0.1c0.5-0.5,0.9-1.1,1.3-1.7
		c0.9-1.4,1.5-2.9,1.8-4.6c0.1-0.6,0.2-1.1,0.2-1.7c0-0.1,0-0.3,0.1-0.4c0.6-3.3,2.3-6.3,4.8-8.6c2.9-2.6,6.6-4.1,10.4-4.1
		c4,0,7.6,2,9.8,5.1c1.3,1.9,2.1,4.3,2.1,6.8c0,0.2,0,0.4,0,0.5c-0.1,0.4-0.1,0.8-0.1,1.2c-0.8,4.2-4.5,7.3-8.8,7.4
		c-3.7,0-6.7-3-6.7-6.7c0-2.7,2.2-4.9,4.9-4.9c1.4,0,2.6,0.8,3.1,2c0.4,0.9,1.3,1.4,2.2,1.4c0,0,0,0,0,0c0,0,0,0,0,0
		c1.8,0,3-1.8,2.2-3.4c-1.3-2.9-4.2-4.9-7.6-4.9c0,0,0,0,0,0c0,0,0,0,0,0c-5.4,0-9.8,4.4-9.8,9.8c0,2.5,0.8,4.9,2.2,6.8h-0.1
		c2.2,2.8,5.7,4.7,9.1,4.7c4.4,0,8.4-1.9,11-4.7H260c2-2.3,3.2-5.1,3.4-8.3c0-0.1,0-0.2,0-0.2c0.6-3.2,2.3-6.1,4.7-8.4
		c2.9-2.6,6.6-4.1,10.5-4.1c4,0,7.6,2,9.7,5c1.4,1.9,2.2,4.3,2.2,6.9c0,5-4.1,9-9,9c-3.7,0-6.7-3-6.7-6.7c0-2.7,2.2-4.9,4.9-4.9
		c1.4,0,2.6,0.8,3.1,2c0.4,0.9,1.3,1.4,2.2,1.4c1.8,0,3-1.8,2.2-3.4c-1.3-2.9-4.2-4.9-7.6-4.9c-3.3,0-6.2,1.6-8,4.2
		c-1.1,1.6-1.8,3.5-1.8,5.6c0,0.6,0,1.1,0.1,1.7c0.2,1.9,0.9,3.7,2,5.2c2,2.9,5.3,4.7,8.8,4.7c4.8,0,8.8-2,11.5-4.9
		c1.9-2.3,3.1-5.2,3.2-8.3c0-0.2,0-0.4,0-0.6C295.3,9.9,287.8,2.4,278.5,2.4z"/>
	<path class="st0" d="M374.5,2.4c-5.1,0-10,1.9-13.8,5.4c-1.2,1.1-2.3,2.4-3.2,3.8c-2.8-5.4-8.4-9.2-15-9.2c0,0,0,0,0,0c0,0,0,0,0,0
		c-0.1,0-0.2,0-0.3,0c0,0-0.1,0-0.1,0c-6.9,0.2-13,3.8-16.6,9.2c-2.8-5.4-8.4-9.2-15-9.2c-7.1,0-13.4,3.7-17,9.2
		c1.2,2.3,1.8,4.9,1.8,7.6c0,0.2,0,0.4,0,0.6c0,0.1,0,0.1,0,0.2c1.3-7.2,7.7-12.6,15.2-12.6c4,0,7.5,2,9.7,5
		c1.4,1.9,2.2,4.3,2.2,6.9c0,0,0,0,0,0c-0.1,0.7-0.2,1.4-0.3,2.2c-1,3.9-4.5,6.9-8.8,6.9c-3.7,0-6.7-3-6.7-6.7
		c0-2.7,2.2-4.9,4.9-4.9c1.4,0,2.6,0.8,3.1,2c0.4,0.9,1.3,1.4,2.2,1.4c1.8,0,3-1.8,2.2-3.4c-1.3-2.9-4.2-4.9-7.6-4.9
		c-2.2,0-4.2,0.7-5.9,1.9c-2.3,2-3.8,5-3.8,8.3c0,6.2,5.5,11,11.1,11c4.4,0,8.4-1.9,11-4.7h-0.1c0.5-0.5,0.9-1.1,1.3-1.7
		c0.9-1.4,1.5-2.9,1.8-4.6c0.1-0.6,0.2-1.1,0.2-1.7c0-0.1,0-0.3,0.1-0.4c0.6-3.3,2.3-6.3,4.8-8.6c2.9-2.6,6.6-4.1,10.4-4.1
		c4,0,7.6,2,9.8,5.1c1.3,1.9,2.1,4.3,2.1,6.8c0,0.2,0,0.4,0,0.5c-0.1,0.4-0.1,0.8-0.1,1.2c-0.8,4.2-4.5,7.3-8.8,7.4
		c-3.7,0-6.7-3-6.7-6.7c0-2.7,2.2-4.9,4.9-4.9c1.4,0,2.6,0.8,3.1,2c0.4,0.9,1.3,1.4,2.2,1.4c0,0,0,0,0,0c0,0,0,0,0,0
		c1.8,0,3-1.8,2.2-3.4c-1.3-2.9-4.2-4.9-7.6-4.9c0,0,0,0,0,0c0,0,0,0,0,0c-5.4,0-9.8,4.4-9.8,9.8c0,2.5,0.8,4.9,2.2,6.8h-0.1
		c2.2,2.8,5.7,4.7,9.1,4.7c4.4,0,8.4-1.9,11-4.7h-0.1c2-2.3,3.2-5.1,3.4-8.3c0-0.1,0-0.2,0-0.2c0.6-3.2,2.3-6.1,4.7-8.4
		c2.9-2.6,6.6-4.1,10.5-4.1c4,0,7.6,2,9.7,5c1.4,1.9,2.2,4.3,2.2,6.9c0,5-4.1,9-9,9c-3.7,0-6.7-3-6.7-6.7c0-2.7,2.2-4.9,4.9-4.9
		c1.4,0,2.6,0.8,3.1,2c0.4,0.9,1.3,1.4,2.2,1.4c1.8,0,3-1.8,2.2-3.4c-1.3-2.9-4.2-4.9-7.6-4.9c-3.3,0-6.2,1.6-8,4.2
		c-1.1,1.6-1.8,3.5-1.8,5.6c0,0.6,0,1.1,0.1,1.7c0.2,1.9,0.9,3.7,2,5.2c2,2.9,5.3,4.7,8.8,4.7c4.8,0,8.8-2,11.5-4.9
		c1.9-2.3,3.1-5.2,3.2-8.3c0-0.2,0-0.4,0-0.6C391.3,9.9,383.8,2.4,374.5,2.4z"/>
	<path class="st0" d="M470.5,2.4c-5.1,0-10,1.9-13.8,5.4c-1.2,1.1-2.3,2.4-3.2,3.8c-2.8-5.4-8.4-9.2-15-9.2c0,0,0,0,0,0c0,0,0,0,0,0
		c-0.1,0-0.2,0-0.3,0c0,0-0.1,0-0.1,0c-6.9,0.2-13,3.8-16.6,9.2c-2.8-5.4-8.4-9.2-15-9.2c-7.1,0-13.4,3.7-17,9.2
		c1.2,2.3,1.8,4.9,1.8,7.6c0,0.2,0,0.4,0,0.6c0,0.1,0,0.1,0,0.2c1.3-7.2,7.7-12.6,15.2-12.6c4,0,7.5,2,9.7,5
		c1.4,1.9,2.2,4.3,2.2,6.9c0,0,0,0,0,0c-0.1,0.7-0.2,1.4-0.3,2.2c-1,3.9-4.5,6.9-8.8,6.9c-3.7,0-6.7-3-6.7-6.7
		c0-2.7,2.2-4.9,4.9-4.9c1.4,0,2.6,0.8,3.1,2c0.4,0.9,1.3,1.4,2.2,1.4c1.8,0,3-1.8,2.2-3.4c-1.3-2.9-4.2-4.9-7.6-4.9
		c-2.2,0-4.2,0.7-5.9,1.9c-2.3,2-3.8,5-3.8,8.3c0,6.2,5.5,11,11.1,11c4.4,0,8.4-1.9,11-4.7h-0.1c0.5-0.5,0.9-1.1,1.3-1.7
		c0.9-1.4,1.5-2.9,1.8-4.6c0.1-0.6,0.2-1.1,0.2-1.7c0-0.1,0-0.3,0.1-0.4c0.6-3.3,2.3-6.3,4.8-8.6c2.9-2.6,6.6-4.1,10.4-4.1
		c4,0,7.6,2,9.8,5.1c1.3,1.9,2.1,4.3,2.1,6.8c0,0.2,0,0.4,0,0.5c-0.1,0.4-0.1,0.8-0.1,1.2c-0.8,4.2-4.5,7.3-8.8,7.4
		c-3.7,0-6.7-3-6.7-6.7c0-2.7,2.2-4.9,4.9-4.9c1.4,0,2.6,0.8,3.1,2c0.4,0.9,1.3,1.4,2.2,1.4c0,0,0,0,0,0c0,0,0,0,0,0
		c1.8,0,3-1.8,2.2-3.4c-1.3-2.9-4.2-4.9-7.6-4.9c0,0,0,0,0,0c0,0,0,0,0,0c-5.4,0-9.8,4.4-9.8,9.8c0,2.5,0.8,4.9,2.2,6.8h-0.1
		c2.2,2.8,5.7,4.7,9.1,4.7c4.4,0,8.4-1.9,11-4.7h-0.1c2-2.3,3.2-5.1,3.4-8.3c0-0.1,0-0.2,0-0.2c0.6-3.2,2.3-6.1,4.7-8.4
		c2.9-2.6,6.6-4.1,10.5-4.1c4,0,7.6,2,9.7,5c1.4,1.9,2.2,4.3,2.2,6.9c0,5-4.1,9-9,9c-3.7,0-6.7-3-6.7-6.7c0-2.7,2.2-4.9,4.9-4.9
		c1.4,0,2.6,0.8,3.1,2c0.4,0.9,1.3,1.4,2.2,1.4c1.8,0,3-1.8,2.2-3.4c-1.3-2.9-4.2-4.9-7.6-4.9c-3.3,0-6.2,1.6-8,4.2
		c-1.1,1.6-1.8,3.5-1.8,5.6c0,0.6,0,1.1,0.1,1.7c0.2,1.9,0.9,3.7,2,5.2c2,2.9,5.3,4.7,8.8,4.7c4.8,0,8.8-2,11.5-4.9
		c1.9-2.3,3.1-5.2,3.2-8.3c0-0.2,0-0.4,0-0.6C487.3,9.9,479.7,2.4,470.5,2.4z"/>
	<path class="st0" d="M566.4,2.4c-5.1,0-10,1.9-13.8,5.4c-1.2,1.1-2.3,2.4-3.2,3.8c-2.8-5.4-8.4-9.2-15-9.2c0,0,0,0,0,0c0,0,0,0,0,0
		c-0.1,0-0.2,0-0.3,0c0,0-0.1,0-0.1,0c-6.9,0.2-13,3.8-16.6,9.2c-2.8-5.4-8.4-9.2-15-9.2c-7.1,0-13.4,3.7-17,9.2
		c1.2,2.3,1.8,4.9,1.8,7.6c0,0.2,0,0.4,0,0.6c0,0.1,0,0.1,0,0.2c1.3-7.2,7.7-12.6,15.2-12.6c4,0,7.5,2,9.7,5
		c1.4,1.9,2.2,4.3,2.2,6.9c0,0,0,0,0,0c-0.1,0.7-0.2,1.4-0.3,2.2c-1,3.9-4.5,6.9-8.8,6.9c-3.7,0-6.7-3-6.7-6.7
		c0-2.7,2.2-4.9,4.9-4.9c1.4,0,2.6,0.8,3.1,2c0.4,0.9,1.3,1.4,2.2,1.4c1.8,0,3-1.8,2.2-3.4c-1.3-2.9-4.2-4.9-7.6-4.9
		c-2.2,0-4.2,0.7-5.9,1.9c-2.3,2-3.8,5-3.8,8.3c0,6.2,5.5,11,11.1,11c4.4,0,8.4-1.9,11-4.7h-0.1c0.5-0.5,0.9-1.1,1.3-1.7
		c0.9-1.4,1.5-2.9,1.8-4.6c0.1-0.6,0.2-1.1,0.2-1.7c0-0.1,0-0.3,0.1-0.4c0.6-3.3,2.3-6.3,4.8-8.6c2.9-2.6,6.6-4.1,10.4-4.1
		c4,0,7.6,2,9.8,5.1c1.3,1.9,2.1,4.3,2.1,6.8c0,0.2,0,0.4,0,0.5c-0.1,0.4-0.1,0.8-0.1,1.2c-0.8,4.2-4.5,7.3-8.8,7.4
		c-3.7,0-6.7-3-6.7-6.7c0-2.7,2.2-4.9,4.9-4.9c1.4,0,2.6,0.8,3.1,2c0.4,0.9,1.3,1.4,2.2,1.4c0,0,0,0,0,0c0,0,0,0,0,0
		c1.8,0,3-1.8,2.2-3.4c-1.3-2.9-4.2-4.9-7.6-4.9c0,0,0,0,0,0c0,0,0,0,0,0c-5.4,0-9.8,4.4-9.8,9.8c0,2.5,0.8,4.9,2.2,6.8h-0.1
		c2.2,2.8,5.7,4.7,9.1,4.7c4.4,0,8.4-1.9,11-4.7h-0.1c2-2.3,3.2-5.1,3.4-8.3c0-0.1,0-0.2,0-0.2c0.6-3.2,2.3-6.1,4.7-8.4
		c2.9-2.6,6.6-4.1,10.5-4.1c4,0,7.6,2,9.7,5c1.4,1.9,2.2,4.3,2.2,6.9c0,5-4.1,9-9,9c-3.7,0-6.7-3-6.7-6.7c0-2.7,2.2-4.9,4.9-4.9
		c1.4,0,2.6,0.8,3.1,2c0.4,0.9,1.3,1.4,2.2,1.4c1.8,0,3-1.8,2.2-3.4c-1.3-2.9-4.2-4.9-7.6-4.9c-3.3,0-6.2,1.6-8,4.2
		c-1.1,1.6-1.8,3.5-1.8,5.6c0,0.6,0,1.1,0.1,1.7c0.2,1.9,0.9,3.7,2,5.2c2,2.9,5.3,4.7,8.8,4.7c4.8,0,8.8-2,11.5-4.9
		c1.9-2.3,3.1-5.2,3.2-8.3c0-0.2,0-0.4,0-0.6C583.2,9.9,575.7,2.4,566.4,2.4z"/>
	<path class="st0" d="M662.4,2.4c-5.1,0-10,1.9-13.8,5.4c-1.2,1.1-2.3,2.4-3.2,3.8c-2.8-5.4-8.4-9.2-15-9.2c0,0,0,0,0,0c0,0,0,0,0,0
		c-0.1,0-0.2,0-0.3,0c0,0-0.1,0-0.1,0c-6.9,0.2-13,3.8-16.6,9.2c-2.8-5.4-8.4-9.2-15-9.2c-7.1,0-13.4,3.7-17,9.2
		c1.2,2.3,1.8,4.9,1.8,7.6c0,0.2,0,0.4,0,0.6c0,0.1,0,0.1,0,0.2c1.3-7.2,7.7-12.6,15.2-12.6c4,0,7.5,2,9.7,5
		c1.4,1.9,2.2,4.3,2.2,6.9c0,0,0,0,0,0c-0.1,0.7-0.2,1.4-0.3,2.2c-1,3.9-4.5,6.9-8.8,6.9c-3.7,0-6.7-3-6.7-6.7
		c0-2.7,2.2-4.9,4.9-4.9c1.4,0,2.6,0.8,3.1,2c0.4,0.9,1.3,1.4,2.2,1.4c1.8,0,3-1.8,2.2-3.4c-1.3-2.9-4.2-4.9-7.6-4.9
		c-2.2,0-4.2,0.7-5.9,1.9c-2.3,2-3.8,5-3.8,8.3c0,6.2,5.5,11,11.1,11c4.4,0,8.4-1.9,11-4.7h-0.1c0.5-0.5,0.9-1.1,1.3-1.7
		c0.9-1.4,1.5-2.9,1.8-4.6c0.1-0.6,0.2-1.1,0.2-1.7c0-0.1,0-0.3,0.1-0.4c0.6-3.3,2.3-6.3,4.8-8.6c2.9-2.6,6.6-4.1,10.4-4.1
		c4,0,7.6,2,9.8,5.1c1.3,1.9,2.1,4.3,2.1,6.8c0,0.2,0,0.4,0,0.5c-0.1,0.4-0.1,0.8-0.1,1.2c-0.8,4.2-4.5,7.3-8.8,7.4
		c-3.7,0-6.7-3-6.7-6.7c0-2.7,2.2-4.9,4.9-4.9c1.4,0,2.6,0.8,3.1,2c0.4,0.9,1.3,1.4,2.2,1.4c0,0,0,0,0,0c0,0,0,0,0,0
		c1.8,0,3-1.8,2.2-3.4c-1.3-2.9-4.2-4.9-7.6-4.9c0,0,0,0,0,0c0,0,0,0,0,0c-5.4,0-9.8,4.4-9.8,9.8c0,2.5,0.8,4.9,2.2,6.8h-0.1
		c2.2,2.8,5.7,4.7,9.1,4.7c4.4,0,8.4-1.9,11-4.7h-0.1c2-2.3,3.2-5.1,3.4-8.3c0-0.1,0-0.2,0-0.2c0.6-3.2,2.3-6.1,4.7-8.4
		c2.9-2.6,6.6-4.1,10.5-4.1c4,0,7.6,2,9.7,5c1.4,1.9,2.2,4.3,2.2,6.9c0,5-4.1,9-9,9c-3.7,0-6.7-3-6.7-6.7c0-2.7,2.2-4.9,4.9-4.9
		c1.4,0,2.6,0.8,3.1,2c0.4,0.9,1.3,1.4,2.2,1.4c1.8,0,3-1.8,2.2-3.4c-1.3-2.9-4.2-4.9-7.6-4.9c-3.3,0-6.2,1.6-8,4.2
		c-1.1,1.6-1.8,3.5-1.8,5.6c0,0.6,0,1.1,0.1,1.7c0.2,1.9,0.9,3.7,2,5.2c2,2.9,5.3,4.7,8.8,4.7c4.8,0,8.8-2,11.5-4.9
		c1.9-2.3,3.1-5.2,3.2-8.3c0-0.2,0-0.4,0-0.6C679.2,9.9,671.7,2.4,662.4,2.4z"/>
	<path class="st0" d="M758.4,2.4c-5.1,0-10,1.9-13.8,5.4c-1.2,1.1-2.3,2.4-3.2,3.8c-2.8-5.4-8.4-9.2-15-9.2c0,0,0,0,0,0c0,0,0,0,0,0
		c-0.1,0-0.2,0-0.3,0c0,0-0.1,0-0.1,0c-6.9,0.2-13,3.8-16.6,9.2c-2.8-5.4-8.4-9.2-15-9.2c-7.1,0-13.4,3.7-17,9.2
		c1.2,2.3,1.8,4.9,1.8,7.6c0,0.2,0,0.4,0,0.6c0,0.1,0,0.1,0,0.2c1.3-7.2,7.7-12.6,15.2-12.6c4,0,7.5,2,9.7,5
		c1.4,1.9,2.2,4.3,2.2,6.9c0,0,0,0,0,0c-0.1,0.7-0.2,1.4-0.3,2.2c-1,3.9-4.5,6.9-8.8,6.9c-3.7,0-6.7-3-6.7-6.7
		c0-2.7,2.2-4.9,4.9-4.9c1.4,0,2.6,0.8,3.1,2c0.4,0.9,1.3,1.4,2.2,1.4c1.8,0,3-1.8,2.2-3.4c-1.3-2.9-4.2-4.9-7.6-4.9
		c-2.2,0-4.2,0.7-5.9,1.9c-2.3,2-3.8,5-3.8,8.3c0,6.2,5.5,11,11.1,11c4.4,0,8.4-1.9,11-4.7h-0.1c0.5-0.5,0.9-1.1,1.3-1.7
		c0.9-1.4,1.5-2.9,1.8-4.6c0.1-0.6,0.2-1.1,0.2-1.7c0-0.1,0-0.3,0.1-0.4c0.6-3.3,2.3-6.3,4.8-8.6c2.9-2.6,6.6-4.1,10.4-4.1
		c4,0,7.6,2,9.8,5.1c1.3,1.9,2.1,4.3,2.1,6.8c0,0.2,0,0.4,0,0.5c-0.1,0.4-0.1,0.8-0.1,1.2c-0.8,4.2-4.5,7.3-8.8,7.4
		c-3.7,0-6.7-3-6.7-6.7c0-2.7,2.2-4.9,4.9-4.9c1.4,0,2.6,0.8,3.1,2c0.4,0.9,1.3,1.4,2.2,1.4c0,0,0,0,0,0c0,0,0,0,0,0
		c1.8,0,3-1.8,2.2-3.4c-1.3-2.9-4.2-4.9-7.6-4.9c0,0,0,0,0,0c0,0,0,0,0,0c-5.4,0-9.8,4.4-9.8,9.8c0,2.5,0.8,4.9,2.2,6.8h-0.1
		c2.2,2.8,5.7,4.7,9.1,4.7c4.4,0,8.4-1.9,11-4.7h-0.1c2-2.3,3.2-5.1,3.4-8.3c0-0.1,0-0.2,0-0.2c0.6-3.2,2.3-6.1,4.7-8.4
		c2.9-2.6,6.6-4.1,10.5-4.1c4,0,7.6,2,9.7,5c1.4,1.9,2.2,4.3,2.2,6.9c0,5-4.1,9-9,9c-3.7,0-6.7-3-6.7-6.7c0-2.7,2.2-4.9,4.9-4.9
		c1.4,0,2.6,0.8,3.1,2c0.4,0.9,1.3,1.4,2.2,1.4c1.8,0,3-1.8,2.2-3.4c-1.3-2.9-4.2-4.9-7.6-4.9c-3.3,0-6.2,1.6-8,4.2
		c-1.1,1.6-1.8,3.5-1.8,5.6c0,0.6,0,1.1,0.1,1.7c0.2,1.9,0.9,3.7,2,5.2c2,2.9,5.3,4.7,8.8,4.7c4.8,0,8.8-2,11.5-4.9
		c1.9-2.3,3.1-5.2,3.2-8.3c0-0.2,0-0.4,0-0.6C775.2,9.9,767.6,2.4,758.4,2.4z"/>
	<path class="st0" d="M854.3,2.4c-5.1,0-10,1.9-13.8,5.4c-1.2,1.1-2.3,2.4-3.2,3.8c-2.8-5.4-8.4-9.2-15-9.2c0,0,0,0,0,0c0,0,0,0,0,0
		c-0.1,0-0.2,0-0.3,0c0,0-0.1,0-0.1,0c-6.9,0.2-13,3.8-16.6,9.2c-2.8-5.4-8.4-9.2-15-9.2c-7.1,0-13.4,3.7-17,9.2
		c1.2,2.3,1.8,4.9,1.8,7.6c0,0.2,0,0.4,0,0.6c0,0.1,0,0.1,0,0.2c1.3-7.2,7.7-12.6,15.2-12.6c4,0,7.5,2,9.7,5
		c1.4,1.9,2.2,4.3,2.2,6.9c0,0,0,0,0,0c-0.1,0.7-0.2,1.4-0.3,2.2c-1,3.9-4.5,6.9-8.8,6.9c-3.7,0-6.7-3-6.7-6.7
		c0-2.7,2.2-4.9,4.9-4.9c1.4,0,2.6,0.8,3.1,2c0.4,0.9,1.3,1.4,2.2,1.4c1.8,0,3-1.8,2.2-3.4c-1.3-2.9-4.2-4.9-7.6-4.9
		c-2.2,0-4.2,0.7-5.9,1.9c-2.3,2-3.8,5-3.8,8.3c0,6.2,5.5,11,11.1,11c4.4,0,8.4-1.9,11-4.7h-0.1c0.5-0.5,0.9-1.1,1.3-1.7
		c0.9-1.4,1.5-2.9,1.8-4.6c0.1-0.6,0.2-1.1,0.2-1.7c0-0.1,0-0.3,0.1-0.4c0.6-3.3,2.3-6.3,4.8-8.6c2.9-2.6,6.6-4.1,10.4-4.1
		c4,0,7.6,2,9.8,5.1c1.3,1.9,2.1,4.3,2.1,6.8c0,0.2,0,0.4,0,0.5c-0.1,0.4-0.1,0.8-0.1,1.2c-0.8,4.2-4.5,7.3-8.8,7.4
		c-3.7,0-6.7-3-6.7-6.7c0-2.7,2.2-4.9,4.9-4.9c1.4,0,2.6,0.8,3.1,2c0.4,0.9,1.3,1.4,2.2,1.4c0,0,0,0,0,0c0,0,0,0,0,0
		c1.8,0,3-1.8,2.2-3.4c-1.3-2.9-4.2-4.9-7.6-4.9c0,0,0,0,0,0c0,0,0,0,0,0c-5.4,0-9.8,4.4-9.8,9.8c0,2.5,0.8,4.9,2.2,6.8h-0.1
		c2.2,2.8,5.7,4.7,9.1,4.7c4.4,0,8.4-1.9,11-4.7h-0.1c2-2.3,3.2-5.1,3.4-8.3c0-0.1,0-0.2,0-0.2c0.6-3.2,2.3-6.1,4.7-8.4
		c2.9-2.6,6.6-4.1,10.5-4.1c4,0,7.6,2,9.7,5c1.4,1.9,2.2,4.3,2.2,6.9c0,5-4.1,9-9,9c-3.7,0-6.7-3-6.7-6.7c0-2.7,2.2-4.9,4.9-4.9
		c1.4,0,2.6,0.8,3.1,2c0.4,0.9,1.3,1.4,2.2,1.4c1.8,0,3-1.8,2.2-3.4c-1.3-2.9-4.2-4.9-7.6-4.9c-3.3,0-6.2,1.6-8,4.2
		c-1.1,1.6-1.8,3.5-1.8,5.6c0,0.6,0,1.1,0.1,1.7c0.2,1.9,0.9,3.7,2,5.2c2,2.9,5.3,4.7,8.8,4.7c4.8,0,8.8-2,11.5-4.9
		c1.9-2.3,3.1-5.2,3.2-8.3c0-0.2,0-0.4,0-0.6C871.1,9.9,863.6,2.4,854.3,2.4z"/>
	<path class="st0" d="M950.3,2.4c-5.1,0-10,1.9-13.8,5.4c-1.2,1.1-2.3,2.4-3.2,3.8c-2.8-5.4-8.4-9.2-15-9.2c0,0,0,0,0,0c0,0,0,0,0,0
		c-0.1,0-0.2,0-0.3,0c0,0-0.1,0-0.1,0c-6.9,0.2-13,3.8-16.6,9.2c-2.8-5.4-8.4-9.2-15-9.2c-7.1,0-13.4,3.7-17,9.2
		c1.2,2.3,1.8,4.9,1.8,7.6c0,0.2,0,0.4,0,0.6c0,0.1,0,0.1,0,0.2c1.3-7.2,7.7-12.6,15.2-12.6c4,0,7.5,2,9.7,5
		c1.4,1.9,2.2,4.3,2.2,6.9c0,0,0,0,0,0c-0.1,0.7-0.2,1.4-0.3,2.2c-1,3.9-4.5,6.9-8.8,6.9c-3.7,0-6.7-3-6.7-6.7
		c0-2.7,2.2-4.9,4.9-4.9c1.4,0,2.6,0.8,3.1,2c0.4,0.9,1.3,1.4,2.2,1.4c1.8,0,3-1.8,2.2-3.4c-1.3-2.9-4.2-4.9-7.6-4.9
		c-2.2,0-4.2,0.7-5.9,1.9c-2.3,2-3.8,5-3.8,8.3c0,6.2,5.5,11,11.1,11c4.4,0,8.4-1.9,11-4.7h-0.1c0.5-0.5,0.9-1.1,1.3-1.7
		c0.9-1.4,1.5-2.9,1.8-4.6c0.1-0.6,0.2-1.1,0.2-1.7c0-0.1,0-0.3,0.1-0.4c0.6-3.3,2.3-6.3,4.8-8.6c2.9-2.6,6.6-4.1,10.4-4.1
		c4,0,7.6,2,9.8,5.1c1.3,1.9,2.1,4.3,2.1,6.8c0,0.2,0,0.4,0,0.5c-0.1,0.4-0.1,0.8-0.1,1.2c-0.8,4.2-4.5,7.3-8.8,7.4
		c-3.7,0-6.7-3-6.7-6.7c0-2.7,2.2-4.9,4.9-4.9c1.4,0,2.6,0.8,3.1,2c0.4,0.9,1.3,1.4,2.2,1.4c0,0,0,0,0,0c0,0,0,0,0,0
		c1.8,0,3-1.8,2.2-3.4c-1.3-2.9-4.2-4.9-7.6-4.9c0,0,0,0,0,0c0,0,0,0,0,0c-5.4,0-9.8,4.4-9.8,9.8c0,2.5,0.8,4.9,2.2,6.8h-0.1
		c2.2,2.8,5.7,4.7,9.1,4.7c4.4,0,8.4-1.9,11-4.7h-0.1c2-2.3,3.2-5.1,3.4-8.3c0-0.1,0-0.2,0-0.2c0.6-3.2,2.3-6.1,4.7-8.4
		c2.9-2.6,6.6-4.1,10.5-4.1c4,0,7.6,2,9.7,5c1.4,1.9,2.2,4.3,2.2,6.9c0,5-4.1,9-9,9c-3.7,0-6.7-3-6.7-6.7c0-2.7,2.2-4.9,4.9-4.9
		c1.4,0,2.6,0.8,3.1,2c0.4,0.9,1.3,1.4,2.2,1.4c1.8,0,3-1.8,2.2-3.4c-1.3-2.9-4.2-4.9-7.6-4.9c-3.3,0-6.2,1.6-8,4.2
		c-1.1,1.6-1.8,3.5-1.8,5.6c0,0.6,0,1.1,0.1,1.7c0.2,1.9,0.9,3.7,2,5.2c2,2.9,5.3,4.7,8.8,4.7c4.8,0,8.8-2,11.5-4.9
		c1.9-2.3,3.1-5.2,3.2-8.3c0-0.2,0-0.4,0-0.6C967.1,9.9,959.5,2.4,950.3,2.4z"/>
	<path class="st0" d="M1046.2,2.4c-5.1,0-10,1.9-13.8,5.4c-1.2,1.1-2.3,2.4-3.2,3.8c-2.8-5.4-8.4-9.2-15-9.2c0,0,0,0,0,0
		c0,0,0,0,0,0c-0.1,0-0.2,0-0.3,0c0,0-0.1,0-0.1,0c-6.9,0.2-13,3.8-16.6,9.2c-2.8-5.4-8.4-9.2-15-9.2c-7.1,0-13.4,3.7-17,9.2
		c1.2,2.3,1.8,4.9,1.8,7.6c0,0.2,0,0.4,0,0.6c0,0.1,0,0.1,0,0.2c1.3-7.2,7.7-12.6,15.2-12.6c4,0,7.5,2,9.7,5
		c1.4,1.9,2.2,4.3,2.2,6.9c0,0,0,0,0,0c-0.1,0.7-0.2,1.4-0.3,2.2c-1,3.9-4.5,6.9-8.8,6.9c-3.7,0-6.7-3-6.7-6.7
		c0-2.7,2.2-4.9,4.9-4.9c1.4,0,2.6,0.8,3.1,2c0.4,0.9,1.3,1.4,2.2,1.4c1.8,0,3-1.8,2.2-3.4c-1.3-2.9-4.2-4.9-7.6-4.9
		c-2.2,0-4.2,0.7-5.9,1.9c-2.3,2-3.8,5-3.8,8.3c0,6.2,5.5,11,11.1,11c4.4,0,8.4-1.9,11-4.7h-0.1c0.5-0.5,0.9-1.1,1.3-1.7
		c0.9-1.4,1.5-2.9,1.8-4.6c0.1-0.6,0.2-1.1,0.2-1.7c0-0.1,0-0.3,0.1-0.4c0.6-3.3,2.3-6.3,4.8-8.6c2.9-2.6,6.6-4.1,10.4-4.1
		c4,0,7.6,2,9.8,5.1c1.3,1.9,2.1,4.3,2.1,6.8c0,0.2,0,0.4,0,0.5c-0.1,0.4-0.1,0.8-0.1,1.2c-0.8,4.2-4.5,7.3-8.8,7.4
		c-3.7,0-6.7-3-6.7-6.7c0-2.7,2.2-4.9,4.9-4.9c1.4,0,2.6,0.8,3.1,2c0.4,0.9,1.3,1.4,2.2,1.4c0,0,0,0,0,0c0,0,0,0,0,0
		c1.8,0,3-1.8,2.2-3.4c-1.3-2.9-4.2-4.9-7.6-4.9c0,0,0,0,0,0c0,0,0,0,0,0c-5.4,0-9.8,4.4-9.8,9.8c0,2.5,0.8,4.9,2.2,6.8h-0.1
		c2.2,2.8,5.7,4.7,9.1,4.7c4.4,0,8.4-1.9,11-4.7h-0.1c2-2.3,3.2-5.1,3.4-8.3c0-0.1,0-0.2,0-0.2c0.6-3.2,2.3-6.1,4.7-8.4
		c2.9-2.6,6.6-4.1,10.5-4.1c4,0,7.6,2,9.7,5c1.4,1.9,2.2,4.3,2.2,6.9c0,5-4.1,9-9,9c-3.7,0-6.7-3-6.7-6.7c0-2.7,2.2-4.9,4.9-4.9
		c1.4,0,2.6,0.8,3.1,2c0.4,0.9,1.3,1.4,2.2,1.4c1.8,0,3-1.8,2.2-3.4c-1.3-2.9-4.2-4.9-7.6-4.9c-3.3,0-6.2,1.6-8,4.2
		c-1.1,1.6-1.8,3.5-1.8,5.6c0,0.6,0,1.1,0.1,1.7c0.2,1.9,0.9,3.7,2,5.2c2,2.9,5.3,4.7,8.8,4.7c4.8,0,8.8-2,11.5-4.9
		c1.9-2.3,3.1-5.2,3.2-8.3c0-0.2,0-0.4,0-0.6C1063,9.9,1055.5,2.4,1046.2,2.4z"/>
	<path class="st0" d="M103.3,19.2c0-2.7-0.7-5.3-1.8-7.6c-1.5,2.3-2.6,5-3.1,7.9c0,0.6-0.1,1.1-0.2,1.6c0,0.5-0.1,1.1-0.1,1.6l0,7.1
		c0.7-0.5,1.4-1.1,2-1.8c1.5-1.8,2.5-3.9,3-6.3c0-0.6,0.1-1.2,0.2-1.9c0-0.1,0-0.1,0-0.2C103.3,19.6,103.3,19.4,103.3,19.2z"/>
</g>
</svg>
