<svg id="Capa_1" data-name="Capa 1" xmlns="http://www.w3.org/2000/svg" viewBox="0 0 84 87"><defs><style>.cls-1{fill:#ea153e;}</style></defs><title>itacate</title><g id="nhlNb6"><path class="cls-1" d="M58.81,37.48a11.28,11.28,0,0,1-4.22,9.37,64.27,64.27,0,0,1-9.85,6.06,3.67,3.67,0,0,1-5.14-2.06c-.77-2.1.19-4.08,2.32-5.14a42.4,42.4,0,0,0,6.16-3.41c2.9-2.08,3.5-4.11,2.62-7A7.93,7.93,0,0,0,44,29.86a7.7,7.7,0,0,0-8.07,5c-.84,1.88-2.14,2.92-4.19,2.73-2.7-.25-4.08-2.87-3.05-5.6a15.61,15.61,0,0,1,30.17,5.49Z"/><path class="cls-1" d="M43.47,61.18a4,4,0,0,1,4,3.95,3.91,3.91,0,1,1-4-3.95Z"/></g><path class="cls-1" d="M42,87A42,42,0,1,1,69.8,76.48a3,3,0,0,1-4-4.5A36,36,0,1,0,42,81a3,3,0,0,1,0,6Z"/></svg>