<?xml version="1.0" encoding="utf-8"?>
<!-- Generator: Adobe Illustrator 24.0.3, SVG Export Plug-In . SVG Version: 6.00 Build 0)  -->
<svg version="1.1" id="Capa_1" xmlns="http://www.w3.org/2000/svg" xmlns:xlink="http://www.w3.org/1999/xlink" x="0px" y="0px"
	 viewBox="0 0 140.1 201.2" style="enable-background:new 0 0 140.1 201.2;" xml:space="preserve">
<style type="text/css">
	.st0{fill:url(#SVGID_1_);}
	.st1{clip-path:url(#SVGID_3_);}
	.st2{fill:#990E29;}
	.st3{fill:#8F0D26;}
	.st4{fill:#7C0B21;}
	.st5{fill:#890C24;}
	.st6{fill:#830C23;}
	.st7{fill:#A80F2D;}
	.st8{fill:#A20F2B;}
	.st9{fill:#AD102E;}
	.st10{fill:#B61030;}
	.st11{fill:#BA1132;}
	.st12{fill:#C01133;}
	.st13{fill:#C71235;}
	.st14{fill:#D51339;}
	.st15{fill:#CE1237;}
	.st16{fill:#DF143B;}
	.st17{fill:none;stroke:#FFFFFF;stroke-width:2;stroke-miterlimit:10;}
</style>
<radialGradient id="SVGID_1_" cx="70.05" cy="101.2969" r="83.3402" gradientUnits="userSpaceOnUse">
	<stop  offset="2.977611e-02" style="stop-color:#F23B36"/>
	<stop  offset="0.5737" style="stop-color:#EA153E"/>
	<stop  offset="1" style="stop-color:#D30D3C"/>
</radialGradient>
<path class="st0" d="M128.6,198.3h-117c-4.7,0-8.5-3.8-8.5-8.5v-177c0-4.7,3.8-8.5,8.5-8.5h117c4.7,0,8.5,3.8,8.5,8.5v177
	C137.1,194.5,133.3,198.3,128.6,198.3z"/>
<g>
	<defs>
		<path id="SVGID_2_" d="M128.6,198.3h-117c-4.7,0-8.5-3.8-8.5-8.5v-177c0-4.7,3.8-8.5,8.5-8.5h117c4.7,0,8.5,3.8,8.5,8.5v177
			C137.1,194.5,133.3,198.3,128.6,198.3z"/>
	</defs>
	<clipPath id="SVGID_3_">
		<use xlink:href="#SVGID_2_"  style="overflow:visible;"/>
	</clipPath>
	<g class="st1">
		<g>
			<path class="st2" d="M140.4,170.9c0.6,2.6,1.4,5.2,1.3,7.9c0,0.3,0,0.6,0.3,0.7c0,1.8,0,3.7,0,5.4c-0.6,0.7-0.3,1.8-1,2.4
				c-0.7,0-0.7,0.9-1.4,1c-0.4-0.3-0.4-0.9-0.3-1.3c0.4-1.3,0.7-2.6,0.7-3.7c0.1-3.8,0.6-7.7-0.1-11.5
				C139.9,171.5,139.9,171.1,140.4,170.9z"/>
			<path class="st3" d="M72.6,45.5c0,0.1,0,0.1,0,0.3c-0.6,0.9-1.4,0.7-2.3,0.7c-2.3,0.1-4.5,0.3-6.7,1.4c-0.6,0.3-1,0.3-1.6,0.3
				c0.1-1.1,1.3-0.9,2-1.3c0.3-0.1,1-0.1,0.4-0.9c0.9-0.7,2,0.1,2.8-0.7C68.9,45.5,70.8,45.5,72.6,45.5z"/>
			<path class="st4" d="M104.2,121.3c-1.3,2.4-3.3,4.4-5,6.5c-1.6,2.1-3.8,3.7-5.5,5.7c-0.9,0.7,0,1.4,0,2.1c-0.3,0-0.4,0-0.7,0
				c-0.1-0.4-0.6-0.7-1-0.7c0-0.6-0.3-0.9-0.7-0.4c-1,0.9-2.3,1-3.5,1.3c-2.1,0.6-4.1,1.1-6.4,1.4c-1.3,0.1-2.6,0-3.7,0.4
				c-1.4,0.4-2.7,0.4-4.1,0.1c-2-0.3-4.3-0.6-6.1,0c-2.4,0.9-4.8,0.9-6.9,0.7c-4.4-0.3-8.6,0.3-12.9,0.7c-1.1,0.1-2.3,0.1-2.8-1.1
				c-0.1-0.4-0.1-0.3-0.4,0c-0.4,0.6-1.1,0.6-1.6,0c-0.3-0.6,0.1-1,0.7-1.3c0.9-0.6,2.1-0.6,2.6-1.6c0.6-0.4,1-0.7,0.3-1.4
				c0-1.4-1.4-1.7-2.3-2.3c-4-3.4-7.1-7.5-9.6-12C30.8,113,28.7,106,28,98.6c-1.4-13.3,0.7-25.8,8.8-36.7c4.5-6.2,10.5-10.5,17.7-13
				c0,1.1-1.8,0.9-1.7,2.1l0,0c-1.8,0.6-3.5,1.3-4.8,2.7c-1.7,0.3-3.4,1.3-4.3,2.6c-2.3,3.4-4.1,7.1-5.8,10.9
				c-2.6,6.1-3.3,12.3-2,18.8c0.7,4,1.6,8.1,1.4,12.2c0,0.4,0.1,0.9,0.4,1.3c1.4,2.6,2.7,5.1,4.1,7.7c2.6,4.5,6,8.5,9.2,12.5
				c3.8,4.5,8.8,7.7,14.2,10.2c0.6,0.3,1.3,0.3,1.3,1.1c-0.7,0-1.3,0-2,0c0,0.1,0,0.3,0,0.3c0.9,0,1.8,0,2.7,0c0.3,0,0.4,0,0.7,0
				c1.1,0,2.3,0,3.4,0c0.3,1.1,1.3,0.9,2,1c4.4,1,8.9,1.1,13.3,0c5.4-1.3,10.2-3.7,14.2-7.7C102.1,123.2,102.7,121.6,104.2,121.3z"
				/>
			<path class="st4" d="M83.1,206.2c-1.6,0-3.1,0-4.7,0.1c-5.2,0-10.5,0-15.7,0c-5.2,0.3-10.3-0.1-15.4-0.7
				c-11.6-1.4-23.4-3-34.3-7.5c-4.4-1.8-8.6-3.8-11.8-7.7c-2-2.3-3.1-4.8-3-7.8c0.1-5.1,0.6-10.2,2.3-15c2-5.7,5-10.9,8.9-15.6
				c4.5-5.4,10.2-9.4,16.4-12.5c0.1,0,0.3,0,0.3,0c0,0.3,0.1,0.7-0.3,1c-2.3,1.6-4,4-6.2,5.4c-2,1.3-3.1,2.8-4.3,4.7
				c-4.7,7.7-5.1,15.9-3.8,24.4c0.9,5.8,3.1,11.2,6.4,16.2c0.6,0.7,1.1,1.6-0.6,1.6c-0.4,0-0.6,0.3-0.3,0.7c1.7,2.8,3.7,5.1,7.2,5.4
				c0.6,0,1.1,0.3,1.7,0.4c1,0.3,2,0.4,3.1,0.7c0.9,1.1,2.1,1.1,3.4,1c0.3,0,0.4,0,0.7,0c0.3,1.3,1.4,0.4,2,0.7
				c7.2,1.4,14.5,2.7,21.8,3.1c0.3,0,0.7,0,1,0c1.1,0.7,2.3,0.1,3.4,0.3c0.6,0,1.1,0,1.7,0c2,0.7,4.1,0.1,6.1,0.3c4,0,7.9,0,11.9,0
				c0.7,0,1.3,0,2,0c0.6-0.1,1.6,0.4,1.7-0.7c0.3,0,0.7,0,1,0c0,0.6,0.3,0.7,0.9,0.6c0.7-0.1,0.7,0.3,0.4,0.7c-0.4,0-0.9,0-1.3,0
				C84.9,206.1,84.1,205.6,83.1,206.2z"/>
			<path class="st5" d="M29.1,199.8c-1-0.3-2-0.4-3.1-0.7c-0.4-1.6-1.8-2.6-1.8-4.3c0-0.9-0.1-1.6-0.7-2.3
				c-6.8-9.5-10.3-20-8.2-31.7c1.4-7.7,4.8-14.3,11.5-19c2.6-1.8,5.5-3.1,8.2-4.7c0.6-0.3,1.4-0.3,1.3-1.3l0,0
				c0.1,0,0.3-0.1,0.4-0.1c3.3-0.9,6.4-2,9.8-2.1c0.7,0.7,0.3,1-0.3,1.4c-1.7,0.3-3.4,0.9-4.8,1.8c-0.7,0.6-1.7,1.1-1.4,2
				c0.3,1,1.4,1.1,2.4,1.3c1,0,2.1-0.4,3.1,0c2,0.9,4,0.1,6,0.1c1.7,0,3.3-1,5-0.1c-0.1,0.1-0.4,0.6-0.6,0.6c-2.3-0.1-4.4,1-6.7,1.3
				c-0.9,0-1.6,0.3-2.3-0.3c-0.6-0.6-1.1-0.6-2-0.3c-2.4,0.7-4.7,1-7.1,0.3c-1.6-0.4-2-1.4-1.4-2.8c0.1-0.3,0.4-0.6,0.1-0.9
				c-0.4-0.4-0.9,0-1,0.1c-0.9,0.7-1.8,1.3-2.8,1.8c-1.7,1.1-4,1.8-5,3.4c-2.3,3.4-4.7,6.8-6.1,10.6c-2.7,7.4-3.1,14.9-1.1,22.5
				c1.6,6.2,4.7,11.8,8.8,16.7c0.4,0.4,1.3,1.1,0.9,1.7c-1,1.4,0.1,1.8,0.9,2.4c1.1,0.9,1.8,1.8,2.3,3c0,0.1,0,0.3,0,0.3
				c-0.3,0-0.4,0-0.7,0c-0.1-0.3-0.4-0.6-0.7-0.7c-0.3-0.3-0.4-0.3-0.7,0C30.5,200.1,29.8,199.7,29.1,199.8z"/>
			<path class="st6" d="M36.2,135.8c0.1,1-0.7,1-1.3,1.3c-2.7,1.6-5.7,2.8-8.2,4.7c-6.5,4.8-10.1,11.3-11.5,19
				c-2.1,11.8,1.4,22.3,8.2,31.7c0.6,0.7,0.7,1.4,0.7,2.3c0,1.7,1.4,2.7,1.8,4.3c-0.6-0.1-1.1-0.3-1.7-0.4c-3.5-0.3-5.5-2.6-7.2-5.4
				c-0.3-0.4-0.1-0.7,0.3-0.7c1.7-0.1,1-0.9,0.6-1.6c-3.3-5-5.4-10.3-6.4-16.2c-1.3-8.5-0.9-16.7,3.8-24.4c1.1-1.8,2.3-3.4,4.3-4.7
				c2.3-1.4,3.8-3.8,6.2-5.4c0.3-0.1,0.3-0.6,0.3-1C29.2,138,32.6,136.6,36.2,135.8z"/>
			<path class="st6" d="M87.2,205.9c0.3-0.6,0.3-0.9-0.4-0.7c-0.6,0.1-0.9,0-0.9-0.6c0.6,0,1.1,0,1.7,0c0.3,0.6,0.9,0.3,1.4,0.3
				c0.7,0,1.4,0.1,1.4-1c0.7,0,1.4,0,2,0c0,0.7,0.6,0.7,1,0.7c0.6,0,1,0,1-0.7c0.6,0,1.1,0,1.7,0c0.1,0.3,0.4,0.3,0.7,0.3
				c0.4,0,0.7-0.3,0.7-0.7c0-0.1,0-0.3,0-0.3c0.6,0,1.1,0,1.7,0c0.6,0.6,0.6,0.1,0.7-0.3c0.7,0,1.4,0,2,0c0.3-0.1,0.7-0.3,1-0.3
				c0.4,0,1,0.1,1.4-0.3c0.3,0,0.7,0,1,0c0.4,0,0.7,0,1-0.3c0.3,0,0.7,0,1,0c0.3,0.4,0.7,0.3,1,0.3c0.6,0,1,0,1-0.7
				c0.3,0,0.4,0,0.7,0c0.6,0.6,0.9,0.4,1-0.3c0.3,0,0.4,0,0.7,0c0.6,0.6,0.6,0.1,0.7-0.3l0,0c0.3,0,0.7,0,1,0
				c0.6,0.6,0.6,0.1,0.7-0.3c0.3,0,0.4,0,0.7,0c0.6,0.6,0.6,0.1,0.7-0.3c0.3,0,0.4,0,0.7,0c0.6,0.6,0.6,0.1,0.7-0.3
				c0.3,0,0.4,0,0.7,0c0.6,0.6,0.6,0.1,0.7-0.3c0.6,0,1.1,0,1.7,0c0.4,0,0.7-0.3,0.7-0.7c0.3,0,0.4,0,0.7,0c0.6,0.6,0.6,0.1,0.7-0.3
				c0.4-0.3,0.9-0.4,1.4-0.3c1.1,0.3,2.1,0,2.7-1c0.3-0.4,0.7-0.3,1-0.3c0.9,0.6,1.1,0,1.4-0.7c0.1-0.3,0.4-0.3,0.7-0.3
				c1.7,0.6,2.7-0.9,3.8-1.4c1.8-1.1,4-1.8,5-4c0.6-0.7,1.1-1.4,1.7-2c0.6-0.1,0.7-1,1.4-1c-1.3,3.8-4.4,6.1-7.7,7.9
				c-6.4,3.8-13.5,5.8-20.8,7.2c-4.4,0.9-8.6,1.8-13,2.3C95.4,205.4,91.3,206.1,87.2,205.9z"/>
			<path class="st5" d="M52.9,50.6c-0.1-1.3,1.7-1,1.7-2.1c3.1-1.3,6.4-2.3,9.8-2.4c0.6,0.7,0,0.6-0.4,0.9c-0.7,0.4-1.7,0.1-2,1.3
				c-0.3,0-0.7,0-1,0C58.3,49,55.6,49.7,52.9,50.6z"/>
			<path class="st6" d="M62.7,206.3c5.2,0,10.5,0,15.7,0c-0.1,0.4-0.6,0.3-0.9,0.3c-4.5,0-9.2,0-13.7,0
				C63.4,206.6,63,206.8,62.7,206.3z"/>
			<path class="st6" d="M83.1,206.2c0.9-0.6,1.8-0.1,2.7-0.3C85.1,206.6,84.1,206.2,83.1,206.2z"/>
			<path class="st6" d="M36.6,135.6c-0.1,0-0.3,0.1-0.4,0.1C36.2,135.6,36.3,135.6,36.6,135.6z"/>
			<path class="st3" d="M52.9,50.6c2.7-0.9,5.4-1.6,8.2-2.4c0.1,0.7-0.3,1-0.9,1.3c-6,2.7-10.1,7.4-12.5,13.3
				c-2.6,6.1-4,12.3-2.4,19c1.4,6,3,11.8,4.3,17.7c0.3,1.4,0.9,2.6,2,3.5c2.3,2.3,4.5,4.5,6.7,6.9c2.4,2.7,4.8,5.5,7.9,7.7
				c1,0.7,2.3,1.1,2.6,2.6c-0.7,0-1.6,0-2.3,0c0,0.1,0,0.3,0,0.3c1.1,0,2.3,0,3.4,0c0.6,0,1.1,0,1.7,0c0.3,0,0.4,0,0.7,0
				c0,0.6,0.4,0.6,0.7,0.7c4.3,1.7,8.6,2.8,13.3,2.3c8.4-0.9,15.2-4.3,19.7-11.8c2.3-3.7,4-7.4,5.2-11.5c0.6-1.7,0.6-3.7,1.4-5.2
				c0.9,0.7,0.1,1.6,0,2.3c-0.7,4.3-1.3,8.5-2.7,12.5c-0.3,1-0.9,1.8-1.1,2.8c-1.3,0.3-1.8,1.3-2,2.4c0,0.3,0,0.6-0.3,0.7
				c-0.4,0-0.6,0.3-0.9,0.6c-1.8,2.1-3.7,4.3-6,6.1c-6.1,4.8-12.9,7.2-20.7,6c-11.2-1.8-20-7.5-26.5-16.9c-1.7-2.4-3.1-5.2-5.1-7.4
				c-2.6-2.7-4.3-5.5-4.5-9.2c0-0.6-0.1-1.1-0.3-1.7c-1.6-7.8-2.3-15.6-0.9-23.5c1.3-7.1,4.3-13.2,10.1-17.7
				C52.2,51.7,52.9,51.3,52.9,50.6L52.9,50.6z"/>
			<path class="st7" d="M104.6,63.2c1.6,2.1,2.8,4.4,3.8,6.8c-1,1,0,1.8,0.3,2.6c1.3,4.1,2,8.5,2.3,12.8c0.3,3.3,0.3,6.8-0.7,9.9
				c-2,6.2-5.5,11.8-10.3,16.3c-3.5,3.3-7.5,5-12.3,5.1c-4.3,0.1-8.2-1.1-12-3c-5.5-2.6-10.5-6.1-15.2-9.8c-0.7-0.6-1.7-0.6-2-1.6
				c-1.8-5.2-3.5-10.5-5.4-15.7c-1.4-4-2.4-8.2-2.4-12.3c0-4.7,1.1-9.2,3.7-13.2c1.1-1.7,1.8-3.7,3.7-5c2.7-1.8,5.4-3.4,8.2-5.1
				c2-1.1,3.7-1,5.7-1.1c1.8-0.1,3.5-0.3,5.2-1.1c0.4-0.1,0.9-0.1,1.3-0.1c0.3,0,0.4,0,0.7,0c0,0.4,0.4,0.6,0.9,0.7
				c1.8,0.6,3.7,0.3,5.5,0.9c2.7,0.9,5.4,1.4,7.7,3.3c-0.4,0.6-0.9,0-1.1-0.1c-4.4-1.7-8.8-2.8-13.5-2.7c-3.3,0.1-6.5,1-9.5,2
				c-8.5,3-13.7,10.3-13.9,19.4c-0.1,6.5,1.6,12.6,4.1,18.6c1.6,3.5,3.3,6.9,4.7,10.5c0.6,1.7,1.7,2.6,3.1,3.1c2.1,1,4.3,2,6,3.5
				c2.1,1.8,4.5,3,7.4,3.3c3,0.3,6,0.6,8.9,0.7c1.1,0,2.3,0.7,3.4,0c4.8-3,9.9-5.7,13.2-10.6c1.8-2.7,3.3-5.5,3.4-8.8
				c0.1-3.8,0.6-7.8,0-11.6c-0.4-3.5-1.1-6.9-2.3-10.2c-0.9-2.6-2.4-4.7-3.3-7.2C103.9,63.2,104.2,63.2,104.6,63.2z"/>
			<path class="st2" d="M79.1,48.5c-0.3,0-0.4,0-0.7,0c-0.1-1-0.7-1.1-1.6-0.9c-0.9,0.3-1.7,0.6-2.6,0.6c-2.6,0.3-5.1,0.4-7.5,1.1
				c-0.9,0.3-1.8-0.1-2.6,0.3c-1.1,0.9-2.6,1.3-3.7,2c-4,2.3-7.2,5.4-9.4,9.5c-3.4,6.8-3.4,13.9-2.1,21.1c1,6.2,3.3,12,4.8,18.1
				c0.1,0.9,0.3,1.7,1,2.3c1.6,1.1,2.8,2.6,4.3,3.8c5.2,4.8,10.6,9.5,17,12.6c1.4,0.7,2.8,1.3,4.5,1.3c1.4,0,2.7-0.7,4-0.3
				c2.1,0.6,4,0,6-0.3c4.5-0.9,8.1-3.5,11.2-6.7c5-5,7.4-11.2,9.4-17.7c0.1-0.7,0.1-1.4,1-1.6c0,0.4,0,0.9,0.1,1.3
				c-0.9,1.7-1,3.5-1.4,5.2c-1.1,4.1-3,7.9-5.2,11.5c-4.5,7.5-11.3,10.9-19.7,11.8c-4.7,0.4-9.1-0.6-13.3-2.3
				c-0.4-0.1-0.7-0.3-0.7-0.7c1.1,0,2.3,0,3.4,0c-1.4-0.1-2.7-0.7-4,0c-0.6,0-1.1,0-1.7,0c-0.3-0.4-0.7-0.3-1-0.3
				c-0.3-1.4-1.6-1.8-2.6-2.6c-3-2.1-5.4-5-7.9-7.7c-2.1-2.4-4.4-4.8-6.7-6.9c-1.1-1-1.7-2.1-2-3.5c-1.1-6-2.8-11.8-4.3-17.7
				c-1.6-6.8-0.1-12.9,2.4-19c2.4-6,6.5-10.5,12.5-13.3c0.6-0.3,1-0.6,0.9-1.3c0.3,0,0.7,0,1,0c0.6,0,1.1,0,1.6-0.3
				c2.1-1.1,4.4-1.3,6.7-1.4c0.9,0,1.7,0,2.3-0.7c0.3,0,0.7,0,1,0.1c0.6,1.1,1.3,0.7,2,0.3c4,0,7.5,1.3,11.2,2.7
				c-1.4,0.6-2.6-0.4-3.8-0.6C81.7,48.2,80.3,46.8,79.1,48.5z"/>
			<path class="st8" d="M112.3,93.8c-0.9,0.1-0.9,1-1,1.6c-2,6.5-4.4,12.9-9.4,17.7c-3.1,3.1-6.8,5.8-11.2,6.7c-2,0.4-4,0.9-6,0.3
				c-1.3-0.3-2.7,0.3-4,0.3c-1.7,0-3-0.6-4.5-1.3c-6.4-3.3-11.8-7.9-17-12.6c-1.4-1.3-2.7-2.7-4.3-3.8c-0.9-0.6-0.9-1.4-1-2.3
				c-1.6-6.1-3.8-11.9-4.8-18.1c-1.1-7.2-1.3-14.3,2.1-21.1c2.1-4.1,5.4-7.2,9.4-9.5c1.3-0.7,2.6-1.1,3.7-2c0.7-0.4,1.7-0.1,2.6-0.3
				c2.4-0.6,5-0.9,7.5-1.1c0.9-0.1,1.7-0.3,2.4-0.6c0.9-0.3,1.4-0.1,1.6,0.9c-0.4,0-1,0-1.3,0.1c-1.7,0.9-3.4,1.1-5.2,1.1
				c-2,0.1-3.7,0-5.7,1.1c-2.8,1.6-5.5,3.3-8.2,5.1c-1.8,1.3-2.6,3.3-3.7,5c-2.6,4-3.8,8.5-3.7,13.2c0,4.3,1.1,8.4,2.4,12.3
				c1.8,5.2,3.5,10.5,5.4,15.7c0.3,1,1.4,1,2,1.6c4.8,3.7,9.6,7.2,15.2,9.8c3.8,1.8,7.8,3.1,12,3c4.8-0.1,8.9-1.8,12.3-5.1
				c5-4.5,8.4-9.9,10.3-16.3c1-3.1,0.9-6.5,0.7-9.9c-0.3-4.3-1-8.6-2.3-12.8c-0.3-0.9-1.3-1.6-0.3-2.6c2.8,6.7,4.7,13.6,4.4,20.8
				C112.7,91.8,112.3,92.7,112.3,93.8z"/>
			<path class="st9" d="M103.5,63.2c0.9,2.6,2.4,4.7,3.3,7.2c1.1,3.3,1.8,6.7,2.3,10.2c0.4,4,0.1,7.8,0,11.6
				c-0.1,3.4-1.6,6.1-3.4,8.8c-3.3,5-8.4,7.7-13.2,10.6c-1.1,0.7-2.3,0.1-3.4,0c-3-0.1-6-0.4-8.9-0.7c-2.8-0.3-5.2-1.4-7.4-3.3
				c-1.8-1.6-3.8-2.6-6-3.5c-1.4-0.7-2.6-1.6-3.1-3.1c-1.4-3.5-3.1-6.9-4.7-10.5c-2.6-6-4.1-12-4.1-18.6c0.1-9.1,5.2-16.4,13.9-19.4
				c3.1-1.1,6.2-1.8,9.5-2c4.7-0.1,9.2,1,13.5,2.7c0.4,0.1,0.7,0.7,1.1,0.1c0.3,0.1,0.4,0.3,0.7,0.3c0,0.4,0.3,0.7,0.7,0.7
				c2.4,1.6,4.5,3.3,6.4,5.5c0.6,0.6,1.1,1.1,2.1,1.3c0.1,0,0.1,0.1,0.3,0.1C102.5,62.1,103.6,62.5,103.5,63.2z M102.8,65.2
				c0-0.4,0-1-0.7-1l0,0c0-0.7-0.1-1.3-1-1.4c-0.1-0.1-0.3-0.3-0.3-0.3c0.1-0.7-0.3-1.1-0.7-1.6c-1.1-1-2.1-2-3.3-3
				c-3.1-2.8-6.9-4.7-10.9-5.5c-5.5-1.1-11.1-0.6-16.3,1.7c-3,1.1-5.8,2.6-7.2,5.8c-0.7,1.7-2,3.3-2.8,5.1c-0.9,1.8-2.3,3.5-2,5.7
				c0.4,2.6,0.1,5.1,0.6,7.5c0.4,2.3,0.6,4.5,1.7,6.7c2.6,5,5.5,9.8,8.2,14.6c1.4,2.6,3,4.7,5.8,5.8c5.8,2.1,11.8,3,18,2.7
				c0.6,0,1.1-0.3,1.7-0.6c3-1.7,6-3.4,8.6-5.7c1.6-1.3,3.3-2.6,3.8-4.7c1-3.7,1.4-7.4,1.7-11.2c0.4-5-0.6-9.8-1.4-14.6
				c-0.3-1.6-1.1-3.1-2.6-4.1c-0.1-0.3-0.3-0.7-0.3-1C103.5,65.8,103.5,65.2,102.8,65.2z"/>
			<path class="st8" d="M120.2,143.4c3.5,1.6,6.2,4.1,8.8,6.8c3,3,5.4,6.2,7.4,9.9c0.1,0.1,0.1,0.4,0.1,0.6h-0.1
				c-0.7-0.1-1-0.9-1.3-1.4c-0.7-1-1.3-2.1-2.4-2.7c-0.3-0.6-0.7-1.1-1-1.7c-0.1-0.9-0.6-1.3-1.4-1.4c-0.1-0.7-0.9-1-1.4-1.4
				c0.1-1.6-1.3-1.7-2-2.6c-3.7-3.5-7.9-5.8-12.9-7.1c-1.8-0.4-3.7,0.1-5.4-0.4c-0.9-0.3-1.4-0.7-1.6,0.6c-0.1,0.6-0.7,0.7-1,0.1
				c-1.6-2.3-4.1-2.7-6.2-3.7c-1-0.4-2.3-0.3-2.8-1.7c2.8,0.6,5.5,1,8.4,1.3c3.7,0.3,7.1,1.6,10.5,2.8
				C117.4,142.3,118.7,143.4,120.2,143.4z"/>
			<path class="st6" d="M106.2,115.9c0.3-0.1,0.3-0.4,0.3-0.7c0.4,0,0.9,0,1.1,0c-1,2.1-1.8,4.4-3.5,6.1c-1.7,0.3-2.1,2-3.1,3
				c-4,4-8.8,6.4-14.2,7.7c-4.4,1-8.9,0.9-13.3,0c-0.7-0.1-1.7,0.1-2-1c1.6-0.1,3.3,0.4,4.8-0.3c3.5,0,7.1,0.3,10.6-0.6
				c2.3-0.6,4.7-0.9,6.8-2.1c2.3-1.4,4.5-2.8,6.5-4.5C102.7,121.2,104.9,118.9,106.2,115.9z"/>
			<path class="st2" d="M120.2,143.4c-1.6,0-2.8-1.1-4.3-1.6c-3.4-1.3-6.9-2.6-10.5-2.8c-2.8-0.3-5.7-0.7-8.4-1.3
				c-1.4-0.3-2.1-1.6-3.4-2c0-0.7-0.9-1.4,0-2.1c3.7,0.4,7.1,1.4,10.6,2.4c5.5,1.4,10.5,4.1,15.3,6.9
				C119.9,142.9,120.1,143.1,120.2,143.4z"/>
			<path class="st8" d="M139.6,188.4c-0.6,0.7-1.1,1.4-1.7,2c-0.3,0-0.4,0-0.7,0c-0.1-2.6,1.1-4.8,1.6-7.4c0.7-5.7,1-11.2-0.7-16.6
				c-0.6-1.8-1.3-3.7-1.4-5.5h0.1c2,3.1,3.1,6.5,3.8,10.2c-0.4,0.3-0.6,0.6-0.4,1c0.7,3.8,0.3,7.7,0.1,11.5c0,1.1-0.3,2.6-0.7,3.7
				C139.2,187.5,139.1,187.9,139.6,188.4z"/>
			<path class="st8" d="M102.8,61.1c-0.9-0.1-1.6-0.6-2.1-1.3c-1.8-2.3-4-4-6.4-5.5c0-0.4-0.3-0.7-0.7-0.7c-0.3-0.1-0.4-0.3-0.7-0.3
				c-2.3-1.8-5-2.4-7.7-3.3c-1.8-0.6-3.7-0.3-5.5-0.9C79.3,49,79,49,78.8,48.5c1.1-1.7,2.6-0.4,4-0.3c1.3,0.1,2.4,1.1,3.8,0.6l0,0
				c0.1,1.1,0.7,1.3,1.7,0.7c3.5,1.7,6.9,3.5,9.8,6.5C99.8,57.7,101.8,58.8,102.8,61.1z"/>
			<path class="st5" d="M107.8,115.2c-0.4,0-0.9,0-1.1,0c0.3-1.1,0.9-2.1,2-2.4C108.7,113.8,108,114.4,107.8,115.2z"/>
			<path class="st3" d="M75.7,46.1c-0.7,0.4-1.6,0.9-2-0.3C74.3,45.9,75,45.5,75.7,46.1z"/>
			<path class="st8" d="M103.5,63.2c0.1-0.7-1-1.1-0.6-2c0.7,0.4,1,1.3,1.6,2C104.2,63.2,103.9,63.2,103.5,63.2z"/>
			<path class="st2" d="M88.5,49.6c-0.9,0.4-1.6,0.3-1.7-0.7C87.5,48.9,88.1,49.2,88.5,49.6z"/>
			<path class="st5" d="M106.2,115.9c-1.3,3.1-3.5,5.4-6,7.4c-2,1.7-4.3,3.1-6.5,4.5c-2,1.3-4.5,1.6-6.8,2.1
				c-3.4,0.9-7.1,0.6-10.6,0.6c-0.6,0-1.1,0-1.7,0c0-0.7-0.6-0.9-1-1c-2.6-0.7-5-1.7-7.2-2.7c-5.2-2.4-10.2-5.4-13.7-10.2
				c-3-4.1-5.7-8.2-8.6-12.3c-2.1-2.8-3.8-5.5-4.1-9.4c-0.6-6.7-2-13.2-1.3-20c0.7-5.8,2-11.3,5.2-16.2c1.3-2,3.1-3.4,4.3-5.4
				c1.3-1.4,3-2.1,4.8-2.7c0,0.9-0.6,1.3-1.1,1.6C46,56.8,43,62.9,41.7,70c-1.4,7.9-0.7,15.7,0.9,23.5c0.1,0.6,0.3,1.1,0.3,1.7
				c0.3,3.7,2.1,6.5,4.5,9.2c2,2.1,3.4,5,5.1,7.4c6.5,9.4,15.3,15,26.5,16.9c7.7,1.3,14.6-1.1,20.7-6c2.3-1.7,4.1-3.8,6-6.1
				C105.6,116.1,105.9,115.9,106.2,115.9z"/>
			<path class="st6" d="M48.1,53.3c-1.3,2-3,3.4-4.3,5.4c-3.3,5-4.7,10.3-5.2,16.2c-0.7,6.8,0.7,13.3,1.3,20
				c0.3,3.8,2.1,6.5,4.1,9.4c3,4.1,5.8,8.2,8.6,12.3c3.5,4.8,8.4,7.8,13.7,10.2c2.4,1.1,4.8,2,7.2,2.7c0.4,0.1,1,0.3,1,1
				c-2.1,0.1-4.4-0.4-6.5,0.3c-0.3,0-0.4,0-0.7,0c-0.1-0.3-0.4-0.3-0.7-0.3c0-0.9-0.9-0.9-1.3-1.1c-5.4-2.4-10.5-5.5-14.2-10.2
				c-3.3-4-6.8-7.9-9.2-12.5c-1.4-2.6-2.7-5.1-4.1-7.7c-0.3-0.4-0.4-0.9-0.4-1.3c0.1-4.1-0.7-8.2-1.4-12.2c-1.3-6.5-0.6-12.8,2-18.8
				c1.6-3.8,3.5-7.5,5.8-10.9C44.8,54.6,46.4,53.7,48.1,53.3z"/>
			<path class="st7" d="M93.7,135.6c1.3,0.6,2,1.7,3.4,2c0.4,1.3,1.8,1.1,2.8,1.7c2.3,1.1,4.7,1.6,6.2,3.7c0.3,0.6,1,0.3,1-0.1
				c0.1-1.4,0.9-0.9,1.6-0.6c1.7,0.6,3.5,0,5.4,0.4c5,1.3,9.2,3.5,12.9,7.1c0.7,0.7,2.1,1,2,2.6c-2.1-1.4-3.8-3.1-6-4.4
				c-3.5-2.4-7.4-3.1-11.5-2.7c-3.1,0.3-5.8,1.7-8.9,1.8c0.9-3.1,0.6-3.8-2.3-5.7c-1.6-1-3.1-1.8-4.7-2.6c0-0.4,0-0.9-0.4-1
				c-1.6-0.4-3.3-1.1-5-0.6c-0.4,0.1-0.7,0.3-1-0.1c0-0.1,0-0.3,0-0.3c0.4,0,1-0.1,1.4-0.3c0.9,0,1.7,0.1,2.4-0.7
				C93.3,135.6,93.4,135.6,93.7,135.6z"/>
			<path class="st6" d="M90.6,136.2c-0.4,0.3-0.9,0.4-1.4,0.3c-0.6-0.6-0.6-0.1-0.7,0.3c-0.7,0.1-1.4,0.3-2,0.3
				c-2.7-0.1-5.4,0.9-7.9,1.3c-0.1,0-0.1,0.3-0.1,0.4c-1,0-2,0-3,0c-0.3-0.1-0.7-0.6-1,0c-0.7,0-1.3,0-2,0c-0.9,0-1.6,0-2.4,0
				c-0.6,0-1.3-0.3-1.4,0.7c-1.3,0.3-2.4-0.3-3.7-0.3c-0.6,0-1.3-0.3-1.4,0.7c-0.4,0-0.9,0-1.4,0c-0.9-0.9-1.8,0.1-2.7-0.3
				c-0.6-0.1-1.1-0.7-1.4,0.3c-0.6,0-1.1,0-1.7,0c-1.7-0.9-3.3,0.1-5,0.1c-2,0-4,0.7-6-0.1c-1-0.4-2.1,0.1-3.1,0
				c-1,0-2.1-0.3-2.4-1.3c-0.3-1,0.7-1.6,1.4-2c1.4-1,3.1-1.6,4.8-1.8c-0.6,1.1-1.7,1-2.6,1.6c-0.6,0.4-1,0.7-0.7,1.3
				c0.4,0.7,1,0.6,1.6,0c0.3-0.3,0.3-0.4,0.4,0c0.6,1.3,1.6,1.3,2.8,1.1c4.3-0.3,8.5-1,12.9-0.7c2.1,0.1,4.5,0.1,6.9-0.7
				c1.8-0.6,4-0.3,6.1,0c1.4,0.3,2.7,0.3,4.1-0.1c1.1-0.4,2.4-0.3,3.7-0.4c2.1-0.3,4.3-0.7,6.4-1.4c1.1-0.4,2.4-0.6,3.5-1.3
				c0.4-0.3,0.7-0.1,0.7,0.4C91.9,135.6,90.6,135.3,90.6,136.2z"/>
			<path class="st2" d="M68.2,130.8c2.1-0.7,4.3-0.1,6.5-0.3c0.6,0,1.1,0,1.7,0c-1.6,0.7-3.1,0.1-4.8,0.3
				C70.5,130.8,69.3,130.8,68.2,130.8z"/>
			<path class="st2" d="M90.6,136.2c0-0.9,1.3-0.6,1.4-1.4c0.4,0,0.9,0.3,1,0.7C92.3,136.3,91.5,136.3,90.6,136.2z"/>
			<path class="st2" d="M66.8,130.5c0.3,0,0.6,0,0.7,0.3c-0.9,0-1.8,0-2.7,0c0-0.1,0-0.3,0-0.3C65.5,130.5,66.2,130.5,66.8,130.5z"
				/>
			<path class="st8" d="M87.5,204.6c-0.6,0-1.1,0-1.7,0c-0.3,0-0.7,0-1,0c-1.1-0.7-2.6-0.1-3.7-0.3c-4,0-7.9,0-11.9,0
				c-1,0-2,0-3.1,0c-1.6-0.7-3.1-0.1-4.8-0.3c-0.3,0-0.4,0-0.7,0c0-0.3,0-0.4,0-0.7c2.6,0,5.2,0,7.8,0c2.4,0.3,4.8,0.7,7.1,0
				c2.3,0.6,4.5,0.3,6.8,0.3c1.7,0,3.4,0,5.1,0C87.6,203.9,87.6,204.2,87.5,204.6z"/>
			<path class="st5" d="M57,204.6c-7.4-0.3-14.6-1.7-21.8-3.1c-0.3-0.4-1.1-0.3-1-1c1.4,0.3,2.7,0.4,4.1,0.7c1.8,0,3.5,0.9,5.4,0.7
				c0.1,0.9,0.9,0.6,1.4,0.7c0.3,0,0.7,0,1,0c3.1,1,6.2,0.9,9.4,1.4C56,203.9,56.7,203.7,57,204.6z"/>
			<path class="st3" d="M57,204.6c-0.1-1-0.9-0.6-1.4-0.7c-3.1-0.4-6.4-0.4-9.4-1.4c0-0.1,0-0.3,0-0.3c2.8,0.3,5.7,0.4,8.5,0.7
				c0.9,0,1.6,0,2.4,0c0.7,1.3,1.7,0.7,2.7,0.3c0.3,0,0.7,0,1,0c0,0.3,0,0.4,0,0.7c-0.7,0.9-2-0.1-2.7,0.7
				C57.6,204.6,57.3,204.6,57,204.6z"/>
			<path class="st3" d="M69.2,204.2c4,0,7.9,0,11.9,0c0,0.3,0,0.7,0,1c-4,0-7.9,0-11.9,0C69.2,204.9,69.2,204.6,69.2,204.2z"/>
			<path class="st5" d="M69.2,204.2c0,0.3,0,0.7,0,1c-2-0.1-4.1,0.4-6.1-0.3c0.9-0.9,2.1,0.1,3.1-0.7
				C67.2,204.2,68.2,204.2,69.2,204.2z"/>
			<path class="st3" d="M66.1,204.2c-0.9,0.9-2.1-0.1-3.1,0.7c-0.6,0-1.1,0-1.7,0c0-0.3,0-0.7,0-1C63,204.1,64.7,203.5,66.1,204.2z"
				/>
			<path class="st5" d="M81.1,205.2c0-0.3,0-0.7,0-1c1.3,0.1,2.6-0.4,3.7,0.3c-0.3,1.1-1.1,0.6-1.7,0.7
				C82.4,205.4,81.8,205.2,81.1,205.2z"/>
			<path class="st5" d="M61.4,203.9c0,0.3,0,0.7,0,1c-1.1-0.1-2.3,0.4-3.4-0.3c0.7-0.9,2,0.1,2.7-0.7
				C61,203.9,61.1,203.9,61.4,203.9z"/>
			<path class="st6" d="M29.1,199.8c0.7-0.1,1.4,0.3,2,0.3c0.3,0,0.4,0,0.7,0c0.3,0.1,0.6,0.4,0.7,0.7C31.2,201,29.9,201,29.1,199.8
				z"/>
			<path class="st6" d="M34.2,200.5c0,0.7,0.9,0.6,1,1c-0.7-0.3-1.7,0.6-2-0.7c0-0.1,0-0.3,0-0.3C33.5,200.5,33.9,200.5,34.2,200.5z
				"/>
			<path class="st2" d="M46.1,202.2c0,0.1,0,0.3,0,0.3c-0.3,0-0.7,0-1,0c-0.1-0.9-0.9-0.6-1.4-0.7c-1.8,0.1-3.5-0.6-5.4-0.7V201
				c-1-2-1.8-4-3.1-5.8c-1.3-1.8-3-3.3-4.3-5.1c-4.8-6.4-7.8-13.6-8.2-21.7c-0.3-5.2,1-10.3,3-15.3c1.7-4.1,4.8-7.2,6.9-10.9
				c0.1-0.4,0.6-0.3,0.9,0c3.8,2.4,7.9,1.7,11.9,0.6c0.6-0.1,1.3-0.3,1.4-1c0.7,0.6,1.4,0.3,2.3,0.1c2.3-0.3,4.4-1.4,6.7-1.3
				c0.1,0,0.4-0.3,0.6-0.6c0.6,0,1.1,0,1.7,0c0.4,0,1,0.1,1.4-0.3c0.9,0.4,1.8-0.4,2.7,0.3c-0.9,0.6-2,0.4-2.8,0.7
				c-2.6,0.9-5.5,0.4-7.5,2.8c-0.1,0.1-0.6,0.3-0.7,0.1c-1.1-0.9-2-0.1-3,0.4c-1.1,0.7-2.4,1.3-3.7,1.7c-3.7,1.3-7.2,3-9.9,5.8
				c-5.4,5.5-6.9,12.3-6,19.8c1,8.1,4.5,14.9,10.1,20.7c2.7,2.8,4.8,6,7.4,8.8C46.1,201.4,45.7,202,46.1,202.2z"/>
			<path class="st3" d="M46.8,141.7c-0.1,0.9-0.7,0.9-1.4,1c-4,1.1-8.1,2-11.9-0.6c-0.3-0.1-0.7-0.3-0.9,0
				c-2.1,3.7-5.2,6.9-6.9,10.9c-2.1,5-3.3,10.1-3,15.3c0.4,8.1,3.4,15.2,8.2,21.7c1.3,1.7,3,3.3,4.3,5.1c1.3,1.8,2.1,3.8,3.1,5.8
				v0.1c-1.4-0.3-2.7-0.4-4.1-0.7c-0.3,0-0.7,0-1,0c-0.6-1.1-1.3-2.3-2.3-3c-0.7-0.6-1.8-1-0.9-2.4c0.4-0.6-0.4-1.3-0.9-1.7
				c-4.1-5-7.2-10.5-8.8-16.7c-2-7.7-1.6-15.2,1.1-22.5c1.4-4,4-7.2,6.1-10.6c1-1.6,3.3-2.3,5-3.4c1-0.6,1.8-1.1,2.8-1.8
				c0.3-0.1,0.7-0.6,1-0.1c0.3,0.3,0,0.6-0.1,0.9c-0.7,1.6-0.3,2.4,1.4,2.8c2.4,0.7,4.8,0.3,7.1-0.3
				C45.5,141.2,46.1,141.2,46.8,141.7z"/>
			<path class="st3" d="M31.8,200.3c-0.3,0-0.4,0-0.7,0C31.4,199.8,31.6,199.8,31.8,200.3z"/>
			<path class="st9" d="M87.6,203.7c-1.7,0-3.4,0-5.1,0c0-0.7,0.6-0.7,1-0.7c6.7-0.3,13.3-0.7,20-1.7c5.8-0.9,11.5-2.1,17.1-3.8
				c0.4-0.1,0.9-0.3,1.4-0.3c-0.1,0.9-0.9,0.9-1.4,1c-2.1,0.7-4.3,1.1-6.4,1.8c-0.6,0.1-1.6-0.1-1.8,1l0,0c-0.3,0-0.4,0-0.7,0
				c-0.6-0.6-0.9-0.4-1,0.3c-0.3,0-0.4,0-0.7,0c-0.6-0.6-0.9-0.4-1,0.3c-0.3,0-0.4,0-0.7,0c-0.6-0.6-0.9-0.4-1,0.3c-0.3,0-0.7,0-1,0
				c-0.6-0.6-0.9-0.4-1,0.3c-0.3,0-0.7,0-1,0c-0.6-0.4-1.1-0.6-1.4,0.3c-0.3,0.1-0.7,0.3-1,0.3c-0.6-1.3-1.3-0.6-2-0.3
				c-0.3,0-0.4,0-0.7,0c-0.9-0.1-1.6,0.1-2.4,0.3c-0.3,0-0.4,0-0.7,0c-0.9,0-1.8-0.1-2.7,0.3c-0.3,0-0.7,0-1,0
				c-1.3,0.1-2.6-0.4-3.7,0.3C88.2,203.7,87.9,203.7,87.6,203.7z"/>
			<path class="st8" d="M112.4,200.8c0.1-1,1.1-0.7,1.8-1c2.1-0.7,4.3-1.1,6.4-1.8c0.6-0.1,1.3-0.1,1.4-1c1.8-0.3,3.7-1.1,5.4-1.7
				c1-0.4,2.1-0.6,3.1-1.4c0.3,0,0.4,0,0.7,0c-0.1,1.1-1.6,0.9-2,1.7c-0.3,0-0.6,0-0.7,0.3c-0.6,0-1,0.3-1.4,0.7c-0.4,0-0.7,0-1,0.3
				c-1,0-1.8,0.6-2.7,1c-0.4,0-1,0.1-1.4,0.3c-0.3,0-0.6,0-0.7,0.3c-0.3,0-0.4,0-0.7,0c-0.4,0-0.7,0.3-0.7,0.7c-0.6,0-1.1,0-1.7,0
				c-0.3,0-0.6,0-0.7,0.3c-0.3,0-0.4,0-0.7,0s-0.6,0-0.7,0.3c-0.3,0-0.4,0-0.7,0s-0.6,0-0.7,0.3c-0.3,0-0.4,0-0.7,0
				c-0.3,0-0.6,0-0.7,0.3C113,200.8,112.7,200.8,112.4,200.8z"/>
			<path class="st3" d="M129,195.7c0.4-0.9,1.8-0.6,2-1.7c0.1,0,0.3,0,0.3,0c0.7,0,1.6,0,1.7-1c0.7-0.4,1.6-0.6,2-1.4
				c0.9-0.1,1.6-0.6,2-1.4c0.3,0,0.4,0,0.7,0c-1,2.1-3.1,2.8-5,4C131.7,195,130.7,196.3,129,195.7z"/>
			<path class="st8" d="M88.6,203.7c1.1-0.7,2.6-0.1,3.7-0.3c0,0.3,0,0.4,0,0.7c-0.7,0-1.4,0-2,0c-0.4,0-0.9,0-1.4,0
				C88.8,203.8,88.8,203.7,88.6,203.7z"/>
			<path class="st8" d="M93.3,203.2c0.9-0.6,1.8-0.3,2.7-0.3c0,0.3,0,0.7,0,1c-0.6,0-1.1,0-1.7,0c-0.3-0.4-0.7-0.3-1-0.3
				C93.3,203.5,93.3,203.4,93.3,203.2z"/>
			<path class="st3" d="M88.6,203.7c0.1,0.1,0.3,0.3,0.3,0.3c0,0.3,0,0.7,0,1c-0.4,0-1,0.1-1.4-0.3c0-0.3,0-0.7,0-1
				C87.9,203.7,88.2,203.7,88.6,203.7z"/>
			<path class="st3" d="M123.2,198.1c0.9-0.4,1.7-1,2.7-1C125.3,198.3,124.3,198.4,123.2,198.1z"/>
			<path class="st3" d="M93.3,203.2c0,0.1,0,0.3,0,0.3c0,0.3,0,0.7,0,1c-0.4,0-1,0-1-0.7c0-0.3,0-0.4,0-0.7
				C92.7,203.2,93,203.2,93.3,203.2z"/>
			<path class="st8" d="M96.7,202.9c0.9-0.1,1.6-0.4,2.4-0.3c0,0.3,0,0.4,0,0.7c-0.6,0-1.1,0-1.7,0
				C97.1,203.2,96.8,203.2,96.7,202.9z"/>
			<path class="st5" d="M88.9,204.9c0-0.3,0-0.7,0-1c0.4,0,0.9,0,1.4,0C90.3,205.1,89.6,204.9,88.9,204.9z"/>
			<path class="st8" d="M99.8,202.5c0.7-0.3,1.6-0.9,2,0.3c-0.7,0-1.4,0-2,0C99.8,202.8,99.8,202.7,99.8,202.5z"/>
			<path class="st3" d="M96.7,202.9c0.1,0.3,0.4,0.3,0.7,0.3c0,0.1,0,0.3,0,0.3c-0.4,0-0.7,0.3-0.7,0.7c-0.3,0-0.6,0-0.7-0.3
				c0-0.3,0-0.7,0-1C96.3,202.9,96.6,202.9,96.7,202.9z"/>
			<path class="st8" d="M107.3,201.8c0.1-0.7,0.4-0.9,1-0.3c0,0.3,0,0.4,0,0.7C107.9,202.2,107.5,202.2,107.3,201.8z"/>
			<path class="st5" d="M93.3,204.6c0-0.3,0-0.7,0-1c0.4,0,0.7,0,1,0.3C94.3,204.6,93.9,204.6,93.3,204.6z"/>
			<path class="st3" d="M127,196.9c0.3-0.4,0.9-0.6,1.4-0.7C128.2,196.9,127.9,197.3,127,196.9z"/>
			<path class="st8" d="M102.8,202.5c0.3-1,0.7-0.9,1.4-0.3C103.9,202.7,103.4,202.5,102.8,202.5z"/>
			<path class="st8" d="M110.7,201.2c0.1-0.7,0.4-0.9,1-0.3c0,0.1,0,0.3,0,0.3c-0.3,0-0.4,0-0.7,0
				C110.9,201.2,110.7,201.2,110.7,201.2z"/>
			<path class="st8" d="M109,201.5c0.1-0.7,0.4-0.9,1-0.3c0,0.1,0,0.3,0,0.3c-0.3,0-0.4,0-0.7,0C109.2,201.5,109,201.5,109,201.5z"
				/>
			<path class="st3" d="M110,201.5c0-0.1,0-0.3,0-0.3c0.3,0,0.4,0,0.7,0c0.1,0,0.3,0,0.3,0C110.9,202,110.6,202.1,110,201.5z"/>
			<path class="st8" d="M105.2,202.2c0.1-0.7,0.4-0.9,1-0.3C106.1,202.2,105.6,202.2,105.2,202.2z"/>
			<path class="st3" d="M109,201.5c0.1,0,0.3,0,0.3,0c0,0.7-0.6,0.7-1,0.7c0-0.3,0-0.4,0-0.7C108.5,201.5,108.7,201.5,109,201.5z"/>
			<path class="st3" d="M99.8,202.5c0,0.1,0,0.3,0,0.3c0,0.4-0.1,0.9-0.7,0.3c0-0.3,0-0.4,0-0.7C99.4,202.5,99.5,202.5,99.8,202.5z"
				/>
			<path class="st3" d="M111.7,201.2c0-0.1,0-0.3,0-0.3c0.3,0,0.4,0,0.7,0C112.3,201.2,112.3,201.7,111.7,201.2z"/>
			<path class="st3" d="M113.4,200.8c0.1-0.3,0.4-0.3,0.7-0.3C114,201,114,201.4,113.4,200.8z"/>
			<path class="st3" d="M114.7,200.5c0.1-0.3,0.4-0.3,0.7-0.3C115.4,200.7,115.3,201.1,114.7,200.5z"/>
			<path class="st3" d="M117.5,199.8c0.1-0.3,0.4-0.3,0.7-0.3C118.1,200,118,200.4,117.5,199.8z"/>
			<path class="st3" d="M119.8,199.5c0-0.4,0.3-0.7,0.7-0.7C120.5,199.3,120.2,199.5,119.8,199.5z"/>
			<path class="st5" d="M96.7,204.2c0-0.4,0.3-0.7,0.7-0.7C97.4,204.1,97.1,204.2,96.7,204.2z"/>
			<path class="st3" d="M121.2,198.8c0.1-0.3,0.4-0.3,0.7-0.3C121.8,199,121.8,199.4,121.2,198.8z"/>
			<path class="st3" d="M116.1,200.3c0.1-0.3,0.4-0.3,0.7-0.3C116.7,200.3,116.7,200.7,116.1,200.3z"/>
			<path class="st7" d="M71.2,120.6c1.3-0.7,2.7-0.1,4,0c-1.1,0-2.3,0-3.4,0C71.8,120.6,71.5,120.6,71.2,120.6z"/>
			<path class="st7" d="M68.5,120.3c0.4,0,0.7,0,1,0.3c-1.1,0-2.3,0-3.4,0c0-0.1,0-0.3,0-0.3C66.9,120.3,67.8,120.3,68.5,120.3z"/>
			<path class="st10" d="M103.9,67.2c1.4,1,2.3,2.6,2.6,4.1c0.9,4.8,1.8,9.6,1.4,14.6c-0.3,3.7-0.7,7.5-1.7,11.2
				c-0.6,2.1-2.3,3.4-3.8,4.7c-2.7,2.3-5.5,4-8.6,5.7c-0.6,0.3-1.1,0.6-1.7,0.6c-6.1,0.3-12-0.6-18-2.7c-3-1.1-4.4-3.3-5.8-5.8
				c-2.7-4.8-5.7-9.6-8.2-14.6c-1.1-2.1-1.3-4.4-1.7-6.7c-0.4-2.6-0.1-5.1-0.6-7.5c-0.4-2.1,1-3.8,2-5.7c0.9-1.7,2-3.3,2.8-5.1
				c1.4-3.3,4.3-4.8,7.2-6c5.2-2.1,10.8-2.8,16.3-1.7c4,0.9,7.8,2.8,10.9,5.5c1.1,1,2.1,2,3.3,3c0.4,0.4,0.9,0.9,0.7,1.6
				c-1.3-1-2.7-2.1-4-3.1c-4.7-3.8-9.9-6-16-6.1c-5-0.1-8.8,2.4-13,4c-0.7,0.3-1.3,1.1-1.8,1.8c-1.1,1.7-2,3.5-3.1,5.2
				c-1.6,2.3-2.1,4.7-2,7.4c0,1.7,0.3,3.3,0.3,4.8c0.3,4.3,1.4,8.2,3.7,12c2.6,4.3,5.5,8.1,8.1,12.3c1.4,2.6,3.5,3.4,6.1,3.8
				c4,0.7,7.9,0.9,11.9,0.7c1,0,2-0.3,2.8-0.9c2.8-1.7,5.8-3.3,8.5-5.2c1.4-1,2.1-2,2.6-3.7c0.7-2.8,1.1-5.7,1.6-8.6
				c0.4-3.7,0.4-7.4,0-11.1C105.6,72.8,104.5,70.2,103.9,67.2z"/>
			<path class="st11" d="M103.9,67.2c0.6,3,1.8,5.7,2.3,8.6c0.6,3.7,0.4,7.4,0,11.1c-0.3,2.8-0.9,5.8-1.6,8.6
				c-0.4,1.7-1.1,2.7-2.6,3.7c-2.7,2-5.7,3.5-8.5,5.2c-0.9,0.6-1.8,0.7-2.8,0.9c-4,0.1-8.1-0.1-11.9-0.7c-2.6-0.4-4.5-1.3-6.1-3.8
				c-2.4-4.3-5.5-8.1-8.1-12.3c-2.3-3.7-3.4-7.7-3.7-12c-0.1-1.6-0.3-3.3-0.3-4.8c-0.1-2.7,0.6-5.1,2-7.4c1.1-1.7,2.1-3.5,3.1-5.2
				c0.4-0.7,1-1.6,1.8-1.8c4.3-1.6,8.2-4.1,13-4c6.2,0.1,11.3,2.3,16,6.1c1.3,1.1,2.7,2.1,4,3.1c0.1,0.1,0.3,0.3,0.3,0.3
				c0,0.7,0.4,1,1,1.4l0,0c0,0.4,0.3,0.9,0.7,1c0,0.4,0.3,0.9,0.7,1C103.6,66.6,103.8,66.9,103.9,67.2z M105.2,80.5
				c0.3-2-0.3-4.5-1-7.2c-2.6-9.6-8.6-16-18.4-18.3c-4-1-8.1-0.3-12,0.9c-2.4,0.7-4.3,2-5.7,3.8c-1.1,1.4-2,3-3.1,4.4
				c-1.8,2.3-2.6,4.7-2.3,7.5c0.3,3,0.7,5.8,1.3,8.6c0.3,1.3,0.6,2.4,1.3,3.7c3.4,6,7.7,11.3,11.1,17.1c1,1.7,2.6,2.1,3.8,1.7
				c2-0.6,3.8,0.1,5.8,0.3c3.8,0.3,7.4,0.7,10.6-2.1c0.6-0.4,1.3-0.9,2-1c0.9-0.3,1.3-0.7,1.7-1.4C103.6,93.4,105.3,87.4,105.2,80.5
				z"/>
			<path class="st10" d="M102.2,64.2c-0.6-0.3-1-0.7-1-1.4C102.1,62.9,102.2,63.5,102.2,64.2z"/>
			<path class="st10" d="M102.8,65.2c-0.4-0.1-0.7-0.6-0.7-1C102.9,64.2,102.9,64.8,102.8,65.2z"/>
			<path class="st10" d="M103.5,66.2c-0.4-0.1-0.7-0.6-0.7-1C103.5,65.2,103.5,65.8,103.5,66.2z"/>
			<path class="st7" d="M93.7,53.6c0.4,0,0.7,0.3,0.7,0.7C93.9,54.3,93.7,54.1,93.7,53.6z"/>
			<path class="st9" d="M135.1,191.8c-0.4,0.9-1.4,0.9-2,1.4c-0.9-0.1-1.4,0.3-1.7,1c-0.1,0-0.3,0-0.3,0c-0.3,0-0.4,0-0.7,0
				c0.7-2,2-3.7,3-5.7c3.3-6.8,4.8-14,2.4-21.5c-1.3-4-2.8-7.8-6.1-10.6l0,0c-0.1-0.3-0.1-0.6-0.3-0.7c-4.8-5.7-10.8-8.2-18.1-7.4
				c-6.5,0.7-13,2.3-19.7,2.7c-4.5,0.3-8.9,1.6-13.3,2.3c-5.7,0.9-11.2,1.7-16.9,2.6c-4,0.6-7.9,1.3-11.5,3.1
				c-6.8,3.7-8.9,8.8-7.2,15.9c1.8,7.9,7.1,13.9,13.2,18.8c3.8,3.1,7.7,6.4,12,8.6c0.4,0.1,0.6,0.6,0.6,1c-2.6,0-5.2,0-7.8,0
				c-0.3,0-0.7,0-1,0c-0.1-0.3-0.4-0.3-0.7-0.3c0-1-1-1-1.4-1.4c-0.6-0.6-2-0.7-1.7-1.8c0.1-0.9-0.3-1-0.7-1.3
				c-3.7-2.8-7.2-5.7-10.2-9.4c-4.4-5.4-8.1-11.1-8.4-18.3c-0.1-3.1,0.3-6.1,1.8-8.9c3-5.4,8.1-7.2,13.6-8.2
				c2.7-0.4,5.5-0.4,8.2-0.7c0.4,0,1-0.1,1-0.7c0-0.6-0.4-0.6-0.9-0.7c-1.1-0.3-2.4-0.7-3.5-1c-1.7-0.3-2.6-1.1-2.8-2.7
				c-0.1-1.3-0.3-2.8,1.6-3.3c0.1,0,0.3-0.3,0.4-0.6c0.1-1,1-1.1,1.7-1.4c1-0.6,2.6-0.3,3.1-1.7c2.6-0.3,5.2-0.4,7.8-1
				c0.4,0,0.9,0,1.4,0c0.1,0,0.3,0,0.3,0c0,0.3,0,0.7,0,1c-0.3,0-0.7,0-1,0c-0.3-0.3-0.6-0.4-0.9-0.3c-2.4,0.6-4.8,0.9-7.2,1.8
				c-1.1,0.6-2.3,0.9-2.4,2.3c-0.1,1.6,0.6,2.6,1.8,3.4c2.7,2,6,2.4,9.2,2.6c6,0.3,11.9,0.3,17.7-0.6c3.4-0.6,6.9-1.3,10.1-2.8
				c2.7-1.4,3-3.4,1-5.5c-0.7-0.7-1.3-1.4-2.1-2c-0.4-0.3-0.6-0.7-0.6-1.1l0,0c1.7,0.7,3.3,1.6,4.7,2.6c2.8,1.8,3.1,2.7,2.3,5.7
				c3.1-0.1,6-1.4,8.9-1.8c4.1-0.4,7.9,0.4,11.5,2.7c2.1,1.4,3.8,3.1,6,4.4c0.6,0.4,1.1,0.6,1.4,1.4c0.1,0.9,0.6,1.3,1.4,1.4
				c0.3,0.6,0.7,1.1,1,1.7c0.1,0.7,0.4,1.4,0.9,2c4.7,7.7,6,15.7,3.7,24.4C136.7,185.9,136,188.8,135.1,191.8z"/>
			<path class="st7" d="M135.1,191.8c0.7-2.8,1.6-5.7,2.3-8.6c2.3-8.6,0.9-16.9-3.7-24.4c-0.4-0.6-0.9-1.3-0.9-2
				c1.1,0.6,1.6,1.7,2.4,2.7c0.4,0.6,0.6,1.3,1.3,1.4c0.1,2,0.9,3.8,1.4,5.5c1.7,5.5,1.6,11.1,0.7,16.6c-0.3,2.6-1.6,4.8-1.6,7.4
				C136.8,191.2,136.1,191.6,135.1,191.8z"/>
			<path class="st7" d="M131.7,154.9c-0.9-0.1-1.3-0.6-1.4-1.4C131.1,153.8,131.7,154.2,131.7,154.9z"/>
			<path class="st9" d="M86.5,137.3c0.7-0.1,1.4-0.3,2-0.3c0.3,0,0.4,0,0.7,0c0.3,0.4,0.7,0.3,1,0.1c1.7-0.6,3.3,0.1,5,0.6
				c0.6,0.1,0.4,0.6,0.4,1l0,0c-0.4,0-0.9,0-1.4,0c-3.1-0.6-6.1-0.7-9.2,0.3c-0.3,0-0.4,0-0.7,0c-0.1,0-0.3,0-0.3,0c0-0.3,0-0.7,0-1
				C85.1,138,85.8,137.9,86.5,137.3z"/>
			<path class="st2" d="M89.3,136.9c-0.3,0-0.4,0-0.7,0c0.1-0.4,0.1-0.9,0.7-0.3C89.3,136.8,89.3,136.8,89.3,136.9z"/>
			<path class="st8" d="M68.5,140c-2.6,0.7-5.2,0.9-7.8,1c-1.4,0.4-2.8,1.1-4.4,1.3c-1.7,0.1-2,1.7-3.5,2.1c-2.6,0.9-2.6,4.4-0.4,6
				c0.1,0.1,0.4,0.1,0.3,0.6c-1.8,1.1-4.1,1.1-6.1,1.6c-4.1,1-8.1,2.6-10.3,6.4c-2.3,3.8-3,7.9-2.4,12.5c1,8.8,5.5,15.6,11.6,21.5
				c3,2.8,5.7,6.1,8.8,8.8c0.3,0.3,0.3,0.7,0.3,1.1c-2.8-0.3-5.7-0.4-8.5-0.7c-0.4-0.3,0-0.9-0.3-1.3c-2.6-2.8-4.8-6-7.4-8.8
				c-5.4-5.8-8.9-12.6-10.1-20.7c-1-7.5,0.6-14.3,6-19.8c2.8-2.8,6.2-4.5,9.9-5.8c1.3-0.4,2.6-1,3.7-1.7c1-0.6,1.8-1.3,3-0.4
				c0.1,0.1,0.7,0,0.7-0.1c2-2.4,5-2,7.5-2.8c1-0.3,2-0.1,2.8-0.7c0.4,0,0.9,0,1.4,0s1.3,0.3,1.4-0.7c1.3,0,2.4,0.6,3.7,0.3
				C68.5,139.7,68.5,139.9,68.5,140z"/>
			<path class="st10" d="M84.2,138c0,0.3,0,0.7,0,1c-0.6,0.1-1.3-0.3-1.7,0.3c-0.3,0-0.4,0-0.7,0c-0.6,0-1.3-0.3-1.4,0.7
				c-0.4-0.1-0.9-0.3-1.4-0.3c-0.4,0-0.7,0.3-0.7,0.7c-0.6,0-1.1,0-1.7,0c-0.6-0.6-0.6-0.1-0.7,0.3c-0.6,0-1.1,0-1.7,0
				c-0.6-0.6-0.6-0.1-0.7,0.3c-0.4-0.1-0.9-0.3-1.4-0.3c-0.4,0-0.7,0-1,0.3c-0.3,0-0.7,0-1,0l0,0c0-0.3,0-0.7,0-1
				c0.7-0.3,2,0.6,2.1-1c0.7,0,1.3,0,2,0c0,0.3,0.1,0.6,0.4,0.6c0.4,0,0.6-0.3,0.6-0.6c1,0,2,0,3,0C80.4,139,82.2,138.6,84.2,138z"
				/>
			<path class="st2" d="M84.2,138c-1.8,0.6-3.8,1-5.8,1c0-0.1,0.1-0.4,0.1-0.4c2.7-0.4,5.2-1.4,7.9-1.3
				C85.8,137.9,85.1,138,84.2,138z"/>
			<path class="st8" d="M72.3,139c-0.1,1.6-1.3,0.7-2.1,1c-0.1,0-0.3,0-0.3,0c0-0.3,0-0.7,0-1C70.6,139,71.5,139,72.3,139z"/>
			<path class="st2" d="M69.9,139c0,0.3,0,0.7,0,1c-0.4,0-0.9,0-1.4,0c0-0.1,0-0.3,0-0.3C68.6,138.7,69.3,139,69.9,139z"/>
			<path class="st2" d="M75.3,139c0,0.3-0.1,0.7-0.6,0.6c-0.3,0-0.4-0.3-0.4-0.6C74.6,138.5,75,138.9,75.3,139z"/>
			<path class="st2" d="M64.8,139.3c-0.1,0.9-0.9,0.6-1.4,0.7C63.5,139,64.2,139.3,64.8,139.3z"/>
			<path class="st5" d="M59.3,139.6c-0.4,0.4-0.9,0.3-1.4,0.3C58.2,138.9,58.9,139.5,59.3,139.6z"/>
			<path class="st11" d="M127.3,195.4c-1.8,0.7-3.5,1.4-5.4,1.7c-0.4,0.1-0.9,0.3-1.4,0.3c0.4-1.1,1.6-1.1,2.3-1.4
				c2.6-1.1,3.3-3.8,5.1-5.7c4.5-4.7,6.5-10.6,6.5-17.1c0-4.3-1.1-8.5-3.7-12.2c-2.6-4-5.7-7.2-10.3-8.6c-2.6-0.7-5.2-0.9-7.8-0.9
				c-4.5-0.1-9.1,0.4-13.6,1c-4.5,0.4-9.1,1.1-13.5,1.8c-5.2,0.9-10.3,1.8-15.6,3c-4.7,1-9.5,1.7-13.7,4.1c-3.7,2.1-6.5,5-7.2,9.4
				c-0.7,4,1,7.5,3,10.9c3.5,6,8.8,10.3,14.7,13.7c2.8,1.6,5.7,3.7,9.2,3.5c0.4,0,1,0.3,0.7,0.9c-0.4,1.1,0.4,1.3,1,1.6
				c1.4,0.6,2.8,1.1,4.4,1c0.6,0,1.3-0.3,1.4,0.7c-0.4,0-1,0-1,0.7c-2.3-0.1-4.5,0.3-6.8-0.3c-0.7-1.3-2.1-1.3-3.3-1.7
				c-1.3-0.4-2.4-0.7-3.7-1.1c-1-0.3-0.9-1.6-1.8-2.1c-3.4-2-6.7-4.3-9.6-6.8c-4.1-3.7-8.1-7.5-10.3-12.6
				c-4.4-9.4,1.6-18.7,9.8-20.8c3.7-1,7.7-1.4,11.5-2.1c6.5-1.1,13-2.3,19.6-3.4c4.1-0.7,8.1-1.3,12.2-1.7c4.3-0.4,8.4-0.9,12.6-1.1
				c5.2-0.4,9.8,0.9,13.9,4c1.1,0.9,1.8,2.3,3.4,2.7l0,0c0,0.4,0.1,0.9,0.4,1.3c4.5,5.7,6.4,12,5.8,19.3c-0.4,5.1-2.8,9.2-5.1,13.6
				C129.9,192.3,128.2,193.6,127.3,195.4z"/>
			<path class="st10" d="M129.7,156.3c-1.6-0.4-2.3-1.8-3.4-2.7c-4.1-3.1-8.6-4.4-13.9-4c-4.3,0.4-8.4,0.7-12.6,1.1
				c-4.1,0.4-8.1,1.1-12.2,1.7c-6.5,1.1-13,2.3-19.6,3.4c-3.8,0.7-7.7,1.1-11.5,2.1c-8.2,2.1-14,11.3-9.8,20.8
				c2.4,5.1,6.2,8.9,10.3,12.6c3,2.6,6.2,5,9.6,6.8c1,0.6,0.9,1.8,1.8,2.1c1.3,0.4,2.6,0.7,3.7,1.1c1.1,0.4,2.6,0.4,3.3,1.7
				c-2.4,0.7-4.8,0.3-7.1,0c0-0.4-0.1-0.7-0.6-1c-4.4-2.4-8.2-5.5-12-8.6c-6.2-5-11.3-10.9-13.2-18.8c-1.7-7.1,0.4-12.2,7.2-15.9
				c3.5-2,7.5-2.7,11.5-3.1c5.7-0.7,11.2-1.6,16.9-2.6c4.4-0.7,8.9-2,13.3-2.3c6.7-0.4,13-2,19.7-2.7c7.4-0.9,13.5,1.7,18.1,7.4
				C129.6,155.8,129.6,156,129.7,156.3z"/>
			<path class="st3" d="M43.7,202c0.6,0,1.3-0.3,1.4,0.7C44.5,202.5,43.8,202.8,43.7,202z"/>
			<path class="st7" d="M54.6,202.9c0-0.4,0-0.9-0.3-1.1c-3.1-2.7-5.8-6-8.8-8.8c-6.1-6-10.6-12.8-11.6-21.5
				c-0.6-4.5,0.1-8.6,2.4-12.5c2.3-3.8,6.2-5.4,10.3-6.4c2-0.4,4.3-0.4,6.1-1.6c0.1-0.3-0.1-0.4-0.3-0.6c-2.1-1.6-2.1-5.2,0.4-6
				c1.6-0.4,1.8-2.1,3.5-2.1c1.4-0.1,3-0.9,4.4-1.3c-0.7,1.3-2.1,1-3.1,1.7c-0.7,0.4-1.6,0.4-1.7,1.4c0,0.1-0.1,0.4-0.4,0.6
				c-1.8,0.4-1.7,1.8-1.6,3.3c0.3,1.6,1.1,2.4,2.8,2.7c1.3,0.1,2.4,0.6,3.5,1c0.4,0.1,0.9,0.3,0.9,0.7c0,0.6-0.6,0.6-1,0.7
				c-2.7,0.3-5.5,0.3-8.2,0.7c-5.7,0.9-10.6,2.7-13.6,8.2c-1.6,2.8-2,5.8-1.8,8.9c0.3,7.2,4,12.9,8.4,18.3c3,3.7,6.5,6.5,10.2,9.4
				c0.4,0.4,0.9,0.6,0.7,1.3c-0.1,1.1,1.1,1.3,1.7,1.8c0.6,0.4,1.4,0.4,1.4,1.4c-0.7,0-1.4,0-2,0C56.2,202.9,55.3,202.9,54.6,202.9z
				"/>
			<path class="st8" d="M57,202.9c0.7,0,1.4,0,2,0c0.3,0,0.6,0,0.7,0.3C58.7,203.7,57.7,204.2,57,202.9z"/>
			<path class="st12" d="M83.5,202.9c-0.1-1-1-0.7-1.4-0.7c-1.6,0.1-3-0.4-4.4-1c-0.7-0.3-1.4-0.4-1-1.6c0.3-0.6-0.3-0.9-0.7-0.9
				c-3.5,0.3-6.4-1.8-9.2-3.5c-6-3.4-11.1-7.8-14.7-13.7c-2-3.3-3.5-6.8-3-10.9c0.7-4.4,3.4-7.2,7.2-9.4c4.3-2.4,9.1-3,13.7-4.1
				c5.1-1.1,10.3-2.1,15.6-3c4.5-0.7,8.9-1.4,13.5-1.8c4.5-0.4,9.1-1,13.6-1c2.7,0,5.2,0.1,7.8,0.9c4.7,1.4,7.7,4.7,10.3,8.6
				c2.4,3.7,3.5,7.9,3.7,12.2c0,6.5-2,12.5-6.5,17.1c-1.7,1.8-2.6,4.4-5.1,5.7c-0.9,0.4-2,0.3-2.3,1.4c-5.5,1.7-11.3,3-17.1,3.8
				C96.8,202.2,90.2,202.7,83.5,202.9z M113.1,153.2c-7.1-0.1-13.2,0.9-19.3,1.7c-9.8,1.4-19.6,3.3-29.2,5.5
				c-3.5,0.9-6.5,2.4-8.9,5.2c-2.6,3.1-3.7,6.5-2.8,10.5c1.1,5.2,4.7,8.8,8.5,12c4.7,4,10.2,6.8,15.6,9.4c1.4,0.7,2.8,1.4,4.4,1.1
				c0.4-0.1,1,0,1.1,0.4c0.4,1,1.4,1.1,2.3,1.1c3.1,0.3,6.1,0.6,9.2,0.7c3.3,0.1,6.4-0.6,9.5-1c7.2-0.9,14-3,19.7-7.9
				c6.2-5.4,9.9-12.2,9.4-20.7c-0.4-7.9-4.4-13.5-11.2-17.1C118.7,152.9,115.4,153.2,113.1,153.2z"/>
			<path class="st10" d="M127.3,195.4c0.9-1.8,2.6-3.1,3.4-5c2.3-4.4,4.7-8.5,5.1-13.6c0.6-7.2-1.3-13.7-5.8-19.3
				c-0.3-0.4-0.4-0.9-0.4-1.3c3.3,2.8,4.8,6.7,6.1,10.6c2.4,7.5,0.7,14.6-2.4,21.5c-0.9,2-2.1,3.7-3,5.7
				C129.6,194.9,128.4,195,127.3,195.4z"/>
			<path class="st8" d="M131.4,194c0.4-0.7,0.9-1.1,1.7-1C133,194,132.1,194,131.4,194z"/>
			<path class="st12" d="M105.2,80.5c0.1,7.1-1.7,12.9-5.1,18.3c-0.4,0.6-0.9,1.1-1.7,1.4c-0.7,0.1-1.4,0.6-2,1
				c-3.1,2.7-6.8,2.3-10.6,2.1c-1.8-0.1-3.7-0.9-5.8-0.3c-1.3,0.3-3,0-3.8-1.7c-3.4-6-7.7-11.3-11.1-17.1c-0.7-1.1-1-2.4-1.3-3.7
				c-0.6-2.8-1-5.8-1.3-8.6c-0.3-2.8,0.4-5.4,2.3-7.5c1.1-1.4,2-3,3.1-4.4c1.4-1.8,3.4-3.1,5.7-3.8c4-1.1,8.1-1.8,12-0.9
				c9.8,2.4,15.7,8.6,18.4,18.3C104.9,75.8,105.5,78.4,105.2,80.5z M103.5,79.6c0-1.1,0.1-2.3,0-3.3c-1.3-6.4-3.7-11.8-9.1-15.9
				c-5.8-4.3-11.9-5.4-18.6-3.3c-1.4,0.4-2.4,1.4-3.3,2.8c-1,2-2.1,3.8-4,5.2c-1.8,1.6-2.8,3.5-2.3,6c0.3,1.7,0.6,3.4,1,5
				c0.9,2.8,0.9,6,2.7,8.5c1.1,1.6,2.3,3.3,3.4,4.8c1.6,1.8,2.4,4.3,4.8,5.2c4.3,1.6,8.5,3.1,12.8,4.7c1,0.3,1.8,0.1,2.6-0.7
				c2-2,3.5-4.4,5.2-6.7C101.5,88.3,104.1,84.5,103.5,79.6z"/>
			<path class="st10" d="M94.4,138.6c0.4,0,0.9,0,1.4,0c0,0.4,0.1,0.9,0.6,1.1c0.7,0.6,1.4,1.3,2.1,2c2.1,2.1,1.8,4.1-1,5.5
				c-3.1,1.7-6.5,2.3-10.1,2.8c-6,1-11.8,0.9-17.7,0.6c-3.1-0.1-6.4-0.6-9.2-2.6c-1.1-0.9-2-1.8-1.8-3.4c0.1-1.4,1.4-1.7,2.4-2.3
				c2.3-1.1,4.8-1.4,7.2-1.8c0.3-0.1,0.7,0,0.9,0.3c0,0.3,0,0.4,0,0.7c-0.3,0-0.4,0-0.7,0c-0.6-0.6-0.6-0.1-0.7,0.3
				c-0.3,0-0.4,0-0.7,0c-1.8-0.6-3.5,0.3-5,1.3c-1.6,1-1.4,2.1,0,3.3c3.3,2.6,6.9,3.1,10.8,3.3c4.7,0.1,9.4,0.1,14-0.7
				c2.7-0.4,5.4-0.9,7.8-2.3c2.4-1.4,3-3.1,1.6-5.5C95.7,140.6,95.3,139.5,94.4,138.6z"/>
			<path class="st12" d="M69.2,141.7c0-0.3,0-0.4,0-0.7c0.3,0,0.7,0,1,0l0,0C70.2,141.7,69.6,141.7,69.2,141.7z"/>
			<path class="st12" d="M94.4,138.6c0.9,0.9,1.3,1.8,1.8,2.8c1.4,2.3,1,4.1-1.6,5.5c-2.4,1.4-5.1,1.7-7.8,2.3
				c-4.7,0.7-9.4,0.9-14,0.7c-3.8-0.1-7.7-0.7-10.8-3.3c-1.4-1.1-1.6-2.4,0-3.3c1.6-0.9,3.1-1.7,5-1.3c-0.9,0.7-2.1,0.6-2.8,1.4
				c-0.6,0.4-1,1-0.9,1.7c0.1,0.9,0.7,1.1,1.6,1c0.4,0,0.7,0.3,1.1,0.4c1.4,0.9,3,1.3,4.7,1.6c4.4,1,8.9,0.9,13.5,0.3
				c2.8-0.4,5.7-0.9,8.1-2.3c1.3-0.9,2.6-1.7,2.1-3.5c-0.3-1.3-0.4-3-2-3.4c-1.7-0.4-3.4-0.6-5.1,0.1c-0.6,0-1.1,0-1.7,0
				c-0.1-0.1-0.3-0.3-0.3-0.3C88.2,138,91.3,138,94.4,138.6z"/>
			<path class="st12" d="M82.5,139.3c0.4-0.6,1.1-0.3,1.7-0.3c0.1,0,0.3,0,0.3,0c0,0.3,0,0.4,0,0.7c-0.6,0-1.1,0-1.7,0
				C82.7,139.6,82.5,139.5,82.5,139.3z"/>
			<path class="st13" d="M84.5,139.6c0-0.3,0-0.4,0-0.7c0.3,0,0.4,0,0.7,0c0.1,0.1,0.3,0.3,0.3,0.3C85.4,140,85.1,140.2,84.5,139.6z
				"/>
			<path class="st13" d="M87.2,139.3c1.7-0.7,3.4-0.6,5.1-0.1c1.6,0.4,1.7,2.1,2,3.4c0.4,1.7-0.9,2.7-2.1,3.5
				c-2.4,1.6-5.2,2-8.1,2.3c-4.5,0.6-8.9,0.7-13.5-0.3c-1.6-0.3-3.1-0.9-4.7-1.6c-0.3-0.1-0.7-0.4-1.1-0.4c-0.9,0.1-1.3-0.1-1.6-1
				c-0.1-0.9,0.3-1.3,0.9-1.7c0.9-0.7,2-0.7,2.8-1.4c0.3,0,0.4,0,0.7,0s0.6,0,0.7-0.3c0.3,0,0.4,0,0.7,0c0.4,0,1,0,1-0.7
				c0.3,0,0.7,0,1,0c0.6,0.6,0.9,0.4,1-0.3c0.4,0.1,0.9,0.3,1.4,0.3c0.3,0,0.6,0,0.7-0.3c0.6,0,1.1,0,1.7,0c0.3,0,0.6,0,0.7-0.3
				c0.6,0,1.1,0,1.7,0c0.4,0,0.7-0.3,0.7-0.7c0.4,0.1,0.9,0.3,1.4,0.3l0,0c0,0.6-0.6,0.6-1,0.7c-3,0.6-6,1.3-8.8,2.3
				c-0.7,0.3-2,0.3-1.7,1.4c0.3,1.3,1.3,2.1,2.4,1.8c2.8-0.4,5.5-0.4,8.2-0.1c3.7,0.3,6.9-1.1,10.2-2.6c0.9-0.4,1.8-1.3,1.7-2.6
				c-0.1-1.3-1.4-1.3-2.4-1.4C88.5,139.6,87.8,139.9,87.2,139.3z"/>
			<path class="st12" d="M80.4,140c0.1-0.9,0.9-0.6,1.4-0.7c0,0.3,0,0.4,0,0.7C81.4,140,80.8,140,80.4,140L80.4,140z"/>
			<path class="st13" d="M81.8,140c0-0.3,0-0.4,0-0.7c0.3,0,0.4,0,0.7,0c0.1,0.1,0.3,0.3,0.3,0.3C82.7,140.4,82.4,140.6,81.8,140z"
				/>
			<path class="st12" d="M72.3,140.7c-0.1,0.7-0.4,0.9-1,0.3C71.5,140.6,71.9,140.7,72.3,140.7z"/>
			<path class="st12" d="M76.7,140.3c-0.1,0.3-0.4,0.3-0.7,0.3C76,140.3,76.2,139.9,76.7,140.3z"/>
			<path class="st12" d="M79.1,139.6c0,0.4-0.3,0.7-0.7,0.7C78.4,139.9,78.6,139.7,79.1,139.6z"/>
			<path class="st12" d="M74.3,140.7c-0.1,0.3-0.4,0.3-0.7,0.3C73.7,140.6,73.7,140.2,74.3,140.7z"/>
			<path class="st13" d="M113.1,153.2c2.3,0,5.5-0.4,8.4,1.1c6.8,3.7,10.8,9.2,11.2,17.1c0.6,8.6-3.3,15.3-9.4,20.7
				c-5.5,4.8-12.3,7.1-19.7,7.9c-3.1,0.4-6.4,1.1-9.5,1c-3.1-0.1-6.2-0.4-9.2-0.7c-0.9-0.1-1.8-0.1-2.3-1.1
				c-0.1-0.4-0.7-0.6-1.1-0.4c-1.7,0.3-3-0.6-4.4-1.1c-5.5-2.7-10.9-5.5-15.6-9.4c-3.8-3.3-7.4-6.8-8.5-12c-0.9-4,0.3-7.5,2.8-10.5
				c2.4-2.8,5.4-4.4,8.9-5.2c9.6-2.3,19.4-4.1,29.2-5.5C100,154.1,106.1,153.2,113.1,153.2z M128.7,173c0.1-1-0.3-2-0.3-2.8
				c-0.7-5.5-5.4-10.8-10.6-12.2c-5.7-1.6-11.5-1.3-17.3-0.7c-6.9,0.7-13.7,1.8-20.4,3.5c-5.1,1.3-10.2,2.6-14.3,6.2
				c-2.7,2.4-4,6.4-3,9.9c1.8,6.2,6.1,10.2,11.6,13c8.1,4.3,16.7,6.1,25.9,5.5c7.7-0.6,14.7-2.3,20.8-7.4
				C125.8,184.1,128.2,179.1,128.7,173z"/>
			<path class="st13" d="M103.5,79.6c0.6,4.8-2,8.6-4.7,12.3c-1.6,2.3-3.3,4.7-5.2,6.7c-0.7,0.9-1.6,1-2.6,0.7
				c-4.3-1.6-8.5-3.1-12.8-4.7c-2.6-0.9-3.4-3.4-4.8-5.2c-1.3-1.6-2.3-3.3-3.4-4.8c-2-2.6-2-5.7-2.7-8.5c-0.4-1.6-0.7-3.3-1-5
				c-0.6-2.6,0.4-4.5,2.3-6c1.8-1.4,3-3.3,4-5.2c0.7-1.4,1.7-2.3,3.3-2.8c6.8-2.1,12.9-1,18.6,3.3c5.5,4,7.9,9.5,9.1,15.9
				C103.6,77.5,103.5,78.5,103.5,79.6z M101.5,78.5c-0.1-3-1.4-5.8-2.3-8.6c-1.6-5.1-5.2-7.9-10.2-9.4c-1.1-0.3-2.1-0.7-3.3-0.9
				c-1.4-0.3-2.8-1.3-4.4-0.7c-3.5,1.3-7.2,2.4-9.4,6.1c-1.7,2.7-3.3,5.2-1.8,8.6c0.4,1.1,0.6,2.4,0.7,3.7c0.7,3.1,1.1,6.2,3.5,8.6
				c1.3,1.3,1.7,3.4,3.7,4c4.1,1.4,8.2,2.7,12.3,4.1c1.3,0.4,2.3,0.1,3.1-1c1.7-2.3,3.5-4.3,4.8-6.7
				C99.8,83.9,101.5,81.6,101.5,78.5z"/>
			<path class="st12" d="M68.5,141.7c-0.1,0.3-0.4,0.3-0.7,0.3C67.9,141.6,67.9,141.2,68.5,141.7z"/>
			<path class="st14" d="M81.8,140c0.6,0.6,0.9,0.4,1-0.3c0.6,0,1.1,0,1.7,0c0.6,0.6,0.9,0.4,1-0.3c0.6,0,1.1,0,1.7,0
				c0.6,0.6,1.3,0.1,2,0.3c1,0.1,2.3,0.3,2.4,1.4s-0.7,2.1-1.7,2.6c-3.3,1.4-6.5,2.8-10.2,2.6c-2.7-0.1-5.5-0.3-8.2,0.1
				c-1.1,0.1-2.3-0.7-2.4-1.8c-0.3-1.1,1-1.1,1.7-1.4c2.8-1.1,5.8-1.7,8.8-2.3c0.4-0.1,0.9-0.1,1-0.7C80.8,140,81.4,140,81.8,140z"
				/>
			<path class="st15" d="M128.7,173c-0.6,6.1-3,11.1-7.7,15c-6,5.1-13.2,6.9-20.8,7.4c-9.2,0.6-17.9-1.3-25.9-5.5
				c-5.4-2.8-9.8-6.8-11.6-13c-1-3.5,0.3-7.5,3-9.9c4.1-3.7,9.2-5,14.3-6.2c6.7-1.7,13.5-2.8,20.4-3.5c5.8-0.6,11.5-0.9,17.3,0.7
				c5.4,1.4,9.9,6.7,10.6,12.2C128.4,171.1,128.9,172.1,128.7,173z M125.8,172.9c0.3-5.5-4.1-10.8-8.4-12.2c-3.4-1-6.9-1.1-10.5-1.3
				c-4.7-0.1-9.4,0.3-14,1c-6.5,0.9-12.9,2.4-18.8,5.5c-2.1,1.1-4.1,2.6-5.5,4.7c-2.3,3.7-1.4,7.2,0.9,10.5
				c3.1,4.5,7.8,6.9,12.6,8.6c6.4,2.3,12.9,3.3,19.7,2.8c5.1-0.4,9.9-1.4,14.3-4C122.1,185.1,125.2,179.8,125.8,172.9z"/>
			<path class="st15" d="M101.5,78.5c0,3.1-1.7,5.4-3,7.8c-1.4,2.4-3.3,4.5-4.8,6.7c-0.9,1.1-1.8,1.4-3.1,1
				c-4.1-1.4-8.2-2.8-12.3-4.1c-2-0.7-2.4-2.7-3.7-4c-2.4-2.4-2.8-5.5-3.5-8.6c-0.3-1.3-0.3-2.6-0.7-3.7c-1.4-3.4,0.1-5.8,1.8-8.6
				c2.3-3.7,5.8-4.8,9.4-6.1c1.6-0.6,3,0.4,4.4,0.7c1.1,0.3,2.1,0.6,3.3,0.9c5,1.4,8.6,4.3,10.2,9.4
				C100.1,72.7,101.4,75.5,101.5,78.5z M98.5,78.2c-0.1-3.7-0.9-6.5-1.8-9.5c-0.9-2.6-2.4-4-5-4.7c-2.4-0.6-4.7-1.4-6.9-2.3
				c-1-0.4-2-0.3-2.8,0.3c-1,0.7-2.1,1.3-3.4,1.6c-3,0.6-4.3,3-5.7,5.1c-0.3,0.4-0.1,0.9-0.1,1.3c1,4,1.8,7.9,2.8,11.8
				c0.4,1.6,1.3,2.7,2.7,3.1c4.1,1.4,8.2,2.6,12.2,4c1.1,0.4,1.8,0,2.4-0.9c1.6-2.1,3-4.4,4.4-6.7C98.1,80.4,98.7,79.1,98.5,78.2z"
				/>
			<path class="st14" d="M125.8,172.9c-0.4,6.9-3.7,12.2-9.8,15.6c-4.4,2.6-9.4,3.5-14.3,4c-6.8,0.6-13.3-0.4-19.7-2.8
				c-5-1.8-9.6-4.1-12.6-8.6c-2.3-3.3-3.1-6.8-0.9-10.5c1.3-2.1,3.4-3.5,5.5-4.7c6-3.1,12.3-4.5,18.8-5.5c4.7-0.7,9.4-1.1,14-1
				c3.5,0.1,7.1,0.3,10.5,1.3C121.6,162.1,126,167.4,125.8,172.9z M98.5,187.9c2.6,0.3,5.7-0.1,8.5-1c4.8-1.4,9.1-3.5,11.9-8.1
				c2.8-4.7,1.6-11.1-3.3-13.6c-2.4-1.3-5-1.8-7.7-2c-6.9-0.3-13.7,1-20.6,2.6c-4.4,1-7.8,3.1-10.8,6.4c-0.9,1-1.1,2.1-1,3.4
				c0.3,3.3,2.3,5.4,4.7,7.1C85.6,186.5,91.6,188.2,98.5,187.9z"/>
			<path class="st14" d="M98.5,78.2c0.1,0.9-0.4,2-1.1,3.3c-1.4,2.3-2.8,4.4-4.4,6.7c-0.6,0.9-1.3,1.3-2.4,0.9
				c-4.1-1.4-8.2-2.7-12.2-4c-1.6-0.6-2.4-1.6-2.7-3.1c-0.9-4-1.8-7.9-2.8-11.8c-0.1-0.4-0.1-0.9,0.1-1.3c1.4-2.3,2.7-4.7,5.7-5.1
				c1.3-0.3,2.4-0.7,3.4-1.6c0.9-0.7,1.8-0.7,2.8-0.3c2.3,0.9,4.5,1.7,6.9,2.3c2.6,0.7,4.3,2.1,5,4.7C97.6,71.7,98.4,74.7,98.5,78.2
				z"/>
			<path class="st16" d="M98.5,187.9c-6.9,0.3-12.9-1.6-18-5.4c-2.4-1.8-4.3-4-4.7-7.1c-0.1-1.3,0.1-2.4,1-3.4
				c3-3.3,6.4-5.4,10.8-6.4c6.8-1.6,13.6-2.8,20.6-2.6c2.7,0.1,5.2,0.7,7.7,2c4.8,2.6,6.2,8.9,3.3,13.6c-2.8,4.5-7.1,6.7-11.9,8.1
				C104.2,187.8,101.1,188.2,98.5,187.9z"/>
		</g>
	</g>
</g>
<path class="st17" d="M129.3,197.4h-117c-4.7,0-8.5-3.8-8.5-8.5V12c0-4.7,3.8-8.5,8.5-8.5h117c4.7,0,8.5,3.8,8.5,8.5v177
	C137.7,193.6,133.9,197.4,129.3,197.4z"/>
</svg>
