<?xml version="1.0" encoding="utf-8"?>
<!-- Generator: Adobe Illustrator 24.0.3, SVG Export Plug-In . SVG Version: 6.00 Build 0)  -->
<svg version="1.1" id="Capa_1" xmlns="http://www.w3.org/2000/svg" xmlns:xlink="http://www.w3.org/1999/xlink" x="0px" y="0px"
	 viewBox="0 0 69 58" style="enable-background:new 0 0 69 58;" xml:space="preserve">
<style type="text/css">
	.st0{fill:none;}
	.st1{fill:url(#SVGID_1_);}
</style>
<g>
	<path class="st0" d="M30.7,11.1c0-3,2.4-5.4,5.4-5.4c0,0,0,0,0,0c0,0,0,0,0,0c1.8,0,3.4,1.1,4.2,2.7c0.4,0.9-0.3,1.9-1.2,1.9
		c0,0,0,0,0,0c0,0,0,0,0,0c-0.5,0-1-0.3-1.2-0.8c-0.3-0.6-0.9-1.1-1.7-1.1c-1.5,0-2.7,1.2-2.7,2.7c0,2,1.7,3.7,3.7,3.7
		c2.4,0,4.4-1.7,4.9-4c0-0.2,0-0.4,0.1-0.6c0-0.1,0-0.2,0-0.3c0-3.6-2.9-6.5-6.5-6.5c-2.1,0-4.2,0.8-5.7,2.2c-1.4,1.3-2.3,3-2.7,4.9
		c0,0.3-0.1,0.6-0.1,0.9c-0.2,0.9-0.5,1.8-1,2.5c-0.2,0.3-0.4,0.6-0.7,0.9h6.6C31.1,13.8,30.7,12.5,30.7,11.1z"/>
	<path class="st0" d="M13.1,11.1c0-3,2.4-5.4,5.4-5.4c1.8,0,3.4,1.1,4.2,2.7c0.4,0.9-0.3,1.9-1.2,1.9c-0.5,0-1-0.3-1.2-0.8
		c-0.3-0.7-1-1.1-1.7-1.1c-1.5,0-2.7,1.2-2.7,2.7c0,2,1.7,3.7,3.7,3.7c2.3,0,4.3-1.6,4.8-3.8c0-0.4,0.1-0.8,0.1-1.2c0,0,0,0,0,0
		c0-3.6-2.9-6.5-6.5-6.5c-4.7,0-8.5,3.8-8.5,8.5v3h4.9C13.6,13.8,13.1,12.5,13.1,11.1z"/>
	<path class="st0" d="M53.1,3.3c-2.1,0-4.2,0.8-5.8,2.2c-1.3,1.2-2.2,2.8-2.6,4.6c-0.1,1.8-0.8,3.4-1.9,4.7h6.6
		c-0.8-1.1-1.2-2.3-1.2-3.7c0-3,2.4-5.4,5.4-5.4c1.8,0,3.4,1.1,4.2,2.7c0.4,0.9-0.3,1.9-1.2,1.9c-0.5,0-1-0.3-1.2-0.8
		c-0.3-0.7-1-1.1-1.7-1.1c-1.5,0-2.7,1.2-2.7,2.7c0,2,1.7,3.7,3.7,3.7c2.7,0,5-2.2,5-5C59.7,6.3,56.7,3.3,53.1,3.3z"/>
	
		<radialGradient id="SVGID_1_" cx="39.69" cy="-179.0234" r="256.1" gradientTransform="matrix(0.1613 0 0 0.1613 41.8037 43.288)" gradientUnits="userSpaceOnUse">
		<stop  offset="2.977611e-02" style="stop-color:#F23B36"/>
		<stop  offset="0.5737" style="stop-color:#EA153E"/>
		<stop  offset="1" style="stop-color:#D30D3C"/>
	</radialGradient>
	<path class="st1" d="M62.4,20l0-5.1h-1.9c1.2-1.3,1.9-3.1,1.9-5c0-5.1-4.1-9.2-9.2-9.2c-2.8,0-5.5,1-7.6,2.9
		c-0.7,0.6-1.3,1.3-1.8,2.1c-1.5-3-4.6-5-8.2-5c0,0,0,0,0,0c0,0,0,0,0,0c-0.1,0-0.1,0-0.2,0c0,0,0,0-0.1,0c-3.8,0.1-7.1,2.1-9.1,5
		c-1.5-3-4.6-5-8.2-5c-6.2,0-11.2,5-11.2,11.2v3h0l0,4.8c0,1.7,0.9,3.3,2.3,4.1l-0.1,0c-1.4,0.9-2.3,2.4-2.3,4.1l0,18.3
		c0,6.2,5,11.2,11.2,11.2h33.4c6.2,0,11.2-5,11.2-11.2l0-18.3c0-1.6-0.9-3.2-2.3-4l0.2-0.2C61.6,22.9,62.4,21.5,62.4,20z M38.4,31.8
		c-0.3-0.3-0.3-0.7,0-0.9l1.3-1.3c0.3-0.3,0.7-0.3,0.9,0l8.3,8.3c0.3,0.3,0.3,0.7,0,0.9l-1.3,1.3c-0.3,0.3-0.7,0.3-0.9,0L38.4,31.8z
		 M39.7,38.8l-1.3,1.3c-0.3,0.3-0.7,0.3-0.9,0l-8.3-8.3c-0.3-0.3-0.3-0.7,0-0.9l1.3-1.3c0.3-0.3,0.7-0.3,0.9,0l8.3,8.3
		C39.9,38.1,39.9,38.5,39.7,38.8z M26,13.9c0.5-0.8,0.8-1.6,1-2.5c0.1-0.3,0.1-0.6,0.1-0.9c0.3-1.9,1.2-3.6,2.7-4.9
		c1.6-1.4,3.6-2.2,5.7-2.2c3.6,0,6.5,2.9,6.5,6.5c0,0.1,0,0.2,0,0.3c0,0.2-0.1,0.4-0.1,0.6c-0.4,2.3-2.4,4-4.9,4
		c-2,0-3.7-1.7-3.7-3.7c0-1.5,1.2-2.7,2.7-2.7c0.8,0,1.4,0.5,1.7,1.1c0.2,0.5,0.7,0.8,1.2,0.8c0,0,0,0,0,0c0,0,0,0,0,0
		c1,0,1.6-1,1.2-1.9c-0.7-1.6-2.3-2.7-4.2-2.7c0,0,0,0,0,0c0,0,0,0,0,0c-3,0-5.4,2.4-5.4,5.4c0,1.4,0.5,2.7,1.2,3.7h-6.6
		C25.5,14.6,25.8,14.3,26,13.9z M30.5,37.9c0.3,0.3,0.3,0.7,0,0.9l-1.3,1.3c-0.3,0.3-0.7,0.3-0.9,0l-8.3-8.3c-0.3-0.3-0.3-0.7,0-0.9
		l1.3-1.3c0.3-0.3,0.7-0.3,0.9,0L30.5,37.9z M9.4,14.9v-3c0-4.7,3.8-8.5,8.5-8.5c3.6,0,6.5,2.9,6.5,6.5c0,0,0,0,0,0
		c-0.1,0.4-0.1,0.8-0.1,1.2c-0.5,2.2-2.5,3.8-4.8,3.8c-2,0-3.7-1.7-3.7-3.7c0-1.5,1.2-2.7,2.7-2.7c0.8,0,1.4,0.5,1.7,1.1
		c0.2,0.5,0.7,0.8,1.2,0.8c1,0,1.6-1,1.2-1.9c-0.7-1.6-2.3-2.7-4.2-2.7c-3,0-5.4,2.4-5.4,5.4c0,1.4,0.5,2.7,1.2,3.7H9.4z M10.7,30.9
		l1.3-1.3c0.3-0.3,0.7-0.3,0.9,0l8.3,8.3c0.3,0.3,0.3,0.7,0,0.9l-1.3,1.3c-0.3,0.3-0.7,0.3-0.9,0l-8.3-8.3
		C10.4,31.6,10.4,31.1,10.7,30.9z M17.6,51.6c-0.3,0.3-0.7,0.3-0.9,0l-1.3-1.3c-0.3-0.3-0.3-0.7,0-0.9l8.3-8.3
		c0.3-0.3,0.7-0.3,0.9,0l1.3,1.3c0.3,0.3,0.3,0.7,0,0.9L17.6,51.6z M25.9,51.6l-1.3-1.3c-0.3-0.3-0.3-0.7,0-0.9l8.3-8.3
		c0.3-0.3,0.7-0.3,0.9,0l1.3,1.3c0.3,0.3,0.3,0.7,0,0.9l-8.3,8.3C26.5,51.9,26.1,51.9,25.9,51.6z M35.1,51.6l-1.3-1.3
		c-0.3-0.3-0.3-0.7,0-0.9l8.3-8.3c0.3-0.3,0.7-0.3,0.9,0l1.3,1.3c0.3,0.3,0.3,0.7,0,0.9L36,51.6C35.8,51.9,35.4,51.9,35.1,51.6z
		 M53.5,43.4l-8.3,8.3c-0.3,0.3-0.7,0.3-0.9,0L43,50.3c-0.3-0.3-0.3-0.7,0-0.9l8.3-8.3c0.3-0.3,0.7-0.3,0.9,0l1.3,1.3
		C53.8,42.7,53.8,43.1,53.5,43.4z M58.2,38.8l-1.3,1.3c-0.3,0.3-0.7,0.3-0.9,0l-8.3-8.3c-0.3-0.3-0.3-0.7,0-0.9l1.3-1.3
		c0.3-0.3,0.7-0.3,0.9,0l8.3,8.3C58.4,38.1,58.4,38.5,58.2,38.8z M54.7,14.8c-2,0-3.7-1.7-3.7-3.7c0-1.5,1.2-2.7,2.7-2.7
		c0.8,0,1.4,0.5,1.7,1.1c0.2,0.5,0.7,0.8,1.2,0.8c1,0,1.6-1,1.2-1.9c-0.7-1.6-2.3-2.7-4.2-2.7c-3,0-5.4,2.4-5.4,5.4
		c0,1.4,0.5,2.7,1.2,3.7h-6.6c1.1-1.3,1.8-2.9,1.9-4.7c0.3-1.8,1.3-3.4,2.6-4.6c1.6-1.4,3.6-2.2,5.8-2.2c3.6,0,6.5,2.9,6.5,6.5
		C59.7,12.6,57.4,14.8,54.7,14.8z"/>
</g>
</svg>
