<svg xmlns="http://www.w3.org/2000/svg" xmlns:xlink="http://www.w3.org/1999/xlink" viewBox="0 0 216 216"><defs><style>.cls-1{fill:none;}.cls-2{isolation:isolate;}.cls-3{fill:#ccc;}.cls-4{mix-blend-mode:multiply;fill:url(#radial-gradient);}.cls-5{fill:#943d17;}.cls-6{fill:#ffe084;}.cls-7{fill:#b84c1d;}.cls-8{fill:#fff;}.cls-9{clip-path:url(#clip-path);}.cls-10{fill:#b7432f;}.cls-11{fill:#a32c19;}.cls-12{fill:#cc5c2e;}.cls-13{fill:#e27820;}.cls-14{fill:#f1a131;}.cls-15{fill:#ffc44d;}.cls-16{fill:#f19e28;}.cls-17{fill:#ffe494;}.cls-18{fill:#e64917;}.cls-19{fill:#ff791a;}.cls-20{fill:#fff2bf;}.cls-21{fill:#4a7006;}.cls-22{fill:#7eb023;}</style><radialGradient id="radial-gradient" cx="218.73" cy="-6269.95" r="25.9" gradientTransform="matrix(2.1, -0.02, 0, 0.51, -324.1, 3376.23)" gradientUnits="userSpaceOnUse"><stop offset="0" stop-color="#7b6c4e"/><stop offset="0.34" stop-color="#a99f8c"/><stop offset="0.57" stop-color="#cac4b8"/><stop offset="0.68" stop-color="#d9d5cc"/><stop offset="0.91" stop-color="#fff"/></radialGradient><clipPath id="clip-path"><path class="cls-1" d="M16.21,80.73V128.5c0,20.91,43.71,38.58,95.45,38.58s95.46-17.67,95.46-38.58V80.73Z"/></clipPath></defs><title>itacate</title><g class="cls-2"><g id="Capa_1" data-name="Capa 1"><rect class="cls-3" width="216" height="216" rx="20.85"/><path class="cls-4" d="M162.63,182.45c.06,7.28-24.23,13.38-54.26,13.63S54,190.63,53.9,183.35,78.13,170,108.15,169.73,162.57,175.17,162.63,182.45Z"/><path class="cls-5" d="M213.43,129.91c0-13.38-45.56-24.23-101.77-24.23S9.9,116.53,9.9,129.91s45.56,56.28,101.76,56.28S213.43,143.3,213.43,129.91Z"/><ellipse class="cls-6" cx="111.66" cy="129.91" rx="101.77" ry="44.26"/><path class="cls-7" d="M111.66,167.08c-51.74,0-95.45-17.67-95.45-38.58s43.71-38.6,95.45-38.6,95.46,17.67,95.46,38.6S163.41,167.08,111.66,167.08Z"/><path class="cls-5" d="M95.43,109.14c-36.15-4.69-68.5,9.82-70.64,31.7a22.32,22.32,0,0,0-.07,3.27c15.16,13.39,48.86,23,86.94,23a209.28,209.28,0,0,0,45.75-4.89,24,24,0,0,0,.75-4C160.3,136.27,131.57,113.83,95.43,109.14Z"/><path class="cls-5" d="M127.89,109.14c36.15-4.69,68.5,9.82,70.64,31.7a23.81,23.81,0,0,1,.08,3.27c-15.16,13.39-48.87,23-87,23a209.19,209.19,0,0,1-45.74-4.89,23,23,0,0,1-.76-4C63,136.27,91.75,113.83,127.89,109.14Z"/><path class="cls-8" d="M24.93,148.74c-.78,2.94,9.23,9.23,22.36,14s24.4,6.33,25.19,3.39-11.42-2-24.55-6.81S25.71,145.8,24.93,148.74Z"/><g class="cls-9"><path class="cls-10" d="M113.39,89.52a1.31,1.31,0,0,0,.89,1.48c.56.08,1.06-.44,1.13-1.17a1.3,1.3,0,0,0-.89-1.48C114,88.26,113.46,88.79,113.39,89.52Z"/><path class="cls-11" d="M113.25,90.06a1.18,1.18,0,0,0,.81,1.34c.49.08,1-.4,1-1.06a1.18,1.18,0,0,0-.8-1.34C113.77,88.92,113.31,89.4,113.25,90.06Z"/><path class="cls-12" d="M121,94.68a1.16,1.16,0,0,0,.8,1.31c.49.08.94-.39,1-1a1.17,1.17,0,0,0-.8-1.32C121.54,93.56,121.09,94,121,94.68Z"/><path class="cls-11" d="M115,94.39a1.68,1.68,0,0,0,1.15,1.91c.72.11,1.37-.57,1.44-1.51a1.67,1.67,0,0,0-1.14-1.91C115.73,92.77,115.08,93.44,115,94.39Z"/><path class="cls-10" d="M120.82,96.65A1.68,1.68,0,0,0,122,98.56c.72.11,1.37-.57,1.46-1.52a1.68,1.68,0,0,0-1.16-1.91C121.56,95,120.9,95.7,120.82,96.65Z"/><path class="cls-13" d="M117.38,93.14c-.13,1.54.7,2.94,1.88,3.11s2.23-.92,2.36-2.47-.7-2.94-1.88-3.12S117.52,91.59,117.38,93.14Z"/><path class="cls-13" d="M114.08,89.46a1.72,1.72,0,0,0,1.17,1.94c.72.1,1.38-.58,1.46-1.54a1.7,1.7,0,0,0-1.16-1.94C114.82,87.81,114.16,88.5,114.08,89.46Z"/><path class="cls-13" d="M112.7,87.53a1.64,1.64,0,0,0,1.12,1.87c.7.11,1.34-.56,1.42-1.48A1.65,1.65,0,0,0,114.11,86C113.41,85.94,112.78,86.6,112.7,87.53Z"/><path class="cls-12" d="M108.76,83.19a1.52,1.52,0,0,0,1,1.73c.65.1,1.24-.52,1.32-1.38a1.53,1.53,0,0,0-1-1.73C109.42,81.71,108.83,82.33,108.76,83.19Z"/><path class="cls-10" d="M108.36,86a1.56,1.56,0,0,0,1.07,1.79c.67.1,1.28-.53,1.36-1.42a1.58,1.58,0,0,0-1.08-1.78C109,84.5,108.43,85.14,108.36,86Z"/><path class="cls-13" d="M110.63,83.75a1.23,1.23,0,0,0,.84,1.39c.52.09,1-.41,1.06-1.1a1.24,1.24,0,0,0-.84-1.39C111.16,82.57,110.69,83.06,110.63,83.75Z"/><path class="cls-13" d="M114.5,89.19c-.14,1.61.74,3.07,2,3.25s2.32-1,2.46-2.57-.73-3.07-2-3.25S114.64,87.59,114.5,89.19Z"/><path class="cls-10" d="M114.85,92.56a2.31,2.31,0,0,0,1.57,2.62c1,.15,1.88-.78,2-2.08a2.3,2.3,0,0,0-1.58-2.61C115.85,90.34,115,91.27,114.85,92.56Z"/><path class="cls-10" d="M111.07,87.44a1.54,1.54,0,0,0,1.06,1.76c.65.1,1.25-.53,1.32-1.39a1.54,1.54,0,0,0-1-1.76C111.74,86,111.15,86.58,111.07,87.44Z"/><path class="cls-11" d="M114.37,94.93A2.4,2.4,0,0,0,116,97.64c1,.15,1.94-.81,2.06-2.15a2.37,2.37,0,0,0-1.63-2.7C115.41,92.63,114.49,93.59,114.37,94.93Z"/><path class="cls-11" d="M113.4,86.69A2.4,2.4,0,0,0,115,89.4c1,.15,1.93-.81,2-2.15a2.38,2.38,0,0,0-1.63-2.71C114.44,84.39,113.53,85.35,113.4,86.69Z"/><path class="cls-11" d="M116.45,93c-.13,1.48.68,2.81,1.79,3s2.14-.88,2.26-2.36-.67-2.81-1.79-3S116.58,91.57,116.45,93Z"/><path class="cls-13" d="M117.37,89.42a1.55,1.55,0,0,0,1.07,1.77c.66.1,1.26-.53,1.33-1.4A1.55,1.55,0,0,0,118.71,88C118.05,87.92,117.45,88.55,117.37,89.42Z"/><path class="cls-11" d="M110,86.38a2.64,2.64,0,0,0,1.8,3c1.12.17,2.14-.9,2.26-2.38s-.67-2.82-1.79-3S110.09,84.9,110,86.38Z"/><path class="cls-12" d="M110.86,86.39a1,1,0,0,0,.67,1.12c.43.06.8-.34.86-.89a1,1,0,0,0-.68-1.12C111.29,85.44,110.91,85.83,110.86,86.39Z"/><path class="cls-12" d="M112.77,84.69a1,1,0,0,0,.67,1.12c.43.06.81-.33.86-.89a1,1,0,0,0-.68-1.12C113.2,83.74,112.82,84.13,112.77,84.69Z"/><path class="cls-11" d="M111,84.55a1,1,0,0,0,.68,1.12c.42.06.8-.34.85-.89a1,1,0,0,0-.68-1.12C111.45,83.59,111.07,84,111,84.55Z"/><path class="cls-14" d="M122.45,98.2h0a1,1,0,0,1-.78-.85l0-.14a1.41,1.41,0,0,1,0-.18c-1.71-1.14-2.64-3.57-3.9-5.47-1.44-2.19-2.4-6-4.88-5.08a1.52,1.52,0,0,1-1.72-.89c-.67.26-1.47-.26-1.61-1.31a34.47,34.47,0,0,1-.08-3.52c-4.3.27-9,4.39-13,6.31C90.32,90,84,92.17,77.85,94.81c-12.16,5.22-24.69,9.38-36.44,16.13l-.25.15a11.38,11.38,0,0,0-3.42,1,7.31,7.31,0,0,0-3.56,2.3,7.46,7.46,0,0,0-2.62,4.75A17.64,17.64,0,0,0,30.8,126a14.25,14.25,0,0,0,2.14,7.36c5.13,8.69,13.67,16.85,22.21,16.53,5.29-.2,10.81-5.08,15.42-8,6.05-3.84,12.22-7.38,18.39-10.9,5.86-3.36,11.68-7,17.68-9.85,3.94-1.9,9-1.18,12.53-4.29C123.58,113,124,105.44,122.45,98.2Z"/><path class="cls-15" d="M120,93.71a20.18,20.18,0,0,0-3.72-4.1c-2-1.71-4.38-1.94-6.4-3.56a1.41,1.41,0,0,1-.27-1.59,6,6,0,0,0,.37-3.59.82.82,0,0,0-.44-.14c-4.34.19-9.07,4.4-13.11,6.34C90.32,90,84,92.17,77.85,94.81c-12.16,5.22-24.69,9.38-36.44,16.13l-.25.15a11.38,11.38,0,0,0-3.42,1,7.31,7.31,0,0,0-3.56,2.3,7.46,7.46,0,0,0-2.62,4.75A17.64,17.64,0,0,0,30.8,126a14.25,14.25,0,0,0,2.14,7.36c5.13,8.69,13.67,16.85,22.21,16.53a13.44,13.44,0,0,0,5.07-1.39c3.58-5.57-3.67-22,4-25.41,6.5-2.91,43.49-29.2,57.13-22.8C120.85,98.88,120.62,95,120,93.71Z"/><path class="cls-16" d="M52.93,131.51c-1.08-2.53-2.87-6.82-2.25-10a14.61,14.61,0,0,1-2.79-.46c-5.22-1.31-9.87-1.79-15-.1a10.92,10.92,0,0,0-.5,3.56,16.33,16.33,0,0,0,2.33,7.41c.35.65.78,1.39,1.25,2.12a32.32,32.32,0,0,0,2.3,3.93c4.48,6.35,15.17,11.22,19.77,7.34C56.15,140.8,54.71,135.65,52.93,131.51Z"/><path class="cls-13" d="M57,146.21a1.63,1.63,0,0,0-1.13-1.86c-.7-.1-1.34.57-1.42,1.49a1.65,1.65,0,0,0,1.14,1.87C56.24,147.81,56.87,147.14,57,146.21Z"/><path class="cls-13" d="M55.77,146.89a1.44,1.44,0,0,0-1-1.63c-.61-.09-1.17.5-1.24,1.31a1.43,1.43,0,0,0,1,1.63C55.15,148.29,55.7,147.71,55.77,146.89Z"/><path class="cls-12" d="M55.51,139a1,1,0,0,0-.68-1.1c-.41-.06-.79.33-.84.88a1,1,0,0,0,.68,1.11C55.08,140,55.46,139.59,55.51,139Z"/><path class="cls-11" d="M52.9,146.09a.8.8,0,0,0-.56-.92c-.35,0-.66.28-.7.74a.83.83,0,0,0,.56.92C52.55,146.88,52.86,146.55,52.9,146.09Z"/><path class="cls-12" d="M54.7,143a1.36,1.36,0,0,0-1-1.56c-.59-.09-1.12.47-1.19,1.25a1.37,1.37,0,0,0,.95,1.56C54.1,144.37,54.64,143.81,54.7,143Z"/><path class="cls-10" d="M54.49,139.68a.85.85,0,0,0-.59-1c-.36-.05-.68.29-.72.77a.84.84,0,0,0,.58,1C54.13,140.51,54.45,140.16,54.49,139.68Z"/><path class="cls-12" d="M50.63,143.31a1.7,1.7,0,0,0-1.17-1.93c-.72-.1-1.38.59-1.46,1.55a1.69,1.69,0,0,0,1.17,1.92C49.9,145,50.55,144.27,50.63,143.31Z"/><path class="cls-13" d="M55,145.39a1,1,0,0,0-.68-1.12c-.42-.06-.79.34-.84.9a1,1,0,0,0,.67,1.11C54.56,146.34,54.93,145.94,55,145.39Z"/><path class="cls-10" d="M52.75,140.94a1.28,1.28,0,0,0-.89-1.46c-.55-.08-1,.44-1.11,1.17a1.29,1.29,0,0,0,.89,1.46C52.19,142.19,52.69,141.67,52.75,140.94Z"/><path class="cls-13" d="M52.44,141.85a2,2,0,0,0-1.39-2.29c-.86-.12-1.64.7-1.74,1.84a2,2,0,0,0,1.39,2.29C51.57,143.82,52.35,143,52.44,141.85Z"/><path class="cls-10" d="M52.67,137.77c.13-1.49-.69-2.82-1.81-3s-2.14.9-2.26,2.38.69,2.82,1.81,3S52.55,139.25,52.67,137.77Z"/><path class="cls-12" d="M49,133.24a1.19,1.19,0,0,0-.82-1.34c-.5-.07-1,.4-1,1.07a1.18,1.18,0,0,0,.81,1.34C48.5,134.38,49,133.9,49,133.24Z"/><path class="cls-13" d="M50.8,138.83a1,1,0,0,0-.7-1.14c-.42-.06-.82.35-.86.91a1,1,0,0,0,.69,1.14C50.36,139.81,50.75,139.39,50.8,138.83Z"/><path class="cls-12" d="M51.43,139.28a2.31,2.31,0,0,0-1.6-2.63c-1-.15-1.89.8-2,2.11a2.31,2.31,0,0,0,1.6,2.63C50.42,141.53,51.32,140.59,51.43,139.28Z"/><path class="cls-11" d="M50.69,137.24a1.15,1.15,0,0,0-.79-1.3c-.49-.07-.94.4-1,1a1.15,1.15,0,0,0,.79,1.3C50.19,138.36,50.63,137.88,50.69,137.24Z"/><path class="cls-12" d="M51.71,131.68a2.27,2.27,0,0,0-1.57-2.58c-1-.15-1.86.78-2,2.07a2.27,2.27,0,0,0,1.57,2.58C50.72,133.89,51.6,133,51.71,131.68Z"/><path class="cls-13" d="M48.36,131.15a1.82,1.82,0,0,0-1.26-2.06c-.77-.11-1.47.62-1.55,1.65a1.8,1.8,0,0,0,1.25,2C47.57,132.91,48.27,132.17,48.36,131.15Z"/><path class="cls-10" d="M45.28,138.35a1.3,1.3,0,0,0-.9-1.47c-.56-.08-1.06.45-1.12,1.18a1.29,1.29,0,0,0,.9,1.47C44.71,139.62,45.21,139.09,45.28,138.35Z"/><path class="cls-11" d="M45.41,137.82a1.18,1.18,0,0,0-.81-1.34c-.5-.07-1,.41-1,1.07a1.18,1.18,0,0,0,.81,1.33C44.9,139,45.36,138.48,45.41,137.82Z"/><path class="cls-12" d="M47.79,136.05c.14-1.65-.77-3.14-2-3.33s-2.4,1-2.53,2.68.76,3.15,2,3.33S47.65,137.72,47.79,136.05Z"/><path class="cls-11" d="M51.27,126.3c.13-1.47-.68-2.79-1.79-3s-2.12.9-2.24,2.36.68,2.8,1.79,3S51.15,127.77,51.27,126.3Z"/><path class="cls-11" d="M45.63,130.93c.14-1.66-.78-3.16-2-3.34s-2.39,1-2.53,2.68.77,3.16,2,3.34S45.49,132.59,45.63,130.93Z"/><path class="cls-13" d="M44.79,130.77c.12-1.46-.68-2.77-1.78-2.92s-2.1.89-2.22,2.34a2.57,2.57,0,0,0,1.78,2.93C43.67,133.28,44.66,132.23,44.79,130.77Z"/><path class="cls-12" d="M49.28,130.41A1.89,1.89,0,0,0,48,128.25c-.82-.12-1.55.66-1.64,1.73a1.9,1.9,0,0,0,1.32,2.16C48.46,132.26,49.2,131.49,49.28,130.41Z"/><path class="cls-12" d="M47.88,126.21a2.06,2.06,0,0,0-1.43-2.34c-.88-.13-1.68.71-1.78,1.88a2.08,2.08,0,0,0,1.43,2.35C47,128.22,47.78,127.38,47.88,126.21Z"/><path class="cls-13" d="M49.43,121.92a1.24,1.24,0,0,0-.87-1.42c-.54-.08-1,.43-1.08,1.14a1.26,1.26,0,0,0,.86,1.43C48.88,123.14,49.37,122.63,49.43,121.92Z"/><path class="cls-13" d="M43.24,127.22a1.32,1.32,0,0,0-.92-1.5c-.56-.09-1.08.45-1.14,1.2a1.33,1.33,0,0,0,.92,1.51C42.67,128.51,43.18,128,43.24,127.22Z"/><path class="cls-12" d="M37.61,133.25a1.15,1.15,0,0,0-.8-1.31c-.49-.07-.94.4-1,1.05a1.18,1.18,0,0,0,.8,1.32C37.11,134.38,37.56,133.91,37.61,133.25Z"/><path class="cls-11" d="M43.65,133.5a1.67,1.67,0,0,0-1.16-1.9c-.72-.11-1.36.58-1.44,1.52a1.67,1.67,0,0,0,1.16,1.9C42.92,135.13,43.57,134.45,43.65,133.5Z"/><path class="cls-12" d="M47.27,126c.11-1.42-.66-2.69-1.73-2.84s-2,.86-2.15,2.27a2.5,2.5,0,0,0,1.73,2.84C46.19,128.43,47.15,127.41,47.27,126Z"/><path class="cls-12" d="M49.63,126.87a2,2,0,0,0-1.38-2.25c-.85-.13-1.62.68-1.71,1.81a2,2,0,0,0,1.37,2.26C48.77,128.81,49.54,128,49.63,126.87Z"/><path class="cls-12" d="M48.07,124.29a1.38,1.38,0,0,0-1-1.58c-.6-.09-1.14.48-1.2,1.27a1.4,1.4,0,0,0,1,1.59C47.46,125.65,48,125.09,48.07,124.29Z"/><path class="cls-10" d="M43.92,127.11c.14-1.66-.77-3.15-2-3.34s-2.39,1-2.53,2.68.77,3.16,2,3.34S43.78,128.78,43.92,127.11Z"/><path class="cls-13" d="M41.26,127.21a2.43,2.43,0,0,0-1.68-2.75c-1-.15-2,.84-2.08,2.21a2.41,2.41,0,0,0,1.67,2.75C40.2,129.57,41.14,128.58,41.26,127.21Z"/><path class="cls-10" d="M37.82,131.28a1.69,1.69,0,0,0-1.17-1.91c-.72-.1-1.36.58-1.44,1.53a1.68,1.68,0,0,0,1.16,1.91C37.09,132.91,37.74,132.23,37.82,131.28Z"/><path class="cls-13" d="M41.27,134.77c.13-1.55-.72-2.93-1.89-3.11s-2.22,1-2.36,2.49.72,2.94,1.9,3.11S41.14,136.31,41.27,134.77Z"/><path class="cls-13" d="M41.66,126.47a1.54,1.54,0,0,0-1.06-1.73c-.65-.09-1.23.53-1.3,1.39a1.51,1.51,0,0,0,1,1.72C41,127.94,41.58,127.32,41.66,126.47Z"/><path class="cls-12" d="M44.61,123.46a.9.9,0,0,0-.63-1c-.39-.06-.73.31-.78.81a.91.91,0,0,0,.63,1C44.22,124.34,44.56,124,44.61,123.46Z"/><path class="cls-13" d="M41.36,125.7a1.42,1.42,0,0,0-1-1.62c-.61-.09-1.16.49-1.23,1.3a1.42,1.42,0,0,0,1,1.61C40.74,127.08,41.29,126.5,41.36,125.7Z"/><path class="cls-11" d="M39.83,126.21a.82.82,0,0,0-.57-.94c-.35,0-.68.29-.71.75a.83.83,0,0,0,.57.94C39.48,127,39.79,126.67,39.83,126.21Z"/><path class="cls-13" d="M37.32,133a1.61,1.61,0,0,0-1.11-1.83c-.69-.1-1.32.55-1.4,1.47a1.62,1.62,0,0,0,1.12,1.83C36.62,134.58,37.25,133.92,37.32,133Z"/><path class="cls-11" d="M38.12,129.18a2.27,2.27,0,0,0-1.56-2.57c-1-.13-1.84.79-2,2.06a2.27,2.27,0,0,0,1.57,2.57C37.14,131.38,38,130.46,38.12,129.18Z"/><path class="cls-11" d="M41.83,128.35a1.67,1.67,0,0,0-1.16-1.9c-.71-.1-1.36.58-1.44,1.52a1.68,1.68,0,0,0,1.16,1.91C41.11,130,41.75,129.3,41.83,128.35Z"/><path class="cls-12" d="M42.59,126.05a1.15,1.15,0,0,0-.79-1.31c-.49-.07-.94.4-1,1.05a1.16,1.16,0,0,0,.79,1.31C42.1,127.17,42.54,126.7,42.59,126.05Z"/><path class="cls-11" d="M42.34,122.12a1.62,1.62,0,0,0-1.12-1.85c-.7-.1-1.33.56-1.4,1.48a1.62,1.62,0,0,0,1.12,1.85C41.64,123.7,42.27,123,42.34,122.12Z"/><path class="cls-10" d="M40,123a2,2,0,0,0-1.4-2.32c-.87-.12-1.66.71-1.76,1.86a2.05,2.05,0,0,0,1.41,2.31C39.07,125,39.86,124.17,40,123Z"/><path class="cls-12" d="M41,127a2,2,0,0,0-1.38-2.27c-.85-.12-1.63.69-1.72,1.82a2,2,0,0,0,1.38,2.27C40.15,128.91,40.92,128.1,41,127Z"/><path class="cls-13" d="M44.62,122.94c.12-1.46-.68-2.77-1.78-2.92s-2.1.88-2.22,2.34a2.57,2.57,0,0,0,1.78,2.93C43.5,125.45,44.49,124.4,44.62,122.94Z"/><path class="cls-13" d="M39.49,121.57a1,1,0,0,0-.71-1.16c-.43-.06-.83.35-.87.93a1,1,0,0,0,.7,1.16C39.05,122.56,39.44,122.14,39.49,121.57Z"/><path class="cls-10" d="M37.17,122.8a1.29,1.29,0,0,0-.89-1.47c-.56-.08-1.06.45-1.12,1.18a1.29,1.29,0,0,0,.9,1.47C36.61,124.06,37.11,123.53,37.17,122.8Z"/><path class="cls-10" d="M37.19,127.13a2.07,2.07,0,0,0-1.44-2.35c-.89-.13-1.68.71-1.78,1.88A2.07,2.07,0,0,0,35.4,129C36.29,129.14,37.09,128.3,37.19,127.13Z"/><path class="cls-11" d="M38.5,126.25a2.39,2.39,0,0,0-1.67-2.74c-1-.16-2,.83-2.08,2.19a2.41,2.41,0,0,0,1.67,2.75C37.46,128.6,38.39,127.61,38.5,126.25Z"/><path class="cls-11" d="M35.07,125.35a1.87,1.87,0,0,0-1.29-2.12c-.79-.11-1.52.65-1.61,1.7A1.87,1.87,0,0,0,33.46,127C34.26,127.16,35,126.4,35.07,125.35Z"/><path class="cls-12" d="M34.32,127.5a.89.89,0,0,0-.61-1c-.38,0-.72.31-.77.8a.9.9,0,0,0,.62,1C33.93,128.36,34.27,128,34.32,127.5Z"/><path class="cls-13" d="M50.51,134.32a2,2,0,0,0-1.4-2.28c-.86-.13-1.64.69-1.73,1.83a2,2,0,0,0,1.39,2.29C49.63,136.29,50.41,135.47,50.51,134.32Z"/><path class="cls-12" d="M47.76,124.6a2.14,2.14,0,0,0-1.48-2.43c-.92-.14-1.74.74-1.85,2a2.14,2.14,0,0,0,1.48,2.43C46.83,126.69,47.66,125.81,47.76,124.6Z"/><path class="cls-13" d="M47,123.48a1.17,1.17,0,0,0-.8-1.33c-.5-.07-1,.41-1,1.07a1.18,1.18,0,0,0,.81,1.33C46.45,124.62,46.9,124.14,47,123.48Z"/><path class="cls-11" d="M50.75,129.64a1.58,1.58,0,0,0-1.1-1.81c-.69-.09-1.3.56-1.37,1.45a1.59,1.59,0,0,0,1.1,1.82C50.06,131.2,50.68,130.55,50.75,129.64Z"/><path class="cls-12" d="M52.16,135.57a2,2,0,0,0-1.36-2.25c-.85-.12-1.62.68-1.71,1.8a2,2,0,0,0,1.37,2.25C51.31,137.49,52.07,136.69,52.16,135.57Z"/><path class="cls-11" d="M55,142.27a1,1,0,0,0-.69-1.14c-.43-.07-.83.34-.87.91a1,1,0,0,0,.7,1.15C54.54,143.25,54.93,142.84,55,142.27Z"/><path class="cls-11" d="M53.88,136.87a.84.84,0,0,0-.59-1c-.36,0-.69.29-.73.77a.86.86,0,0,0,.59,1C53.51,137.69,53.84,137.35,53.88,136.87Z"/><path class="cls-13" d="M53.81,135.93a2.38,2.38,0,0,0-1.65-2.72c-1-.15-1.95.83-2.06,2.18a2.38,2.38,0,0,0,1.65,2.71C52.78,138.25,53.7,137.28,53.81,135.93Z"/><path class="cls-11" d="M48.15,129.54a1.78,1.78,0,0,0-1.23-2c-.76-.11-1.45.62-1.54,1.63a1.78,1.78,0,0,0,1.23,2C47.38,131.27,48.07,130.55,48.15,129.54Z"/><path class="cls-12" d="M43.92,129A1.8,1.8,0,0,0,42.68,127c-.78-.12-1.48.62-1.57,1.64a1.81,1.81,0,0,0,1.26,2C43.14,130.78,43.84,130,43.92,129Z"/><path class="cls-13" d="M47.38,128.73a2.29,2.29,0,0,0-1.57-2.58c-1-.13-1.85.79-2,2.07a2.28,2.28,0,0,0,1.57,2.58C46.4,130.94,47.27,130,47.38,128.73Z"/><path class="cls-13" d="M48.08,130.39c.14-1.67-.78-3.17-2-3.36s-2.41,1-2.55,2.69.78,3.18,2,3.36S47.94,132.06,48.08,130.39Z"/><path class="cls-11" d="M47.77,134.21a1.71,1.71,0,0,0-1.17-1.94c-.73-.1-1.38.59-1.46,1.55a1.7,1.7,0,0,0,1.16,1.93C47,135.85,47.69,135.16,47.77,134.21Z"/><path class="cls-13" d="M44.59,138.43a1.72,1.72,0,0,0-1.18-1.94c-.73-.1-1.38.6-1.46,1.55A1.7,1.7,0,0,0,43.12,140C43.85,140.07,44.51,139.38,44.59,138.43Z"/><path class="cls-13" d="M48.49,137.62a1.65,1.65,0,0,0-1.14-1.87c-.7-.1-1.33.57-1.41,1.5a1.63,1.63,0,0,0,1.13,1.86C47.78,139.22,48.41,138.55,48.49,137.62Z"/><path class="cls-13" d="M46,140.34a1.65,1.65,0,0,0-1.14-1.86c-.7-.11-1.34.56-1.41,1.49a1.65,1.65,0,0,0,1.13,1.87C45.26,141.94,45.9,141.27,46,140.34Z"/><path class="cls-11" d="M52.09,138.1a2.56,2.56,0,0,0-1.77-2.91c-1.1-.16-2.09.88-2.21,2.34a2.58,2.58,0,0,0,1.77,2.91C51,140.6,52,139.55,52.09,138.1Z"/><path class="cls-12" d="M53,140.17a1.75,1.75,0,0,0-1.2-2c-.76-.1-1.43.61-1.51,1.6a1.74,1.74,0,0,0,1.21,2C52.21,141.87,52.88,141.16,53,140.17Z"/><path class="cls-13" d="M53.92,145.15a1.29,1.29,0,0,0-.89-1.46c-.55-.08-1.05.44-1.11,1.17a1.29,1.29,0,0,0,.89,1.46C53.36,146.4,53.86,145.88,53.92,145.15Z"/><path class="cls-13" d="M54.44,146.61a.91.91,0,0,0-.63-1c-.4-.06-.75.31-.8.83a.93.93,0,0,0,.64,1C54,147.5,54.39,147.12,54.44,146.61Z"/><path class="cls-13" d="M56.31,141.59a2.16,2.16,0,0,0-1.49-2.44c-.92-.14-1.75.74-1.85,1.95a2.13,2.13,0,0,0,1.48,2.44C55.37,143.68,56.2,142.8,56.31,141.59Z"/><path class="cls-12" d="M53.38,139.18a1.52,1.52,0,0,0-1-1.73c-.66-.09-1.24.53-1.31,1.39a1.5,1.5,0,0,0,1,1.72C52.73,140.66,53.31,140,53.38,139.18Z"/><path class="cls-12" d="M49.93,144.66a1.52,1.52,0,0,0-1-1.73c-.65-.09-1.24.53-1.31,1.39a1.52,1.52,0,0,0,1,1.72C49.28,146.14,49.86,145.52,49.93,144.66Z"/><path class="cls-12" d="M52.42,145.56a1.52,1.52,0,0,0-1.05-1.73c-.65-.1-1.24.52-1.31,1.39a1.52,1.52,0,0,0,1,1.72C51.76,147,52.35,146.42,52.42,145.56Z"/><path class="cls-12" d="M50.72,134.54a1.06,1.06,0,0,0-.74-1.21c-.46-.07-.87.37-.92,1a1.08,1.08,0,0,0,.73,1.22C50.25,135.59,50.67,135.15,50.72,134.54Z"/><path class="cls-11" d="M45.75,129.14c.12-1.46-.68-2.78-1.79-2.94s-2.11.9-2.23,2.36.68,2.78,1.79,2.94S45.63,130.6,45.75,129.14Z"/><path class="cls-11" d="M46.49,124.9a2,2,0,0,0-1.38-2.27c-.86-.13-1.63.69-1.73,1.82a2,2,0,0,0,1.39,2.27C45.62,126.85,46.4,126,46.49,124.9Z"/><path class="cls-10" d="M41,123.44a2.4,2.4,0,0,0-1.66-2.74c-1-.15-2,.83-2.08,2.2a2.42,2.42,0,0,0,1.66,2.73C39.92,125.78,40.85,124.8,41,123.44Z"/><path class="cls-10" d="M41.79,128.48a1.82,1.82,0,0,0-1.26-2.06c-.77-.12-1.47.63-1.56,1.65a1.81,1.81,0,0,0,1.26,2.05C41,130.24,41.7,129.5,41.79,128.48Z"/><path class="cls-12" d="M46.71,135.59A2.27,2.27,0,0,0,45.14,133c-1-.14-1.85.78-2,2.07a2.27,2.27,0,0,0,1.57,2.58C45.73,137.8,46.6,136.87,46.71,135.59Z"/><path class="cls-10" d="M50.33,141.82A1.57,1.57,0,0,0,49.25,140c-.68-.1-1.28.54-1.36,1.42A1.58,1.58,0,0,0,49,143.24C49.65,143.34,50.25,142.7,50.33,141.82Z"/><path class="cls-13" d="M46.17,135.11a1.21,1.21,0,0,0-.84-1.38c-.53-.08-1,.42-1.06,1.11a1.21,1.21,0,0,0,.85,1.38C45.64,136.3,46.11,135.8,46.17,135.11Z"/><path class="cls-13" d="M35.46,124.42a1.21,1.21,0,0,0-.84-1.39c-.52-.08-1,.42-1,1.11a1.23,1.23,0,0,0,.84,1.39C34.94,125.6,35.4,125.11,35.46,124.42Z"/><path class="cls-13" d="M48.06,144.1a1.22,1.22,0,0,0-.85-1.38c-.52-.08-1,.42-1,1.11a1.22,1.22,0,0,0,.83,1.39C47.53,145.29,48,144.79,48.06,144.1Z"/><path class="cls-13" d="M47.68,128.89c.13-1.62-.75-3.06-2-3.24s-2.33,1-2.46,2.59.75,3.06,2,3.24S47.54,130.49,47.68,128.89Z"/><path class="cls-13" d="M44.17,138.69c.13-1.61-.75-3.06-2-3.23s-2.32,1-2.46,2.59.75,3,2,3.23S44,140.3,44.17,138.69Z"/><path class="cls-10" d="M43.59,130.18a2,2,0,0,0-1.34-2.2c-.83-.12-1.58.68-1.67,1.77a1.94,1.94,0,0,0,1.34,2.2C42.75,132.07,43.5,131.28,43.59,130.18Z"/><path class="cls-12" d="M41.43,127.93A2.05,2.05,0,0,0,40,125.61c-.87-.12-1.65.71-1.76,1.86a2.05,2.05,0,0,0,1.41,2.32C40.54,129.92,41.33,129.09,41.43,127.93Z"/><path class="cls-10" d="M42.41,124.92c.13-1.59-.75-3-2-3.2s-2.29,1-2.43,2.56.75,3,1.95,3.21S42.27,126.51,42.41,124.92Z"/><path class="cls-13" d="M38.6,122.88A2.57,2.57,0,0,0,36.83,120c-1.11-.16-2.1.89-2.23,2.35a2.58,2.58,0,0,0,1.79,2.92C37.48,125.38,38.48,124.33,38.6,122.88Z"/><path class="cls-12" d="M39.3,126.48a1,1,0,0,0-.65-1.08c-.41-.06-.77.33-.82.86a1,1,0,0,0,.66,1.08C38.89,127.4,39.26,127,39.3,126.48Z"/><path class="cls-12" d="M34.13,122.83a1,1,0,0,0-.66-1.08c-.4,0-.77.34-.81.87a.94.94,0,0,0,.65,1.07C33.72,123.75,34.08,123.37,34.13,122.83Z"/><path class="cls-12" d="M35.34,122.36a1,1,0,0,0-.65-1.08c-.41-.06-.77.33-.82.86a1,1,0,0,0,.66,1.08C34.93,123.28,35.3,122.89,35.34,122.36Z"/><path class="cls-10" d="M43.8,135.32a2.29,2.29,0,0,0-1.58-2.6c-1-.14-1.87.79-2,2.09a2.29,2.29,0,0,0,1.59,2.6C42.81,137.56,43.7,136.62,43.8,135.32Z"/><path class="cls-10" d="M47.61,140.41a1.55,1.55,0,0,0-1.06-1.74c-.67-.1-1.26.53-1.33,1.4a1.54,1.54,0,0,0,1.06,1.75C46.94,141.91,47.53,141.28,47.61,140.41Z"/><path class="cls-11" d="M44.27,133a2.38,2.38,0,0,0-1.64-2.69c-1-.15-1.94.82-2.05,2.16a2.37,2.37,0,0,0,1.64,2.69C43.24,135.26,44.16,134.29,44.27,133Z"/><path class="cls-11" d="M45.27,141.19a2.38,2.38,0,0,0-1.64-2.7c-1-.15-1.93.82-2,2.16a2.38,2.38,0,0,0,1.63,2.7C44.24,143.5,45.16,142.53,45.27,141.19Z"/><path class="cls-11" d="M38.85,124.6a.81.81,0,0,0-.56-.91c-.34,0-.65.28-.69.73a.79.79,0,0,0,.56.91C38.5,125.38,38.81,125.05,38.85,124.6Z"/><path class="cls-11" d="M34.82,120.65a.8.8,0,0,0-.55-.91c-.34,0-.65.28-.69.73a.8.8,0,0,0,.55.91C34.48,121.43,34.79,121.1,34.82,120.65Z"/><path class="cls-11" d="M35.92,129.93a1.59,1.59,0,0,0-1.1-1.81c-.68-.1-1.29.55-1.37,1.45a1.59,1.59,0,0,0,1.1,1.81C35.23,131.48,35.85,130.83,35.92,129.93Z"/><path class="cls-12" d="M38.66,133.81A2.42,2.42,0,0,0,37,131.06c-1-.15-2,.84-2.09,2.21A2.41,2.41,0,0,0,36.58,136C37.61,136.16,38.55,135.18,38.66,133.81Z"/><path class="cls-11" d="M42.2,134.86c.12-1.48-.69-2.81-1.8-3s-2.13.9-2.26,2.38.69,2.8,1.81,3S42.08,136.33,42.2,134.86Z"/><path class="cls-13" d="M41.3,138.48a1.56,1.56,0,0,0-1.07-1.76c-.67-.09-1.26.54-1.34,1.41A1.54,1.54,0,0,0,40,139.89C40.62,140,41.22,139.36,41.3,138.48Z"/><path class="cls-11" d="M53.75,138.39a.92.92,0,0,0-.64-1.06c-.41-.06-.77.33-.81.85a.93.93,0,0,0,.65,1.06C53.35,139.3,53.71,138.92,53.75,138.39Z"/><path class="cls-11" d="M53.08,147a1.29,1.29,0,0,0-.9-1.47c-.55-.08-1,.44-1.11,1.18a1.29,1.29,0,0,0,.89,1.46C52.52,148.2,53,147.68,53.08,147Z"/><path class="cls-11" d="M53.54,145.47a1.46,1.46,0,0,0-1-1.67c-.63-.09-1.19.51-1.26,1.34a1.46,1.46,0,0,0,1,1.66C52.91,146.89,53.47,146.3,53.54,145.47Z"/><path class="cls-11" d="M48.72,141.47c.12-1.48-.69-2.82-1.81-3s-2.14.91-2.26,2.39a2.63,2.63,0,0,0,1.81,3C47.58,144,48.59,143,48.72,141.47Z"/><path class="cls-13" d="M52.6,142.45c.12-1.48-.69-2.82-1.81-3s-2.14.91-2.26,2.39.69,2.81,1.81,3S52.48,143.93,52.6,142.45Z"/><path class="cls-12" d="M57.91,145.32a2.34,2.34,0,0,0-1.6-2.65c-1-.14-1.91.81-2,2.13a2.33,2.33,0,0,0,1.62,2.64C56.9,147.59,57.8,146.63,57.91,145.32Z"/><path class="cls-10" d="M56.63,144.66a1,1,0,0,0-.72-1.18c-.45-.07-.85.36-.9,1a1,1,0,0,0,.72,1.18C56.18,145.67,56.58,145.25,56.63,144.66Z"/><path class="cls-13" d="M42,130.41a2.55,2.55,0,0,0-1.76-2.9c-1.1-.16-2.08.88-2.2,2.33a2.56,2.56,0,0,0,1.76,2.9C40.85,132.9,41.83,131.86,42,130.41Z"/><path class="cls-12" d="M56.46,146.08A2.13,2.13,0,0,0,55,143.66c-.92-.14-1.74.73-1.84,1.94A2.12,2.12,0,0,0,54.62,148C55.54,148.14,56.36,147.28,56.46,146.08Z"/><path class="cls-11" d="M53.42,139.24a1,1,0,0,0-.67-1.11c-.42-.07-.8.34-.85.89a1,1,0,0,0,.68,1.12C53,140.2,53.38,139.8,53.42,139.24Z"/><path class="cls-12" d="M47.82,141.47a1,1,0,0,0-.68-1.12c-.42-.06-.8.35-.85.9a1,1,0,0,0,.68,1.11C47.39,142.43,47.77,142,47.82,141.47Z"/><path class="cls-12" d="M45.91,143.18a1,1,0,0,0-.67-1.11c-.43-.06-.81.34-.85.89a1,1,0,0,0,.67,1.12C45.49,144.14,45.87,143.74,45.91,143.18Z"/><path class="cls-11" d="M47.66,143.31A1,1,0,0,0,47,142.2c-.42-.06-.79.34-.84.89a1,1,0,0,0,.68,1.12C47.24,144.27,47.62,143.87,47.66,143.31Z"/><path class="cls-17" d="M121.07,99.19c-.23-1.27-.43-3-.71-4.25-3.44-7.27-11.33-8.3-17.46-9a36.88,36.88,0,0,0-4.18-.2c-.78.48-1.56.92-2.3,1.28C90.32,90,84,92.17,77.85,94.81c-6.65,2.86-13.41,5.4-20.09,8.22a22,22,0,0,0-5.37,8.6c-4,12.16,1.26,20.53,4.75,31.68.15.48.78.25.67-.26-2-8.72-6-16.83-3.9-26.49,2.23-10.29,11.75-14.68,18.5-18,15.57-7.54,33.14-12.74,47.77.54A.62.62,0,0,0,121.07,99.19Z"/><path class="cls-17" d="M46.62,116.87c-2.91-1-13.71-4.12-14.38,2.41a.94.94,0,0,0,.64,1c1.86.6,4.2-1.19,6.18-1.23a43.4,43.4,0,0,1,7,.87C47.37,120.16,48,117.35,46.62,116.87Z"/><path class="cls-17" d="M107.76,82.84a8.09,8.09,0,0,1-.15,1.7c-.19,1.28,1.37,1.77,1.68.55a6.6,6.6,0,0,0,.39-2.31C109.68,80.91,107.67,81,107.76,82.84Z"/><path class="cls-10" d="M146.08,98.3a1.29,1.29,0,0,0,1,1.46c.57,0,1.07-.53,1.11-1.29a1.31,1.31,0,0,0-1-1.46C146.61,97,146.11,97.54,146.08,98.3Z"/><path class="cls-11" d="M146,98.87a1.18,1.18,0,0,0,.89,1.32c.52,0,1-.48,1-1.17A1.18,1.18,0,0,0,147,97.7C146.44,97.66,146,98.18,146,98.87Z"/><path class="cls-12" d="M154.17,103.07a1.16,1.16,0,0,0,.87,1.3c.52,0,1-.47,1-1.15a1.16,1.16,0,0,0-.87-1.3C154.65,101.88,154.21,102.39,154.17,103.07Z"/><path class="cls-11" d="M147.94,103.21a1.67,1.67,0,0,0,1.26,1.88c.74.07,1.38-.68,1.43-1.66a1.67,1.67,0,0,0-1.27-1.89C148.62,101.48,148,102.22,147.94,103.21Z"/><path class="cls-10" d="M154,105.12A1.69,1.69,0,0,0,155.3,107c.75.06,1.39-.69,1.44-1.67a1.69,1.69,0,0,0-1.27-1.89C154.72,103.39,154.08,104.13,154,105.12Z"/><path class="cls-13" d="M150.34,101.74c-.07,1.61.85,3,2.06,3.08s2.26-1.11,2.34-2.72-.85-3-2.06-3.08S150.42,100.14,150.34,101.74Z"/><path class="cls-13" d="M146.78,98.18a1.71,1.71,0,0,0,1.28,1.92c.76.06,1.41-.7,1.45-1.69a1.69,1.69,0,0,0-1.27-1.91C147.48,96.44,146.83,97.19,146.78,98.18Z"/><path class="cls-13" d="M145.28,96.3a1.64,1.64,0,0,0,1.24,1.85c.72.06,1.35-.68,1.4-1.63a1.66,1.66,0,0,0-1.24-1.86C146,94.61,145.32,95.34,145.28,96.3Z"/><path class="cls-12" d="M141,92.1a1.51,1.51,0,0,0,1.14,1.71c.68.06,1.26-.62,1.3-1.51a1.52,1.52,0,0,0-1.14-1.71C141.66,90.53,141.08,91.21,141,92.1Z"/><path class="cls-10" d="M140.74,95.06a1.55,1.55,0,0,0,1.18,1.76c.69.06,1.29-.64,1.34-1.55a1.58,1.58,0,0,0-1.18-1.77C141.38,93.44,140.78,94.14,140.74,95.06Z"/><path class="cls-13" d="M143,92.55a1.23,1.23,0,0,0,.92,1.38c.54,0,1-.5,1-1.22a1.21,1.21,0,0,0-.91-1.37C143.49,91.29,143,91.84,143,92.55Z"/><path class="cls-13" d="M147.21,97.88c-.08,1.67.88,3.11,2.15,3.21s2.36-1.16,2.43-2.83-.88-3.11-2.15-3.21S147.29,96.22,147.21,97.88Z"/><path class="cls-10" d="M147.71,101.33a2.3,2.3,0,0,0,1.72,2.59c1,.08,1.9-.94,2-2.28a2.31,2.31,0,0,0-1.73-2.59C148.65,99,147.77,100,147.71,101.33Z"/><path class="cls-10" d="M143.59,96.33a1.54,1.54,0,0,0,1.17,1.73c.68.06,1.26-.63,1.31-1.53a1.54,1.54,0,0,0-1.17-1.73C144.23,94.74,143.64,95.43,143.59,96.33Z"/><path class="cls-11" d="M147.31,103.81a2.39,2.39,0,0,0,1.79,2.68c1.06.08,2-1,2-2.37a2.38,2.38,0,0,0-1.79-2.67C148.29,101.36,147.38,102.42,147.31,103.81Z"/><path class="cls-11" d="M146,95.38a2.37,2.37,0,0,0,1.8,2.67c1,.09,2-1,2-2.36A2.36,2.36,0,0,0,148,93C147,92.93,146,94,146,95.38Z"/><path class="cls-11" d="M149.38,101.72c-.08,1.53.81,2.84,2,2.94s2.16-1.07,2.23-2.6-.81-2.85-2-3S149.45,100.18,149.38,101.72Z"/><path class="cls-13" d="M150.17,97.91a1.55,1.55,0,0,0,1.18,1.75c.68.06,1.28-.63,1.32-1.54a1.54,1.54,0,0,0-1.17-1.74C150.81,96.32,150.22,97,150.17,97.91Z"/><path class="cls-11" d="M142.41,95.31c-.08,1.54.81,2.87,2,3s2.18-1.08,2.24-2.61-.81-2.86-2-3S142.48,93.78,142.41,95.31Z"/><path class="cls-12" d="M143.34,95.25a1,1,0,0,0,.74,1.11c.43,0,.81-.4.84-1a1,1,0,0,0-.74-1.1C143.74,94.24,143.36,94.68,143.34,95.25Z"/><path class="cls-12" d="M145.24,93.36a1,1,0,0,0,.74,1.11c.44,0,.81-.4.84-1a1,1,0,0,0-.74-1.1C145.64,92.35,145.27,92.79,145.24,93.36Z"/><path class="cls-11" d="M143.43,93.35a1,1,0,0,0,.73,1.1c.45,0,.82-.4.85-1a1,1,0,0,0-.74-1.1C143.83,92.33,143.46,92.76,143.43,93.35Z"/><path class="cls-14" d="M155.78,106.6h-.05a1,1,0,0,1-.84-.83l0-.14c0-.06,0-.13,0-.19-1.82-1-2.89-3.48-4.25-5.35-1.58-2.16-2.73-6-5.24-4.89a1.52,1.52,0,0,1-1.81-.8c-.69.32-1.54-.16-1.72-1.23a33.86,33.86,0,0,1-.24-3.63c-4.42.6-9.07,5.18-13.1,7.45-6.17,3.46-12.57,6.15-18.82,9.32-12.33,6.25-25.08,11.45-36.92,19.26l-.25.17A11.92,11.92,0,0,0,69,127a7.85,7.85,0,0,0-3.57,2.63,8,8,0,0,0-2.5,5.09,18.18,18.18,0,0,0-.5,7.19,14.25,14.25,0,0,0,2.51,7.44c5.66,8.6,14.79,16.39,23.59,15.45,5.45-.59,10.93-6,15.56-9.37,6.09-4.39,12.31-8.49,18.52-12.57,5.9-3.88,11.75-8,17.82-11.43,4-2.24,9.2-1.86,12.75-5.32C157.55,121.82,157.71,114,155.78,106.6Z"/><path class="cls-15" d="M153.06,102.15a20.2,20.2,0,0,0-4-4c-2.14-1.62-4.6-1.69-6.75-3.21a1.44,1.44,0,0,1-.35-1.62,6.27,6.27,0,0,0,.24-3.74.8.8,0,0,0-.46-.1c-4.47.5-9.18,5.18-13.26,7.48-6.17,3.46-12.57,6.15-18.82,9.32-12.33,6.25-25.08,11.45-36.92,19.26l-.25.17A11.92,11.92,0,0,0,69,127a7.85,7.85,0,0,0-3.57,2.63,8,8,0,0,0-2.5,5.09,18.18,18.18,0,0,0-.5,7.19,14.25,14.25,0,0,0,2.51,7.44c5.66,8.6,14.79,16.39,23.59,15.45a14.09,14.09,0,0,0,5.17-1.8c3.46-6-4.69-22.42,3.06-26.5,6.59-3.46,43.64-33.24,58-27.62C154.16,107.42,153.76,103.48,153.06,102.15Z"/><path class="cls-16" d="M85.47,146c-1.22-2.54-3.24-6.83-2.73-10.18a14.88,14.88,0,0,1-2.9-.28c-5.45-1-10.26-1.13-15.45,1a10.81,10.81,0,0,0-.37,3.71,16.3,16.3,0,0,0,2.7,7.47c.39.65.86,1.37,1.39,2.09a32.62,32.62,0,0,0,2.52,3.89c4.89,6.23,16.12,10.48,20.7,6.14C89.17,155.31,87.47,150.1,85.47,146Z"/><path class="cls-13" d="M90.22,160.83A1.64,1.64,0,0,0,89,159c-.73-.06-1.36.68-1.4,1.64a1.64,1.64,0,0,0,1.25,1.84C89.56,162.53,90.18,161.79,90.22,160.83Z"/><path class="cls-13" d="M89,161.62A1.44,1.44,0,0,0,87.94,160c-.64-.05-1.19.6-1.23,1.44a1.45,1.45,0,0,0,1.1,1.62C88.45,163.1,89,162.46,89,161.62Z"/><path class="cls-12" d="M88.43,153.53a1,1,0,0,0-.74-1.09c-.43,0-.8.41-.82,1a1,1,0,0,0,.74,1.09C88,154.54,88.41,154.1,88.43,153.53Z"/><path class="cls-11" d="M86.05,161a.82.82,0,0,0-.62-.91c-.36,0-.67.34-.69.81s.25.89.61.91S86,161.47,86.05,161Z"/><path class="cls-12" d="M87.77,157.71a1.38,1.38,0,0,0-1-1.55c-.62,0-1.14.57-1.18,1.38a1.39,1.39,0,0,0,1,1.55C87.21,159.13,87.74,158.51,87.77,157.71Z"/><path class="cls-10" d="M87.42,154.27a.85.85,0,0,0-.65-1c-.37,0-.69.35-.72.85a.85.85,0,0,0,.64,1C87.08,155.15,87.39,154.77,87.42,154.27Z"/><path class="cls-12" d="M83.59,158.29a1.69,1.69,0,0,0-1.29-1.9c-.75-.06-1.4.7-1.44,1.69A1.69,1.69,0,0,0,82.14,160C82.9,160,83.55,159.28,83.59,158.29Z"/><path class="cls-13" d="M88.16,160.12a1,1,0,0,0-.75-1.1c-.43,0-.8.41-.83,1a1,1,0,0,0,.74,1.1C87.76,161.13,88.13,160.69,88.16,160.12Z"/><path class="cls-10" d="M85.67,155.69a1.27,1.27,0,0,0-1-1.44c-.58-.05-1.06.53-1.1,1.29a1.28,1.28,0,0,0,1,1.44C85.15,157,85.64,156.45,85.67,155.69Z"/><path class="cls-13" d="M85.39,156.66a2,2,0,0,0-1.53-2.26c-.89-.07-1.66.83-1.72,2a2,2,0,0,0,1.54,2.26C84.57,158.75,85.34,157.84,85.39,156.66Z"/><path class="cls-10" d="M85.46,152.42c.07-1.53-.82-2.85-2-2.93s-2.17,1.08-2.23,2.62.82,2.86,2,2.94S85.39,154,85.46,152.42Z"/><path class="cls-12" d="M81.5,148a1.18,1.18,0,0,0-.89-1.32c-.52,0-1,.49-1,1.18a1.18,1.18,0,0,0,.89,1.32C81,149.24,81.48,148.71,81.5,148Z"/><path class="cls-13" d="M83.57,153.66a1,1,0,0,0-.76-1.12c-.44,0-.83.41-.86,1a1,1,0,0,0,.77,1.12C83.17,154.69,83.55,154.24,83.57,153.66Z"/><path class="cls-12" d="M84.24,154.08a2.31,2.31,0,0,0-1.76-2.6c-1-.08-1.92,1-2,2.32a2.31,2.31,0,0,0,1.76,2.6C83.3,156.47,84.18,155.43,84.24,154.08Z"/><path class="cls-11" d="M83.39,152a1.14,1.14,0,0,0-.87-1.29c-.5,0-.94.48-1,1.15a1.13,1.13,0,0,0,.87,1.28C82.93,153.21,83.37,152.7,83.39,152Z"/><path class="cls-12" d="M84.21,146.22a2.27,2.27,0,0,0-1.72-2.55c-1-.08-1.88.94-1.94,2.28a2.28,2.28,0,0,0,1.73,2.55C83.29,148.57,84.16,147.55,84.21,146.22Z"/><path class="cls-13" d="M80.74,145.91a1.81,1.81,0,0,0-1.38-2c-.8-.06-1.5.75-1.54,1.81a1.81,1.81,0,0,0,1.37,2C80,147.78,80.69,147,80.74,145.91Z"/><path class="cls-10" d="M77.85,153.57a1.29,1.29,0,0,0-1-1.46c-.58,0-1.07.54-1.1,1.3a1.28,1.28,0,0,0,1,1.45C77.33,154.91,77.82,154.33,77.85,153.57Z"/><path class="cls-11" d="M78,153a1.18,1.18,0,0,0-.9-1.32c-.51,0-1,.49-1,1.18a1.17,1.17,0,0,0,.89,1.31C77.5,154.21,78,153.69,78,153Z"/><path class="cls-12" d="M80.36,151c.08-1.71-.92-3.19-2.23-3.28s-2.42,1.21-2.5,2.93.93,3.2,2.23,3.29S80.28,152.74,80.36,151Z"/><path class="cls-11" d="M83.54,140.7c.07-1.52-.82-2.82-2-2.91s-2.14,1.08-2.21,2.6.82,2.83,2,2.91S83.48,142.23,83.54,140.7Z"/><path class="cls-11" d="M77.91,145.89c.07-1.73-.93-3.21-2.23-3.31s-2.43,1.23-2.51,2.95.93,3.2,2.24,3.3S77.84,147.61,77.91,145.89Z"/><path class="cls-13" d="M77,145.78c.06-1.51-.82-2.8-2-2.89S73,144,72.89,145.47s.81,2.8,2,2.89S77,147.29,77,145.78Z"/><path class="cls-12" d="M81.66,145.09A1.89,1.89,0,0,0,80.22,143c-.85-.06-1.57.79-1.62,1.9A1.9,1.9,0,0,0,80,147C80.89,147.05,81.62,146.2,81.66,145.09Z"/><path class="cls-12" d="M80,140.86a2.07,2.07,0,0,0-1.57-2.32c-.92-.06-1.7.86-1.76,2.07a2.05,2.05,0,0,0,1.57,2.31C79.2,143,80,142.07,80,140.86Z"/><path class="cls-13" d="M81.46,136.32a1.26,1.26,0,0,0-.95-1.41c-.56,0-1,.52-1.07,1.26a1.24,1.24,0,0,0,1,1.41C80.94,137.62,81.42,137.06,81.46,136.32Z"/><path class="cls-13" d="M75.3,142.23a1.33,1.33,0,0,0-1-1.49c-.59,0-1.1.55-1.13,1.33a1.33,1.33,0,0,0,1,1.49C74.76,143.6,75.27,143,75.3,142.23Z"/><path class="cls-12" d="M69.74,148.86a1.15,1.15,0,0,0-.88-1.3c-.51,0-1,.48-1,1.16a1.14,1.14,0,0,0,.88,1.29C69.27,150.05,69.71,149.53,69.74,148.86Z"/><path class="cls-11" d="M76,148.67a1.67,1.67,0,0,0-1.27-1.87c-.75-.06-1.39.69-1.43,1.67a1.68,1.68,0,0,0,1.27,1.88C75.29,150.41,75.94,149.66,76,148.67Z"/><path class="cls-12" d="M79.4,140.69c.06-1.47-.79-2.72-1.9-2.81s-2.06,1-2.13,2.5.79,2.72,1.91,2.81S79.33,142.15,79.4,140.69Z"/><path class="cls-12" d="M81.87,141.41a2,2,0,0,0-1.51-2.23c-.89-.06-1.64.83-1.69,2a2,2,0,0,0,1.51,2.24C81.06,143.47,81.82,142.58,81.87,141.41Z"/><path class="cls-12" d="M80.16,138.86a1.39,1.39,0,0,0-1.07-1.56c-.62-.05-1.15.58-1.19,1.4A1.4,1.4,0,0,0,79,140.26C79.59,140.31,80.12,139.68,80.16,138.86Z"/><path class="cls-10" d="M76,142.07c.08-1.72-.92-3.2-2.23-3.3s-2.42,1.23-2.5,2.95.93,3.2,2.23,3.3S75.92,143.8,76,142.07Z"/><path class="cls-13" d="M73.25,142.37c.06-1.42-.76-2.64-1.84-2.72s-2,1-2.06,2.42.76,2.64,1.84,2.72S73.19,143.78,73.25,142.37Z"/><path class="cls-10" d="M69.87,146.81a1.67,1.67,0,0,0-1.28-1.88c-.74-.06-1.38.69-1.42,1.68a1.68,1.68,0,0,0,1.27,1.88C69.19,148.54,69.83,147.79,69.87,146.81Z"/><path class="cls-13" d="M73.58,150.15c.06-1.6-.87-3-2.08-3.06s-2.25,1.13-2.32,2.74.86,3,2.07,3.06S73.51,151.76,73.58,150.15Z"/><path class="cls-13" d="M73.63,141.57a1.51,1.51,0,0,0-1.15-1.7c-.68-.05-1.26.63-1.3,1.52a1.53,1.53,0,0,0,1.16,1.7C73,143.14,73.59,142.46,73.63,141.57Z"/><path class="cls-12" d="M76.55,138.25a.91.91,0,0,0-.69-1c-.39,0-.74.38-.76.9a.9.9,0,0,0,.68,1C76.18,139.19,76.53,138.78,76.55,138.25Z"/><path class="cls-13" d="M73.3,140.79a1.42,1.42,0,0,0-1.09-1.59c-.63,0-1.17.59-1.21,1.42a1.43,1.43,0,0,0,1.08,1.6C72.72,142.27,73.26,141.63,73.3,140.79Z"/><path class="cls-11" d="M71.74,141.43a.83.83,0,0,0-.63-.93c-.37,0-.68.35-.71.83s.27.9.63.92S71.72,141.91,71.74,141.43Z"/><path class="cls-13" d="M69.43,148.63a1.61,1.61,0,0,0-1.22-1.82c-.72-.05-1.33.68-1.38,1.62a1.61,1.61,0,0,0,1.23,1.81C68.78,150.3,69.39,149.57,69.43,148.63Z"/><path class="cls-11" d="M70.1,144.62a2.25,2.25,0,0,0-1.72-2.53c-1-.08-1.87.94-1.93,2.26a2.27,2.27,0,0,0,1.72,2.54C69.18,147,70,146,70.1,144.62Z"/><path class="cls-11" d="M73.89,143.5a1.68,1.68,0,0,0-1.27-1.88c-.74-.05-1.38.7-1.42,1.68a1.67,1.67,0,0,0,1.27,1.88C73.21,145.23,73.85,144.49,73.89,143.5Z"/><path class="cls-12" d="M74.58,141.07a1.14,1.14,0,0,0-.87-1.29c-.51,0-.95.47-1,1.15a1.14,1.14,0,0,0,.87,1.29C74.12,142.26,74.55,141.74,74.58,141.07Z"/><path class="cls-11" d="M74.16,137a1.63,1.63,0,0,0-1.24-1.82c-.72-.05-1.33.68-1.38,1.63a1.63,1.63,0,0,0,1.23,1.82C73.5,138.71,74.12,138,74.16,137Z"/><path class="cls-10" d="M71.74,138.14a2,2,0,0,0-1.55-2.28c-.91-.07-1.68.85-1.73,2A2,2,0,0,0,70,140.18C70.91,140.25,71.68,139.33,71.74,138.14Z"/><path class="cls-12" d="M73,142.13a2,2,0,0,0-1.52-2.24c-.88-.07-1.65.83-1.7,2a2,2,0,0,0,1.52,2.24C72.18,144.2,72.94,143.3,73,142.13Z"/><path class="cls-13" d="M76.54,137.72c.07-1.52-.81-2.81-2-2.89s-2.12,1.07-2.19,2.58.81,2.8,2,2.88S76.48,139.23,76.54,137.72Z"/><path class="cls-13" d="M71.19,136.67a1,1,0,0,0-.77-1.14c-.46,0-.84.42-.87,1s.32,1.11.77,1.14S71.17,137.27,71.19,136.67Z"/><path class="cls-10" d="M68.85,138.11a1.28,1.28,0,0,0-1-1.45c-.58,0-1.08.54-1.11,1.29a1.29,1.29,0,0,0,1,1.45C68.33,139.45,68.82,138.87,68.85,138.11Z"/><path class="cls-10" d="M69.05,142.57a2.08,2.08,0,0,0-1.58-2.32c-.92-.07-1.71.86-1.76,2.07a2.06,2.06,0,0,0,1.58,2.32C68.2,144.71,69,143.78,69.05,142.57Z"/><path class="cls-11" d="M70.37,141.57a2.41,2.41,0,0,0-1.84-2.71c-1.07-.08-2,1-2,2.42s.76,2.63,1.83,2.71S70.31,143,70.37,141.57Z"/><path class="cls-11" d="M66.79,140.89a1.85,1.85,0,0,0-1.41-2.09c-.83-.06-1.54.77-1.59,1.87a1.85,1.85,0,0,0,1.42,2.08C66,142.82,66.75,142,66.79,140.89Z"/><path class="cls-12" d="M66.1,143.16a.88.88,0,0,0-.67-1c-.38,0-.72.37-.75.88a.88.88,0,0,0,.68,1C65.75,144.07,66.08,143.67,66.1,143.16Z"/><path class="cls-13" d="M83.08,149a2,2,0,0,0-1.53-2.26c-.89-.06-1.66.84-1.71,2a2,2,0,0,0,1.53,2.26C82.27,151.12,83,150.22,83.08,149Z"/><path class="cls-12" d="M79.85,139.2a2.15,2.15,0,0,0-1.63-2.4c-1-.07-1.77.89-1.82,2.15a2.13,2.13,0,0,0,1.63,2.4C79,141.42,79.79,140.46,79.85,139.2Z"/><path class="cls-13" d="M79,138.11a1.18,1.18,0,0,0-.88-1.32c-.53,0-1,.49-1,1.17a1.19,1.19,0,0,0,.9,1.32C78.5,139.31,78.94,138.79,79,138.11Z"/><path class="cls-11" d="M83.14,144.19a1.59,1.59,0,0,0-1.21-1.79c-.71-.05-1.31.66-1.35,1.6a1.6,1.6,0,0,0,1.21,1.79C82.5,145.84,83.1,145.12,83.14,144.19Z"/><path class="cls-12" d="M84.85,150.2A2,2,0,0,0,83.34,148c-.88-.06-1.64.83-1.69,2a2,2,0,0,0,1.51,2.22C84,152.24,84.79,151.36,84.85,150.2Z"/><path class="cls-11" d="M88,156.9a1,1,0,0,0-.77-1.13c-.45,0-.84.42-.87,1a1,1,0,0,0,.78,1.14C87.61,158,88,157.5,88,156.9Z"/><path class="cls-11" d="M86.67,151.42a.85.85,0,0,0-.64-.95c-.38,0-.7.35-.73.84a.86.86,0,0,0,.65.95C86.32,152.29,86.65,151.91,86.67,151.42Z"/><path class="cls-13" d="M86.56,150.45c.06-1.41-.75-2.61-1.81-2.69s-2,1-2,2.4a2.38,2.38,0,0,0,1.82,2.68C85.59,152.92,86.5,151.85,86.56,150.45Z"/><path class="cls-11" d="M80.46,144.27a1.78,1.78,0,0,0-1.36-2c-.79-.06-1.47.74-1.52,1.78a1.78,1.78,0,0,0,1.36,2C79.73,146.11,80.41,145.32,80.46,144.27Z"/><path class="cls-12" d="M76.07,144a1.8,1.8,0,0,0-1.37-2c-.8-.06-1.49.75-1.54,1.81a1.79,1.79,0,0,0,1.38,2C75.34,145.91,76,145.09,76.07,144Z"/><path class="cls-13" d="M79.62,143.49A2.25,2.25,0,0,0,77.9,141c-1-.08-1.87.94-1.93,2.27a2.25,2.25,0,0,0,1.72,2.54C78.7,145.84,79.57,144.82,79.62,143.49Z"/><path class="cls-13" d="M80.42,145.15c.07-1.74-.93-3.22-2.25-3.31s-2.44,1.22-2.51,2.95.93,3.22,2.24,3.32S80.35,146.88,80.42,145.15Z"/><path class="cls-11" d="M80.26,149.11A1.71,1.71,0,0,0,79,147.2c-.76-.06-1.4.71-1.45,1.7a1.68,1.68,0,0,0,1.29,1.9C79.57,150.86,80.21,150.1,80.26,149.11Z"/><path class="cls-13" d="M77.15,153.69a1.71,1.71,0,0,0-1.29-1.91c-.76-.06-1.4.71-1.44,1.7a1.68,1.68,0,0,0,1.28,1.9C76.46,155.44,77.11,154.68,77.15,153.69Z"/><path class="cls-13" d="M81.14,152.57a1.65,1.65,0,0,0-1.25-1.84c-.72,0-1.35.69-1.39,1.65a1.64,1.64,0,0,0,1.24,1.84C80.47,154.27,81.1,153.54,81.14,152.57Z"/><path class="cls-13" d="M78.66,155.56a1.65,1.65,0,0,0-1.24-1.84c-.74-.05-1.36.68-1.4,1.65a1.65,1.65,0,0,0,1.24,1.84C78,157.26,78.62,156.53,78.66,155.56Z"/><path class="cls-11" d="M84.87,152.81c.07-1.5-.8-2.78-1.94-2.87s-2.12,1.06-2.19,2.56.82,2.8,2,2.88S84.81,154.32,84.87,152.81Z"/><path class="cls-12" d="M85.86,154.88a1.75,1.75,0,0,0-1.33-2c-.77,0-1.44.73-1.48,1.75a1.75,1.75,0,0,0,1.32,2C85.15,156.69,85.82,155.91,85.86,154.88Z"/><path class="cls-13" d="M87.05,160a1.27,1.27,0,0,0-1-1.44c-.57,0-1.06.53-1.09,1.29a1.29,1.29,0,0,0,1,1.44C86.53,161.28,87,160.71,87.05,160Z"/><path class="cls-13" d="M87.65,161.41a.92.92,0,0,0-.69-1c-.41,0-.76.38-.79.91a.92.92,0,0,0,.7,1C87.28,162.36,87.62,162,87.65,161.41Z"/><path class="cls-13" d="M89.36,156.11a2.13,2.13,0,0,0-1.63-2.41c-1-.07-1.77.89-1.83,2.14a2.15,2.15,0,0,0,1.64,2.42C88.49,158.33,89.31,157.37,89.36,156.11Z"/><path class="cls-12" d="M86.25,153.83a1.51,1.51,0,0,0-1.15-1.7c-.67,0-1.25.63-1.29,1.52a1.51,1.51,0,0,0,1.15,1.7C85.64,155.41,86.22,154.72,86.25,153.83Z"/><path class="cls-12" d="M82.92,159.73a1.51,1.51,0,0,0-1.16-1.7c-.67-.05-1.25.63-1.29,1.52a1.52,1.52,0,0,0,1.15,1.7C82.3,161.3,82.88,160.62,82.92,159.73Z"/><path class="cls-12" d="M85.52,160.48a1.52,1.52,0,0,0-1.15-1.71c-.68-.05-1.26.63-1.29,1.53a1.51,1.51,0,0,0,1.15,1.7C84.91,162.05,85.48,161.37,85.52,160.48Z"/><path class="cls-12" d="M83.31,149.25a1.07,1.07,0,0,0-.82-1.21c-.47,0-.87.45-.9,1.08a1.07,1.07,0,0,0,.81,1.2C82.88,150.35,83.28,149.87,83.31,149.25Z"/><path class="cls-11" d="M78,144c.06-1.52-.82-2.82-2-2.9s-2.14,1.07-2.2,2.59.81,2.82,2,2.9S77.9,145.55,78,144Z"/><path class="cls-11" d="M78.55,139.6A2,2,0,0,0,77,137.36c-.89-.07-1.65.83-1.7,2a2,2,0,0,0,1.52,2.25C77.74,141.67,78.5,140.78,78.55,139.6Z"/><path class="cls-10" d="M72.79,138.49a2.41,2.41,0,0,0-1.83-2.7c-1.07-.08-2,1-2,2.41a2.41,2.41,0,0,0,1.83,2.7C71.82,141,72.73,139.9,72.79,138.49Z"/><path class="cls-10" d="M73.85,143.63a1.8,1.8,0,0,0-1.38-2c-.8-.06-1.49.75-1.53,1.81a1.8,1.8,0,0,0,1.37,2C73.11,145.5,73.8,144.69,73.85,143.63Z"/><path class="cls-12" d="M79.22,150.61a2.28,2.28,0,0,0-1.73-2.55c-1-.07-1.87.94-1.93,2.28a2.28,2.28,0,0,0,1.73,2.55C78.3,153,79.17,151.94,79.22,150.61Z"/><path class="cls-10" d="M83.21,156.77A1.56,1.56,0,0,0,82,155c-.7-.06-1.29.64-1.33,1.56a1.56,1.56,0,0,0,1.19,1.76C82.57,158.39,83.17,157.69,83.21,156.77Z"/><path class="cls-13" d="M78.65,150.16a1.23,1.23,0,0,0-.93-1.37c-.55,0-1,.51-1,1.22a1.22,1.22,0,0,0,.92,1.37C78.15,151.42,78.61,150.87,78.65,150.16Z"/><path class="cls-13" d="M67.16,139.9a1.21,1.21,0,0,0-.93-1.37c-.54,0-1,.51-1,1.22a1.22,1.22,0,0,0,.92,1.37C66.67,141.16,67.13,140.62,67.16,139.9Z"/><path class="cls-13" d="M81,159.29a1.2,1.2,0,0,0-.92-1.36c-.55,0-1,.5-1,1.22a1.22,1.22,0,0,0,.92,1.37C80.47,160.56,80.93,160,81,159.29Z"/><path class="cls-13" d="M79.94,143.63c.07-1.67-.9-3.1-2.17-3.19s-2.35,1.17-2.42,2.84.9,3.1,2.16,3.2S79.87,145.3,79.94,143.63Z"/><path class="cls-13" d="M76.72,154c.08-1.67-.89-3.1-2.16-3.19s-2.35,1.18-2.42,2.85.9,3.1,2.16,3.19S76.65,155.66,76.72,154Z"/><path class="cls-10" d="M75.78,145.26a1.94,1.94,0,0,0-1.47-2.17c-.86-.06-1.61.81-1.65,1.94a1.93,1.93,0,0,0,1.47,2.17C75,147.26,75.73,146.4,75.78,145.26Z"/><path class="cls-12" d="M73.45,143.1a2,2,0,0,0-1.55-2.29c-.9-.07-1.68.84-1.73,2a2,2,0,0,0,1.55,2.29C72.62,145.21,73.4,144.29,73.45,143.1Z"/><path class="cls-10" d="M74.34,139.92c.07-1.66-.89-3.07-2.14-3.17s-2.33,1.17-2.4,2.83.89,3.07,2.14,3.16S74.27,141.57,74.34,139.92Z"/><path class="cls-13" d="M70.34,138.09c.06-1.52-.81-2.81-2-2.89s-2.13,1.07-2.19,2.58.81,2.8,2,2.89S70.27,139.59,70.34,138.09Z"/><path class="cls-12" d="M71.2,141.75a1,1,0,0,0-.71-1.07c-.43,0-.79.4-.81.95a1,1,0,0,0,.72,1.07C70.82,142.73,71.18,142.31,71.2,141.75Z"/><path class="cls-12" d="M65.72,138.36A1,1,0,0,0,65,137.3c-.42,0-.79.39-.81.95a1,1,0,0,0,.72,1.06C65.33,139.34,65.69,138.92,65.72,138.36Z"/><path class="cls-12" d="M67,137.78a1,1,0,0,0-.72-1.06c-.42,0-.78.39-.8.95a.94.94,0,0,0,.72,1.06C66.57,138.76,66.93,138.34,67,137.78Z"/><path class="cls-10" d="M76.21,150.55A2.29,2.29,0,0,0,74.47,148c-1-.07-1.89,1-2,2.3a2.28,2.28,0,0,0,1.74,2.57C75.28,152.92,76.16,151.89,76.21,150.55Z"/><path class="cls-10" d="M80.35,155.52a1.53,1.53,0,0,0-1.17-1.72c-.69-.05-1.27.64-1.31,1.54A1.53,1.53,0,0,0,79,157.06C79.72,157.11,80.31,156.42,80.35,155.52Z"/><path class="cls-11" d="M76.59,148.06a2.35,2.35,0,0,0-1.8-2.65c-1.05-.08-2,1-2,2.37a2.37,2.37,0,0,0,1.81,2.66C75.63,150.52,76.54,149.46,76.59,148.06Z"/><path class="cls-11" d="M78,156.49a2.37,2.37,0,0,0-1.8-2.66c-1.06-.08-2,1-2,2.37a2.36,2.36,0,0,0,1.8,2.66C77,158.94,77.91,157.88,78,156.49Z"/><path class="cls-11" d="M70.66,139.84a.79.79,0,0,0-.61-.89c-.36,0-.66.33-.68.8a.8.8,0,0,0,.61.9C70.33,140.67,70.64,140.31,70.66,139.84Z"/><path class="cls-11" d="M66.35,136.06a.81.81,0,0,0-.61-.9c-.36,0-.67.33-.69.81s.26.87.61.89S66.32,136.53,66.35,136.06Z"/><path class="cls-11" d="M67.86,145.55a1.58,1.58,0,0,0-1.21-1.78c-.71-.06-1.31.66-1.35,1.59a1.58,1.58,0,0,0,1.21,1.78C67.22,147.2,67.83,146.49,67.86,145.55Z"/><path class="cls-12" d="M70.85,149.35A2.42,2.42,0,0,0,69,146.64c-1.08-.08-2,1-2.06,2.42s.76,2.64,1.84,2.72S70.79,150.77,70.85,149.35Z"/><path class="cls-11" d="M74.54,150.18c.07-1.53-.82-2.84-2-2.93s-2.16,1.08-2.23,2.61.83,2.85,2,2.93S74.47,151.71,74.54,150.18Z"/><path class="cls-13" d="M73.76,154a1.56,1.56,0,0,0-1.18-1.74c-.69,0-1.28.65-1.31,1.56a1.52,1.52,0,0,0,1.17,1.73C73.13,155.58,73.72,154.89,73.76,154Z"/><path class="cls-11" d="M86.6,153a1,1,0,0,0-.71-1.06c-.42,0-.77.4-.8.94a.94.94,0,0,0,.71,1.05C86.22,154,86.58,153.54,86.6,153Z"/><path class="cls-11" d="M86.26,161.86a1.3,1.3,0,0,0-1-1.45c-.57,0-1.06.54-1.09,1.3a1.28,1.28,0,0,0,1,1.45C85.73,163.2,86.23,162.62,86.26,161.86Z"/><path class="cls-11" d="M86.67,160.3a1.46,1.46,0,0,0-1.11-1.64c-.65,0-1.21.61-1.25,1.47a1.46,1.46,0,0,0,1.11,1.64C86.08,161.82,86.63,161.17,86.67,160.3Z"/><path class="cls-11" d="M81.54,156.53c.06-1.54-.83-2.86-2-2.94s-2.17,1.09-2.24,2.63.83,2.84,2,2.93S81.48,158.07,81.54,156.53Z"/><path class="cls-13" d="M85.58,157.26c.07-1.53-.83-2.85-2-2.94s-2.17,1.09-2.23,2.63.82,2.85,2,2.93S85.52,158.8,85.58,157.26Z"/><path class="cls-12" d="M91.18,159.84a2.34,2.34,0,0,0-1.77-2.62c-1-.07-1.93,1-2,2.34a2.32,2.32,0,0,0,1.78,2.61C90.23,162.25,91.12,161.2,91.18,159.84Z"/><path class="cls-10" d="M89.83,159.25a1.05,1.05,0,0,0-.8-1.17c-.46,0-.86.43-.88,1a1,1,0,0,0,.79,1.16C89.4,160.33,89.8,159.86,89.83,159.25Z"/><path class="cls-13" d="M74.1,145.62c.07-1.5-.8-2.79-1.94-2.87s-2.11,1.06-2.17,2.56.8,2.78,1.94,2.86S74,147.11,74.1,145.62Z"/><path class="cls-12" d="M89.71,160.72a2.13,2.13,0,0,0-1.62-2.39c-.94-.07-1.76.88-1.81,2.14a2.12,2.12,0,0,0,1.62,2.38C88.84,162.92,89.65,162,89.71,160.72Z"/><path class="cls-11" d="M86.3,153.9a1,1,0,0,0-.75-1.11c-.43,0-.81.41-.83,1a1,1,0,0,0,.74,1.1C85.9,154.91,86.27,154.47,86.3,153.9Z"/><path class="cls-12" d="M80.61,156.6a1,1,0,0,0-.75-1.11c-.44,0-.81.41-.83,1a1,1,0,0,0,.74,1.1C80.21,157.61,80.58,157.17,80.61,156.6Z"/><path class="cls-12" d="M78.72,158.5a1,1,0,0,0-.75-1.1c-.44,0-.81.41-.84,1a1,1,0,0,0,.75,1.1C78.31,159.51,78.69,159.08,78.72,158.5Z"/><path class="cls-11" d="M80.53,158.51a1,1,0,0,0-.75-1.1c-.44,0-.81.4-.83,1a1,1,0,0,0,.74,1.1C80.13,159.52,80.5,159.08,80.53,158.51Z"/><path class="cls-17" d="M154.4,107.72c-.3-1.29-.57-3-.91-4.33-3.85-7.25-12-7.75-18.38-8a38.72,38.72,0,0,0-4.32.1c-.79.55-1.57,1.07-2.32,1.49-6.17,3.46-12.57,6.15-18.82,9.32-6.75,3.42-13.61,6.53-20.38,9.92a23.44,23.44,0,0,0-5.18,9.25c-3.6,12.83,2.15,21.08,6.21,32.33.17.48.81.2.68-.31-2.39-8.86-6.88-16.92-5.12-27,1.87-10.77,11.51-16,18.33-19.84,15.74-8.9,33.65-15.52,49.29-2.89A.65.65,0,0,0,154.4,107.72Z"/><path class="cls-17" d="M78.35,131.32c-3-.83-14.31-3.27-14.73,3.51a.94.94,0,0,0,.7,1c2,.48,4.29-1.53,6.33-1.72a46.14,46.14,0,0,1,7.23.4C79.26,134.65,79.78,131.71,78.35,131.32Z"/><path class="cls-17" d="M140,91.82a8.62,8.62,0,0,1-.08,1.76c-.14,1.34,1.48,1.73,1.75.45a7,7,0,0,0,.31-2.42C141.89,89.69,139.82,89.91,140,91.82Z"/><path class="cls-10" d="M181.82,105.45a1.32,1.32,0,0,0,1.09,1.45c.6,0,1.09-.64,1.1-1.44s-.49-1.45-1.09-1.45A1.3,1.3,0,0,0,181.82,105.45Z"/><path class="cls-11" d="M181.72,106.05a1,1,0,1,0,2,0,1,1,0,1,0-2,0Z"/><path class="cls-12" d="M190.49,109.79a1.16,1.16,0,0,0,1,1.29c.53,0,1-.56,1-1.27a1.18,1.18,0,0,0-1-1.3A1.16,1.16,0,0,0,190.49,109.79Z"/><path class="cls-11" d="M184,110.42a1.47,1.47,0,1,0,2.82,0,1.46,1.46,0,1,0-2.82,0Z"/><path class="cls-10" d="M190.43,111.94a1.71,1.71,0,0,0,1.42,1.88c.77,0,1.41-.83,1.42-1.86s-.63-1.87-1.41-1.87A1.68,1.68,0,0,0,190.43,111.94Z"/><path class="cls-13" d="M186.43,108.71c0,1.68,1,3,2.29,3.05s2.31-1.34,2.32-3-1-3-2.3-3S186.43,107,186.43,108.71Z"/><path class="cls-13" d="M182.55,105.27A1.48,1.48,0,1,0,184,103.4C183.2,103.39,182.56,104.23,182.55,105.27Z"/><path class="cls-13" d="M180.9,103.42c0,1,.6,1.83,1.37,1.83s1.39-.81,1.39-1.81a1.44,1.44,0,1,0-2.76,0Z"/><path class="cls-12" d="M176.27,99.36c0,.94.57,1.7,1.28,1.7s1.29-.75,1.29-1.68a1.33,1.33,0,1,0-2.57,0Z"/><path class="cls-10" d="M176.1,102.47c0,1,.58,1.75,1.31,1.75s1.32-.76,1.33-1.73a1.59,1.59,0,0,0-1.31-1.75A1.56,1.56,0,0,0,176.1,102.47Z"/><path class="cls-13" d="M178.34,99.68c0,.75.45,1.36,1,1.36a1.21,1.21,0,0,0,1-1.34,1.24,1.24,0,0,0-1-1.37A1.22,1.22,0,0,0,178.34,99.68Z"/><path class="cls-13" d="M183,104.92c0,1.75,1.07,3.18,2.39,3.18s2.41-1.39,2.42-3.15-1.07-3.17-2.39-3.18S183,103.17,183,104.92Z"/><path class="cls-10" d="M183.65,108.48c0,1.41.86,2.56,1.93,2.57s1.94-1.13,1.95-2.54A2.32,2.32,0,0,0,185.6,106C184.53,105.94,183.66,107.07,183.65,108.48Z"/><path class="cls-10" d="M179.14,103.58a1.54,1.54,0,0,0,1.29,1.71c.71,0,1.3-.75,1.3-1.7s-.57-1.71-1.29-1.71S179.14,102.63,179.14,103.58Z"/><path class="cls-11" d="M183.36,111.1c0,1.46.89,2.65,2,2.65s2-1.16,2-2.62-.88-2.64-2-2.65S183.36,109.64,183.36,111.1Z"/><path class="cls-11" d="M181.58,102.4c0,1.46.89,2.65,2,2.65s2-1.16,2-2.62-.89-2.64-2-2.65S181.59,100.94,181.58,102.4Z"/><path class="cls-11" d="M185.42,108.75c0,1.61,1,2.91,2.19,2.92s2.21-1.28,2.22-2.89-1-2.91-2.19-2.92S185.42,107.15,185.42,108.75Z"/><path class="cls-13" d="M186.08,104.72a1.56,1.56,0,0,0,1.3,1.73c.73,0,1.31-.76,1.32-1.71a1.56,1.56,0,0,0-1.31-1.73C186.67,103,186.09,103.77,186.08,104.72Z"/><path class="cls-11" d="M177.85,102.61c0,1.61,1,2.92,2.2,2.93s2.22-1.29,2.22-2.9-1-2.92-2.2-2.93S177.85,101,177.85,102.61Z"/><path class="cls-12" d="M178.82,102.47c0,.61.37,1.1.82,1.1s.83-.48.84-1.08-.37-1.1-.83-1.1A1,1,0,0,0,178.82,102.47Z"/><path class="cls-12" d="M180.72,100.35c0,.61.37,1.1.82,1.1a1.13,1.13,0,0,0,0-2.18C181.1,99.26,180.72,99.75,180.72,100.35Z"/><path class="cls-11" d="M178.83,100.47c0,.6.37,1.1.82,1.1a1,1,0,0,0,.84-1.08c0-.61-.37-1.1-.83-1.1S178.83,99.87,178.83,100.47Z"/><path class="cls-14" d="M192.33,113.36h-.06a1,1,0,0,1-.91-.8.44.44,0,0,1-.05-.15,1.25,1.25,0,0,1,0-.19c-1.94-1-3.17-3.41-4.68-5.26-1.75-2.13-3.12-6.06-5.69-4.7a1.54,1.54,0,0,1-1.93-.69c-.7.39-1.61,0-1.85-1.15a36.21,36.21,0,0,1-.41-3.77c-4.59,1-9.24,6.12-13.35,8.8-6.28,4.09-12.85,7.39-19.24,11.2-12.59,7.49-25.68,13.91-37.69,23l-.25.2a12.65,12.65,0,0,0-3.58,1.55,11.61,11.61,0,0,0-6,8.54,19.08,19.08,0,0,0-.2,7.56,14.52,14.52,0,0,0,3,7.56c6.29,8.54,16.19,16,25.33,14.3,5.67-1,11.15-7.13,15.84-11,6.15-5.07,12.47-9.83,18.77-14.58,6-4.51,11.91-9.28,18.1-13.32,4.06-2.66,9.52-2.66,13.08-6.56C194.86,129.12,194.67,120.88,192.33,113.36Z"/><path class="cls-15" d="M189.28,108.92a19.81,19.81,0,0,0-4.36-3.83c-2.31-1.52-4.88-1.4-7.19-2.82a1.48,1.48,0,0,1-.44-1.67,6.54,6.54,0,0,0,.08-3.91.79.79,0,0,0-.48-.08c-4.65.87-9.36,6.13-13.52,8.85-6.28,4.09-12.85,7.39-19.24,11.2-12.59,7.49-25.68,13.91-37.69,23l-.25.2a12.65,12.65,0,0,0-3.58,1.55,11.61,11.61,0,0,0-6,8.54,19.08,19.08,0,0,0-.2,7.56,14.52,14.52,0,0,0,3,7.56c6.29,8.54,16.19,16,25.33,14.3a15.2,15.2,0,0,0,5.32-2.28c3.35-6.54-5.9-23.05,2-27.91,6.72-4.13,44.08-38.12,59.3-33.37C190.67,114.34,190.08,110.25,189.28,108.92Z"/><path class="cls-16" d="M120.66,159.94c-1.39-2.55-3.69-6.88-3.31-10.42a15.61,15.61,0,0,1-3-.06c-5.73-.59-10.76-.39-16.09,2.22a12,12,0,0,0-.22,3.9,16.52,16.52,0,0,0,3.16,7.6c.44.65,1,1.37,1.54,2.07a29.87,29.87,0,0,0,2.82,3.86c5.37,6.14,17.29,9.7,21.89,4.81C125,169.41,122.94,164.11,120.66,159.94Z"/><path class="cls-13" d="M126.29,175.1c0-1-.61-1.82-1.38-1.82a1.89,1.89,0,0,0,0,3.64C125.68,176.92,126.29,176.11,126.29,175.1Z"/><path class="cls-13" d="M125.09,176a1.45,1.45,0,0,0-1.22-1.6c-.67,0-1.21.72-1.21,1.6s.54,1.6,1.21,1.6A1.45,1.45,0,0,0,125.09,176Z"/><path class="cls-12" d="M124.1,167.62a.85.85,0,1,0-1.64,0c0,.6.36,1.08.82,1.08A1,1,0,0,0,124.1,167.62Z"/><path class="cls-11" d="M121.94,175.6c0-.51-.31-.91-.69-.91s-.68.4-.68.91.31.9.68.9A.82.82,0,0,0,121.94,175.6Z"/><path class="cls-12" d="M123.59,172c0-.84-.52-1.53-1.15-1.53a1.59,1.59,0,0,0,0,3.06C123.07,173.56,123.59,172.88,123.59,172Z"/><path class="cls-10" d="M123.07,168.47a.74.74,0,1,0-.71.94A.85.85,0,0,0,123.07,168.47Z"/><path class="cls-12" d="M119.25,173c0-1.05-.64-1.89-1.43-1.89s-1.43.84-1.43,1.89a1.48,1.48,0,1,0,2.86,0Z"/><path class="cls-13" d="M124.11,174.52a1,1,0,0,0-.83-1.09c-.46,0-.82.49-.82,1.09s.36,1.09.82,1.09A1,1,0,0,0,124.11,174.52Z"/><path class="cls-10" d="M121.31,170.09c0-.79-.48-1.43-1.08-1.43a1.48,1.48,0,0,0,0,2.86C120.83,171.52,121.31,170.88,121.31,170.09Z"/><path class="cls-13" d="M121.06,171.12a1.77,1.77,0,1,0-1.7,2.25A2,2,0,0,0,121.06,171.12Z"/><path class="cls-10" d="M121,166.7c0-1.61-1-2.92-2.22-2.92s-2.21,1.31-2.21,2.92,1,2.91,2.21,2.91S121,168.31,121,166.7Z"/><path class="cls-12" d="M116.61,162.4c0-.72-.44-1.31-1-1.31s-1,.59-1,1.31.44,1.31,1,1.31S116.61,163.12,116.61,162.4Z"/><path class="cls-13" d="M119,168.13a.88.88,0,1,0-.85,1.11A1,1,0,0,0,119,168.13Z"/><path class="cls-12" d="M119.75,168.51c0-1.42-.88-2.58-2-2.58s-2,1.16-2,2.58.88,2.58,2,2.58S119.75,169.94,119.75,168.51Z"/><path class="cls-11" d="M118.77,166.44a1,1,0,1,0-1,1.27A1.16,1.16,0,0,0,118.77,166.44Z"/><path class="cls-12" d="M119.36,160.31a2.29,2.29,0,0,0-1.92-2.53c-1.06,0-1.91,1.13-1.91,2.53s.85,2.53,1.91,2.53A2.29,2.29,0,0,0,119.36,160.31Z"/><path class="cls-13" d="M115.72,160.26c0-1.12-.68-2-1.53-2a2.09,2.09,0,1,0,1.53,2Z"/><path class="cls-10" d="M113.05,168.48c0-.79-.49-1.44-1.09-1.44a1.5,1.5,0,1,0,1.09,1.44Z"/><path class="cls-11" d="M113.15,167.88c0-.72-.44-1.31-1-1.31s-1,.59-1,1.31.44,1.3,1,1.3A1.17,1.17,0,0,0,113.15,167.88Z"/><path class="cls-12" d="M115.55,165.62c0-1.8-1.11-3.26-2.47-3.26s-2.48,1.46-2.48,3.26,1.11,3.26,2.48,3.26S115.55,167.42,115.55,165.62Z"/><path class="cls-11" d="M118.42,154.6c0-1.59-1-2.88-2.2-2.88S114,153,114,154.6s1,2.89,2.19,2.89S118.42,156.2,118.42,154.6Z"/><path class="cls-11" d="M112.77,160.45c0-1.81-1.12-3.27-2.48-3.27s-2.49,1.46-2.49,3.27,1.11,3.27,2.49,3.27S112.77,162.26,112.77,160.45Z"/><path class="cls-13" d="M111.85,160.41c0-1.58-1-2.86-2.17-2.86s-2.18,1.28-2.18,2.86,1,2.87,2.18,2.87S111.85,162,111.85,160.41Z"/><path class="cls-12" d="M116.65,159.33a1.92,1.92,0,0,0-1.61-2.12c-.88,0-1.6.95-1.6,2.12a1.67,1.67,0,1,0,3.21,0Z"/><path class="cls-12" d="M114.76,155a1.81,1.81,0,1,0-1.74,2.29A2.08,2.08,0,0,0,114.76,155Z"/><path class="cls-13" d="M116,150.19c0-.78-.47-1.4-1.06-1.4s-1.06.62-1.06,1.4a1.1,1.1,0,1,0,2.12,0Z"/><path class="cls-13" d="M109.87,156.84a1.16,1.16,0,1,0-1.12,1.47A1.33,1.33,0,0,0,109.87,156.84Z"/><path class="cls-12" d="M104.37,164.2a1.17,1.17,0,0,0-1-1.29c-.54,0-1,.58-1,1.29s.43,1.28,1,1.28A1.17,1.17,0,0,0,104.37,164.2Z"/><path class="cls-11" d="M110.87,163.52a1.46,1.46,0,1,0-1.41,1.86A1.68,1.68,0,0,0,110.87,163.52Z"/><path class="cls-12" d="M114.09,154.91c0-1.54-1-2.78-2.11-2.78s-2.11,1.24-2.11,2.78.95,2.77,2.11,2.77S114.09,156.44,114.09,154.91Z"/><path class="cls-12" d="M116.7,155.47a1.74,1.74,0,1,0-3.36,0c0,1.23.75,2.22,1.68,2.22S116.7,156.7,116.7,155.47Z"/><path class="cls-12" d="M114.79,152.94a1.23,1.23,0,1,0-1.17,1.56C114.26,154.5,114.79,153.8,114.79,152.94Z"/><path class="cls-10" d="M110.59,156.62c0-1.81-1.11-3.27-2.48-3.27s-2.48,1.46-2.48,3.27,1.12,3.27,2.48,3.27S110.59,158.43,110.59,156.62Z"/><path class="cls-13" d="M107.74,157.14c0-1.48-.92-2.69-2-2.69s-2,1.21-2,2.69.92,2.69,2,2.69S107.74,158.63,107.74,157.14Z"/><path class="cls-10" d="M104.41,162.05a1.69,1.69,0,0,0-1.42-1.87c-.78,0-1.41.83-1.41,1.87a1.47,1.47,0,1,0,2.83,0Z"/><path class="cls-13" d="M108.43,165.25c0-1.68-1-3-2.3-3s-2.31,1.36-2.31,3,1,3,2.31,3S108.43,166.93,108.43,165.25Z"/><path class="cls-13" d="M108.1,156.28a1.33,1.33,0,1,0-1.28,1.68A1.53,1.53,0,0,0,108.1,156.28Z"/><path class="cls-12" d="M111,152.59a.79.79,0,1,0-.76,1A.91.91,0,0,0,111,152.59Z"/><path class="cls-13" d="M107.72,155.5a1.25,1.25,0,1,0-1.2,1.58A1.44,1.44,0,0,0,107.72,155.5Z"/><path class="cls-11" d="M106.12,156.28c0-.51-.31-.92-.7-.92a1,1,0,0,0,0,1.84C105.81,157.2,106.12,156.79,106.12,156.28Z"/><path class="cls-13" d="M104,164a1.63,1.63,0,0,0-1.37-1.8c-.75,0-1.36.81-1.36,1.8a1.42,1.42,0,1,0,2.73,0Z"/><path class="cls-11" d="M104.55,159.74a2,2,0,1,0-1.91,2.52A2.28,2.28,0,0,0,104.55,159.74Z"/><path class="cls-11" d="M108.46,158.27a1.47,1.47,0,1,0-1.41,1.87C107.83,160.14,108.46,159.31,108.46,158.27Z"/><path class="cls-12" d="M109.07,155.68c0-.7-.43-1.28-1-1.28s-1,.58-1,1.28.43,1.28,1,1.28S109.07,156.39,109.07,155.68Z"/><path class="cls-11" d="M108.45,151.5a1.42,1.42,0,1,0-2.74,0c0,1,.61,1.81,1.37,1.81S108.45,152.5,108.45,151.5Z"/><path class="cls-10" d="M106,152.85a1.78,1.78,0,1,0-1.72,2.26A2.06,2.06,0,0,0,106,152.85Z"/><path class="cls-12" d="M107.45,156.91a1.75,1.75,0,1,0-1.68,2.23C106.7,159.14,107.45,158.14,107.45,156.91Z"/><path class="cls-13" d="M111,152c0-1.58-1-2.86-2.18-2.86s-2.17,1.28-2.17,2.86,1,2.86,2.17,2.86S111,153.61,111,152Z"/><path class="cls-13" d="M105.33,151.35c0-.62-.38-1.13-.85-1.13a1,1,0,0,0-.86,1.13c0,.63.38,1.14.86,1.14S105.33,152,105.33,151.35Z"/><path class="cls-10" d="M103,153c0-.79-.49-1.44-1.09-1.44s-1.09.65-1.09,1.44.49,1.44,1.09,1.44S103,153.83,103,153Z"/><path class="cls-10" d="M103.36,157.68a2.09,2.09,0,0,0-1.75-2.3c-1,0-1.74,1-1.74,2.3s.77,2.31,1.74,2.31A2.09,2.09,0,0,0,103.36,157.68Z"/><path class="cls-11" d="M104.7,156.53c0-1.48-.92-2.68-2-2.68s-2,1.2-2,2.68.91,2.69,2,2.69S104.7,158,104.7,156.53Z"/><path class="cls-11" d="M100.93,156.1a1.63,1.63,0,1,0-1.57,2.07C100.23,158.17,100.93,157.25,100.93,156.1Z"/><path class="cls-12" d="M100.31,158.53c0-.54-.33-1-.74-1s-.74.44-.74,1,.33,1,.74,1S100.31,159.07,100.31,158.53Z"/><path class="cls-13" d="M118.31,163.34a1.77,1.77,0,1,0-1.7,2.24A2,2,0,0,0,118.31,163.34Z"/><path class="cls-12" d="M114.49,153.32a1.88,1.88,0,1,0-1.81,2.39A2.16,2.16,0,0,0,114.49,153.32Z"/><path class="cls-13" d="M113.53,152.25a1,1,0,1,0-1,1.3A1.18,1.18,0,0,0,113.53,152.25Z"/><path class="cls-11" d="M118.15,158.27c0-1-.6-1.77-1.34-1.77a1.84,1.84,0,0,0,0,3.55C117.55,160.05,118.15,159.25,118.15,158.27Z"/><path class="cls-12" d="M120.2,164.41a1.74,1.74,0,1,0-1.67,2.21A2,2,0,0,0,120.2,164.41Z"/><path class="cls-11" d="M123.82,171.17a.88.88,0,1,0-1.7,0c0,.62.38,1.13.85,1.13S123.82,171.79,123.82,171.17Z"/><path class="cls-11" d="M122.16,165.55a.74.74,0,1,0-.71.94A.85.85,0,0,0,122.16,165.55Z"/><path class="cls-13" d="M122,164.54c0-1.47-.91-2.66-2-2.66s-2,1.19-2,2.66.9,2.66,2,2.66S122,166,122,164.54Z"/><path class="cls-11" d="M115.35,158.57c0-1.1-.67-2-1.5-2a2.06,2.06,0,0,0,0,4C114.68,160.55,115.35,159.67,115.35,158.57Z"/><path class="cls-12" d="M110.77,158.67a1.59,1.59,0,1,0-1.53,2A1.83,1.83,0,0,0,110.77,158.67Z"/><path class="cls-13" d="M114.44,157.82c0-1.39-.85-2.52-1.91-2.52a2.62,2.62,0,0,0,0,5C113.59,160.34,114.44,159.21,114.44,157.82Z"/><path class="cls-13" d="M115.35,159.49c0-1.82-1.12-3.29-2.49-3.29s-2.5,1.47-2.5,3.29,1.12,3.28,2.5,3.28S115.35,161.3,115.35,159.49Z"/><path class="cls-11" d="M115.36,163.63a1.48,1.48,0,1,0-2.86,0c0,1.05.64,1.89,1.43,1.89S115.36,164.68,115.36,163.63Z"/><path class="cls-13" d="M112.32,168.66a1.48,1.48,0,1,0-1.43,1.88A1.71,1.71,0,0,0,112.32,168.66Z"/><path class="cls-13" d="M116.44,167.19a1.65,1.65,0,0,0-1.39-1.83c-.76,0-1.38.82-1.38,1.83a1.44,1.44,0,1,0,2.77,0Z"/><path class="cls-13" d="M114,170.5a1.44,1.44,0,1,0-1.39,1.83A1.66,1.66,0,0,0,114,170.5Z"/><path class="cls-11" d="M120.35,167.15c0-1.58-1-2.85-2.16-2.85s-2.17,1.27-2.17,2.85,1,2.85,2.17,2.85S120.35,168.72,120.35,167.15Z"/><path class="cls-12" d="M121.47,169.23a1.53,1.53,0,1,0-1.47,2C120.81,171.18,121.47,170.31,121.47,169.23Z"/><path class="cls-13" d="M123,174.43a1.13,1.13,0,1,0-1.09,1.43A1.3,1.3,0,0,0,123,174.43Z"/><path class="cls-13" d="M123.63,175.91c0-.56-.34-1-.77-1a.92.92,0,0,0-.77,1c0,.56.35,1,.77,1S123.63,176.47,123.63,175.91Z"/><path class="cls-13" d="M125.19,170.23a1.88,1.88,0,1,0-3.63,0c0,1.33.81,2.39,1.81,2.39A2.16,2.16,0,0,0,125.19,170.23Z"/><path class="cls-12" d="M121.84,168.1a1.33,1.33,0,1,0-1.28,1.69A1.54,1.54,0,0,0,121.84,168.1Z"/><path class="cls-12" d="M118.62,174.52a1.53,1.53,0,0,0-1.29-1.69c-.7,0-1.27.76-1.27,1.69s.57,1.69,1.27,1.69S118.62,175.46,118.62,174.52Z"/><path class="cls-12" d="M121.37,175.1a1.33,1.33,0,1,0-1.29,1.69A1.53,1.53,0,0,0,121.37,175.1Z"/><path class="cls-12" d="M118.56,163.54a.94.94,0,1,0-.91,1.19A1.08,1.08,0,0,0,118.56,163.54Z"/><path class="cls-11" d="M112.74,158.51c0-1.59-1-2.88-2.18-2.88s-2.19,1.29-2.19,2.88,1,2.88,2.19,2.88S112.74,160.1,112.74,158.51Z"/><path class="cls-11" d="M113.15,153.84a1.76,1.76,0,1,0-1.68,2.23C112.4,156.07,113.15,155.07,113.15,153.84Z"/><path class="cls-10" d="M107.09,153.13c0-1.48-.91-2.68-2-2.68s-2,1.2-2,2.68.91,2.68,2,2.68S107.09,154.61,107.09,153.13Z"/><path class="cls-10" d="M108.42,158.41a1.58,1.58,0,1,0-3,0c0,1.12.68,2,1.52,2S108.42,159.53,108.42,158.41Z"/><path class="cls-12" d="M114.35,165.29a2,2,0,1,0-1.92,2.52A2.29,2.29,0,0,0,114.35,165.29Z"/><path class="cls-10" d="M118.79,171.41a1.37,1.37,0,1,0-1.32,1.74A1.57,1.57,0,0,0,118.79,171.41Z"/><path class="cls-13" d="M113.72,164.86c0-.75-.45-1.36-1-1.36a1.41,1.41,0,0,0,0,2.72C113.27,166.22,113.72,165.61,113.72,164.86Z"/><path class="cls-13" d="M101.27,155a1.07,1.07,0,1,0-1,1.36A1.23,1.23,0,0,0,101.27,155Z"/><path class="cls-13" d="M116.55,174.22c0-.75-.46-1.36-1-1.36s-1,.61-1,1.36.45,1.36,1,1.36S116.55,175,116.55,174.22Z"/><path class="cls-13" d="M114.78,157.94c0-1.75-1.07-3.17-2.4-3.17s-2.41,1.42-2.41,3.17,1.08,3.16,2.41,3.16S114.78,159.69,114.78,157.94Z"/><path class="cls-13" d="M111.89,169c0-1.75-1.08-3.17-2.4-3.17s-2.41,1.42-2.41,3.17,1.08,3.17,2.41,3.17S111.89,170.76,111.89,169Z"/><path class="cls-10" d="M110.51,160a1.7,1.7,0,1,0-1.63,2.15A1.94,1.94,0,0,0,110.51,160Z"/><path class="cls-12" d="M108,157.89a1.79,1.79,0,1,0-1.72,2.27A2.06,2.06,0,0,0,108,157.89Z"/><path class="cls-10" d="M108.77,154.5c0-1.73-1.07-3.14-2.38-3.14S104,152.77,104,154.5s1.06,3.14,2.38,3.14S108.77,156.24,108.77,154.5Z"/><path class="cls-13" d="M104.51,152.9c0-1.58-1-2.87-2.18-2.87s-2.17,1.29-2.17,2.87,1,2.86,2.17,2.86S104.51,154.48,104.51,152.9Z"/><path class="cls-12" d="M105.58,156.65a1,1,0,0,0-.8-1.05c-.45,0-.8.47-.8,1.05s.35,1.06.8,1.06S105.58,157.24,105.58,156.65Z"/><path class="cls-12" d="M99.69,153.55c0-.58-.35-1.06-.8-1.06s-.8.48-.8,1.06a1,1,0,0,0,.8,1C99.34,154.6,99.69,154.13,99.69,153.55Z"/><path class="cls-12" d="M101,152.85c0-.58-.35-1.06-.79-1.06s-.8.48-.8,1.06a1,1,0,0,0,.8,1.05C100.6,153.9,101,153.43,101,152.85Z"/><path class="cls-10" d="M111.2,165.46c0-1.41-.86-2.55-1.93-2.55a2.64,2.64,0,1,0,1.93,2.55Z"/><path class="cls-10" d="M115.74,170.33a1.55,1.55,0,0,0-1.3-1.71c-.71,0-1.29.77-1.29,1.71s.58,1.71,1.29,1.71A1.55,1.55,0,0,0,115.74,170.33Z"/><path class="cls-11" d="M111.49,162.83c0-1.45-.9-2.63-2-2.63s-2,1.18-2,2.63.89,2.64,2,2.64S111.49,164.29,111.49,162.83Z"/><path class="cls-11" d="M113.3,171.52c0-1.46-.89-2.64-2-2.64s-2,1.18-2,2.64.89,2.64,2,2.64S113.3,173,113.3,171.52Z"/><path class="cls-11" d="M104.92,154.71a.81.81,0,0,0-.68-.89c-.37,0-.67.4-.67.89s.3.89.67.89A.81.81,0,0,0,104.92,154.71Z"/><path class="cls-11" d="M100.24,151.09a.7.7,0,1,0-1.35,0,.81.81,0,0,0,.68.89C99.94,152,100.24,151.59,100.24,151.09Z"/><path class="cls-11" d="M102.26,160.89a1.4,1.4,0,1,0-1.35,1.77A1.6,1.6,0,0,0,102.26,160.89Z"/><path class="cls-12" d="M105.54,164.63c0-1.49-.91-2.69-2-2.69s-2,1.2-2,2.69.92,2.69,2,2.69S105.54,166.12,105.54,164.63Z"/><path class="cls-11" d="M109.44,165.2c0-1.6-1-2.9-2.2-2.9s-2.21,1.3-2.21,2.9,1,2.9,2.21,2.9S109.44,166.81,109.44,165.2Z"/><path class="cls-13" d="M108.79,169.23c0-.95-.58-1.72-1.3-1.72a1.55,1.55,0,0,0-1.31,1.72c0,1,.58,1.73,1.31,1.73S108.79,170.19,108.79,169.23Z"/><path class="cls-11" d="M122.16,167.2a.82.82,0,1,0-.79,1C121.81,168.24,122.16,167.78,122.16,167.2Z"/><path class="cls-11" d="M122.2,176.49a1.13,1.13,0,1,0-1.09,1.44A1.3,1.3,0,0,0,122.2,176.49Z"/><path class="cls-11" d="M122.56,174.83c0-.9-.55-1.63-1.23-1.63a1.69,1.69,0,0,0,0,3.26C122,176.46,122.56,175.73,122.56,174.83Z"/><path class="cls-11" d="M117,171.29c0-1.62-1-2.92-2.21-2.92s-2.21,1.3-2.21,2.92,1,2.91,2.21,2.91S117,172.9,117,171.29Z"/><path class="cls-13" d="M121.29,171.74c0-1.61-1-2.92-2.21-2.92s-2.22,1.31-2.22,2.92,1,2.91,2.22,2.91S121.29,173.35,121.29,171.74Z"/><path class="cls-12" d="M127.25,174c0-1.43-.88-2.59-2-2.59s-2,1.16-2,2.59.89,2.59,2,2.59S127.25,175.42,127.25,174Z"/><path class="cls-10" d="M125.81,173.48a.91.91,0,1,0-.88,1.16A1,1,0,0,0,125.81,173.48Z"/><path class="cls-13" d="M108.78,160.47c0-1.57-1-2.84-2.16-2.84s-2.16,1.27-2.16,2.84,1,2.84,2.16,2.84S108.78,162,108.78,160.47Z"/><path class="cls-12" d="M125.75,175c0-1.31-.8-2.37-1.79-2.37a2.46,2.46,0,1,0,1.79,2.37Z"/><path class="cls-11" d="M121.89,168.16a.86.86,0,1,0-1.66,0c0,.61.37,1.1.83,1.1A1,1,0,0,0,121.89,168.16Z"/><path class="cls-12" d="M116.06,171.43c0-.6-.37-1.09-.82-1.09a1.13,1.13,0,0,0,0,2.18C115.69,172.52,116.06,172,116.06,171.43Z"/><path class="cls-12" d="M114.17,173.56a.86.86,0,1,0-1.66,0c0,.61.37,1.1.83,1.1S114.17,174.17,114.17,173.56Z"/><path class="cls-11" d="M116.06,173.43c0-.6-.37-1.09-.82-1.09a1,1,0,0,0-.83,1.09c0,.61.37,1.09.83,1.09S116.06,174,116.06,173.43Z"/><path class="cls-17" d="M190.93,114.63c-.36-1.32-.73-3.13-1.14-4.45-4.35-7.27-12.91-7.15-19.55-6.9a39.36,39.36,0,0,0-4.51.44c-.8.63-1.59,1.24-2.36,1.74-6.28,4.09-12.85,7.39-19.24,11.2-6.88,4.09-13.91,7.88-20.84,12a25.43,25.43,0,0,0-5,10.07c-3.18,13.67,3.2,21.84,7.94,33.28.2.48.85.14.69-.39-2.89-9.06-7.94-17.13-6.56-27.84,1.47-11.39,11.3-17.59,18.26-22.15,16-10.52,34.44-18.83,51.34-6.85A.67.67,0,0,0,190.93,114.63Z"/><path class="cls-17" d="M112.57,145.21c-3.22-.64-15.09-2.3-15.22,4.81a.94.94,0,0,0,.78,1c2.05.36,4.4-1.93,6.53-2.28a46.53,46.53,0,0,1,7.56-.15C113.67,148.62,114.08,145.5,112.57,145.21Z"/><path class="cls-17" d="M175.17,99.15a8.8,8.8,0,0,1,0,1.85c-.09,1.4,1.63,1.69,1.85.33a7.79,7.79,0,0,0,.22-2.55C177.06,96.78,174.91,97.16,175.17,99.15Z"/><path class="cls-18" d="M184.45,122.88c-1.26-1.2-2.43-2.45-3.63-3.66-2.34-6.21-8.66-10-15.49-10.14-5.34-.11-12.85-.39-17.57,3-4.47-6.41-11.4-10.68-18.91-12.73-4.58-1.25-11.79-1.57-16.52,1-1.24-3.34-4.9-6.74-7-8.36s-4.63-3.53-7.27-4c-5.56-4.81-14.33-.63-20.28,2C68.21,94.35,54,98.4,46,105.94c-.28.15-.59.25-.86.43a.82.82,0,0,0-.39.83c-.27.3-.56.59-.82.9-.45.54,0,1.52.74,1.27,1-.33,2.09-.68,3.13-1.06,4.73.6,9.06,1.11,13.74,2.86a30.84,30.84,0,0,1,13.61,10.11,2.34,2.34,0,0,0,.41.42.72.72,0,0,0,.83.64l.43-.08a3,3,0,0,0,1.91-.46c2.23-.61,4.28-1.29,6.84-.78,2.88.58,5.33,2.67,7.41,4.6,3.85,3.58,6.67,8.16,10.41,11.87a3,3,0,0,0,3.85.51c1.53-.13,3-.49,4.68-.65a36.93,36.93,0,0,1,10.07.5c1.81.34,3.54.92,5.26,1.41a5.34,5.34,0,0,0,2.33,1.12c7.27,1.56,9,10.88,16.1,13a1.5,1.5,0,0,0,1.63-.67c2.24-3,1.44-7.25-.11-10.65a33,33,0,0,1,5.54,4.81c5.19,5.94,13.61-1.88,10-8a6.38,6.38,0,0,0,1.84-3.7c2.91,1.78,5.72,3.75,9.5,4.13a4.81,4.81,0,0,0,4.83-4.83c0-.37-.12-.7-.18-1C183.9,134.94,188.93,127.14,184.45,122.88Z"/><path class="cls-19" d="M165.82,109.12c-.16,0-.32,0-.49,0-5.34-.11-12.85-.39-17.57,3-.25-.36-.53-.68-.79-1-6,3.54-11.81,7.34-18.23,10.22s-15.5,6.21-22.94,11a17.06,17.06,0,0,0-3.72-8,24,24,0,0,0-9.31-6.14c4.65-2.22,9.56-3.9,13.1-5.53,6.91-3.16,14.94-7.68,20.13-13.85-4.38-.67-9.83-.5-13.67,1.62,0-.08-.08-.16-.12-.25-.56.36-1.12.71-1.7,1a109.49,109.49,0,0,1-19.29,8.41c-5.65,2-11.66,4.77-16,9a25.68,25.68,0,0,0-5.12-9.25,15.75,15.75,0,0,0-7.23-4.9c3.13-1.53,6.15-3.22,9.18-5A133.24,133.24,0,0,0,90.91,85.87c-4.5.24-9.4,2.52-13.17,4.21C68.21,94.35,54,98.4,46,105.94c-.28.15-.59.25-.86.43a.82.82,0,0,0-.39.83c-.27.3-.56.59-.82.9-.45.54,0,1.52.74,1.27,1-.33,2.09-.68,3.13-1.06,4.73.6,9.06,1.11,13.74,2.86a30.84,30.84,0,0,1,13.61,10.11,2.34,2.34,0,0,0,.41.42.72.72,0,0,0,.83.64l.43-.08a3,3,0,0,0,1.91-.46c2.23-.61,4.28-1.29,6.84-.78,2.88.58,5.33,2.67,7.41,4.6,3.85,3.58,6.67,8.16,10.41,11.87a3,3,0,0,0,3.85.51c1.53-.13,3-.49,4.68-.65a36.93,36.93,0,0,1,10.07.5c1.81.34,3.54.92,5.26,1.41a5.34,5.34,0,0,0,2.33,1.12c6.52,1.4,8.64,9,14.1,12.11-3.22-8.93-8-17.39-17.22-20.89,2.28-1,4.54-1.89,6.68-2.83C144.15,123.9,156.6,117.53,165.82,109.12Z"/><path class="cls-20" d="M101.14,99.15a27,27,0,0,0-9.6-2.35c-.61,0-.68,1-.14,1.21l1.41.53a12.32,12.32,0,0,0-2.39.27l-1.9-.94a8.51,8.51,0,0,0,3.27-1.72c.4-.36.28-1.06-.25-1.1-1.9-.18-3.82.72-5.61,1.65h0c0-.5-.33-1-.86-.87l-.79.23A25.1,25.1,0,0,0,79,94.71c-.65-.09-.89,1.1-.33,1.43s1.23.69,1.85,1l-1.22.36a32.69,32.69,0,0,1-3.43-2.31c-.64-.51-1.23.71-.6,1.22.44.36.92.71,1.4,1.07a10.57,10.57,0,0,0-4.26-1.65c-.49,0-.61.57-.39,1l-1.57-.67c-1.06-.46-1.5,1.51-.47,2l.26.11c-1-.12-2-.28-3-.47-.78-.64-1.55-1.27-2.3-1.86s-1.47.84-.74,1.49c.53.48,1,1,1.56,1.56a.86.86,0,0,0,.84.88c.1.11.21.2.31.31a50.75,50.75,0,0,0-6,2.4l-.16,0a.48.48,0,0,0-.46-.45c-2.59-.14-5.09,1.17-7.69,1.31-.43,0-.41.72,0,.77a15.18,15.18,0,0,0,7.21-.75l.35.11c0,.69.51,1.41,1.26,1,.28-.16.56-.28.84-.42a7.37,7.37,0,0,0,2.52.07c.34-.07.28-.64,0-.75s-.47-.14-.7-.2l.62-.26a.42.42,0,0,0,.4.29c1.54,0,3.08.11,4.62.24a22.78,22.78,0,0,0-2.46,2.36.89.89,0,0,0-.12.84,1.07,1.07,0,0,0,.85,1.22l.5,0-.06.09a.68.68,0,0,0,0,.62c-1.2-.1-2.34.59-3.53.8-.92.17-.71,2,.22,1.92,1.31-.16,2.93-.39,3.82-1.65a.92.92,0,0,0,.12-.65.44.44,0,0,0,.31-.2,4.1,4.1,0,0,1,.64-.78,39.25,39.25,0,0,0,7.36.19,10.12,10.12,0,0,0,1.76.54,5.17,5.17,0,0,0,4.12,1c.47-.1.43-.8.12-1.07a22,22,0,0,0-1.87-1.42c.26-.1.52-.19.77-.31s.29-.67.05-.93a1,1,0,0,0,1.48.55c1.67-1,4,.88,5.78.63a1.16,1.16,0,0,0,.25-2.19,7.83,7.83,0,0,0-1-.4l.1,0a.53.53,0,0,0,.12-.14,8.37,8.37,0,0,0,6-.3.5.5,0,0,0,.09-.83c-2.12-1.71-5.07-.41-7.46-1.07-.49-.14-.8.4-.68.86l-1.08,0a15.12,15.12,0,0,1-3.39-.63.86.86,0,0,0-.27,0,23.53,23.53,0,0,1,2.47-.51c1.27-.19,2.46-.23,3.5-1.17.31-.27.45-1,0-1.18a4.12,4.12,0,0,0-.53-.18c.46.06.93.08,1.39.11a.9.9,0,0,0,.44,1.17,39.9,39.9,0,0,0,5.42,1,20.08,20.08,0,0,0,5.76.62.6.6,0,0,0,.35-1,9.67,9.67,0,0,0-1.51-1.09,10,10,0,0,0,1.44-.06A.57.57,0,0,0,101.14,99.15Zm-23.55,1.47a8.07,8.07,0,0,0,2,1.14,1.51,1.51,0,0,0,.46.88c-1.82-.26-3.64-.43-5.47-.54C75.59,101.63,76.6,101.15,77.59,100.62Zm-7-.55a.29.29,0,0,0,.1-.15c1.37.1,2.74.24,4.11.38-.92.54-1.82,1.1-2.72,1.67a.71.71,0,0,0-.14,0H71.6l-.26-.3c.26,0,.51-.08.76-.14s.16-.46-.06-.49c-.43-.05-.87-.07-1.31-.08-.19-.22-.4-.43-.6-.64C70.28,100.23,70.44,100.17,70.59,100.07Zm2.77,4.13c-1-.41-1.44,1.39-.53,1.88l-1-.06a.37.37,0,0,0-.23-.3,1.57,1.57,0,0,0-1.22.21h0c.71-.49,1.39-1.07,2.13-1.57a1.2,1.2,0,0,0,.47-.66c.86.07,1.72.13,2.59.17a9.27,9.27,0,0,0,.76,1.63C75.31,105.05,74.35,104.61,73.36,104.2Zm9.29.29a1.22,1.22,0,0,0-.29,1.54.49.49,0,0,0-.3-.16,15.25,15.25,0,0,0-2.53-.05,28.38,28.38,0,0,1-2.2-1.91,26.64,26.64,0,0,0,3.78-.23c.38-.05.57-.81.1-.89h-.1c.31-.11.62-.19.93-.27-.62.32-.76,1.58.08,1.82ZM81.4,98.85,81,98.6c.59-.15,1.17-.32,1.76-.48a23.94,23.94,0,0,0,2.73.85C84.15,98.91,82.78,98.88,81.4,98.85Z"/><path class="cls-20" d="M135.31,109.39A36.39,36.39,0,0,0,124,107c-.71,0-.8,1-.16,1.2l1.65.54a16,16,0,0,0-2.81.27c-.74-.32-1.48-.64-2.23-.94a10.93,10.93,0,0,0,3.85-1.72.59.59,0,0,0-.3-1.1c-2.24-.18-4.49.72-6.6,1.65h0a.82.82,0,0,0-1-.87l-.93.23a33.79,33.79,0,0,0-6.12-1.35c-.77-.09-1,1.11-.39,1.44s1.44.69,2.17,1l-1.43.36a36.66,36.66,0,0,1-4-2.3c-.76-.51-1.46.7-.72,1.22.52.36,1.09.71,1.65,1.07a13.58,13.58,0,0,0-5-1.65c-.58-.06-.71.56-.45,1l-1.86-.68c-1.24-.45-1.76,1.52-.54,2l.3.11q-1.76-.2-3.51-.48c-.92-.64-1.83-1.26-2.71-1.85s-1.73.83-.87,1.49c.62.47,1.23,1,1.84,1.55a.94.94,0,0,0,1,.89c.11.11.24.2.36.3a72,72,0,0,0-7,2.4l-.19,0a.53.53,0,0,0-.53-.46c-3-.13-6,1.18-9,1.32a.39.39,0,0,0,0,.77,21,21,0,0,0,8.47-.75l.42.1a1,1,0,0,0,1.48,1c.32-.15.65-.27,1-.42a9.5,9.5,0,0,0,3,.07c.4-.06.33-.64,0-.74s-.54-.14-.82-.21l.73-.26a.5.5,0,0,0,.47.3c1.81,0,3.63.11,5.44.24a24.48,24.48,0,0,0-2.9,2.36.76.76,0,0,0-.13.84,1.08,1.08,0,0,0,1,1.21l.59.06-.07.09a.56.56,0,0,0,0,.61c-1.42-.09-2.76.6-4.16.81-1.08.17-.83,2,.26,1.92,1.54-.16,3.44-.4,4.49-1.66a.77.77,0,0,0,.15-.64A.55.55,0,0,0,98,119a5,5,0,0,1,.75-.78,53,53,0,0,0,8.65.2,13.27,13.27,0,0,0,2.08.54,6.94,6.94,0,0,0,4.84,1c.55-.11.51-.81.14-1.08a23.84,23.84,0,0,0-2.19-1.41c.3-.11.6-.19.9-.31s.34-.67,0-.93a1.32,1.32,0,0,0,1.74.55c2-1,4.72.87,6.8.62a1.12,1.12,0,0,0,.3-2.18,10,10,0,0,0-1.24-.4l.12-.05c.07,0,.1-.09.14-.13a11.45,11.45,0,0,0,7.09-.3.46.46,0,0,0,.11-.83c-2.49-1.71-6-.41-8.77-1.07a.67.67,0,0,0-.81.86l-1.26,0a20,20,0,0,1-4-.64,1.16,1.16,0,0,0-.32,0,28.56,28.56,0,0,1,2.91-.51c1.49-.19,2.89-.23,4.12-1.17.35-.27.52-.95,0-1.18a6.52,6.52,0,0,0-.63-.18c.54.06,1.09.07,1.63.11a.86.86,0,0,0,.52,1.17,52.52,52.52,0,0,0,6.37,1,27.21,27.21,0,0,0,6.78.63c.43,0,.84-.63.4-1a11.08,11.08,0,0,0-1.76-1.09,13.78,13.78,0,0,0,1.69-.06A.55.55,0,0,0,135.31,109.39Zm-27.69,1.47A9.65,9.65,0,0,0,110,112a1.5,1.5,0,0,0,.54.89c-2.13-.26-4.28-.44-6.43-.55C105.26,111.87,106.45,111.39,107.62,110.86Zm-8.24-.55a.58.58,0,0,0,.13-.15c1.61.09,3.21.24,4.82.37-1.07.55-2.14,1.11-3.19,1.68,0,0-.11,0-.17,0h-.4l-.3-.3.89-.14c.29-.06.19-.47-.07-.49-.51,0-1-.08-1.54-.09l-.7-.63Zm3.27,4.13c-1.18-.41-1.7,1.39-.62,1.88l-1.19-.07a.38.38,0,0,0-.28-.29,2.16,2.16,0,0,0-1.43.2h0c.83-.49,1.63-1.07,2.5-1.57a1.17,1.17,0,0,0,.55-.67c1,.08,2,.13,3.05.18a9.63,9.63,0,0,0,.89,1.63C104.94,115.29,103.8,114.85,102.65,114.44Zm10.92.28a1.1,1.1,0,0,0-.34,1.55.6.6,0,0,0-.35-.16,21.3,21.3,0,0,0-3,0c-.89-.59-1.75-1.24-2.58-1.91a36.69,36.69,0,0,0,4.44-.23c.46,0,.67-.81.12-.89h-.11c.36-.11.72-.19,1.09-.28a1,1,0,0,0,.09,1.83Zm-1.47-5.64-.43-.24c.7-.15,1.38-.32,2.07-.48a29.69,29.69,0,0,0,3.21.84Z"/><path class="cls-20" d="M168.89,124.07a28,28,0,0,0-10.47-5.34c-.69-.19-1,1.22-.47,1.61l1.47,1a12.24,12.24,0,0,0-2.82-.16c-.64-.58-1.29-1.14-1.94-1.7a9.59,9.59,0,0,0,4.22-1.62c.55-.4.59-1.38,0-1.56-2.16-.66-4.6.14-6.92,1a0,0,0,0,1,0,0c.14-.67-.11-1.48-.77-1.37l-1,.14a25.63,25.63,0,0,0-5.66-3c-.73-.27-1.32,1.31-.76,1.88s1.23,1.21,1.88,1.77l-1.51.22a38.7,38.7,0,0,1-3.35-3.9c-.61-.85-1.61.68-1,1.52.41.59.88,1.18,1.33,1.77a11.19,11.19,0,0,0-4.48-3.19c-.55-.19-.85.63-.69,1.2l-1.65-1.27c-1.1-.85-2.13,1.73-1,2.59a2.65,2.65,0,0,0,.26.21c-1.11-.39-2.22-.83-3.32-1.31-.73-1-1.47-2.07-2.17-3s-1.92.81-1.24,1.87c.48.76.94,1.6,1.39,2.46-.07.65.12,1.28.74,1.4.08.16.18.31.27.48a58,58,0,0,0-7.54,1.94l-.17-.07a.63.63,0,0,0-.41-.72c-3-.76-6.19.46-9.22.08-.51-.07-.67.89-.21,1.05a15.3,15.3,0,0,0,8.52.58l.38.22c-.23.94.22,2,1.2,1.62.36-.16.72-.26,1.08-.39a7.12,7.12,0,0,0,2.88.66c.42,0,.5-.81.2-1s-.5-.29-.76-.43l.79-.22c0,.24.15.45.39.5a50.89,50.89,0,0,1,5.27,1.35,28.72,28.72,0,0,0-3.46,2.66,1.41,1.41,0,0,0-.35,1.12c-.19.74,0,1.63.65,1.85l.57.18-.1.12a1.05,1.05,0,0,0-.18.83c-1.36-.4-2.86.28-4.29.31-1.11,0-1.35,2.62-.25,2.67,1.56.06,3.48.11,4.85-1.41a1.47,1.47,0,0,0,.31-.85.56.56,0,0,0,.41-.21,6.34,6.34,0,0,1,.94-.93,38.85,38.85,0,0,0,8.44,1.91,11.73,11.73,0,0,0,1.9,1.13,5.44,5.44,0,0,0,4.49,2.29c.57,0,.71-1,.42-1.44a27.77,27.77,0,0,0-1.78-2.35c.32-.08.64-.14,1-.25.49-.18.51-.85.3-1.25.18.8.75,1.43,1.57,1.07,2.18-1,4.4,2.09,6.51,2.14,1.29,0,1.89-2,.86-2.92a7.15,7.15,0,0,0-1.11-.78l.13,0a.44.44,0,0,0,.17-.16,8.49,8.49,0,0,0,7.05.94.76.76,0,0,0,.32-1.11c-2-2.81-5.75-1.7-8.33-3.12-.54-.3-1,.37-1,1-.4-.09-.81-.18-1.23-.29a14.91,14.91,0,0,1-3.75-1.61.75.75,0,0,0-.31-.08,23.12,23.12,0,0,1,3-.15c1.51,0,2.89.23,4.35-.81.42-.31.76-1.2.31-1.61a5.57,5.57,0,0,0-.57-.37c.52.19,1,.31,1.57.46-.28.58-.28,1.39.21,1.69a39.52,39.52,0,0,0,6,2.63c2.18.92,4.14,2,6.5,2.14a.87.87,0,0,0,.65-1.24,11.22,11.22,0,0,0-1.45-1.83,10.3,10.3,0,0,0,1.68.24C169.09,125.53,169.4,124.49,168.89,124.07Zm-27.58-3.24a9.21,9.21,0,0,0,2,2,2.34,2.34,0,0,0,.3,1.3q-3-1.12-6.17-2C138.73,121.76,140,121.34,141.31,120.83Zm-7.94-2.3a.58.58,0,0,0,.16-.19c1.55.44,3.09.94,4.64,1.43-1.2.54-2.39,1.11-3.57,1.68,0,0-.12,0-.17,0l-.4-.09c-.06-.15-.14-.3-.21-.46.3,0,.6,0,.91,0s.31-.6.06-.68a12.62,12.62,0,0,0-1.49-.41c-.17-.34-.35-.66-.52-1C133,118.68,133.17,118.63,133.37,118.53Zm2.12,6.25c-1.05-.78-2,1.57-1.1,2.44l-1.15-.31a.51.51,0,0,0-.2-.46,1.63,1.63,0,0,0-1.46,0h-.05c.95-.52,1.89-1.15,2.87-1.68a1.62,1.62,0,0,0,.72-.79c1,.29,2,.56,2.94.81a16.36,16.36,0,0,0,.45,2.4C137.52,126.37,136.52,125.55,135.49,124.78Zm10.65,2.45a1.9,1.9,0,0,0-.74,2,.6.6,0,0,0-.3-.29,14.62,14.62,0,0,0-2.92-.63c-.73-1-1.39-2-2-3.1a26,26,0,0,0,4.42.53c.47,0,.88-1,.36-1.19l-.11,0c.38-.08.76-.12,1.14-.17-.8.31-1.29,2-.38,2.51Zm0-8-.36-.42c.73-.08,1.44-.17,2.16-.27a22.52,22.52,0,0,0,2.93,1.76C149.33,120,147.76,119.61,146.18,119.27Z"/><path class="cls-21" d="M86.68,101.66a4.94,4.94,0,0,0,.23.68,1.71,1.71,0,0,0,0,1.88,2.66,2.66,0,0,0,1.57,1.08A1.31,1.31,0,0,0,90,103.6a2.76,2.76,0,0,0-1.09-1.25q.2.29-.15-.15a1.18,1.18,0,0,0-.65-.36.8.8,0,0,1-.78-.5C87.13,101,86.57,101.28,86.68,101.66Z"/><path class="cls-21" d="M74.88,105.7a1.21,1.21,0,0,0-.13.59c0-.26-.12.15-.15.21-.13.31-.15.6-.25.91,0,.15.15.26.26.18s.41-.2.61-.33l.31-.17-.09,0a1.09,1.09,0,0,0,.36,0,2.31,2.31,0,0,0,2.07-1,1.14,1.14,0,0,0-.53-1.54A1.89,1.89,0,0,0,74.88,105.7Z"/><path class="cls-21" d="M84.18,98.66l-.06-.08a2.39,2.39,0,0,0-.36-.35.2.2,0,0,0-.31.06,1.78,1.78,0,0,0-.21.68,2.09,2.09,0,0,0-.35.7A2,2,0,0,0,83,100.9a1.38,1.38,0,1,0,2.46-1.22,2.42,2.42,0,0,0-1-.93C84.18,98.57,84.16,98.62,84.18,98.66Z"/><path class="cls-21" d="M83.9,103.66a2.69,2.69,0,0,0-.32,2.17c.06.32.06.65.14,1a1.33,1.33,0,0,0,.53.71.35.35,0,0,0,.56-.2c.09-.42.13-.82.19-1.25a1.1,1.1,0,0,1,.23-.44s0-.08.13-.08a1.17,1.17,0,0,0,.47-.6C86.39,103.78,84.74,102.6,83.9,103.66Z"/><path class="cls-21" d="M77.54,98.65c-.05.24-.09.47-.12.71a1.72,1.72,0,0,0-.86,1.66,2.71,2.71,0,0,0,.88,1.71,1.32,1.32,0,0,0,2.11-.8,2.89,2.89,0,0,0-.37-1.62c0,.23,0,.16-.06-.2a1.19,1.19,0,0,0-.41-.62.8.8,0,0,1-.43-.82C78.28,98.23,77.63,98.26,77.54,98.65Z"/><path class="cls-21" d="M65.25,96.59a1.26,1.26,0,0,0-.4.46c.1-.25-.17.07-.23.12-.26.2-.42.45-.66.67a.17.17,0,0,0,.15.28c.24,0,.45,0,.69,0h.35l-.06-.07a1.26,1.26,0,0,0,.32.18,2.32,2.32,0,0,0,2.32,0A1.15,1.15,0,0,0,68,96.67,1.88,1.88,0,0,0,65.25,96.59Z"/><path class="cls-21" d="M76.77,94.82a.31.31,0,0,0,0-.09,2.54,2.54,0,0,0-.15-.49.2.2,0,0,0-.3-.09,1.6,1.6,0,0,0-.51.49,2.26,2.26,0,0,0-.64.45,2,2,0,0,0-.48,1.14,1.39,1.39,0,0,0,1.13,1.59,1.41,1.41,0,0,0,1.61-1.49A2.59,2.59,0,0,0,77,95C76.82,94.74,76.78,94.77,76.77,94.82Z"/><path class="cls-21" d="M74.15,99.08a2.67,2.67,0,0,0-1.31,1.76c-.11.31-.26.61-.35.93a1.38,1.38,0,0,0,.13.87.35.35,0,0,0,.59.1c.28-.33.5-.66.76-1a1.15,1.15,0,0,1,.41-.28s.08,0,.15,0a1.26,1.26,0,0,0,.71-.3C76.29,100.37,75.39,98.55,74.15,99.08Z"/><path class="cls-21" d="M98.82,111.1a5.54,5.54,0,0,0-.69.22,1.69,1.69,0,0,0-1.87,0,2.71,2.71,0,0,0-1.12,1.56,1.32,1.32,0,0,0,1.68,1.51,2.81,2.81,0,0,0,1.27-1.07q-.28.2.15-.15a1.1,1.1,0,0,0,.37-.64.81.81,0,0,1,.52-.76C99.53,111.57,99.2,111,98.82,111.1Z"/><path class="cls-21" d="M95,99.23a1.22,1.22,0,0,0-.59-.14c.26,0-.14-.12-.21-.15a7.2,7.2,0,0,0-.9-.28c-.15,0-.26.15-.18.26s.18.42.31.62a3,3,0,0,1,.16.31.36.36,0,0,1,0-.09,1.09,1.09,0,0,0,0,.36,2.29,2.29,0,0,0,1,2.09,1.14,1.14,0,0,0,1.55-.5A1.88,1.88,0,0,0,95,99.23Z"/><path class="cls-21" d="M101.87,108.66l.08,0a2.39,2.39,0,0,0,.36-.35.2.2,0,0,0,0-.32,1.75,1.75,0,0,0-.68-.22,2.15,2.15,0,0,0-.69-.36,1.92,1.92,0,0,0-1.23.09,1.38,1.38,0,1,0,1.17,2.48,2.66,2.66,0,0,0,1-1C102,108.67,101.92,108.65,101.87,108.66Z"/><path class="cls-21" d="M96.88,108.29a2.67,2.67,0,0,0-2.16-.36c-.33,0-.66,0-1,.11a1.37,1.37,0,0,0-.71.52.35.35,0,0,0,.18.57c.42.1.82.14,1.25.21a1.08,1.08,0,0,1,.43.24c.05,0,.08,0,.08.13a1.22,1.22,0,0,0,.59.48C96.71,110.78,97.92,109.15,96.88,108.29Z"/><path class="cls-22" d="M83.44,97.64c.89.68.52,1.92,1.23,2.73.48.54,1.63.62,1.86-.23.38-1.43-1.7-3.44-3.09-2.85a.11.11,0,0,0-.07.11A.19.19,0,0,0,83.44,97.64Z"/><path class="cls-21" d="M84.33,98.21a4.38,4.38,0,0,0-.45-.75,3.35,3.35,0,0,1,1.5,1.32c.09.15.87,1.73.39,1.72s-.58-.65-.7-1C84.88,99.06,84.54,98.67,84.33,98.21Z"/><path class="cls-22" d="M80.13,101.7c1.24.73,1,2.35,2,3.28.68.62,2.16.54,2.32-.57.28-1.88-2.67-4.12-4.35-3.16a.14.14,0,0,0-.07.15A.26.26,0,0,0,80.13,101.7Z"/><path class="cls-21" d="M81.34,102.29a4.49,4.49,0,0,0-.68-.88,4.27,4.27,0,0,1,2.1,1.44c.14.18,1.38,2.07.76,2.12s-.83-.72-1-1.11C82.18,103.28,81.69,102.84,81.34,102.29Z"/><path class="cls-22" d="M96.1,105.87c.89.49.71,1.65,1.46,2.29.5.43,1.54.35,1.64-.45.16-1.33-2-2.87-3.15-2.16a.1.1,0,0,0,0,.11A.17.17,0,0,0,96.1,105.87Z"/><path class="cls-21" d="M97,106.27a3.31,3.31,0,0,0-.5-.62,3.11,3.11,0,0,1,1.52,1c.1.12,1,1.44.57,1.49s-.6-.5-.76-.77S97.22,106.65,97,106.27Z"/><path class="cls-22" d="M89.49,101.37c1.24,1.34.27,3.2,1.17,4.71.6,1,2.42,1.47,3,.18,1-2.17-1.69-6-4.09-5.46a.18.18,0,0,0-.13.16A.35.35,0,0,0,89.49,101.37Z"/><path class="cls-21" d="M90.75,102.54a6.83,6.83,0,0,0-.49-1.33,5.55,5.55,0,0,1,2,2.54c.1.26.88,3,.12,2.86s-.74-1.2-.84-1.75C91.38,104.05,91,103.33,90.75,102.54Z"/><path class="cls-22" d="M89.57,107.84a.14.14,0,0,0,.05-.15c-.55-1.71-4-2-4.94-.56-.59.86.37,1.83,1.23,1.84,1.28,0,2.09-1.28,3.4-1A.25.25,0,0,0,89.57,107.84Z"/><path class="cls-21" d="M86.35,108c-.38.13-1.07.48-1.41.11s1.64-.94,1.84-1a4,4,0,0,1,2.34.33,4.44,4.44,0,0,0-1,.17C87.53,107.78,86.92,107.77,86.35,108Z"/><path class="cls-22" d="M94.94,109.68a.09.09,0,0,0,0-.11c-.51-1.29-3.17-1.36-3.86-.18-.41.7.39,1.4,1,1.36,1-.06,1.56-1.1,2.58-1A.2.2,0,0,0,94.94,109.68Z"/><path class="cls-21" d="M92.45,110c-.29.13-.8.43-1.08.17s1.22-.82,1.37-.86a3.15,3.15,0,0,1,1.83.13,3.58,3.58,0,0,0-.78.2C93.36,109.74,92.88,109.77,92.45,110Z"/><path class="cls-22" d="M92.86,99.41a.15.15,0,0,0,0-.17c-.77-2-4.8-2.07-5.84-.29-.62,1.06.58,2.13,1.58,2.07,1.51-.08,2.37-1.66,3.91-1.43A.29.29,0,0,0,92.86,99.41Z"/><path class="cls-21" d="M89.09,99.81c-.44.19-1.22.65-1.64.24s1.84-1.23,2.08-1.28A4.65,4.65,0,0,1,92.3,99a5.21,5.21,0,0,0-1.18.28C90.46,99.5,89.73,99.54,89.09,99.81Z"/><path class="cls-22" d="M80.61,108.31c1,.82.52,2.22,1.3,3.18.53.65,1.85.79,2.15-.18.51-1.63-1.8-4-3.43-3.41a.14.14,0,0,0-.07.12A.26.26,0,0,0,80.61,108.31Z"/><path class="cls-21" d="M81.61,109a4.43,4.43,0,0,0-.48-.88,4,4,0,0,1,1.67,1.58c.1.17.92,2,.37,2s-.64-.77-.77-1.14C82.21,110,81.84,109.54,81.61,109Z"/><path class="cls-21" d="M118.3,111.32a4.94,4.94,0,0,0,.23.68,1.69,1.69,0,0,0,0,1.87,2.66,2.66,0,0,0,1.58,1.09,1.32,1.32,0,0,0,1.47-1.71,2.78,2.78,0,0,0-1.09-1.24c.13.18.08.13-.15-.16a1.16,1.16,0,0,0-.65-.35A.81.81,0,0,1,119,111C118.75,110.6,118.19,110.94,118.3,111.32Z"/><path class="cls-21" d="M106.5,115.36a1.31,1.31,0,0,0-.13.59c0-.26-.11.14-.15.21a9.41,9.41,0,0,0-.25.91.17.17,0,0,0,.26.17c.2-.14.41-.19.61-.32l.31-.17-.09,0a1.09,1.09,0,0,0,.36,0,2.34,2.34,0,0,0,2.07-1,1.15,1.15,0,0,0-.53-1.55A1.9,1.9,0,0,0,106.5,115.36Z"/><path class="cls-21" d="M115.8,108.32l-.06-.08a2.45,2.45,0,0,0-.36-.36.2.2,0,0,0-.31.06,1.83,1.83,0,0,0-.21.69,2.09,2.09,0,0,0-.35.7,2,2,0,0,0,.12,1.22,1.38,1.38,0,1,0,2.45-1.21,2.52,2.52,0,0,0-1-.94C115.8,108.23,115.78,108.27,115.8,108.32Z"/><path class="cls-21" d="M115.52,113.31a2.72,2.72,0,0,0-.32,2.18c.06.32.07.65.14,1a1.32,1.32,0,0,0,.53.7.34.34,0,0,0,.56-.19,12.73,12.73,0,0,0,.19-1.26,1.06,1.06,0,0,1,.23-.43c0-.06.05-.08.13-.08a1.19,1.19,0,0,0,.47-.61C118,113.43,116.36,112.25,115.52,113.31Z"/><path class="cls-21" d="M109.16,108.3c0,.24-.09.48-.12.71a1.72,1.72,0,0,0-.85,1.67,2.65,2.65,0,0,0,.87,1.71,1.32,1.32,0,0,0,2.11-.8,2.87,2.87,0,0,0-.37-1.62q0,.34-.06-.21a1.09,1.09,0,0,0-.41-.62.79.79,0,0,1-.43-.81C109.9,107.89,109.25,107.92,109.16,108.3Z"/><path class="cls-21" d="M96.87,106.24a1.21,1.21,0,0,0-.4.47c.1-.25-.17.07-.23.11a7,7,0,0,0-.65.68c-.11.1,0,.3.14.28s.45,0,.69,0h.35l-.06-.07a1.23,1.23,0,0,0,.32.17,2.32,2.32,0,0,0,2.32.06,1.16,1.16,0,0,0,.27-1.61A1.9,1.9,0,0,0,96.87,106.24Z"/><path class="cls-21" d="M108.39,104.47a.39.39,0,0,0,0-.09,2.77,2.77,0,0,0-.15-.49.2.2,0,0,0-.3-.09,1.87,1.87,0,0,0-.51.5,2.26,2.26,0,0,0-.64.45,2,2,0,0,0-.48,1.13,1.38,1.38,0,1,0,2.74.1,2.66,2.66,0,0,0-.44-1.3C108.44,104.4,108.4,104.43,108.39,104.47Z"/><path class="cls-21" d="M105.77,108.74a2.67,2.67,0,0,0-1.31,1.76c-.11.31-.26.6-.35.93a1.39,1.39,0,0,0,.13.87.35.35,0,0,0,.59.09c.29-.32.5-.66.76-1a1.13,1.13,0,0,1,.41-.27s.08,0,.15,0a1.2,1.2,0,0,0,.71-.31C107.91,110,107,108.2,105.77,108.74Z"/><path class="cls-21" d="M130.44,120.76a4.91,4.91,0,0,0-.68.22,1.71,1.71,0,0,0-1.88,0,2.69,2.69,0,0,0-1.12,1.55,1.32,1.32,0,0,0,1.68,1.51,2.79,2.79,0,0,0,1.27-1.06c-.19.12-.14.08.16-.15a1.18,1.18,0,0,0,.36-.64.82.82,0,0,1,.52-.77C131.15,121.22,130.83,120.66,130.44,120.76Z"/><path class="cls-21" d="M126.64,108.88a1.31,1.31,0,0,0-.59-.14c.27,0-.14-.11-.21-.15a9.32,9.32,0,0,0-.9-.27c-.15,0-.26.15-.18.26s.19.41.31.62l.17.31,0-.09a1.45,1.45,0,0,0,0,.36,2.32,2.32,0,0,0,1,2.09,1.15,1.15,0,0,0,1.55-.5A1.9,1.9,0,0,0,126.64,108.88Z"/><path class="cls-21" d="M133.49,118.32l.08,0a2.51,2.51,0,0,0,.37-.36.2.2,0,0,0-.06-.31,1.75,1.75,0,0,0-.68-.22,2.05,2.05,0,0,0-.69-.36,2,2,0,0,0-1.23.08,1.39,1.39,0,1,0,1.17,2.49,2.66,2.66,0,0,0,1-1C133.58,118.33,133.54,118.31,133.49,118.32Z"/><path class="cls-21" d="M128.5,117.94a2.71,2.71,0,0,0-2.16-.36c-.33,0-.66,0-1,.12a1.4,1.4,0,0,0-.71.51.34.34,0,0,0,.18.57c.42.1.82.14,1.25.21a1.1,1.1,0,0,1,.43.25s.08,0,.08.12a1.18,1.18,0,0,0,.59.49C128.34,120.43,129.54,118.8,128.5,117.94Z"/><path class="cls-22" d="M115.06,107.3c.89.68.52,1.91,1.23,2.72.48.55,1.63.63,1.86-.22.39-1.44-1.69-3.45-3.09-2.85a.1.1,0,0,0-.07.1A.22.22,0,0,0,115.06,107.3Z"/><path class="cls-21" d="M116,107.87a3.55,3.55,0,0,0-.45-.75,3.35,3.35,0,0,1,1.5,1.32c.09.14.87,1.73.39,1.71s-.58-.64-.7-1S116.16,108.33,116,107.87Z"/><path class="cls-22" d="M111.75,111.36c1.24.72,1,2.35,2,3.27.69.62,2.16.55,2.32-.57.28-1.87-2.66-4.11-4.35-3.15a.15.15,0,0,0-.07.15A.28.28,0,0,0,111.75,111.36Z"/><path class="cls-21" d="M113,112a4.93,4.93,0,0,0-.69-.89,4.36,4.36,0,0,1,2.11,1.45c.14.17,1.37,2.06.75,2.12s-.83-.73-1-1.12C113.8,112.94,113.31,112.5,113,112Z"/><path class="cls-22" d="M127.72,115.53c.89.49.71,1.65,1.46,2.29.5.42,1.55.34,1.64-.45.16-1.34-2-2.87-3.15-2.16a.11.11,0,0,0,0,.1A.21.21,0,0,0,127.72,115.53Z"/><path class="cls-21" d="M128.59,115.92a3.61,3.61,0,0,0-.5-.61,3,3,0,0,1,1.52,1c.1.12,1,1.44.57,1.49s-.6-.5-.75-.78S128.84,116.31,128.59,115.92Z"/><path class="cls-22" d="M121.12,111c1.23,1.35.26,3.21,1.16,4.71.61,1,2.42,1.48,3,.19,1-2.17-1.69-6-4.1-5.46a.17.17,0,0,0-.13.15A.33.33,0,0,0,121.12,111Z"/><path class="cls-21" d="M122.37,112.19a6.36,6.36,0,0,0-.49-1.32,5.45,5.45,0,0,1,2,2.54c.1.26.88,3,.12,2.85s-.74-1.19-.84-1.74C123,113.71,122.57,113,122.37,112.19Z"/><path class="cls-22" d="M121.19,117.49a.12.12,0,0,0,0-.14c-.55-1.71-4-2-4.94-.57-.59.86.37,1.84,1.23,1.85,1.28,0,2.09-1.29,3.4-1A.24.24,0,0,0,121.19,117.49Z"/><path class="cls-21" d="M118,117.62c-.38.14-1.07.49-1.4.12s1.63-.94,1.84-1a4,4,0,0,1,2.34.32,4.27,4.27,0,0,0-1,.18C119.15,117.43,118.54,117.43,118,117.62Z"/><path class="cls-22" d="M126.56,119.34a.09.09,0,0,0,0-.11c-.51-1.3-3.17-1.36-3.86-.18-.41.69.39,1.4,1.06,1.36,1-.06,1.55-1.1,2.57-1A.21.21,0,0,0,126.56,119.34Z"/><path class="cls-21" d="M124.07,119.61c-.29.13-.8.43-1.08.16s1.22-.82,1.38-.85a3,3,0,0,1,1.82.13,3.55,3.55,0,0,0-.78.19C125,119.4,124.5,119.43,124.07,119.61Z"/><path class="cls-22" d="M124.48,109.07a.17.17,0,0,0,0-.17c-.78-2-4.8-2.07-5.85-.29-.62,1,.58,2.12,1.58,2.07,1.51-.09,2.37-1.67,3.91-1.43A.32.32,0,0,0,124.48,109.07Z"/><path class="cls-21" d="M120.71,109.47c-.44.19-1.22.65-1.64.24s1.85-1.23,2.08-1.28a4.65,4.65,0,0,1,2.77.2,5.5,5.5,0,0,0-1.18.29C122.08,109.16,121.36,109.19,120.71,109.47Z"/><path class="cls-22" d="M112.24,118c1,.81.51,2.22,1.3,3.18.52.64,1.84.78,2.14-.18.51-1.63-1.8-4-3.43-3.41a.12.12,0,0,0-.07.12A.25.25,0,0,0,112.24,118Z"/><path class="cls-21" d="M113.23,118.66a3.76,3.76,0,0,0-.48-.88,3.91,3.91,0,0,1,1.67,1.58c.1.17.93,2,.37,2s-.63-.76-.77-1.14C113.84,119.66,113.46,119.2,113.23,118.66Z"/><path class="cls-21" d="M147.05,120.21a4,4,0,0,0,.12.71,1.67,1.67,0,0,0-.27,1.85,2.71,2.71,0,0,0,1.37,1.34,1.33,1.33,0,0,0,1.74-1.45,2.76,2.76,0,0,0-.87-1.4c.1.2.06.14-.13-.18a1.14,1.14,0,0,0-.58-.46.81.81,0,0,1-.68-.62C147.61,119.58,147,119.82,147.05,120.21Z"/><path class="cls-21" d="M134.75,122.26a1.43,1.43,0,0,0-.23.57c0-.27-.13.12-.18.18-.18.28-.25.57-.4.86-.06.13.11.28.24.21s.43-.13.65-.22l.33-.12-.08,0a1.09,1.09,0,0,0,.36.06,2.31,2.31,0,0,0,2.21-.7,1.15,1.15,0,0,0-.28-1.61A1.89,1.89,0,0,0,134.75,122.26Z"/><path class="cls-21" d="M145.07,116.84l0-.08a2.47,2.47,0,0,0-.3-.42.2.2,0,0,0-.31,0,1.68,1.68,0,0,0-.32.64,2.06,2.06,0,0,0-.46.64,1.92,1.92,0,0,0-.09,1.23,1.38,1.38,0,1,0,2.62-.8,2.49,2.49,0,0,0-.83-1.09C145.09,116.75,145.06,116.79,145.07,116.84Z"/><path class="cls-21" d="M144,121.72a2.71,2.71,0,0,0-.67,2.09c0,.34,0,.66,0,1a1.4,1.4,0,0,0,.4.78.35.35,0,0,0,.59-.1c.16-.4.26-.79.39-1.21a1.27,1.27,0,0,1,.3-.39s.06-.07.14-.06a1.3,1.3,0,0,0,.57-.52C146.42,122.25,145,120.82,144,121.72Z"/><path class="cls-21" d="M138.53,115.74a4.54,4.54,0,0,0-.23.68,1.73,1.73,0,0,0-1.13,1.51,2.7,2.7,0,0,0,.59,1.82,1.32,1.32,0,0,0,2.21-.44,2.85,2.85,0,0,0-.1-1.66q0,.34,0-.21a1.13,1.13,0,0,0-.29-.68.8.8,0,0,1-.3-.87C139.32,115.45,138.68,115.37,138.53,115.74Z"/><path class="cls-21" d="M126.74,111.7a1.19,1.19,0,0,0-.47.39c.14-.23-.18,0-.25.08a5.85,5.85,0,0,0-.75.56c-.13.08,0,.29.09.3s.45.09.68.11l.35.06a.56.56,0,0,0,0-.08,1.23,1.23,0,0,0,.29.22,2.34,2.34,0,0,0,2.28.44,1.16,1.16,0,0,0,.52-1.55A1.89,1.89,0,0,0,126.74,111.7Z"/><path class="cls-21" d="M138.39,111.84a.28.28,0,0,0,0-.1,2.15,2.15,0,0,0-.07-.5.2.2,0,0,0-.28-.14,1.56,1.56,0,0,0-.58.41,2.2,2.2,0,0,0-.71.34,2,2,0,0,0-.66,1,1.38,1.38,0,1,0,2.68.54,2.51,2.51,0,0,0-.21-1.35C138.45,111.77,138.41,111.79,138.39,111.84Z"/><path class="cls-21" d="M135.11,115.61a2.7,2.7,0,0,0-1.58,1.53c-.16.29-.35.55-.5.85a1.43,1.43,0,0,0,0,.89.35.35,0,0,0,.57.19c.33-.28.6-.57.91-.88a1.22,1.22,0,0,1,.45-.2s.08,0,.15,0a1.24,1.24,0,0,0,.75-.19A1.18,1.18,0,0,0,135.11,115.61Z"/><path class="cls-21" d="M157.48,131.51a5.52,5.52,0,0,0-.71.1,1.7,1.7,0,0,0-1.85-.3,2.67,2.67,0,0,0-1.36,1.35,1.32,1.32,0,0,0,1.41,1.76,2.79,2.79,0,0,0,1.43-.84q-.32.13.18-.12a1.14,1.14,0,0,0,.46-.58.8.8,0,0,1,.64-.66C158.11,132.08,157.88,131.47,157.48,131.51Z"/><path class="cls-21" d="M155.67,119.17a1.22,1.22,0,0,0-.55-.23c.26,0-.12-.14-.18-.18a7.44,7.44,0,0,0-.85-.42.17.17,0,0,0-.22.22c.1.22.11.44.2.67s.08.21.12.33l0-.09a1.51,1.51,0,0,0-.06.36,2.3,2.3,0,0,0,.65,2.22,1.14,1.14,0,0,0,1.62-.24A1.9,1.9,0,0,0,155.67,119.17Z"/><path class="cls-21" d="M160.89,129.6l.08,0a1.75,1.75,0,0,0,.42-.29.19.19,0,0,0,0-.31,1.69,1.69,0,0,0-.63-.34,2.08,2.08,0,0,0-.63-.47,2,2,0,0,0-1.22-.11,1.38,1.38,0,1,0,.74,2.64,2.59,2.59,0,0,0,1.11-.82C161,129.62,160.94,129.59,160.89,129.6Z"/><path class="cls-21" d="M156,128.41a2.71,2.71,0,0,0-2.08-.71c-.33,0-.65,0-1,0a1.46,1.46,0,0,0-.79.4.35.35,0,0,0,.09.59c.4.17.79.27,1.2.41a1.13,1.13,0,0,1,.38.31c.06,0,.08.06.06.14a1.25,1.25,0,0,0,.51.58C155.46,130.84,156.92,129.43,156,128.41Z"/><path class="cls-22" d="M144.51,115.72c.77.81.2,2,.77,2.88.38.62,1.51.89,1.87.09.61-1.36-1.11-3.68-2.58-3.32a.09.09,0,0,0-.08.09A.2.2,0,0,0,144.51,115.72Z"/><path class="cls-21" d="M145.29,116.42a3.11,3.11,0,0,0-.32-.81,3.36,3.36,0,0,1,1.27,1.55c.06.15.57,1.84.1,1.75s-.46-.73-.53-1.06C145.7,117.35,145.43,116.91,145.29,116.42Z"/><path class="cls-22" d="M140.58,119.18c1.11.92.55,2.47,1.42,3.55.57.73,2,.89,2.38-.18.58-1.8-2-4.5-3.77-3.82a.13.13,0,0,0-.09.13A.26.26,0,0,0,140.58,119.18Z"/><path class="cls-21" d="M141.68,120a4.3,4.3,0,0,0-.53-1,4.27,4.27,0,0,1,1.84,1.78c.11.19,1,2.26.4,2.21s-.7-.85-.84-1.27C142.34,121.07,141.93,120.56,141.68,120Z"/><path class="cls-22" d="M155.65,125.9c.81.63.44,1.75,1.07,2.5.42.5,1.47.59,1.69-.17.38-1.29-1.47-3.16-2.75-2.65a.11.11,0,0,0-.06.1A.19.19,0,0,0,155.65,125.9Z"/><path class="cls-21" d="M156.45,126.44a3.36,3.36,0,0,0-.4-.69,3,3,0,0,1,1.34,1.22c.08.14.76,1.59.33,1.57s-.52-.6-.63-.89S156.63,126.86,156.45,126.44Z"/><path class="cls-22" d="M149.87,120.38c1,1.53-.26,3.2.39,4.84.43,1.09,2.14,1.85,3,.67,1.38-2-.69-6.18-3.14-6a.17.17,0,0,0-.16.13A.35.35,0,0,0,149.87,120.38Z"/><path class="cls-21" d="M150.92,121.74a6,6,0,0,0-.27-1.39,5.39,5.39,0,0,1,1.56,2.84c.06.27.38,3.11-.35,2.83s-.53-1.3-.54-1.86C151.3,123.34,151,122.56,150.92,121.74Z"/><path class="cls-22" d="M148.89,126.77a.13.13,0,0,0,.08-.13c-.27-1.77-3.58-2.64-4.79-1.37-.72.76.07,1.87.91,2,1.27.22,2.28-.92,3.52-.43A.23.23,0,0,0,148.89,126.77Z"/><path class="cls-21" d="M145.69,126.38c-.4.07-1.13.3-1.4-.12s1.77-.66,2-.66a4,4,0,0,1,2.26.71,4,4,0,0,0-1,0C146.89,126.38,146.29,126.27,145.69,126.38Z"/><path class="cls-22" d="M153.89,129.47a.08.08,0,0,0,0-.1c-.29-1.36-2.9-1.86-3.77-.81-.52.62.15,1.44.81,1.52,1,.1,1.72-.84,2.7-.52A.21.21,0,0,0,153.89,129.47Z"/><path class="cls-21" d="M151.39,129.33c-.31.08-.86.3-1.09,0s1.33-.61,1.49-.62a3.1,3.1,0,0,1,1.78.43,3.09,3.09,0,0,0-.8.06C152.32,129.27,151.84,129.22,151.39,129.33Z"/><path class="cls-22" d="M153.51,119a.16.16,0,0,0,.08-.16c-.45-2.06-4.4-2.82-5.72-1.24-.79.94.22,2.19,1.22,2.3,1.5.16,2.61-1.25,4.09-.77A.3.3,0,0,0,153.51,119Z"/><path class="cls-21" d="M149.73,118.78c-.47.11-1.31.44-1.66,0s2-.92,2.27-.93a4.74,4.74,0,0,1,2.7.66,5,5,0,0,0-1.22.09C151.13,118.69,150.41,118.61,149.73,118.78Z"/><path class="cls-22" d="M140,125.78c.86,1,.14,2.27.76,3.35.42.72,1.7,1.07,2.15.17.76-1.52-1.12-4.27-2.83-3.92-.06,0-.08.06-.09.11A.24.24,0,0,0,140,125.78Z"/><path class="cls-21" d="M140.85,126.62a4.65,4.65,0,0,0-.33-1,4,4,0,0,1,1.39,1.83c.06.19.58,2.15,0,2s-.5-.86-.57-1.25C141.28,127.71,141,127.19,140.85,126.62Z"/></g></g></g></svg>