<svg xmlns="http://www.w3.org/2000/svg" xmlns:xlink="http://www.w3.org/1999/xlink" viewBox="0 0 216 216"><defs><style>.cls-1{isolation:isolate;}.cls-2{fill:#ccc;}.cls-10,.cls-11,.cls-14,.cls-19,.cls-20,.cls-22,.cls-3{mix-blend-mode:multiply;}.cls-3{fill:url(#radial-gradient);}.cls-4{fill:#ebe0cc;}.cls-5{fill:#fff4de;}.cls-6{fill:#bfac95;}.cls-7{fill:#4f402d;}.cls-8{fill:#d4c7b6;}.cls-9{fill:#66421a;}.cls-10{opacity:0.7;fill:url(#radial-gradient-2);}.cls-11{fill:url(#radial-gradient-3);}.cls-12,.cls-15,.cls-16,.cls-17,.cls-24,.cls-27{mix-blend-mode:overlay;}.cls-12{fill:url(#radial-gradient-4);}.cls-13{fill:#dedede;}.cls-14{fill:url(#radial-gradient-5);}.cls-15,.cls-23{fill:#fff;}.cls-15,.cls-17{opacity:0.3;}.cls-16{fill:url(#radial-gradient-6);}.cls-17,.cls-24{fill:#1d1d1b;}.cls-18{fill:#f5f5f5;}.cls-19{fill:url(#radial-gradient-7);}.cls-20{fill:#e8e8d9;opacity:0.4;}.cls-21{fill:#f0f0f0;}.cls-22{fill:url(#radial-gradient-8);}.cls-24{opacity:0.1;}.cls-25{fill:#616161;}.cls-26{fill:#e8e8e8;}.cls-27{fill:url(#radial-gradient-9);}.cls-28{fill:#c2c2c2;}.cls-29{fill:#ebebeb;}.cls-30{fill:#a6a6a6;}.cls-31{fill:#707070;}</style><radialGradient id="radial-gradient" cx="241.03" cy="-5545.71" r="25.9" gradientTransform="matrix(1.83, -0.02, 0, 0.44, -307.08, 2655.33)" gradientUnits="userSpaceOnUse"><stop offset="0" stop-color="#7b6c4e"/><stop offset="0.34" stop-color="#a99f8c"/><stop offset="0.57" stop-color="#cac4b8"/><stop offset="0.68" stop-color="#d9d5cc"/><stop offset="0.91" stop-color="#fff"/></radialGradient><radialGradient id="radial-gradient-2" cx="95.27" cy="95.2" r="46.21" gradientTransform="translate(-33.81 -100.06) scale(1.52 1.52)" gradientUnits="userSpaceOnUse"><stop offset="0.44" stop-color="#fff"/><stop offset="0.48" stop-color="#fcfaf8"/><stop offset="0.53" stop-color="#f5ebe5"/><stop offset="0.6" stop-color="#e9d3c5"/><stop offset="0.67" stop-color="#d7b199"/><stop offset="0.75" stop-color="#c28761"/><stop offset="0.76" stop-color="#bf815a"/><stop offset="0.76" stop-color="#c28761"/><stop offset="0.86" stop-color="#e3c7b6"/><stop offset="0.92" stop-color="#f7efeb"/><stop offset="0.95" stop-color="#fff"/></radialGradient><radialGradient id="radial-gradient-3" cx="194.2" cy="151.4" r="130.76" gradientTransform="translate(-33.81 -100.06) scale(1.52 1.52)" gradientUnits="userSpaceOnUse"><stop offset="0.63" stop-color="#fff"/><stop offset="0.66" stop-color="#faf9f8"/><stop offset="0.71" stop-color="#ede9e5"/><stop offset="0.77" stop-color="#d7cfc5"/><stop offset="0.83" stop-color="#b8ab9a"/><stop offset="0.85" stop-color="#ad9e8a"/><stop offset="0.89" stop-color="#ccc3b6"/><stop offset="0.93" stop-color="#f1eeeb"/><stop offset="0.95" stop-color="#fff"/></radialGradient><radialGradient id="radial-gradient-4" cx="89.75" cy="62.73" r="142.56" gradientTransform="translate(-33.81 -100.06) scale(1.52 1.52)" gradientUnits="userSpaceOnUse"><stop offset="0"/><stop offset="1" stop-color="gray"/></radialGradient><radialGradient id="radial-gradient-5" cx="156.1" cy="127.93" r="94.77" gradientTransform="translate(-33.81 -100.06) scale(1.52 1.52)" gradientUnits="userSpaceOnUse"><stop offset="0.44" stop-color="#fff"/><stop offset="0.5" stop-color="#f8f8f8"/><stop offset="0.59" stop-color="#e5e5e5"/><stop offset="0.69" stop-color="#c5c5c5"/><stop offset="0.76" stop-color="#adadad"/><stop offset="0.78" stop-color="#b6b6b6"/><stop offset="0.9" stop-color="#ebebeb"/><stop offset="0.95" stop-color="#fff"/></radialGradient><radialGradient id="radial-gradient-6" cx="126.38" cy="134" r="62.76" gradientTransform="translate(-33.81 -100.06) scale(1.52 1.52)" gradientUnits="userSpaceOnUse"><stop offset="0" stop-color="#fff"/><stop offset="0.14" stop-color="#f8f8f8"/><stop offset="0.34" stop-color="#e5e5e5"/><stop offset="0.58" stop-color="#c6c6c6"/><stop offset="0.85" stop-color="#9c9c9c"/><stop offset="1" stop-color="gray"/></radialGradient><radialGradient id="radial-gradient-7" cx="45.35" cy="114.57" r="57.26" xlink:href="#radial-gradient-5"/><radialGradient id="radial-gradient-8" cx="91.29" cy="171.55" r="57.52" gradientTransform="translate(-33.81 -100.06) scale(1.52 1.52)" gradientUnits="userSpaceOnUse"><stop offset="0.44" stop-color="#fff"/><stop offset="0.48" stop-color="#f8f8f8"/><stop offset="0.53" stop-color="#e5e5e5"/><stop offset="0.6" stop-color="#c5c5c5"/><stop offset="0.65" stop-color="#adadad"/><stop offset="0.68" stop-color="#b6b6b6"/><stop offset="0.86" stop-color="#ebebeb"/><stop offset="0.95" stop-color="#fff"/></radialGradient><radialGradient id="radial-gradient-9" cx="128.38" cy="89.42" r="43.22" xlink:href="#radial-gradient-6"/></defs><title>itacate</title><g class="cls-1"><g id="Capa_1" data-name="Capa 1"><rect class="cls-2" width="216" height="216" rx="20.85"/><path class="cls-3" d="M160.65,192.31c0,6.35-21.12,11.66-47.29,11.88s-47.43-4.75-47.48-11.09S87,181.44,113.17,181.22,160.6,186,160.65,192.31Z"/><path class="cls-4" d="M86.92,176l1,11.66c6.41,10.57,44.68,10.57,51.09,0L140.11,176Z"/><path class="cls-5" d="M141.86,182.5c-6.93,10.39-49.75,10.39-56.68,0l-8.4-91.07h73.47Z"/><path class="cls-6" d="M77.28,117.06l5.21,56.49A4.29,4.29,0,0,0,84.72,177a62.5,62.5,0,0,0,57.56,0,4.37,4.37,0,0,0,2.27-3.45l5.2-56.49A123.78,123.78,0,0,1,77.28,117.06Z"/><path class="cls-7" d="M149.75,117.07l-.72,7.81a123.73,123.73,0,0,1-71,0l-.73-7.81A123.94,123.94,0,0,0,149.75,117.07Z"/><path class="cls-7" d="M144.86,170.16l-.31,3.39a4.31,4.31,0,0,1-2.27,3.45,62.48,62.48,0,0,1-57.56,0,4.29,4.29,0,0,1-2.23-3.43l-.32-3.37a5.38,5.38,0,0,0,.93.62,69.32,69.32,0,0,0,60.81,0A4.2,4.2,0,0,0,144.86,170.16Z"/><path class="cls-8" d="M149.75,116.91c0-.49-.71-.9-1.74-1.12l-.17,1.8a123.55,123.55,0,0,1-68.65,0L79,115.79c-1,.22-1.75.63-1.75,1.12a.47.47,0,0,0,0,.16h0l.06.6a123.9,123.9,0,0,0,72.36,0l.05-.6h0A.45.45,0,0,0,149.75,116.91Z"/><path class="cls-9" d="M129.57,143.85c-1.84-1.31-3.95-2.7-4.46-4.73-1.61.68-2.25,2.61-1.92,5.39,0,4.36,9.5,13.88,13.84,8.88C136,149.47,133.14,146.43,129.57,143.85Z"/><path class="cls-9" d="M129.34,139.23a8.84,8.84,0,0,0-3.27-.35c.47,1.89,2.79,3.06,4.3,4.19a38,38,0,0,1,4.56,3.9,15,15,0,0,1,3,4.59,7.83,7.83,0,0,0,.28-2.06C138.28,144.37,134.34,140.5,129.34,139.23Z"/><path class="cls-9" d="M120.4,156.88c-1.21,4.56,7.09,7.44,9.36,10.91C132.84,163.14,125.16,156.51,120.4,156.88Z"/><path class="cls-9" d="M122.06,162.84c-1.9-1.7-3.17-3.62-2.87-5.69a5.67,5.67,0,0,0-2.08,1.3c-5.26,4.25,3.72,16.11,11.44,10.57C128.05,166.6,124.1,164.74,122.06,162.84Z"/><path class="cls-9" d="M110.71,140.1c-3.31-1.45-9.8-.09-12.81,2.27-2.14,1.84-3,4.06-2.24,6C98.85,145.12,107.9,144.07,110.71,140.1Z"/><path class="cls-9" d="M111.59,140.63c-1.45,2-4.16,3.31-6.58,4.38-2.65,1.27-7.08,2.37-8.52,4.71,1.38,1.54,4.15,2.66,8,2.33,4.42-.35,8.55-3.79,8.7-7C113.33,142.89,112.66,141.48,111.59,140.63Z"/><path class="cls-10" d="M149.75,117.07h0a.45.45,0,0,0,0-.16c0-.49-.71-.9-1.74-1.12l-.17,1.8h0l2.41-26.16H76.78L79.2,117.6h0L79,115.79c-1,.22-1.75.63-1.75,1.12a.47.47,0,0,0,0,.16h0l0,.3,4.87,52.81h0l.12,1.2.2,2.17a4.34,4.34,0,0,0,.58,1.79,4.14,4.14,0,0,0,1.59,1.6l.52,5.56A9.23,9.23,0,0,0,87.73,185l.24,2.67c6.41,10.57,44.68,10.57,51.09,0l.24-2.67a9.41,9.41,0,0,0,2.56-2.45l.51-5.56a4.3,4.3,0,0,0,2.18-3.39l.31-3.39h0l4.47-48.55Z"/><path class="cls-11" d="M149.75,116.9a.47.47,0,0,1,0,.17h0l-.42,4.55-4.47,48.54-.31,3.39a4.33,4.33,0,0,1-2.18,3.39l-.51,5.57A9.39,9.39,0,0,1,139.3,185l-.24,2.67c-3.08,5.07-13.5,7.71-24.21,7.9-1,0-1.93,0-2.89,0s-2-.07-3.06-.14c-1.51-.09-3-.24-4.46-.45l-.18,0-1.28-.2c-.47-.07-1-.16-1.4-.24-.93-.19-1.84-.39-2.71-.61-.45-.11-.87-.23-1.29-.36s-.83-.24-1.24-.38l-1-.38-.12,0c-.38-.14-.76-.29-1.11-.46s-.68-.29-1-.44l-.06,0c-.34-.17-.67-.35-1-.52a10.72,10.72,0,0,1-4-3.62L87.73,185a9.54,9.54,0,0,1-2.56-2.44l-.5-5.57a4.26,4.26,0,0,1-1.61-1.6,4.59,4.59,0,0,1-.57-1.79l-.2-2.17-.12-1.2-4.86-52.81,0-.3h0a.58.58,0,0,1,0-.18c0-.48.72-.89,1.75-1.11l-1-10.33-1.28-14h73.47L149,105.26l-1.14,12.33.18-1.8C149,116,149.75,116.42,149.75,116.9Z"/><path class="cls-12" d="M150.25,91.43,149,105.26c-7.44,2.31-18.59,3.89-31.27,4.19l-2.85,86.07c-1,0-1.93,0-2.89,0s-2-.07-3.06-.14c-1.51-.09-3-.25-4.46-.45l-.18,0-1.28-.2c-.47-.07-1-.16-1.4-.24-.93-.19-1.84-.39-2.71-.61-.45-.11-.87-.23-1.29-.36s-.83-.24-1.24-.38l-1-.38-.12,0c-.38-.14-.76-.29-1.11-.46s-.68-.29-1-.44l-.06,0c-.34-.17-.67-.35-1-.52L84.2,107c-2.24-.45-4.3-1-6.14-1.49l-1.28-14Z"/><path class="cls-13" d="M155,80.36c-2.67-1-6.35-1.37-10.66-1.37l1.39,4.64c-8.23-2-19.63-3.27-32.23-3.27C102.7,80.36,91.39,79,82.68,79c-4.31,0-8,.34-10.66,1.37-4.45,1.71-3.94,8.89-3.94,11.07,0,2.46,3.31,4.73,8.89,6.57,8.28,2.73,21.56,4.5,36.55,4.5,25.09,0,45.43-5,45.43-11.07C159,89.25,159.46,82.07,155,80.36Z"/><path class="cls-14" d="M155,80.36c-2.67-1-6.35-1.37-10.66-1.37l1.39,4.64c-8.23-2-19.63-3.27-32.23-3.27C102.7,80.36,91.39,79,82.68,79c-4.31,0-8,.34-10.66,1.37-4.45,1.71-3.94,8.89-3.94,11.07,0,2.46,3.31,4.73,8.89,6.57,8.28,2.73,21.56,4.5,36.55,4.5,25.09,0,45.43-5,45.43-11.07C159,89.25,159.46,82.07,155,80.36Z"/><path class="cls-15" d="M145.4,82.46h0L144.38,79h0Z"/><path class="cls-16" d="M158.21,84a27,27,0,0,1,.42,6.25c0,6.11-20.34,11.07-45.44,11.07-15,0-28.27-1.77-36.54-4.5-4.54-1.49-7.58-3.27-8.55-5.21C68.27,94,71.54,96.21,77,98c8.28,2.73,21.56,4.5,36.55,4.5,25.09,0,45.43-5,45.43-11.07A22.75,22.75,0,0,0,158.21,84Z"/><path class="cls-15" d="M149.75,117.06h0a.45.45,0,0,0,0-.16c0-.49-.71-.9-1.74-1.12l-.17,1.8h0l1.24-13.46h0l-.11,1.13c-7.44,2.31-18.59,3.89-31.27,4.19l-.39,11.82c2,20.35,11.62,39.5,25.93,55a4.33,4.33,0,0,0,1.31-2.74l.31-3.39h0l4.47-48.55.42-4.55h0Z"/><path class="cls-15" d="M72,80.36c-4.45,1.71-3.94,8.89-3.94,11.07,0,2.35,3,4.52,8.15,6.32l.48-18.46A19.92,19.92,0,0,0,72,80.36Z"/><path class="cls-17" d="M124.75,102.15l-.87-21.5c-3.33-.19-6.79-.29-10.36-.29-8.17,0-16.62-.79-24-1.17l-.76,21.52a161.23,161.23,0,0,0,24.77,1.79C117.4,102.5,121.16,102.38,124.75,102.15Z"/><path class="cls-15" d="M155,80.36c-2.67-1-6.35-1.37-10.66-1.37l1.39,4.64c-1.72-.43-3.59-.81-5.57-1.16l1.15,17.71C152.05,98.15,159,95,159,91.43,159,89.25,159.46,82.07,155,80.36Z"/><path class="cls-18" d="M150.25,70.21c-.17-.06-.37-.09-.55-.14a24.71,24.71,0,0,0-8.5-.37S124,72.93,113.52,72.93c-14,0-28.16-5.08-36.19-2.86-.18.05-.37.08-.55.14C75.47,81.36,70,81.17,70,83.53c0,2.17,2.69,4.19,7.3,5.88,7.8,2.84,21.09,4.71,36.19,4.71A145.23,145.23,0,0,0,141.2,91.7h0l.09,0c.74-.15,1.46-.31,2.17-.47l.33-.08.92-.22h0c1.83-.46,3.52-1,5-1.49,4.61-1.69,7.31-3.71,7.31-5.88C157,81.17,151.56,81.36,150.25,70.21Z"/><path class="cls-19" d="M157,83.53c0,2.18-2.7,4.2-7.31,5.87a49.34,49.34,0,0,1-5,1.5h0l-.91.21a2.37,2.37,0,0,1-.34.08c-.71.17-1.43.33-2.18.48h-.08a143.47,143.47,0,0,1-27.68,2.44c-15.1,0-28.39-1.88-36.19-4.73-4.61-1.67-7.3-3.69-7.3-5.87,0-2.37,5.45-2.17,6.76-13.32.16-.06.36-.09.54-.14,8-2.22,22.17,2.87,36.19,2.87,10.52,0,27.68-3.24,27.68-3.24a24.72,24.72,0,0,1,8.5.37c.18.05.38.08.55.14.07.63.17,1.24.27,1.81C152.17,81.35,157,81.3,157,83.53Z"/><path class="cls-20" d="M113.52,72.93c-10.2,0-20.46-2.68-28.38-3.29L79.18,90c8,2.49,20.37,4.1,34.34,4.1,1.66,0,3.29,0,4.89-.07l-1.14-21.23C116,72.89,114.7,72.93,113.52,72.93Z"/><path class="cls-21" d="M153.26,79.12h0a1.63,1.63,0,0,1,.15.66c0,2.17-2.47,4.19-6.69,5.87a43.34,43.34,0,0,1-4.58,1.49v0l-.83.21-.31.08c-.65.17-1.31.32-2,.47l-.09,0h0a121.31,121.31,0,0,1-25.35,2.43c-13.83,0-26-1.87-33.16-4.72C76.14,84,73.68,82,73.68,79.78a1.63,1.63,0,0,1,.15-.66h0C72,81.63,70,82.13,70,83.53c0,2.17,2.69,4.19,7.3,5.88,7.8,2.84,21.09,4.71,36.19,4.71A145.23,145.23,0,0,0,141.2,91.7h0l.09,0c.74-.15,1.46-.31,2.17-.47l.33-.08.92-.22h0c1.83-.46,3.52-1,5-1.49,4.61-1.69,7.31-3.71,7.31-5.88C157,82.13,155.09,81.63,153.26,79.12Z"/><path class="cls-22" d="M153.26,79.12h0a1.63,1.63,0,0,1,.15.66c0,2.17-2.47,4.19-6.69,5.87a43.34,43.34,0,0,1-4.58,1.49v0l-.83.21-.31.08c-.65.17-1.31.32-2,.47l-.09,0h0a121.31,121.31,0,0,1-25.35,2.43c-13.83,0-26-1.87-33.16-4.72C76.14,84,73.68,82,73.68,79.78a1.63,1.63,0,0,1,.15-.66h0C72,81.63,70,82.13,70,83.53c0,2.17,2.69,4.19,7.3,5.88,7.8,2.84,21.09,4.71,36.19,4.71A145.23,145.23,0,0,0,141.2,91.7h0l.09,0c.74-.15,1.46-.31,2.17-.47l.33-.08.92-.22h0c1.83-.46,3.52-1,5-1.49,4.61-1.69,7.31-3.71,7.31-5.88C157,82.13,155.09,81.63,153.26,79.12Z"/><path class="cls-23" d="M153.26,79.12h0a1.63,1.63,0,0,1,.15.66,2.87,2.87,0,0,1-.14.86c1.33,1.28,2.42,1.83,2.42,2.89,0,2.17-2.69,4.19-7.3,5.88-1.47.53-3.16,1-5,1.49h0l-.91.22-.34.08c-.7.16-1.42.32-2.17.47l-.09,0h0a144.4,144.4,0,0,1-27.11,2.42h.8A145.23,145.23,0,0,0,141.2,91.7h0l.09,0c.74-.15,1.46-.31,2.17-.47l.33-.08.92-.22h0c1.83-.46,3.52-1,5-1.49,4.61-1.69,7.31-3.71,7.31-5.88C157,82.13,155.09,81.63,153.26,79.12Z"/><path class="cls-23" d="M79,85.65c7.14,2.85,19.32,4.72,33.15,4.72h.57c-13.49-.07-25.35-1.92-32.36-4.71C76.14,84,73.68,82,73.68,79.78a1.63,1.63,0,0,1,.15-.66h0a11.64,11.64,0,0,1-1.33,1.52C73,82.48,75.34,84.19,79,85.65Z"/><path class="cls-15" d="M153.26,79.12h0a1.63,1.63,0,0,1,.15.66c0,2.17-2.47,4.19-6.69,5.87a43.34,43.34,0,0,1-4.58,1.49v0l-.83.21-.31.08c-.65.17-1.31.32-2,.47l-.09,0h0l-.44.09,2.25,3.76c.17,0,.35-.06.52-.09h0l.09,0c.74-.15,1.46-.31,2.17-.47l.33-.08.92-.22h0c1.83-.46,3.52-1,5-1.49,4.61-1.69,7.31-3.71,7.31-5.88C157,82.13,155.09,81.63,153.26,79.12Z"/><path class="cls-24" d="M113.52,90.37a123,123,0,0,1-24.86-2.32l-.69,4a150.15,150.15,0,0,0,25.55,2c4.69,0,9.18-.19,13.41-.52l-1-3.77C122.05,90.18,117.87,90.37,113.52,90.37Z"/><path class="cls-15" d="M80.36,85.65C76.14,84,73.68,82,73.68,79.78a1.63,1.63,0,0,1,.15-.66h0C72,81.63,70,82.13,70,83.53c0,2,2.4,3.94,6.51,5.56l4.36-3.24Z"/><path class="cls-25" d="M145.73,82.93c0,.06,0,.11,0,.16h0Z"/><path class="cls-26" d="M76.78,70.21c0,4.34,16.45,7.85,36.74,7.85s36.73-3.51,36.73-7.85-16.44-7.85-36.73-7.85S76.78,65.87,76.78,70.21Z"/><path class="cls-27" d="M76.78,70.21c0,4.34,16.45,7.85,36.74,7.85s36.73-3.51,36.73-7.85-16.44-7.85-36.73-7.85S76.78,65.87,76.78,70.21Z"/><path class="cls-23" d="M150.52,72c-2.61,3.78-17.89,6.7-36.35,6.7C96,78.72,81,75.91,78,72.21c4.13,3.37,18.48,5.85,35.53,5.85,20.28,0,36.73-3.52,36.73-7.85C150.32,70.84,150.42,71.45,150.52,72Z"/><path class="cls-25" d="M140.72,69.77s0,.08,0,.11h0Z"/><path class="cls-13" d="M140.77,69.88h0s0,.06,0,.09c0,3.08-12.2,5.58-27.23,5.58S86.29,73.05,86.29,70a1.52,1.52,0,0,1,0-.21h0l-.52,2.6c4.12,2.42,15,4.15,27.73,4.15,13.22,0,24.42-1.86,28.15-4.43Z"/><path class="cls-28" d="M113.52,63.9C97.23,63.9,84,66.73,84,70.21c0,.75.62,1.48,1.76,2.15l.52-2.6h0c.56-3,12.51-5.37,27.2-5.37s26.67,2.39,27.2,5.38l.05.11.9,2.2A2.45,2.45,0,0,0,143,70.21C143,66.73,129.8,63.9,113.52,63.9Z"/><path class="cls-29" d="M86.29,70c0,3.09,12.19,5.58,27.23,5.58s27.23-2.49,27.23-5.58-12.19-5.58-27.23-5.58S86.29,66.89,86.29,70Z"/><path class="cls-30" d="M136.42,72a3.53,3.53,0,0,1-1.06.34l-7.43,1.37a9.25,9.25,0,0,1-4.09-.18l-.21-.08a1,1,0,0,1-.28-.14c-.54-.33-.13-.73,1.05-.94L131.83,71a9.2,9.2,0,0,1,4.11.18l.21.08C136.73,71.48,136.8,71.76,136.42,72Z"/><path class="cls-31" d="M136.42,72a3.53,3.53,0,0,1-1.06.34l-7.43,1.37a9.25,9.25,0,0,1-4.09-.18l-.21-.08a1,1,0,0,1-.28-.14A2.94,2.94,0,0,1,124.4,73l7.43-1.36a9.07,9.07,0,0,1,4.11.17l.21.09A.77.77,0,0,1,136.42,72Z"/></g></g></svg>