<?xml version="1.0" encoding="utf-8"?>
<!-- Generator: Adobe Illustrator 24.0.3, SVG Export Plug-In . SVG Version: 6.00 Build 0)  -->
<svg version="1.1" id="Capa_1" xmlns="http://www.w3.org/2000/svg" xmlns:xlink="http://www.w3.org/1999/xlink" x="0px" y="0px"
	 viewBox="0 0 285.9 286" style="enable-background:new 0 0 285.9 286;" xml:space="preserve">
<style type="text/css">
	.st0{fill:#CCCCCC;}
	.st1{fill:url(#SVGID_1_);}
	.st2{fill:url(#SVGID_2_);}
	.st3{fill:url(#SVGID_3_);}
	.st4{fill:url(#SVGID_4_);}
</style>
<path class="st0" d="M29,0.5l229.4,0.7c15.2,0,27.4,12.4,27.4,27.5L285,258.1c0,15.2-12.4,27.4-27.5,27.4l-229.4-0.7
	c-15.2,0-27.4-12.4-27.4-27.5L1.4,27.9C1.5,12.7,13.8,0.5,29,0.5z"/>
<g>
	
		<radialGradient id="SVGID_1_" cx="119.8392" cy="120.3634" r="47.5065" gradientTransform="matrix(1.2796 0 0 1.2796 -40.1839 -39.9322)" gradientUnits="userSpaceOnUse">
		<stop  offset="2.977611e-02" style="stop-color:#F23B36"/>
		<stop  offset="0.5737" style="stop-color:#EA153E"/>
		<stop  offset="1" style="stop-color:#D30D3C"/>
	</radialGradient>
	<path class="st1" d="M134,79.6V72h-2.8c1.7-1.9,2.8-4.6,2.8-7.4c0-7.5-6.1-13.6-13.6-13.6c-4.1,0-8.1,1.5-11.1,4.4
		c-1,0.9-1.9,1.9-2.6,3.1c-2.3-4.4-6.8-7.4-12.2-7.4l0,0l0,0c-0.1,0-0.1,0-0.3,0h-0.1c-5.6,0.1-10.5,3.1-13.4,7.4
		c-2.3-4.4-6.8-7.4-12.2-7.4c-9.1,0-16.5,7.4-16.5,16.5V72l0,0v7.2c0,2.4,1.3,4.7,3.5,6h-0.1c-2,1.3-3.3,3.6-3.3,6L52,118.1
		c0,9.1,7.3,16.4,16.4,16.4h49.1c9.1,0,16.4-7.3,16.4-16.4l0.1-26.9c0-2.4-1.3-4.6-3.3-5.9l0.4-0.3C132.8,83.9,134,81.9,134,79.6z
		 M98.8,97c-0.4-0.4-0.4-1,0-1.3l1.9-1.9c0.4-0.4,1-0.4,1.3,0l12.2,12.2c0.4,0.4,0.4,1,0,1.3l-1.9,1.9c-0.4,0.4-1,0.4-1.3,0L98.8,97
		z M100.7,107.2l-1.9,1.9c-0.4,0.4-1,0.4-1.3,0L85.3,97c-0.4-0.4-0.4-1,0-1.3l1.9-1.9c0.4-0.4,1-0.4,1.3,0l12.2,12.2
		C101,106.3,101,107,100.7,107.2z M80.5,70.8c0.6-1.2,1.2-2.3,1.5-3.7c0.1-0.5,0.1-0.9,0.3-1.4c0.4-2.8,1.8-5.4,3.8-7.3
		c2.3-2.2,5.2-3.3,8.4-3.3c5.2,0,9.6,4.4,9.6,9.6c0,0.1,0,0.3,0,0.4c0,0.3-0.1,0.6-0.1,0.9c-0.6,3.3-3.6,5.9-7.2,5.9
		c-2.9,0-5.4-2.4-5.4-5.5c0-2.2,1.8-4,4-4c1.2,0,2,0.6,2.6,1.7c0.4,0.6,1,1.2,1.8,1.2l0,0l0,0c1.4,0,2.4-1.5,1.8-2.8
		c-1-2.3-3.5-4-6.1-4l0,0l0,0c-4.4,0-7.9,3.6-7.9,7.9c0,2,0.6,4,1.8,5.5h-9.7C79.8,71.7,80.1,71.3,80.5,70.8z M87,105.9
		c0.4,0.4,0.4,1,0,1.3l-1.9,1.9c-0.4,0.4-1,0.4-1.3,0L71.7,97c-0.4-0.4-0.4-1,0-1.3l1.9-1.9c0.4-0.4,1-0.4,1.3,0L87,105.9z M56,72.2
		v-4.5c0-6.9,5.6-12.5,12.5-12.5c5.4,0,9.6,4.4,9.6,9.6l0,0c-0.1,0.5-0.1,1.2-0.3,1.8c-0.8,3.2-3.7,5.5-7,5.5
		c-3.1,0-5.5-2.4-5.5-5.5c0-2.2,1.8-4,4-4c1.2,0,2,0.6,2.6,1.7c0.4,0.6,1,1.2,1.8,1.2c1.4,0,2.4-1.5,1.8-2.8c-1-2.3-3.5-4-6.1-4
		c-4.4,0-7.9,3.6-7.9,7.9c0,2,0.6,4,1.8,5.5H56V72.2z M58,95.7l1.9-1.9c0.4-0.4,1-0.4,1.3,0l12.2,12.2c0.4,0.4,0.4,1,0,1.3l-1.9,1.9
		c-0.4,0.4-1,0.4-1.3,0L58,97C57.6,96.6,57.6,96.1,58,95.7z M68.1,126.3c-0.4,0.4-1,0.4-1.3,0l-1.9-1.9c-0.4-0.4-0.4-1,0-1.3
		L77,110.9c0.4-0.4,1-0.4,1.3,0l1.9,1.9c0.4,0.4,0.4,1,0,1.3L68.1,126.3z M80.4,126.3l-1.9-1.9c-0.4-0.4-0.4-1,0-1.3l12.2-12.2
		c0.4-0.4,1-0.4,1.3,0l1.9,1.9c0.4,0.4,0.4,1,0,1.3l-12.2,12.2C81.3,126.5,80.7,126.5,80.4,126.3z M93.9,126.3l-1.9-1.9
		c-0.4-0.4-0.4-1,0-1.3l12.2-12.2c0.4-0.4,1-0.4,1.3,0l1.9,1.9c0.4,0.4,0.4,1,0,1.3l-12.2,12.2C94.8,126.5,94.3,126.5,93.9,126.3z
		 M121.1,114l-12.2,12.2c-0.4,0.4-1,0.4-1.3,0l-1.9-1.9c-0.4-0.4-0.4-1,0-1.3l12.2-12.2c0.4-0.4,1-0.4,1.3,0l1.9,1.9
		C121.4,113.1,121.4,113.6,121.1,114z M127.8,107.2l-1.9,1.9c-0.4,0.4-1,0.4-1.3,0L112.5,97c-0.4-0.4-0.4-1,0-1.3l1.9-1.9
		c0.4-0.4,1-0.4,1.3,0l12.2,12.2C128.2,106.3,128.2,107,127.8,107.2z M122.7,72c-3.1,0-5.5-2.4-5.5-5.5c0-2.2,1.8-4,4-4
		c1.2,0,2,0.6,2.6,1.7c0.4,0.6,1,1.2,1.8,1.2c1.4,0,2.4-1.5,1.8-2.8c-1-2.3-3.5-4-6.1-4c-4.4,0-7.9,3.6-7.9,7.9c0,2,0.6,4,1.8,5.5
		h-9.7c1.7-1.9,2.7-4.2,2.7-6.9c0.5-2.6,1.8-5,3.8-6.8c2.3-2.2,5.4-3.3,8.4-3.3c5.4,0,9.6,4.4,9.6,9.6C130,68.8,126.7,72,122.7,72z"
		/>
</g>
<g>
	
		<radialGradient id="SVGID_2_" cx="199.1162" cy="120.3634" r="47.5065" gradientTransform="matrix(1.2796 0 0 1.2796 -40.1839 -39.9322)" gradientUnits="userSpaceOnUse">
		<stop  offset="2.977611e-02" style="stop-color:#F23B36"/>
		<stop  offset="0.5737" style="stop-color:#EA153E"/>
		<stop  offset="1" style="stop-color:#D30D3C"/>
	</radialGradient>
	<path class="st2" d="M235.5,79.6V72h-2.8c1.7-1.9,2.8-4.6,2.8-7.4c0-7.5-6.1-13.6-13.6-13.6c-4.1,0-8.1,1.5-11.1,4.4
		c-1,0.9-1.9,1.9-2.6,3.1c-2.3-4.4-6.8-7.4-12.2-7.4l0,0l0,0c-0.1,0-0.1,0-0.3,0h-0.1c-5.6,0.1-10.5,3.1-13.4,7.4
		c-2.3-4.4-6.8-7.4-12.2-7.4c-9.1,0-16.5,7.4-16.5,16.5V72l0,0v7.2c0,2.4,1.3,4.7,3.5,6h-0.1c-2,1.3-3.3,3.6-3.3,6l-0.1,26.9
		c0,9.1,7.3,16.4,16.4,16.4h49.1c9.1,0,16.4-7.3,16.4-16.4l0.1-26.9c0-2.4-1.3-4.6-3.3-5.9l0.4-0.3
		C234.3,83.9,235.5,81.9,235.5,79.6z M200.3,97c-0.4-0.4-0.4-1,0-1.3l1.9-1.9c0.4-0.4,1-0.4,1.3,0l12.2,12.2c0.4,0.4,0.4,1,0,1.3
		l-1.9,1.9c-0.4,0.4-1,0.4-1.3,0L200.3,97z M202.1,107.2l-1.9,1.9c-0.4,0.4-1,0.4-1.3,0L186.7,97c-0.4-0.4-0.4-1,0-1.3l1.9-1.9
		c0.4-0.4,1-0.4,1.3,0l12.2,12.2C202.4,106.3,202.4,107,202.1,107.2z M182,70.8c0.6-1.2,1.2-2.3,1.5-3.7c0.1-0.5,0.1-0.9,0.3-1.4
		c0.4-2.8,1.8-5.4,3.8-7.3c2.3-2.2,5.2-3.3,8.4-3.3c5.2,0,9.6,4.4,9.6,9.6c0,0.1,0,0.3,0,0.4c0,0.3-0.1,0.6-0.1,0.9
		c-0.6,3.3-3.6,5.9-7.2,5.9c-2.9,0-5.4-2.4-5.4-5.5c0-2.2,1.8-4,4-4c1.2,0,2,0.6,2.6,1.7c0.4,0.6,1,1.2,1.8,1.2l0,0l0,0
		c1.4,0,2.4-1.5,1.8-2.8c-1-2.3-3.5-4-6.1-4l0,0l0,0c-4.4,0-7.9,3.6-7.9,7.9c0,2,0.6,4,1.8,5.5h-9.7C181.2,71.7,181.6,71.3,182,70.8
		z M188.5,105.9c0.4,0.4,0.4,1,0,1.3l-1.9,1.9c-0.4,0.4-1,0.4-1.3,0L173.1,97c-0.4-0.4-0.4-1,0-1.3l1.9-1.9c0.4-0.4,1-0.4,1.3,0
		L188.5,105.9z M157.5,72.2v-4.5c0-6.9,5.6-12.5,12.5-12.5c5.4,0,9.6,4.4,9.6,9.6l0,0c-0.1,0.5-0.1,1.2-0.3,1.8
		c-0.8,3.2-3.7,5.5-7,5.5c-3.1,0-5.5-2.4-5.5-5.5c0-2.2,1.8-4,4-4c1.2,0,2,0.6,2.6,1.7c0.4,0.6,1,1.2,1.8,1.2c1.4,0,2.4-1.5,1.8-2.8
		c-1-2.3-3.5-4-6.1-4c-4.4,0-7.9,3.6-7.9,7.9c0,2,0.6,4,1.8,5.5h-7.2V72.2z M159.4,95.7l1.9-1.9c0.4-0.4,1-0.4,1.3,0l12.2,12.2
		c0.4,0.4,0.4,1,0,1.3l-1.9,1.9c-0.4,0.4-1,0.4-1.3,0L159.4,97C159.1,96.6,159.1,96.1,159.4,95.7z M169.5,126.3
		c-0.4,0.4-1,0.4-1.3,0l-1.9-1.9c-0.4-0.4-0.4-1,0-1.3l12.2-12.2c0.4-0.4,1-0.4,1.3,0l1.9,1.9c0.4,0.4,0.4,1,0,1.3L169.5,126.3z
		 M181.7,126.3l-1.9-1.9c-0.4-0.4-0.4-1,0-1.3l12.2-12.2c0.4-0.4,1-0.4,1.3,0l1.9,1.9c0.4,0.4,0.4,1,0,1.3L183,126.3
		C182.7,126.5,182.1,126.5,181.7,126.3z M195.4,126.3l-1.9-1.9c-0.4-0.4-0.4-1,0-1.3l12.2-12.2c0.4-0.4,1-0.4,1.3,0l1.9,1.9
		c0.4,0.4,0.4,1,0,1.3l-12.2,12.2C196.3,126.5,195.8,126.5,195.4,126.3z M222.4,114l-12.2,12.2c-0.4,0.4-1,0.4-1.3,0l-1.9-1.9
		c-0.4-0.4-0.4-1,0-1.3l12.2-12.2c0.4-0.4,1-0.4,1.3,0l1.9,1.9C222.8,113.1,222.8,113.6,222.4,114z M229.3,107.2l-1.9,1.9
		c-0.4,0.4-1,0.4-1.3,0L214,97c-0.4-0.4-0.4-1,0-1.3l1.9-1.9c0.4-0.4,1-0.4,1.3,0l12.2,12.2C229.6,106.3,229.6,107,229.3,107.2z
		 M224.2,72c-3.1,0-5.5-2.4-5.5-5.5c0-2.2,1.8-4,4-4c1.2,0,2,0.6,2.6,1.7c0.4,0.6,1,1.2,1.8,1.2c1.4,0,2.4-1.5,1.8-2.8
		c-1-2.3-3.5-4-6.1-4c-4.4,0-7.9,3.6-7.9,7.9c0,2,0.6,4,1.8,5.5h-9.7c1.7-1.9,2.7-4.2,2.7-6.9c0.5-2.6,1.8-5,3.8-6.8
		c2.3-2.2,5.4-3.3,8.4-3.3c5.4,0,9.6,4.4,9.6,9.6C231.5,68.8,228.2,72,224.2,72z"/>
</g>
<g>
	
		<radialGradient id="SVGID_3_" cx="119.8392" cy="198.5702" r="47.5065" gradientTransform="matrix(1.2796 0 0 1.2796 -40.1839 -39.9322)" gradientUnits="userSpaceOnUse">
		<stop  offset="2.977611e-02" style="stop-color:#F23B36"/>
		<stop  offset="0.5737" style="stop-color:#EA153E"/>
		<stop  offset="1" style="stop-color:#D30D3C"/>
	</radialGradient>
	<path class="st3" d="M134,179.7v-7.5h-2.8c1.7-1.9,2.8-4.6,2.8-7.4c0-7.5-6.1-13.6-13.6-13.6c-4.1,0-8.1,1.5-11.1,4.4
		c-1,0.9-1.9,1.9-2.6,3.1c-2.3-4.4-6.8-7.4-12.2-7.4l0,0l0,0c-0.1,0-0.1,0-0.3,0h-0.1c-5.6,0.1-10.5,3.1-13.4,7.4
		c-2.3-4.4-6.8-7.4-12.2-7.4c-9.1,0-16.5,7.4-16.5,16.5v4.5l0,0v7.2c0,2.4,1.3,4.7,3.5,6h-0.1c-2,1.3-3.3,3.6-3.3,6L52,218.2
		c0,9.1,7.3,16.4,16.4,16.4h49.1c9.1,0,16.4-7.3,16.4-16.4l0.1-26.9c0-2.4-1.3-4.6-3.3-5.9l0.4-0.3C132.8,184,134,182,134,179.7z
		 M98.8,197.1c-0.4-0.4-0.4-1,0-1.3l1.9-1.9c0.4-0.4,1-0.4,1.3,0l12.2,12.2c0.4,0.4,0.4,1,0,1.3l-1.9,1.9c-0.4,0.4-1,0.4-1.3,0
		L98.8,197.1z M100.7,207.3l-1.9,1.9c-0.4,0.4-1,0.4-1.3,0l-12.2-12.2c-0.4-0.4-0.4-1,0-1.3l1.9-1.9c0.4-0.4,1-0.4,1.3,0l12.2,12.2
		C101,206.4,101,206.9,100.7,207.3z M80.5,170.8c0.6-1.2,1.2-2.3,1.5-3.7c0.1-0.5,0.1-0.9,0.3-1.4c0.4-2.8,1.8-5.4,3.8-7.3
		c2.3-2.2,5.2-3.3,8.4-3.3c5.2,0,9.6,4.4,9.6,9.6c0,0.1,0,0.3,0,0.4c0,0.3-0.1,0.6-0.1,0.9c-0.6,3.3-3.6,5.9-7.2,5.9
		c-2.9,0-5.4-2.4-5.4-5.5c0-2.2,1.8-4,4-4c1.2,0,2,0.6,2.6,1.7c0.4,0.6,1,1.2,1.8,1.2l0,0l0,0c1.4,0,2.4-1.5,1.8-2.8
		c-1-2.3-3.5-4-6.1-4l0,0l0,0c-4.4,0-7.9,3.6-7.9,7.9c0,2,0.6,4,1.8,5.5h-9.7C79.8,171.7,80.1,171.3,80.5,170.8z M87,206
		c0.4,0.4,0.4,1,0,1.3l-1.9,1.9c-0.4,0.4-1,0.4-1.3,0l-12.2-12.2c-0.4-0.4-0.4-1,0-1.3l1.9-1.9c0.4-0.4,1-0.4,1.3,0L87,206z
		 M56,172.2v-4.5c0-6.9,5.6-12.5,12.5-12.5c5.4,0,9.6,4.4,9.6,9.6l0,0c-0.1,0.5-0.1,1.2-0.3,1.8c-0.8,3.2-3.7,5.5-7,5.5
		c-3.1,0-5.5-2.4-5.5-5.5c0-2.2,1.8-4,4-4c1.2,0,2,0.6,2.6,1.7c0.4,0.6,1,1.2,1.8,1.2c1.4,0,2.4-1.5,1.8-2.8c-1-2.3-3.5-4-6.1-4
		c-4.4,0-7.9,3.6-7.9,7.9c0,2,0.6,4,1.8,5.5H56V172.2z M58,195.8l1.9-1.9c0.4-0.4,1-0.4,1.3,0L73.3,206c0.4,0.4,0.4,1,0,1.3
		l-1.9,1.9c-0.4,0.4-1,0.4-1.3,0L58,197.1C57.6,196.7,57.6,196.2,58,195.8z M68.1,226.2c-0.4,0.4-1,0.4-1.3,0l-1.9-1.9
		c-0.4-0.4-0.4-1,0-1.3L77,210.9c0.4-0.4,1-0.4,1.3,0l1.9,1.9c0.4,0.4,0.4,1,0,1.3L68.1,226.2z M80.4,226.2l-1.9-1.9
		c-0.4-0.4-0.4-1,0-1.3l12.2-12.2c0.4-0.4,1-0.4,1.3,0l1.9,1.9c0.4,0.4,0.4,1,0,1.3l-12.2,12.2C81.3,226.6,80.7,226.6,80.4,226.2z
		 M93.9,226.2l-1.9-1.9c-0.4-0.4-0.4-1,0-1.3l12.2-12.2c0.4-0.4,1-0.4,1.3,0l1.9,1.9c0.4,0.4,0.4,1,0,1.3l-12.2,12.2
		C94.8,226.6,94.3,226.6,93.9,226.2z M121.1,214.1l-12.2,12.2c-0.4,0.4-1,0.4-1.3,0l-1.9-1.9c-0.4-0.4-0.4-1,0-1.3l12.2-12.2
		c0.4-0.4,1-0.4,1.3,0l1.9,1.9C121.4,213.2,121.4,213.7,121.1,214.1z M127.8,207.3l-1.9,1.9c-0.4,0.4-1,0.4-1.3,0l-12.2-12.2
		c-0.4-0.4-0.4-1,0-1.3l1.9-1.9c0.4-0.4,1-0.4,1.3,0l12.2,12.2C128.2,206.4,128.2,206.9,127.8,207.3z M122.7,172.1
		c-3.1,0-5.5-2.4-5.5-5.5c0-2.2,1.8-4,4-4c1.2,0,2,0.6,2.6,1.7c0.4,0.6,1,1.2,1.8,1.2c1.4,0,2.4-1.5,1.8-2.8c-1-2.3-3.5-4-6.1-4
		c-4.4,0-7.9,3.6-7.9,7.9c0,2,0.6,4,1.8,5.5h-9.7c1.7-1.9,2.7-4.2,2.7-6.9c0.5-2.6,1.8-5,3.8-6.8c2.3-2.2,5.4-3.3,8.4-3.3
		c5.4,0,9.6,4.4,9.6,9.6C130,168.9,126.7,172.1,122.7,172.1z"/>
</g>
<g>
	
		<radialGradient id="SVGID_4_" cx="199.1162" cy="198.5702" r="47.5065" gradientTransform="matrix(1.2796 0 0 1.2796 -40.1839 -39.9322)" gradientUnits="userSpaceOnUse">
		<stop  offset="2.977611e-02" style="stop-color:#F23B36"/>
		<stop  offset="0.5737" style="stop-color:#EA153E"/>
		<stop  offset="1" style="stop-color:#D30D3C"/>
	</radialGradient>
	<path class="st4" d="M235.5,179.7v-7.5h-2.8c1.7-1.9,2.8-4.6,2.8-7.4c0-7.5-6.1-13.6-13.6-13.6c-4.1,0-8.1,1.5-11.1,4.4
		c-1,0.9-1.9,1.9-2.6,3.1c-2.3-4.4-6.8-7.4-12.2-7.4l0,0l0,0c-0.1,0-0.1,0-0.3,0h-0.1c-5.6,0.1-10.5,3.1-13.4,7.4
		c-2.3-4.4-6.8-7.4-12.2-7.4c-9.1,0-16.5,7.4-16.5,16.5v4.5l0,0v7.2c0,2.4,1.3,4.7,3.5,6h-0.1c-2,1.3-3.3,3.6-3.3,6l-0.1,26.9
		c0,9.1,7.3,16.4,16.4,16.4h49.1c9.1,0,16.4-7.3,16.4-16.4l0.1-26.9c0-2.4-1.3-4.6-3.3-5.9l0.4-0.3C234.3,184,235.5,182,235.5,179.7
		z M200.3,197.1c-0.4-0.4-0.4-1,0-1.3l1.9-1.9c0.4-0.4,1-0.4,1.3,0l12.2,12.2c0.4,0.4,0.4,1,0,1.3l-1.9,1.9c-0.4,0.4-1,0.4-1.3,0
		L200.3,197.1z M202.1,207.3l-1.9,1.9c-0.4,0.4-1,0.4-1.3,0l-12.2-12.2c-0.4-0.4-0.4-1,0-1.3l1.9-1.9c0.4-0.4,1-0.4,1.3,0l12.2,12.2
		C202.4,206.4,202.4,206.9,202.1,207.3z M182,170.8c0.6-1.2,1.2-2.3,1.5-3.7c0.1-0.5,0.1-0.9,0.3-1.4c0.4-2.8,1.8-5.4,3.8-7.3
		c2.3-2.2,5.2-3.3,8.4-3.3c5.2,0,9.6,4.4,9.6,9.6c0,0.1,0,0.3,0,0.4c0,0.3-0.1,0.6-0.1,0.9c-0.6,3.3-3.6,5.9-7.2,5.9
		c-2.9,0-5.4-2.4-5.4-5.5c0-2.2,1.8-4,4-4c1.2,0,2,0.6,2.6,1.7c0.4,0.6,1,1.2,1.8,1.2l0,0l0,0c1.4,0,2.4-1.5,1.8-2.8
		c-1-2.3-3.5-4-6.1-4l0,0l0,0c-4.4,0-7.9,3.6-7.9,7.9c0,2,0.6,4,1.8,5.5h-9.7C181.2,171.7,181.6,171.3,182,170.8z M188.5,206
		c0.4,0.4,0.4,1,0,1.3l-1.9,1.9c-0.4,0.4-1,0.4-1.3,0l-12.2-12.2c-0.4-0.4-0.4-1,0-1.3l1.9-1.9c0.4-0.4,1-0.4,1.3,0L188.5,206z
		 M157.5,172.2v-4.5c0-6.9,5.6-12.5,12.5-12.5c5.4,0,9.6,4.4,9.6,9.6l0,0c-0.1,0.5-0.1,1.2-0.3,1.8c-0.8,3.2-3.7,5.5-7,5.5
		c-3.1,0-5.5-2.4-5.5-5.5c0-2.2,1.8-4,4-4c1.2,0,2,0.6,2.6,1.7c0.4,0.6,1,1.2,1.8,1.2c1.4,0,2.4-1.5,1.8-2.8c-1-2.3-3.5-4-6.1-4
		c-4.4,0-7.9,3.6-7.9,7.9c0,2,0.6,4,1.8,5.5h-7.2V172.2z M159.4,195.8l1.9-1.9c0.4-0.4,1-0.4,1.3,0l12.2,12.2c0.4,0.4,0.4,1,0,1.3
		l-1.9,1.9c-0.4,0.4-1,0.4-1.3,0l-12.2-12.2C159.1,196.7,159.1,196.2,159.4,195.8z M169.5,226.2c-0.4,0.4-1,0.4-1.3,0l-1.9-1.9
		c-0.4-0.4-0.4-1,0-1.3l12.2-12.2c0.4-0.4,1-0.4,1.3,0l1.9,1.9c0.4,0.4,0.4,1,0,1.3L169.5,226.2z M181.7,226.2l-1.9-1.9
		c-0.4-0.4-0.4-1,0-1.3l12.2-12.2c0.4-0.4,1-0.4,1.3,0l1.9,1.9c0.4,0.4,0.4,1,0,1.3L183,226.2C182.7,226.6,182.1,226.6,181.7,226.2z
		 M195.4,226.2l-1.9-1.9c-0.4-0.4-0.4-1,0-1.3l12.2-12.2c0.4-0.4,1-0.4,1.3,0l1.9,1.9c0.4,0.4,0.4,1,0,1.3l-12.2,12.2
		C196.3,226.6,195.8,226.6,195.4,226.2z M222.4,214.1l-12.2,12.2c-0.4,0.4-1,0.4-1.3,0l-1.9-1.9c-0.4-0.4-0.4-1,0-1.3l12.2-12.2
		c0.4-0.4,1-0.4,1.3,0l1.9,1.9C222.8,213.2,222.8,213.7,222.4,214.1z M229.3,207.3l-1.9,1.9c-0.4,0.4-1,0.4-1.3,0L214,197.1
		c-0.4-0.4-0.4-1,0-1.3l1.9-1.9c0.4-0.4,1-0.4,1.3,0l12.2,12.2C229.6,206.4,229.6,206.9,229.3,207.3z M224.2,172.1
		c-3.1,0-5.5-2.4-5.5-5.5c0-2.2,1.8-4,4-4c1.2,0,2,0.6,2.6,1.7c0.4,0.6,1,1.2,1.8,1.2c1.4,0,2.4-1.5,1.8-2.8c-1-2.3-3.5-4-6.1-4
		c-4.4,0-7.9,3.6-7.9,7.9c0,2,0.6,4,1.8,5.5h-9.7c1.7-1.9,2.7-4.2,2.7-6.9c0.5-2.6,1.8-5,3.8-6.8c2.3-2.2,5.4-3.3,8.4-3.3
		c5.4,0,9.6,4.4,9.6,9.6C231.5,168.9,228.2,172.1,224.2,172.1z"/>
</g>
<title>itacate</title>
<title>itacate</title>
</svg>
