<?xml version="1.0" encoding="utf-8"?>
<!-- Generator: Adobe Illustrator 24.0.3, SVG Export Plug-In . SVG Version: 6.00 Build 0)  -->
<svg version="1.1" id="Capa_1" xmlns="http://www.w3.org/2000/svg" xmlns:xlink="http://www.w3.org/1999/xlink" x="0px" y="0px"
	 viewBox="0 0 84 87" style="enable-background:new 0 0 84 87;" xml:space="preserve">
<style type="text/css">
	.st0{fill:#333333;}
</style>
<title>itacate</title>
<g id="nhlNb6">
	<path class="st0" d="M58.8,37.5c0.2,3.6-1.4,7.1-4.2,9.4c-3.1,2.3-6.4,4.3-9.9,6.1c-1.8,0.9-4,0.2-4.9-1.6
		c-0.1-0.2-0.1-0.3-0.2-0.5c-0.8-2.1,0.2-4.1,2.3-5.1c2.1-1,4.2-2.1,6.2-3.4c2.9-2.1,3.5-4.1,2.6-7c-1-3-3.6-5.1-6.7-5.4
		c-3.5-0.4-6.8,1.7-8.1,5c-0.8,1.9-2.1,2.9-4.2,2.7c-2.7-0.2-4.1-2.9-3-5.6c3.1-8,12.1-12,20.2-8.9C54.8,25.4,58.8,31.1,58.8,37.5
		L58.8,37.5z"/>
	<path class="st0" d="M43.5,61.2c2.2,0,4,1.8,4,3.9c0,2.2-1.8,3.9-4,3.9c-2.2,0-3.9-1.8-3.9-4C39.7,62.9,41.4,61.2,43.5,61.2z"/>
</g>
<path class="st0" d="M42,87C18.8,87,0,68.2,0,45S18.8,3,42,3s42,18.8,42,42c0,12-5.2,23.5-14.2,31.5c-1.2,1.1-3.1,1-4.2-0.2
	s-1-3.1,0.2-4.2c14.9-13.2,16.3-35.9,3.1-50.8S33,4.9,18.1,18S1.8,53.9,15,68.8C21.8,76.6,31.7,81,42,81c1.7,0,3,1.3,3,3
	S43.7,87,42,87z"/>
</svg>
