<svg id="Capa_1" data-name="Capa 1" xmlns="http://www.w3.org/2000/svg" viewBox="0 0 48 48"><defs><style>.cls-1{fill:#3aedac;}</style></defs><title>itacate</title><path class="cls-1" d="M24.05-.1A24.05,24.05,0,1,0,48.1,24,24.05,24.05,0,0,0,24.05-.1Zm.69,38.89v3a.93.93,0,0,1-.93.93h0a.93.93,0,0,1-.93-.93v-3c-6.23-.5-8.84-3.09-9.08-8.53a.83.83,0,0,1,.83-.85h3.7a.82.82,0,0,1,.82.72c.27,2.4.89,3.86,3.73,4.38V26c-4-1.05-8.49-2.63-8.49-8.21,0-4.41,2.75-8.33,8.49-8.41V7.69a.93.93,0,0,1,.93-.93h0a.92.92,0,0,1,.93.93v1.7c2.88.3,7.51,1.16,8.42,7.39a.91.91,0,0,1-.89,1.06H28.88a.89.89,0,0,1-.89-.78c-.39-3-1.79-3.39-3.25-3.39v7.57c3.81,1.21,5.75,2.22,6.76,3.19a7.5,7.5,0,0,1,2.22,5.67C33.72,33.82,31.42,38.43,24.74,38.79Z"/><path class="cls-1" d="M24.74,26.7v7.81a3.63,3.63,0,0,0,3.56-4C28.3,28.2,26.36,27.14,24.74,26.7Z"/><path class="cls-1" d="M19.49,16.83c0,2.63,1.82,3.48,3.39,3.84v-7A3.27,3.27,0,0,0,19.49,16.83Z"/></svg>