<?xml version="1.0" encoding="utf-8"?>
<!-- Generator: Adobe Illustrator 24.0.3, SVG Export Plug-In . SVG Version: 6.00 Build 0)  -->
<svg version="1.1" id="Capa_1" xmlns="http://www.w3.org/2000/svg" xmlns:xlink="http://www.w3.org/1999/xlink" x="0px" y="0px"
	 viewBox="0 0 69 58" style="enable-background:new 0 0 69 58;" xml:space="preserve">
<style type="text/css">
	.st0{fill:#FFFFFF;}
</style>
<title>itacate</title>
<path class="st0" d="M62.6,19.9l0-5.1h-1.9c1.2-1.4,1.9-3.1,1.9-5c0-5.1-4.2-9.3-9.3-9.3c-2.8,0-5.5,1.1-7.6,3
	c-0.7,0.6-1.3,1.3-1.8,2.1c-1.5-3-4.7-5.1-8.3-5.1c0,0,0,0,0,0c0,0,0,0,0,0c-0.1,0-0.1,0-0.2,0c0,0,0,0-0.1,0
	c-3.8,0.1-7.2,2.1-9.2,5.1c-1.5-3-4.7-5.1-8.3-5.1c-6.2,0-11.3,5.1-11.3,11.3v3.1h0l0,4.9c0,1.7,0.9,3.3,2.3,4.1l-0.1,0
	c-1.4,0.9-2.3,2.4-2.3,4.1l0,18.4c0,6.2,5,11.2,11.2,11.2h33.6c6.2,0,11.2-5,11.2-11.2l0-18.4c0-1.7-0.9-3.2-2.3-4l0.2-0.2
	C61.8,22.9,62.6,21.5,62.6,19.9z M38.4,31.8c-0.3-0.3-0.3-0.7,0-0.9l1.3-1.3c0.3-0.3,0.7-0.3,0.9,0l8.3,8.3c0.3,0.3,0.3,0.7,0,0.9
	l-1.3,1.3c-0.3,0.3-0.7,0.3-0.9,0L38.4,31.8z M39.7,38.8l-1.3,1.3c-0.3,0.3-0.7,0.3-0.9,0l-8.3-8.3c-0.3-0.3-0.3-0.7,0-0.9l1.3-1.3
	c0.3-0.3,0.7-0.3,0.9,0l8.3,8.3C40,38.2,40,38.6,39.7,38.8z M25.9,13.8c0.5-0.8,0.8-1.6,1-2.5c0.1-0.3,0.1-0.6,0.1-0.9
	c0.3-1.9,1.2-3.6,2.7-5c1.6-1.4,3.6-2.2,5.8-2.3c3.6,0,6.6,3,6.6,6.6c0,0.1,0,0.2,0,0.3c0,0.2-0.1,0.4-0.1,0.6
	c-0.4,2.3-2.5,4.1-4.9,4.1c-2,0-3.7-1.7-3.7-3.7c0-1.5,1.2-2.7,2.7-2.7c0.8,0,1.4,0.5,1.7,1.1c0.2,0.5,0.7,0.8,1.2,0.8c0,0,0,0,0,0
	c0,0,0,0,0,0c1,0,1.6-1,1.2-1.9c-0.7-1.6-2.3-2.7-4.2-2.7c0,0,0,0,0,0c0,0,0,0,0,0c-3,0-5.4,2.4-5.4,5.4c0,1.4,0.5,2.7,1.2,3.8h-6.7
	C25.5,14.5,25.7,14.2,25.9,13.8z M30.4,37.9c0.3,0.3,0.3,0.7,0,0.9l-1.3,1.3c-0.3,0.3-0.7,0.3-0.9,0l-8.3-8.3
	c-0.3-0.3-0.3-0.7,0-0.9l1.3-1.3c0.3-0.3,0.7-0.3,0.9,0L30.4,37.9z M9.2,14.8v-3.1c0-4.7,3.8-8.6,8.6-8.6c3.6,0,6.6,3,6.6,6.6
	c0,0,0,0,0,0c-0.1,0.4-0.1,0.8-0.1,1.2c-0.5,2.2-2.5,3.8-4.9,3.8c-2.1,0-3.7-1.7-3.7-3.7c0-1.5,1.2-2.7,2.7-2.7
	c0.8,0,1.4,0.5,1.7,1.1c0.2,0.5,0.7,0.8,1.2,0.8c1,0,1.6-1,1.2-1.9c-0.7-1.6-2.3-2.7-4.2-2.7C15.4,5.6,13,8,13,11
	c0,1.4,0.5,2.7,1.2,3.8H9.2z M10.5,30.9l1.3-1.3c0.3-0.3,0.7-0.3,0.9,0l8.3,8.3c0.3,0.3,0.3,0.7,0,0.9l-1.3,1.3
	c-0.3,0.3-0.7,0.3-0.9,0l-8.3-8.3C10.3,31.6,10.3,31.2,10.5,30.9z M17.4,51.8c-0.3,0.3-0.7,0.3-0.9,0l-1.3-1.3
	c-0.3-0.3-0.3-0.7,0-0.9l8.3-8.3c0.3-0.3,0.7-0.3,0.9,0l1.3,1.3c0.3,0.3,0.3,0.7,0,0.9L17.4,51.8z M25.8,51.8l-1.3-1.3
	c-0.3-0.3-0.3-0.7,0-0.9l8.3-8.3c0.3-0.3,0.7-0.3,0.9,0l1.3,1.3c0.3,0.3,0.3,0.7,0,0.9l-8.3,8.3C26.5,52,26.1,52,25.8,51.8z
	 M35.1,51.8l-1.3-1.3c-0.3-0.3-0.3-0.7,0-0.9l8.3-8.3c0.3-0.3,0.7-0.3,0.9,0l1.3,1.3c0.3,0.3,0.3,0.7,0,0.9L36,51.8
	C35.8,52,35.4,52,35.1,51.8z M53.7,43.4l-8.3,8.3c-0.3,0.3-0.7,0.3-0.9,0l-1.3-1.3c-0.3-0.3-0.3-0.7,0-0.9l8.3-8.3
	c0.3-0.3,0.7-0.3,0.9,0l1.3,1.3C53.9,42.8,53.9,43.2,53.7,43.4z M58.3,38.8L57,40.2c-0.3,0.3-0.7,0.3-0.9,0l-8.3-8.3
	c-0.3-0.3-0.3-0.7,0-0.9l1.3-1.3c0.3-0.3,0.7-0.3,0.9,0l8.3,8.3C58.6,38.2,58.6,38.6,58.3,38.8z M54.8,14.8c-2.1,0-3.7-1.7-3.7-3.7
	c0-1.5,1.2-2.7,2.7-2.7c0.8,0,1.4,0.5,1.7,1.1c0.2,0.5,0.7,0.8,1.2,0.8c1,0,1.6-1,1.2-1.9c-0.7-1.6-2.3-2.7-4.2-2.7
	c-3,0-5.4,2.4-5.4,5.4c0,1.4,0.5,2.7,1.2,3.8h-6.7c1.1-1.3,1.8-2.9,1.9-4.7c0.4-1.8,1.3-3.4,2.6-4.6C49,4,51.1,3.2,53.2,3.2
	c3.6,0,6.6,3,6.6,6.6C59.8,12.5,57.6,14.8,54.8,14.8z"/>
</svg>
