<?xml version="1.0" encoding="utf-8"?>
<!-- Generator: Adobe Illustrator 24.0.3, SVG Export Plug-In . SVG Version: 6.00 Build 0)  -->
<svg version="1.1" id="Capa_1" xmlns="http://www.w3.org/2000/svg" xmlns:xlink="http://www.w3.org/1999/xlink" x="0px" y="0px"
	 viewBox="0 0 78 85" style="enable-background:new 0 0 78 85;" xml:space="preserve">
<style type="text/css">
	.st0{fill:#333333;}
</style>
<title>itacate</title>
<g>
	<path class="st0" d="M76.1,84.8H2c-1.3,0-2.3-1-2.3-2.3c0-0.8,0-1.5,0.1-2.3c0.5-11.2,8.7-20.5,19.7-22.4c1.3-0.2,2.4,0.7,2.6,1.9
		c0.2,1.2-0.6,2.3-1.8,2.6C11.5,64,5,71.3,4.4,80.2h69.3c-0.6-8.9-7.2-16.3-15.9-17.9c-3.2-0.5-6.3-1.6-9-3.3
		c-2.1-1.4-3.4-3.7-3.5-6.2c-0.1-2.4,0.8-4.7,2.7-6.2c1.6-1.4,3.1-3,4.2-4.8c1.3-1.9,2.3-4,3-6.2c1-3.1,1.5-6.3,1.5-9.5
		c0-11.6-6.6-20.3-16.4-21.6h-0.1c-0.3,0-0.6-0.1-0.8-0.1H39c-0.3,0-0.6,0.1-0.8,0.1H38c-9.8,1.3-16.4,9.9-16.4,21.6
		c0,3.2,0.4,6.4,1.4,9.5c0.7,2.2,1.7,4.2,3,6.2c1.1,1.8,2.6,3.4,4.2,4.7l0.1,0.1c0.8,1,0.7,2.4-0.2,3.2c-0.8,0.7-1.9,0.8-2.8,0.2
		c-1.9-1.6-3.6-3.6-5-5.7c-1.5-2.2-2.6-4.7-3.5-7.2c-1.2-3.5-1.7-7.2-1.7-10.9c0-14,8.2-24.5,20.4-26.1c0.5-0.1,1-0.2,1.6-0.2
		c0.6,0,1.2,0.1,1.7,0.2c12.2,1.6,20.4,12.1,20.4,26.1c0,3.7-0.6,7.4-1.7,10.9c-0.8,2.6-2,5-3.5,7.2c-1.4,2.1-3.1,4-5,5.7
		c-0.7,0.6-1.2,1.6-1.1,2.5c0.1,1.1,0.6,2.1,1.5,2.7c2.2,1.3,4.7,2.2,7.3,2.5c11,2,19.2,11.3,19.7,22.5c0,0.8,0.1,1.5,0.1,2.3
		C78.3,83.8,77.3,84.8,76.1,84.8z"/>
</g>
<g>
	<path class="st0" d="M40.3,41.8c-2.4,0-4.8-0.9-6.5-2.6c-0.8-0.8-0.8-2,0-2.8c0.8-0.8,2-0.8,2.8,0c1,1,2.3,1.5,3.7,1.5
		c1.4,0,2.7-0.5,3.7-1.5c0.8-0.8,2.1-0.7,2.8,0.1c0.8,0.8,0.7,2.1-0.1,2.8C45,40.8,42.7,41.8,40.3,41.8z"/>
</g>
</svg>
