<svg xmlns="http://www.w3.org/2000/svg" xmlns:xlink="http://www.w3.org/1999/xlink" viewBox="0 0 216 216"><defs><style>.cls-1{isolation:isolate;}.cls-2{fill:#ccc;}.cls-3,.cls-4,.cls-5{mix-blend-mode:multiply;}.cls-3{fill:url(#radial-gradient);}.cls-4{fill:url(#radial-gradient-2);}.cls-5{fill:url(#radial-gradient-3);}.cls-6{fill:#b7432f;}.cls-7{fill:#a32c19;}.cls-8{fill:#cc5c2e;}.cls-9{fill:#e27820;}.cls-10{fill:#f1a131;}.cls-11{fill:#ffc44d;}.cls-12{fill:#f19e28;}.cls-13{fill:#ffe494;}.cls-14{fill:#e64917;}.cls-15{fill:#ff791a;}.cls-16{fill:#fff2bf;}.cls-17{fill:#4a7006;}.cls-18{fill:#7eb023;}</style><radialGradient id="radial-gradient" cx="575.07" cy="-5996.75" r="25.9" gradientTransform="matrix(1.76, -1.15, 0.28, 0.43, 808.38, 3383.67)" gradientUnits="userSpaceOnUse"><stop offset="0" stop-color="#7b6c4e"/><stop offset="0.34" stop-color="#a99f8c"/><stop offset="0.57" stop-color="#cac4b8"/><stop offset="0.68" stop-color="#d9d5cc"/><stop offset="0.91" stop-color="#fff"/></radialGradient><radialGradient id="radial-gradient-2" cx="552.97" cy="-6112.46" r="25.9" xlink:href="#radial-gradient"/><radialGradient id="radial-gradient-3" cx="559.71" cy="-6061.5" r="25.9" xlink:href="#radial-gradient"/></defs><title>itacate</title><g class="cls-1"><g id="Capa_1" data-name="Capa 1"><rect class="cls-2" x="1" width="216" height="216" rx="20.85"/><path class="cls-3" d="M199.82,139.23c4,6.09-13.2,24.32-38.36,40.71s-48.77,24.73-52.74,18.64,13.2-24.33,38.35-40.72S195.85,133.13,199.82,139.23Z"/><path class="cls-4" d="M128.82,115.23c4,6.09-13.2,24.32-38.36,40.71s-48.77,24.73-52.74,18.64,13.2-24.33,38.35-40.72S124.85,109.13,128.82,115.23Z"/><path class="cls-5" d="M154.82,129.23c4,6.09-13.2,24.32-38.36,40.71s-48.77,24.73-52.74,18.64,13.2-24.33,38.35-40.72S150.85,123.13,154.82,129.23Z"/><path class="cls-6" d="M109.38,104.42a1.3,1.3,0,0,0,.89,1.47c.56.09,1.06-.43,1.12-1.17a1.3,1.3,0,0,0-.89-1.48C110,103.16,109.44,103.69,109.38,104.42Z"/><path class="cls-7" d="M109.24,105a1.18,1.18,0,0,0,.8,1.34c.5.07,1-.41,1-1.07a1.18,1.18,0,0,0-.81-1.34C109.76,103.82,109.3,104.29,109.24,105Z"/><path class="cls-8" d="M117,109.57a1.18,1.18,0,0,0,.8,1.32c.49.08.94-.39,1-1a1.16,1.16,0,0,0-.8-1.32C117.53,108.45,117.08,108.92,117,109.57Z"/><path class="cls-7" d="M111,109.28a1.69,1.69,0,0,0,1.14,1.92c.72.1,1.37-.57,1.45-1.52a1.67,1.67,0,0,0-1.14-1.91C111.72,107.66,111.07,108.34,111,109.28Z"/><path class="cls-6" d="M116.81,111.54a1.7,1.7,0,0,0,1.15,1.92c.72.11,1.37-.57,1.46-1.52a1.68,1.68,0,0,0-1.16-1.91C117.54,109.92,116.89,110.59,116.81,111.54Z"/><path class="cls-9" d="M113.37,108c-.13,1.55.7,2.94,1.88,3.12s2.22-.93,2.36-2.47-.7-2.94-1.88-3.12S113.51,106.49,113.37,108Z"/><path class="cls-9" d="M110.07,104.35a1.71,1.71,0,0,0,1.16,1.94c.73.11,1.39-.58,1.47-1.54a1.7,1.7,0,0,0-1.16-1.93C110.81,102.71,110.15,103.4,110.07,104.35Z"/><path class="cls-9" d="M108.69,102.43a1.64,1.64,0,0,0,1.12,1.87c.7.11,1.34-.56,1.42-1.49a1.65,1.65,0,0,0-1.13-1.87C109.4,100.84,108.77,101.5,108.69,102.43Z"/><path class="cls-8" d="M104.75,98.08a1.51,1.51,0,0,0,1,1.73c.65.1,1.24-.51,1.32-1.37a1.54,1.54,0,0,0-1-1.74C105.41,96.61,104.82,97.22,104.75,98.08Z"/><path class="cls-6" d="M104.35,100.92a1.57,1.57,0,0,0,1.07,1.79c.67.1,1.28-.53,1.35-1.42a1.57,1.57,0,0,0-1.07-1.79C105,99.4,104.42,100,104.35,100.92Z"/><path class="cls-9" d="M106.62,98.65a1.22,1.22,0,0,0,.84,1.39c.52.08,1-.42,1.05-1.1a1.23,1.23,0,0,0-.83-1.4C107.15,97.46,106.68,98,106.62,98.65Z"/><path class="cls-9" d="M110.49,104.09c-.14,1.61.74,3.06,2,3.25s2.32-1,2.46-2.58-.73-3.06-2-3.25S110.63,102.48,110.49,104.09Z"/><path class="cls-6" d="M110.84,107.46a2.3,2.3,0,0,0,1.57,2.61c1,.15,1.88-.78,2-2.07a2.3,2.3,0,0,0-1.58-2.62C111.84,105.23,111,106.16,110.84,107.46Z"/><path class="cls-6" d="M107.05,102.34a1.54,1.54,0,0,0,1.06,1.75c.66.1,1.26-.52,1.33-1.39a1.53,1.53,0,0,0-1-1.75C107.73,100.85,107.14,101.47,107.05,102.34Z"/><path class="cls-7" d="M110.36,109.83a2.38,2.38,0,0,0,1.63,2.7c1,.16,1.94-.8,2.05-2.14a2.36,2.36,0,0,0-1.62-2.71C111.4,107.53,110.48,108.49,110.36,109.83Z"/><path class="cls-7" d="M109.39,101.58a2.39,2.39,0,0,0,1.64,2.71c1,.16,1.93-.8,2-2.14a2.37,2.37,0,0,0-1.63-2.71C110.43,99.28,109.51,100.24,109.39,101.58Z"/><path class="cls-7" d="M112.44,107.94c-.13,1.48.67,2.81,1.79,3s2.14-.89,2.26-2.36-.67-2.81-1.79-3S112.57,106.46,112.44,107.94Z"/><path class="cls-9" d="M113.36,104.32a1.56,1.56,0,0,0,1.07,1.77c.66.1,1.25-.53,1.33-1.4a1.55,1.55,0,0,0-1.06-1.77C114,102.82,113.43,103.44,113.36,104.32Z"/><path class="cls-7" d="M106,101.28c-.13,1.48.67,2.82,1.79,3s2.15-.89,2.27-2.37a2.62,2.62,0,0,0-1.8-3C107.09,98.74,106.08,99.8,106,101.28Z"/><path class="cls-8" d="M106.85,101.28a1,1,0,0,0,.67,1.12c.43.07.8-.33.85-.89a1,1,0,0,0-.67-1.11C107.28,100.33,106.9,100.73,106.85,101.28Z"/><path class="cls-8" d="M108.76,99.58a1,1,0,0,0,.67,1.12c.43.07.8-.33.86-.88a1,1,0,0,0-.68-1.12C109.19,98.63,108.81,99,108.76,99.58Z"/><path class="cls-7" d="M107,99.44a1,1,0,0,0,.68,1.12c.42.06.8-.33.85-.88a1,1,0,0,0-.68-1.12C107.44,98.49,107.06,98.88,107,99.44Z"/><path class="cls-10" d="M118.44,113.1h0a1,1,0,0,1-.78-.86s0-.09,0-.14,0-.12,0-.18c-1.71-1.13-2.64-3.56-3.9-5.46-1.44-2.2-2.41-6-4.88-5.09a1.51,1.51,0,0,1-1.72-.89c-.67.26-1.47-.25-1.61-1.3a34.6,34.6,0,0,1-.08-3.53c-4.3.28-9,4.4-13,6.32-6.1,2.93-12.4,5.09-18.57,7.74-12.16,5.21-24.7,9.38-36.44,16.13l-.25.15a11.56,11.56,0,0,0-3.42,1,7.41,7.41,0,0,0-3.56,2.3A7.51,7.51,0,0,0,27.55,134a17.57,17.57,0,0,0-.76,6.92,14.16,14.16,0,0,0,2.14,7.36c5.13,8.7,13.66,16.85,22.21,16.53,5.29-.2,10.81-5.07,15.41-8,6.06-3.84,12.23-7.38,18.39-10.91,5.87-3.35,11.68-7,17.69-9.85,3.94-1.9,9-1.18,12.53-4.28C119.57,127.94,120,120.33,118.44,113.1Z"/><path class="cls-11" d="M116,108.61a19.92,19.92,0,0,0-3.72-4.1c-2-1.71-4.38-2-6.4-3.56a1.39,1.39,0,0,1-.27-1.59,6,6,0,0,0,.37-3.6.76.76,0,0,0-.44-.13c-4.34.18-9.07,4.39-13.11,6.34-6.1,2.93-12.4,5.09-18.57,7.74-12.16,5.21-24.7,9.38-36.44,16.13l-.25.15a11.56,11.56,0,0,0-3.42,1,7.41,7.41,0,0,0-3.56,2.3A7.51,7.51,0,0,0,27.55,134a17.57,17.57,0,0,0-.76,6.92,14.16,14.16,0,0,0,2.14,7.36c5.13,8.7,13.66,16.85,22.21,16.53a13.08,13.08,0,0,0,5.07-1.39c3.58-5.56-3.67-22,4-25.41,6.5-2.91,43.49-29.2,57.13-22.8C116.84,113.78,116.61,109.94,116,108.61Z"/><path class="cls-12" d="M48.92,146.41c-1.08-2.53-2.87-6.83-2.25-10a14.48,14.48,0,0,1-2.79-.46c-5.22-1.31-9.87-1.79-15-.11a11,11,0,0,0-.5,3.57,16.44,16.44,0,0,0,2.32,7.41c.36.65.79,1.39,1.26,2.11a31.57,31.57,0,0,0,2.3,3.93c4.48,6.36,15.17,11.23,19.77,7.34C52.13,155.7,50.69,150.55,48.92,146.41Z"/><path class="cls-9" d="M52.94,161.11a1.63,1.63,0,0,0-1.13-1.86c-.7-.11-1.34.56-1.42,1.49a1.64,1.64,0,0,0,1.14,1.86C52.23,162.7,52.86,162,52.94,161.11Z"/><path class="cls-9" d="M51.76,161.79a1.45,1.45,0,0,0-1-1.64c-.61-.09-1.17.5-1.24,1.31a1.44,1.44,0,0,0,1,1.64C51.14,163.19,51.69,162.6,51.76,161.79Z"/><path class="cls-8" d="M51.5,153.93a1,1,0,0,0-.68-1.1c-.41-.06-.79.34-.84.89a1,1,0,0,0,.68,1.1C51.07,154.88,51.45,154.48,51.5,153.93Z"/><path class="cls-7" d="M48.89,161a.81.81,0,0,0-.56-.92c-.35-.05-.66.28-.7.74a.81.81,0,0,0,.56.92C48.54,161.77,48.85,161.44,48.89,161Z"/><path class="cls-8" d="M50.69,157.93a1.38,1.38,0,0,0-.95-1.57c-.59-.08-1.12.48-1.19,1.26a1.38,1.38,0,0,0,1,1.56C50.09,159.27,50.63,158.7,50.69,157.93Z"/><path class="cls-6" d="M50.48,154.58a.84.84,0,0,0-.59-1c-.36-.05-.68.29-.72.77a.84.84,0,0,0,.58,1C50.12,155.4,50.44,155.06,50.48,154.58Z"/><path class="cls-8" d="M46.62,158.2a1.68,1.68,0,0,0-1.17-1.92c-.72-.11-1.38.58-1.46,1.54a1.7,1.7,0,0,0,1.17,1.93C45.89,159.85,46.54,159.16,46.62,158.2Z"/><path class="cls-9" d="M51,160.28a1,1,0,0,0-.68-1.11c-.42-.06-.79.34-.84.89a1,1,0,0,0,.67,1.12C50.55,161.24,50.92,160.83,51,160.28Z"/><path class="cls-6" d="M48.74,155.83a1.29,1.29,0,0,0-.89-1.46c-.55-.08-1.05.45-1.11,1.18a1.29,1.29,0,0,0,.89,1.46C48.18,157.09,48.68,156.56,48.74,155.83Z"/><path class="cls-9" d="M48.43,156.75A2,2,0,0,0,47,154.46c-.86-.13-1.64.69-1.74,1.84a2,2,0,0,0,1.39,2.29C47.56,158.71,48.34,157.89,48.43,156.75Z"/><path class="cls-6" d="M48.66,152.66a2.63,2.63,0,0,0-1.81-3c-1.13-.16-2.14.91-2.26,2.39s.69,2.82,1.81,3S48.54,154.15,48.66,152.66Z"/><path class="cls-8" d="M45,148.13a1.19,1.19,0,0,0-.81-1.34c-.5-.07-1,.41-1,1.08A1.17,1.17,0,0,0,44,149.2C44.49,149.28,45,148.8,45,148.13Z"/><path class="cls-9" d="M46.79,153.72a1,1,0,0,0-.7-1.13c-.42-.06-.82.34-.86.91a1,1,0,0,0,.69,1.14C46.35,154.7,46.74,154.29,46.79,153.72Z"/><path class="cls-8" d="M47.42,154.18a2.33,2.33,0,0,0-1.6-2.64c-1-.14-1.89.81-2,2.11a2.33,2.33,0,0,0,1.6,2.64C46.41,156.43,47.31,155.48,47.42,154.18Z"/><path class="cls-7" d="M46.68,152.14a1.15,1.15,0,0,0-.79-1.3c-.49-.07-.94.39-1,1a1.15,1.15,0,0,0,.79,1.3C46.18,153.25,46.62,152.78,46.68,152.14Z"/><path class="cls-8" d="M47.7,146.58A2.28,2.28,0,0,0,46.12,144c-1-.14-1.85.79-1.95,2.07a2.28,2.28,0,0,0,1.57,2.59C46.71,148.79,47.59,147.86,47.7,146.58Z"/><path class="cls-9" d="M44.35,146A1.83,1.83,0,0,0,43.09,144c-.77-.11-1.47.63-1.55,1.65a1.8,1.8,0,0,0,1.25,2.06C43.56,147.8,44.26,147.06,44.35,146Z"/><path class="cls-6" d="M41.26,153.25a1.3,1.3,0,0,0-.89-1.47c-.56-.08-1.06.45-1.12,1.18a1.29,1.29,0,0,0,.9,1.47C40.7,154.51,41.2,154,41.26,153.25Z"/><path class="cls-7" d="M41.4,152.71a1.17,1.17,0,0,0-.81-1.33c-.5-.07-1,.4-1,1.07a1.18,1.18,0,0,0,.81,1.33C40.89,153.85,41.35,153.37,41.4,152.71Z"/><path class="cls-8" d="M43.78,151c.14-1.65-.77-3.15-2-3.33s-2.4,1-2.53,2.67.76,3.15,2,3.34S43.64,152.61,43.78,151Z"/><path class="cls-7" d="M47.26,141.2c.13-1.47-.68-2.79-1.79-2.95s-2.12.9-2.24,2.36.68,2.79,1.79,2.95S47.14,142.67,47.26,141.2Z"/><path class="cls-7" d="M41.62,145.83c.14-1.67-.78-3.16-2-3.35s-2.39,1-2.53,2.68.77,3.16,2,3.35S41.48,147.49,41.62,145.83Z"/><path class="cls-9" d="M40.78,145.67c.12-1.46-.68-2.77-1.78-2.93s-2.1.89-2.22,2.35A2.56,2.56,0,0,0,38.56,148C39.66,148.17,40.65,147.12,40.78,145.67Z"/><path class="cls-8" d="M45.27,145.31A1.88,1.88,0,0,0,44,143.15c-.82-.12-1.55.65-1.64,1.73A1.91,1.91,0,0,0,43.63,147C44.45,147.16,45.19,146.38,45.27,145.31Z"/><path class="cls-8" d="M43.87,141.11a2.06,2.06,0,0,0-1.43-2.34c-.88-.13-1.68.71-1.78,1.88A2.07,2.07,0,0,0,42.09,143C43,143.12,43.77,142.28,43.87,141.11Z"/><path class="cls-9" d="M45.42,136.82a1.26,1.26,0,0,0-.87-1.43c-.54-.08-1,.43-1.08,1.15a1.25,1.25,0,0,0,.86,1.42C44.87,138,45.36,137.53,45.42,136.82Z"/><path class="cls-9" d="M39.23,142.12a1.33,1.33,0,0,0-.92-1.51c-.56-.08-1.08.46-1.14,1.21a1.31,1.31,0,0,0,.92,1.5C38.66,143.41,39.17,142.87,39.23,142.12Z"/><path class="cls-8" d="M33.6,148.15a1.15,1.15,0,0,0-.8-1.31c-.5-.07-.94.39-1,1a1.16,1.16,0,0,0,.8,1.31C33.1,149.28,33.55,148.8,33.6,148.15Z"/><path class="cls-7" d="M39.64,148.39a1.68,1.68,0,0,0-1.16-1.9c-.72-.1-1.36.58-1.44,1.53a1.68,1.68,0,0,0,1.16,1.9C38.91,150,39.56,149.34,39.64,148.39Z"/><path class="cls-8" d="M43.26,140.9a2.52,2.52,0,0,0-1.73-2.84c-1.07-.15-2,.86-2.15,2.28a2.48,2.48,0,0,0,1.72,2.83C42.17,143.33,43.14,142.31,43.26,140.9Z"/><path class="cls-8" d="M45.62,141.77a2,2,0,0,0-1.38-2.26c-.85-.12-1.62.69-1.71,1.81a2,2,0,0,0,1.37,2.26C44.75,143.71,45.52,142.9,45.62,141.77Z"/><path class="cls-8" d="M44.06,139.19a1.41,1.41,0,0,0-1-1.59c-.6-.08-1.14.48-1.2,1.27a1.39,1.39,0,0,0,1,1.59C43.45,140.55,44,140,44.06,139.19Z"/><path class="cls-6" d="M39.91,142c.14-1.66-.77-3.16-2-3.34s-2.39,1-2.53,2.68.77,3.16,2,3.34S39.77,143.67,39.91,142Z"/><path class="cls-9" d="M37.25,142.11a2.43,2.43,0,0,0-1.68-2.75c-1-.15-2,.84-2.08,2.2a2.41,2.41,0,0,0,1.67,2.75C36.19,144.46,37.13,143.48,37.25,142.11Z"/><path class="cls-6" d="M33.81,146.18a1.68,1.68,0,0,0-1.17-1.91c-.72-.11-1.36.58-1.44,1.53a1.67,1.67,0,0,0,1.16,1.9C33.08,147.81,33.73,147.13,33.81,146.18Z"/><path class="cls-9" d="M37.26,149.66c.13-1.54-.72-2.93-1.89-3.1s-2.23.94-2.36,2.49.72,2.93,1.89,3.1S37.13,151.21,37.26,149.66Z"/><path class="cls-9" d="M37.64,141.36a1.51,1.51,0,0,0-1-1.72c-.65-.09-1.23.52-1.3,1.38a1.5,1.5,0,0,0,1,1.72C37,142.84,37.57,142.22,37.64,141.36Z"/><path class="cls-8" d="M40.59,138.36a.9.9,0,0,0-.62-1c-.39-.06-.73.31-.78.82a.91.91,0,0,0,.63,1C40.2,139.23,40.55,138.86,40.59,138.36Z"/><path class="cls-9" d="M37.35,140.59a1.41,1.41,0,0,0-1-1.61c-.61-.09-1.16.48-1.23,1.29a1.43,1.43,0,0,0,1,1.62C36.73,142,37.28,141.4,37.35,140.59Z"/><path class="cls-7" d="M35.82,141.1a.83.83,0,0,0-.57-.94c-.35,0-.68.29-.72.76a.84.84,0,0,0,.58.93C35.46,141.9,35.78,141.57,35.82,141.1Z"/><path class="cls-9" d="M33.31,147.91a1.61,1.61,0,0,0-1.12-1.84c-.68-.1-1.31.56-1.39,1.47a1.63,1.63,0,0,0,1.12,1.84C32.61,149.48,33.24,148.82,33.31,147.91Z"/><path class="cls-7" d="M34.11,144.08a2.27,2.27,0,0,0-1.56-2.57c-1-.14-1.85.78-2,2.06a2.27,2.27,0,0,0,1.57,2.57C33.13,146.28,34,145.36,34.11,144.08Z"/><path class="cls-7" d="M37.82,143.25a1.67,1.67,0,0,0-1.16-1.9c-.71-.11-1.36.57-1.44,1.52a1.67,1.67,0,0,0,1.16,1.9C37.09,144.88,37.74,144.2,37.82,143.25Z"/><path class="cls-8" d="M38.58,141a1.14,1.14,0,0,0-.79-1.31c-.5-.07-.94.39-1,1.05a1.14,1.14,0,0,0,.79,1.3C38.08,142.06,38.53,141.6,38.58,141Z"/><path class="cls-7" d="M38.33,137a1.63,1.63,0,0,0-1.12-1.85c-.7-.1-1.33.56-1.4,1.48a1.61,1.61,0,0,0,1.12,1.84C37.62,138.59,38.25,137.93,38.33,137Z"/><path class="cls-6" d="M35.94,137.92a2,2,0,0,0-1.4-2.31c-.87-.13-1.66.71-1.76,1.86a2.05,2.05,0,0,0,1.41,2.31C35.06,139.9,35.85,139.07,35.94,137.92Z"/><path class="cls-8" d="M37,141.86a2,2,0,0,0-1.38-2.27c-.86-.12-1.63.7-1.72,1.82a2,2,0,0,0,1.38,2.27C36.14,143.81,36.9,143,37,141.86Z"/><path class="cls-9" d="M40.61,137.84c.12-1.46-.68-2.77-1.78-2.93s-2.1.89-2.23,2.35a2.58,2.58,0,0,0,1.79,2.92C39.49,140.34,40.48,139.29,40.61,137.84Z"/><path class="cls-9" d="M35.48,136.46a1,1,0,0,0-.71-1.15c-.43-.07-.83.35-.87.92a1,1,0,0,0,.7,1.16C35,137.45,35.43,137,35.48,136.46Z"/><path class="cls-6" d="M33.16,137.7a1.28,1.28,0,0,0-.89-1.47c-.56-.08-1.06.44-1.12,1.18a1.28,1.28,0,0,0,.9,1.46C32.6,139,33.1,138.43,33.16,137.7Z"/><path class="cls-6" d="M33.18,142a2.08,2.08,0,0,0-1.44-2.35c-.89-.13-1.69.72-1.78,1.89a2.07,2.07,0,0,0,1.43,2.35C32.28,144,33.07,143.19,33.18,142Z"/><path class="cls-7" d="M34.49,141.14a2.41,2.41,0,0,0-1.67-2.74c-1-.15-2,.83-2.08,2.2a2.39,2.39,0,0,0,1.67,2.74C33.44,143.5,34.38,142.51,34.49,141.14Z"/><path class="cls-7" d="M31.06,140.25a1.87,1.87,0,0,0-1.29-2.12c-.79-.12-1.52.64-1.61,1.7a1.88,1.88,0,0,0,1.29,2.11C30.25,142.06,31,141.3,31.06,140.25Z"/><path class="cls-8" d="M30.3,142.39a.89.89,0,0,0-.6-1c-.38,0-.72.31-.77.81a.9.9,0,0,0,.62,1C29.92,143.25,30.26,142.89,30.3,142.39Z"/><path class="cls-9" d="M46.49,149.22a2,2,0,0,0-1.39-2.29c-.86-.12-1.64.7-1.73,1.84a2,2,0,0,0,1.39,2.29C45.62,151.19,46.4,150.36,46.49,149.22Z"/><path class="cls-8" d="M43.75,139.49a2.14,2.14,0,0,0-1.48-2.43c-.92-.13-1.75.75-1.85,1.95a2.14,2.14,0,0,0,1.48,2.44C42.82,141.58,43.65,140.71,43.75,139.49Z"/><path class="cls-9" d="M42.94,138.38a1.16,1.16,0,0,0-.8-1.33c-.5-.07-1,.4-1,1.06a1.17,1.17,0,0,0,.82,1.33C42.43,139.51,42.89,139,42.94,138.38Z"/><path class="cls-7" d="M46.74,144.54a1.58,1.58,0,0,0-1.1-1.81c-.69-.1-1.3.55-1.37,1.45a1.58,1.58,0,0,0,1.1,1.81C46.05,146.09,46.67,145.44,46.74,144.54Z"/><path class="cls-8" d="M48.15,150.46a2,2,0,0,0-1.36-2.25c-.85-.12-1.62.69-1.71,1.81a2,2,0,0,0,1.36,2.24C47.3,152.39,48.06,151.58,48.15,150.46Z"/><path class="cls-7" d="M51,157.17a1,1,0,0,0-.69-1.15c-.44-.06-.83.35-.88.92a1,1,0,0,0,.71,1.15C50.53,158.15,50.92,157.74,51,157.17Z"/><path class="cls-7" d="M49.87,151.77a.84.84,0,0,0-.59-1c-.36-.06-.69.29-.73.76a.87.87,0,0,0,.59,1C49.5,152.59,49.83,152.24,49.87,151.77Z"/><path class="cls-9" d="M49.8,150.82a2.37,2.37,0,0,0-1.65-2.71c-1-.15-1.95.82-2.06,2.17A2.39,2.39,0,0,0,47.74,153C48.77,153.15,49.69,152.18,49.8,150.82Z"/><path class="cls-7" d="M44.14,144.44a1.78,1.78,0,0,0-1.23-2c-.76-.11-1.46.62-1.54,1.62a1.8,1.8,0,0,0,1.23,2C43.37,146.17,44.06,145.45,44.14,144.44Z"/><path class="cls-8" d="M39.91,143.92a1.8,1.8,0,0,0-1.25-2.06c-.77-.11-1.47.62-1.56,1.65a1.81,1.81,0,0,0,1.26,2.05C39.13,145.67,39.83,144.94,39.91,143.92Z"/><path class="cls-9" d="M43.37,143.63a2.28,2.28,0,0,0-1.57-2.58c-1-.14-1.85.78-2,2.07a2.28,2.28,0,0,0,1.57,2.58C42.38,145.84,43.26,144.91,43.37,143.63Z"/><path class="cls-9" d="M44.07,145.28c.14-1.67-.78-3.17-2-3.35s-2.41,1-2.55,2.69.78,3.17,2,3.35S43.93,147,44.07,145.28Z"/><path class="cls-7" d="M43.76,149.1a1.71,1.71,0,0,0-1.17-1.93c-.74-.11-1.39.59-1.47,1.55a1.7,1.7,0,0,0,1.17,1.92C43,150.75,43.68,150.06,43.76,149.1Z"/><path class="cls-9" d="M40.58,153.32a1.7,1.7,0,0,0-1.18-1.93c-.73-.1-1.38.59-1.46,1.55a1.68,1.68,0,0,0,1.17,1.92C39.84,155,40.5,154.28,40.58,153.32Z"/><path class="cls-9" d="M44.48,152.51a1.64,1.64,0,0,0-1.14-1.86c-.7-.1-1.33.57-1.41,1.49A1.64,1.64,0,0,0,43.06,154C43.77,154.11,44.4,153.44,44.48,152.51Z"/><path class="cls-9" d="M42,155.24a1.65,1.65,0,0,0-1.13-1.87c-.7-.1-1.34.57-1.42,1.5a1.65,1.65,0,0,0,1.14,1.86C41.25,156.83,41.89,156.17,42,155.24Z"/><path class="cls-7" d="M48.08,153a2.56,2.56,0,0,0-1.77-2.91c-1.1-.16-2.09.88-2.21,2.33s.68,2.76,1.77,2.91S48,154.45,48.08,153Z"/><path class="cls-8" d="M49,155.07a1.75,1.75,0,0,0-1.2-2c-.76-.11-1.43.61-1.51,1.59a1.76,1.76,0,0,0,1.21,2C48.2,156.77,48.87,156.06,49,155.07Z"/><path class="cls-9" d="M49.91,160.05a1.29,1.29,0,0,0-.89-1.46c-.55-.08-1.05.44-1.11,1.17a1.29,1.29,0,0,0,.89,1.46C49.35,161.3,49.85,160.77,49.91,160.05Z"/><path class="cls-9" d="M50.43,161.5a.92.92,0,0,0-.63-1c-.4-.05-.75.32-.8.84a.93.93,0,0,0,.64,1C50,162.39,50.38,162,50.43,161.5Z"/><path class="cls-9" d="M52.29,156.48a2.14,2.14,0,0,0-1.48-2.43c-.92-.14-1.75.74-1.85,1.95a2.13,2.13,0,0,0,1.48,2.44C51.36,158.57,52.19,157.7,52.29,156.48Z"/><path class="cls-8" d="M49.37,154.08a1.5,1.5,0,0,0-1-1.73c-.65-.1-1.23.52-1.3,1.38a1.52,1.52,0,0,0,1,1.73C48.72,155.56,49.3,154.93,49.37,154.08Z"/><path class="cls-8" d="M45.92,159.55a1.52,1.52,0,0,0-1.05-1.72c-.65-.1-1.24.53-1.31,1.38a1.53,1.53,0,0,0,1,1.73C45.27,161,45.85,160.41,45.92,159.55Z"/><path class="cls-8" d="M48.41,160.45a1.51,1.51,0,0,0-1-1.72c-.66-.1-1.24.52-1.31,1.38a1.52,1.52,0,0,0,1.05,1.73C47.75,161.93,48.34,161.31,48.41,160.45Z"/><path class="cls-8" d="M46.71,149.44a1.08,1.08,0,0,0-.75-1.22c-.45-.06-.86.37-.91,1a1.08,1.08,0,0,0,.73,1.22C46.24,150.48,46.66,150.05,46.71,149.44Z"/><path class="cls-7" d="M41.74,144c.12-1.46-.68-2.78-1.79-2.94s-2.11.89-2.23,2.35.68,2.78,1.79,2.94S41.62,145.5,41.74,144Z"/><path class="cls-7" d="M42.48,139.79a2,2,0,0,0-1.38-2.27c-.86-.12-1.63.69-1.73,1.82a2,2,0,0,0,1.39,2.28C41.61,141.74,42.39,140.93,42.48,139.79Z"/><path class="cls-6" d="M37,138.33a2.42,2.42,0,0,0-1.66-2.74c-1-.15-2,.84-2.08,2.2a2.4,2.4,0,0,0,1.66,2.73C35.91,140.67,36.83,139.69,37,138.33Z"/><path class="cls-6" d="M37.78,143.37a1.83,1.83,0,0,0-1.26-2.06c-.77-.11-1.47.63-1.56,1.65A1.82,1.82,0,0,0,36.22,145C37,145.13,37.69,144.4,37.78,143.37Z"/><path class="cls-8" d="M42.7,150.49a2.27,2.27,0,0,0-1.57-2.58c-1-.14-1.85.78-2,2.07a2.25,2.25,0,0,0,1.57,2.57C41.71,152.69,42.59,151.77,42.7,150.49Z"/><path class="cls-6" d="M46.32,156.71a1.58,1.58,0,0,0-1.09-1.78c-.67-.09-1.27.54-1.35,1.43A1.58,1.58,0,0,0,45,158.14C45.64,158.24,46.24,157.6,46.32,156.71Z"/><path class="cls-9" d="M42.16,150a1.22,1.22,0,0,0-.85-1.39c-.52-.07-1,.43-1.05,1.11a1.21,1.21,0,0,0,.84,1.39C41.63,151.2,42.1,150.7,42.16,150Z"/><path class="cls-9" d="M31.45,139.31a1.22,1.22,0,0,0-.84-1.39c-.52-.07-1,.43-1.05,1.12a1.21,1.21,0,0,0,.84,1.38C30.93,140.5,31.39,140,31.45,139.31Z"/><path class="cls-9" d="M44.05,159a1.24,1.24,0,0,0-.85-1.39c-.52-.07-1,.42-1.05,1.11a1.22,1.22,0,0,0,.84,1.39C43.52,160.19,44,159.69,44.05,159Z"/><path class="cls-9" d="M43.66,143.78c.14-1.61-.75-3.06-2-3.23s-2.33,1-2.46,2.59.75,3.06,2,3.23S43.53,145.39,43.66,143.78Z"/><path class="cls-9" d="M40.15,153.59c.14-1.62-.74-3.06-2-3.24s-2.31,1-2.45,2.6.75,3.05,2,3.23S40,155.19,40.15,153.59Z"/><path class="cls-6" d="M39.58,145.08a2,2,0,0,0-1.34-2.2c-.83-.12-1.58.67-1.67,1.76a1.94,1.94,0,0,0,1.34,2.2C38.74,147,39.48,146.17,39.58,145.08Z"/><path class="cls-8" d="M37.41,142.83A2,2,0,0,0,36,140.51c-.87-.12-1.66.71-1.76,1.86a2,2,0,0,0,1.41,2.31C36.53,144.81,37.32,144,37.41,142.83Z"/><path class="cls-6" d="M38.39,139.81c.14-1.59-.74-3-2-3.2s-2.29,1-2.43,2.57.75,3,2,3.2S38.26,141.41,38.39,139.81Z"/><path class="cls-9" d="M34.59,137.77a2.56,2.56,0,0,0-1.78-2.92c-1.1-.16-2.09.89-2.22,2.34s.68,2.77,1.78,2.93S34.47,139.23,34.59,137.77Z"/><path class="cls-8" d="M35.29,141.37a1,1,0,0,0-.65-1.08c-.41,0-.77.34-.82.87a.94.94,0,0,0,.66,1.07C34.88,142.3,35.25,141.91,35.29,141.37Z"/><path class="cls-8" d="M30.12,137.73a1,1,0,0,0-.66-1.08c-.4-.06-.77.33-.81.86a.94.94,0,0,0,.65,1.08C29.71,138.65,30.07,138.26,30.12,137.73Z"/><path class="cls-8" d="M31.33,137.25a.94.94,0,0,0-.65-1.07c-.41-.06-.77.32-.82.86a1,1,0,0,0,.66,1.08C30.92,138.18,31.29,137.79,31.33,137.25Z"/><path class="cls-6" d="M39.79,150.22a2.28,2.28,0,0,0-1.58-2.6c-1-.14-1.87.79-2,2.09a2.29,2.29,0,0,0,1.59,2.6C38.8,152.45,39.69,151.52,39.79,150.22Z"/><path class="cls-6" d="M43.59,155.31a1.52,1.52,0,0,0-1.05-1.74c-.67-.1-1.26.53-1.33,1.39a1.54,1.54,0,0,0,1.06,1.75C42.93,156.81,43.52,156.18,43.59,155.31Z"/><path class="cls-7" d="M40.26,147.85a2.39,2.39,0,0,0-1.64-2.7c-1-.14-1.94.82-2,2.16a2.38,2.38,0,0,0,1.64,2.7C39.23,150.15,40.15,149.19,40.26,147.85Z"/><path class="cls-7" d="M41.26,156.08a2.37,2.37,0,0,0-1.64-2.69c-1-.15-1.93.82-2,2.16a2.37,2.37,0,0,0,1.64,2.69C40.23,158.39,41.15,157.43,41.26,156.08Z"/><path class="cls-7" d="M34.84,139.49a.81.81,0,0,0-.56-.9c-.34-.05-.65.27-.69.72a.81.81,0,0,0,.56.92C34.49,140.27,34.79,140,34.84,139.49Z"/><path class="cls-7" d="M30.81,135.55a.8.8,0,0,0-.55-.91c-.34,0-.65.27-.69.73a.79.79,0,0,0,.55.9C30.47,136.32,30.77,136,30.81,135.55Z"/><path class="cls-7" d="M31.91,144.83a1.59,1.59,0,0,0-1.1-1.81c-.69-.1-1.29.55-1.37,1.45a1.57,1.57,0,0,0,1.1,1.8C31.22,146.38,31.84,145.73,31.91,144.83Z"/><path class="cls-8" d="M34.65,148.71A2.42,2.42,0,0,0,33,146c-1-.15-2,.83-2.09,2.2a2.42,2.42,0,0,0,1.67,2.75C33.6,151.06,34.53,150.07,34.65,148.71Z"/><path class="cls-7" d="M38.19,149.75a2.63,2.63,0,0,0-1.8-3c-1.12-.16-2.13.91-2.26,2.38s.69,2.81,1.81,3S38.07,151.23,38.19,149.75Z"/><path class="cls-9" d="M37.29,153.38a1.55,1.55,0,0,0-1.07-1.76c-.67-.1-1.27.54-1.34,1.41A1.55,1.55,0,0,0,36,154.79C36.61,154.88,37.21,154.25,37.29,153.38Z"/><path class="cls-7" d="M49.74,153.29a.92.92,0,0,0-.64-1.06c-.41-.06-.77.32-.81.85a.93.93,0,0,0,.65,1.06C49.34,154.2,49.7,153.82,49.74,153.29Z"/><path class="cls-7" d="M49.07,161.84a1.3,1.3,0,0,0-.9-1.47c-.55-.08-1.05.45-1.11,1.18A1.3,1.3,0,0,0,48,163C48.51,163.1,49,162.57,49.07,161.84Z"/><path class="cls-7" d="M49.53,160.36a1.46,1.46,0,0,0-1-1.66c-.63-.09-1.19.5-1.26,1.33a1.47,1.47,0,0,0,1,1.67C48.9,161.79,49.46,161.19,49.53,160.36Z"/><path class="cls-7" d="M44.71,156.37c.12-1.49-.69-2.82-1.81-3s-2.14.9-2.26,2.39.69,2.81,1.81,3S44.58,157.85,44.71,156.37Z"/><path class="cls-9" d="M48.59,157.34c.12-1.48-.69-2.81-1.81-3s-2.14.91-2.26,2.38.69,2.82,1.81,3S48.47,158.83,48.59,157.34Z"/><path class="cls-8" d="M53.9,160.22a2.33,2.33,0,0,0-1.61-2.65c-1-.15-1.9.81-2,2.12a2.34,2.34,0,0,0,1.62,2.65C52.89,162.48,53.79,161.53,53.9,160.22Z"/><path class="cls-6" d="M52.62,159.55a1,1,0,0,0-.72-1.17c-.45-.07-.85.35-.9.94a1,1,0,0,0,.72,1.18C52.16,160.57,52.57,160.14,52.62,159.55Z"/><path class="cls-9" d="M37.94,145.31a2.55,2.55,0,0,0-1.76-2.9c-1.1-.16-2.09.88-2.2,2.32s.67,2.75,1.76,2.91S37.82,146.76,37.94,145.31Z"/><path class="cls-8" d="M52.45,161A2.13,2.13,0,0,0,51,158.55c-.92-.13-1.74.74-1.84,1.94a2.13,2.13,0,0,0,1.47,2.42C51.53,163,52.34,162.17,52.45,161Z"/><path class="cls-7" d="M49.41,154.14a1,1,0,0,0-.67-1.12c-.42-.06-.8.34-.85.9a1,1,0,0,0,.68,1.11C49,155.09,49.37,154.69,49.41,154.14Z"/><path class="cls-8" d="M43.81,156.37a1,1,0,0,0-.68-1.12c-.42-.06-.8.34-.85.9a1,1,0,0,0,.68,1.11C43.38,157.32,43.76,156.92,43.81,156.37Z"/><path class="cls-8" d="M41.9,158.08a1,1,0,0,0-.68-1.12c-.42-.06-.8.34-.84.9a1,1,0,0,0,.67,1.11C41.47,159,41.85,158.63,41.9,158.08Z"/><path class="cls-7" d="M43.65,158.21a1,1,0,0,0-.68-1.12c-.42-.06-.8.34-.84.9a1,1,0,0,0,.67,1.11C43.23,159.16,43.61,158.76,43.65,158.21Z"/><path class="cls-13" d="M117.06,114.08c-.24-1.26-.43-3-.71-4.24-3.44-7.27-11.33-8.31-17.46-9a34.67,34.67,0,0,0-4.18-.19c-.78.47-1.56.92-2.3,1.28-6.1,2.93-12.4,5.09-18.57,7.74-6.65,2.85-13.41,5.4-20.09,8.22a21.84,21.84,0,0,0-5.37,8.6c-4,12.16,1.26,20.52,4.75,31.68.15.47.77.24.67-.26-2-8.73-6-16.83-3.9-26.49,2.23-10.3,11.75-14.68,18.5-18,15.57-7.54,33.14-12.73,47.77.55A.63.63,0,0,0,117.06,114.08Z"/><path class="cls-13" d="M42.61,131.77c-2.92-1-13.71-4.12-14.38,2.4a.94.94,0,0,0,.64,1.05c1.86.61,4.2-1.18,6.18-1.23a43.42,43.42,0,0,1,7,.88C43.35,135.05,44,132.24,42.61,131.77Z"/><path class="cls-13" d="M103.75,97.73a8.12,8.12,0,0,1-.15,1.71c-.19,1.28,1.37,1.77,1.68.55a6.65,6.65,0,0,0,.39-2.32C105.67,95.81,103.66,95.88,103.75,97.73Z"/><path class="cls-6" d="M142.07,113.2a1.3,1.3,0,0,0,1,1.46c.58,0,1.08-.53,1.11-1.29a1.29,1.29,0,0,0-1-1.46C142.6,111.86,142.1,112.44,142.07,113.2Z"/><path class="cls-7" d="M141.94,113.76a1.19,1.19,0,0,0,.89,1.33c.51,0,1-.48,1-1.17a1.17,1.17,0,0,0-.89-1.32C142.43,112.56,142,113.08,141.94,113.76Z"/><path class="cls-8" d="M150.16,118a1.16,1.16,0,0,0,.87,1.3c.52,0,1-.47,1-1.14a1.16,1.16,0,0,0-.87-1.3C150.63,116.77,150.19,117.29,150.16,118Z"/><path class="cls-7" d="M143.92,118.1a1.69,1.69,0,0,0,1.27,1.89c.74.06,1.38-.69,1.43-1.67a1.67,1.67,0,0,0-1.27-1.88C144.61,116.38,144,117.12,143.92,118.1Z"/><path class="cls-6" d="M150,120a1.7,1.7,0,0,0,1.27,1.9c.75.06,1.38-.69,1.43-1.68a1.68,1.68,0,0,0-1.26-1.89C150.71,118.28,150.07,119,150,120Z"/><path class="cls-9" d="M146.33,116.64c-.07,1.6.84,3,2.06,3.08s2.26-1.12,2.34-2.72-.85-3-2.07-3.08S146.4,115,146.33,116.64Z"/><path class="cls-9" d="M142.77,113.08a1.72,1.72,0,0,0,1.28,1.92c.76.06,1.41-.7,1.45-1.7a1.68,1.68,0,0,0-1.28-1.9C143.47,111.33,142.82,112.09,142.77,113.08Z"/><path class="cls-9" d="M141.27,111.2a1.64,1.64,0,0,0,1.23,1.85c.73,0,1.36-.68,1.41-1.64a1.65,1.65,0,0,0-1.24-1.85C141.94,109.5,141.31,110.23,141.27,111.2Z"/><path class="cls-8" d="M137,107a1.53,1.53,0,0,0,1.15,1.71c.68.05,1.26-.62,1.3-1.51a1.54,1.54,0,0,0-1.14-1.72C137.65,105.43,137.07,106.11,137,107Z"/><path class="cls-6" d="M136.73,110a1.57,1.57,0,0,0,1.18,1.77c.69.06,1.29-.64,1.34-1.56a1.57,1.57,0,0,0-1.18-1.76C137.37,108.34,136.77,109,136.73,110Z"/><path class="cls-9" d="M139,107.45a1.22,1.22,0,0,0,.92,1.37c.54.05,1-.5,1-1.21a1.22,1.22,0,0,0-.92-1.38C139.48,106.19,139,106.73,139,107.45Z"/><path class="cls-9" d="M143.2,112.78c-.08,1.67.88,3.11,2.15,3.21s2.35-1.16,2.43-2.84-.88-3.1-2.15-3.2S143.27,111.11,143.2,112.78Z"/><path class="cls-6" d="M143.69,116.23a2.3,2.3,0,0,0,1.73,2.58c1,.09,1.9-.94,2-2.28a2.29,2.29,0,0,0-1.72-2.58C144.64,113.87,143.76,114.88,143.69,116.23Z"/><path class="cls-6" d="M139.58,111.22a1.56,1.56,0,0,0,1.16,1.74c.69.05,1.27-.64,1.32-1.53a1.55,1.55,0,0,0-1.17-1.74C140.22,109.64,139.63,110.32,139.58,111.22Z"/><path class="cls-7" d="M143.3,118.71a2.38,2.38,0,0,0,1.79,2.67c1.06.08,2-1,2-2.36a2.36,2.36,0,0,0-1.78-2.67C144.28,116.26,143.37,117.31,143.3,118.71Z"/><path class="cls-7" d="M142,110.28a2.38,2.38,0,0,0,1.8,2.67c1.05.09,2-1,2-2.36a2.38,2.38,0,0,0-1.79-2.68C142.94,107.83,142,108.88,142,110.28Z"/><path class="cls-7" d="M145.36,116.61c-.07,1.53.82,2.85,2,2.94s2.16-1.06,2.23-2.6-.81-2.84-2-2.94S145.44,115.08,145.36,116.61Z"/><path class="cls-9" d="M146.16,112.81a1.56,1.56,0,0,0,1.17,1.75c.69,0,1.28-.64,1.33-1.54a1.56,1.56,0,0,0-1.17-1.75C146.8,111.21,146.2,111.9,146.16,112.81Z"/><path class="cls-7" d="M138.39,110.21c-.07,1.54.82,2.86,2,3s2.18-1.08,2.24-2.62-.81-2.85-2-3S138.47,108.67,138.39,110.21Z"/><path class="cls-8" d="M139.33,110.15a1,1,0,0,0,.74,1.11c.43,0,.81-.41.84-1a1,1,0,0,0-.75-1.11C139.73,109.14,139.35,109.57,139.33,110.15Z"/><path class="cls-8" d="M141.23,108.26a1,1,0,0,0,.74,1.11c.44,0,.81-.4.84-1a1,1,0,0,0-.75-1.11C141.63,107.25,141.25,107.68,141.23,108.26Z"/><path class="cls-7" d="M139.42,108.24a1,1,0,0,0,.73,1.1c.45,0,.82-.4.85-1a1,1,0,0,0-.74-1.11C139.82,107.23,139.44,107.66,139.42,108.24Z"/><path class="cls-10" d="M151.77,121.5s0,0-.05,0a1,1,0,0,1-.84-.82l0-.15c0-.06,0-.12,0-.18-1.81-1-2.88-3.49-4.24-5.36-1.58-2.15-2.74-6-5.25-4.89a1.52,1.52,0,0,1-1.81-.79c-.68.32-1.53-.16-1.72-1.23s-.15-2.42-.23-3.63c-4.42.59-9.07,5.18-13.1,7.45-6.17,3.46-12.58,6.14-18.82,9.31-12.33,6.26-25.09,11.45-36.92,19.26l-.25.18A11.87,11.87,0,0,0,65,141.87a8.08,8.08,0,0,0-3.58,2.63,8,8,0,0,0-2.49,5.1,18.17,18.17,0,0,0-.5,7.19,14.28,14.28,0,0,0,2.51,7.44c5.65,8.59,14.79,16.39,23.59,15.44,5.45-.58,10.93-6,15.56-9.36,6.09-4.4,12.31-8.49,18.52-12.57,5.9-3.88,11.75-8,17.82-11.43,4-2.24,9.2-1.86,12.75-5.32C153.54,136.72,153.7,128.84,151.77,121.5Z"/><path class="cls-11" d="M149.05,117.05a20.27,20.27,0,0,0-4-4c-2.14-1.61-4.6-1.69-6.75-3.21a1.43,1.43,0,0,1-.35-1.62,6.24,6.24,0,0,0,.24-3.73.81.81,0,0,0-.46-.11c-4.47.51-9.18,5.19-13.26,7.49-6.17,3.46-12.58,6.14-18.82,9.31-12.33,6.26-25.09,11.45-36.92,19.26l-.25.18A11.87,11.87,0,0,0,65,141.87a8.08,8.08,0,0,0-3.58,2.63,8,8,0,0,0-2.49,5.1,18.17,18.17,0,0,0-.5,7.19,14.28,14.28,0,0,0,2.51,7.44c5.65,8.59,14.79,16.39,23.59,15.44a13.91,13.91,0,0,0,5.17-1.8c3.46-6-4.69-22.41,3.06-26.49,6.59-3.46,43.63-33.24,58-27.62C150.15,122.31,149.75,118.37,149.05,117.05Z"/><path class="cls-12" d="M81.46,160.86c-1.22-2.54-3.25-6.84-2.74-10.19a14.75,14.75,0,0,1-2.89-.27c-5.45-1-10.26-1.14-15.46,1a11.35,11.35,0,0,0-.37,3.71,16.46,16.46,0,0,0,2.71,7.48c.39.64.86,1.37,1.38,2.09a32.38,32.38,0,0,0,2.53,3.88c4.88,6.24,16.11,10.49,20.7,6.15C85.16,170.2,83.46,165,81.46,160.86Z"/><path class="cls-9" d="M86.21,175.72A1.65,1.65,0,0,0,85,173.88c-.73,0-1.36.68-1.4,1.65a1.65,1.65,0,0,0,1.25,1.84C85.55,177.42,86.17,176.68,86.21,175.72Z"/><path class="cls-9" d="M85,176.51a1.42,1.42,0,0,0-1.09-1.61c-.64-.05-1.19.6-1.23,1.44A1.45,1.45,0,0,0,83.8,178C84.44,178,85,177.35,85,176.51Z"/><path class="cls-8" d="M84.42,168.43a1,1,0,0,0-.74-1.09c-.43,0-.8.4-.82,1a1,1,0,0,0,.74,1.09C84,169.43,84.4,169,84.42,168.43Z"/><path class="cls-7" d="M82,175.89a.81.81,0,0,0-.62-.91c-.36,0-.67.33-.69.81a.81.81,0,0,0,.61.91C81.71,176.72,82,176.36,82,175.89Z"/><path class="cls-8" d="M83.76,172.61a1.36,1.36,0,0,0-1-1.55c-.62-.05-1.14.57-1.18,1.38a1.37,1.37,0,0,0,1,1.54C83.2,174,83.73,173.41,83.76,172.61Z"/><path class="cls-6" d="M83.41,169.17a.85.85,0,0,0-.65-.95c-.37,0-.7.35-.72.85a.84.84,0,0,0,.64.94C83.06,170,83.38,169.67,83.41,169.17Z"/><path class="cls-8" d="M79.58,173.18a1.7,1.7,0,0,0-1.29-1.9c-.75-.05-1.4.71-1.44,1.7a1.68,1.68,0,0,0,1.28,1.9C78.89,174.94,79.53,174.18,79.58,173.18Z"/><path class="cls-9" d="M84.15,175a1,1,0,0,0-.75-1.09c-.43,0-.81.4-.83,1a1,1,0,0,0,.74,1.09C83.75,176,84.12,175.59,84.15,175Z"/><path class="cls-6" d="M81.66,170.59a1.3,1.3,0,0,0-1-1.45c-.58,0-1.07.54-1.1,1.29a1.27,1.27,0,0,0,1,1.44C81.14,171.92,81.63,171.34,81.66,170.59Z"/><path class="cls-9" d="M81.38,171.55a2,2,0,0,0-1.53-2.26c-.9-.07-1.66.84-1.72,2a2,2,0,0,0,1.54,2.27C80.56,173.64,81.33,172.74,81.38,171.55Z"/><path class="cls-6" d="M81.45,167.32c.07-1.54-.83-2.85-2-2.94s-2.17,1.09-2.23,2.63.82,2.85,2,2.94S81.38,168.86,81.45,167.32Z"/><path class="cls-8" d="M77.49,162.91a1.18,1.18,0,0,0-.89-1.32c-.53,0-1,.49-1,1.18a1.18,1.18,0,0,0,.89,1.32C77,164.13,77.46,163.6,77.49,162.91Z"/><path class="cls-9" d="M79.56,168.55a1,1,0,0,0-.76-1.12c-.45,0-.83.42-.86,1a1,1,0,0,0,.77,1.13C79.16,169.59,79.53,169.14,79.56,168.55Z"/><path class="cls-8" d="M80.23,169a2.31,2.31,0,0,0-1.76-2.6c-1-.08-1.92,1-2,2.32a2.31,2.31,0,0,0,1.76,2.6C79.29,171.37,80.17,170.33,80.23,169Z"/><path class="cls-7" d="M79.38,166.92a1.14,1.14,0,0,0-.87-1.28c-.5,0-.94.47-1,1.14a1.15,1.15,0,0,0,.87,1.29C78.92,168.11,79.36,167.59,79.38,166.92Z"/><path class="cls-8" d="M80.2,161.12a2.26,2.26,0,0,0-1.72-2.55c-1-.08-1.88.94-1.94,2.27a2.27,2.27,0,0,0,1.73,2.55C79.28,163.47,80.15,162.45,80.2,161.12Z"/><path class="cls-9" d="M76.72,160.8a1.8,1.8,0,0,0-1.37-2c-.8-.05-1.5.75-1.54,1.82a1.81,1.81,0,0,0,1.37,2C76,162.68,76.68,161.87,76.72,160.8Z"/><path class="cls-6" d="M73.84,168.46a1.28,1.28,0,0,0-1-1.45c-.58,0-1.07.54-1.11,1.29a1.3,1.3,0,0,0,1,1.46C73.32,169.8,73.81,169.22,73.84,168.46Z"/><path class="cls-7" d="M74,167.89a1.16,1.16,0,0,0-.89-1.31c-.51,0-1,.49-1,1.17a1.18,1.18,0,0,0,.89,1.32C73.49,169.11,73.94,168.58,74,167.89Z"/><path class="cls-8" d="M76.35,165.91c.07-1.72-.93-3.19-2.23-3.29s-2.42,1.22-2.5,2.94.92,3.19,2.23,3.29S76.27,167.63,76.35,165.91Z"/><path class="cls-7" d="M79.53,155.6c.07-1.52-.82-2.83-2-2.91s-2.14,1.08-2.21,2.59.82,2.83,2,2.92S79.47,157.12,79.53,155.6Z"/><path class="cls-7" d="M73.9,160.78c.07-1.72-.93-3.21-2.23-3.3s-2.43,1.22-2.51,3,.93,3.2,2.24,3.29S73.82,162.5,73.9,160.78Z"/><path class="cls-9" d="M73,160.68c.06-1.52-.82-2.81-2-2.89s-2.13,1.07-2.19,2.58.81,2.8,2,2.89S73,162.19,73,160.68Z"/><path class="cls-8" d="M77.65,160a1.89,1.89,0,0,0-1.44-2.13c-.85-.06-1.57.79-1.62,1.9A1.89,1.89,0,0,0,76,161.88C76.88,162,77.6,161.1,77.65,160Z"/><path class="cls-8" d="M76,155.75a2.06,2.06,0,0,0-1.57-2.31c-.92-.07-1.71.86-1.76,2.06a2.06,2.06,0,0,0,1.57,2.32C75.19,157.89,76,157,76,155.75Z"/><path class="cls-9" d="M77.44,151.22a1.24,1.24,0,0,0-1-1.41c-.56,0-1,.51-1.06,1.26a1.24,1.24,0,0,0,.95,1.4C76.93,152.52,77.41,152,77.44,151.22Z"/><path class="cls-9" d="M71.29,157.13a1.33,1.33,0,0,0-1-1.49c-.59,0-1.1.55-1.13,1.32a1.32,1.32,0,0,0,1,1.49C70.75,158.5,71.26,157.9,71.29,157.13Z"/><path class="cls-8" d="M65.73,163.75a1.15,1.15,0,0,0-.88-1.29c-.51,0-.95.48-1,1.16a1.15,1.15,0,0,0,.88,1.29C65.26,165,65.7,164.43,65.73,163.75Z"/><path class="cls-7" d="M72,163.57a1.68,1.68,0,0,0-1.27-1.88c-.75-.06-1.39.7-1.43,1.68a1.66,1.66,0,0,0,1.27,1.87C71.28,165.3,71.93,164.55,72,163.57Z"/><path class="cls-8" d="M75.39,155.58c.06-1.46-.79-2.72-1.9-2.8s-2.06,1-2.13,2.5.79,2.72,1.9,2.8S75.32,157.05,75.39,155.58Z"/><path class="cls-8" d="M77.86,156.31a2,2,0,0,0-1.51-2.23c-.89-.07-1.65.82-1.7,2a2,2,0,0,0,1.52,2.23C77.05,158.37,77.81,157.48,77.86,156.31Z"/><path class="cls-8" d="M76.14,153.76a1.4,1.4,0,0,0-1.06-1.57c-.62,0-1.15.58-1.19,1.4A1.4,1.4,0,0,0,75,155.16C75.58,155.2,76.11,154.58,76.14,153.76Z"/><path class="cls-6" d="M72,157c.08-1.73-.92-3.2-2.23-3.3s-2.43,1.22-2.5,2.94.93,3.2,2.23,3.3S71.91,158.69,72,157Z"/><path class="cls-9" d="M69.24,157.26c.06-1.42-.76-2.64-1.84-2.72s-2,1-2.06,2.43a2.41,2.41,0,0,0,1.84,2.71C68.25,159.76,69.18,158.68,69.24,157.26Z"/><path class="cls-6" d="M65.86,161.71a1.69,1.69,0,0,0-1.28-1.89c-.74-.06-1.38.7-1.42,1.68a1.66,1.66,0,0,0,1.27,1.88C65.18,163.44,65.82,162.69,65.86,161.71Z"/><path class="cls-9" d="M69.57,165.05c.06-1.6-.87-3-2.08-3.06s-2.26,1.13-2.32,2.73.86,3,2.07,3.07S69.5,166.65,69.57,165.05Z"/><path class="cls-9" d="M69.62,156.46a1.51,1.51,0,0,0-1.15-1.7c-.68,0-1.26.63-1.3,1.52a1.51,1.51,0,0,0,1.16,1.7C69,158,69.58,157.35,69.62,156.46Z"/><path class="cls-8" d="M72.54,153.15a.9.9,0,0,0-.69-1c-.4,0-.74.37-.77.9a.9.9,0,0,0,.69,1C72.17,154.08,72.52,153.68,72.54,153.15Z"/><path class="cls-9" d="M69.29,155.69a1.44,1.44,0,0,0-1.09-1.6c-.63,0-1.18.59-1.21,1.43a1.43,1.43,0,0,0,1.08,1.6C68.71,157.16,69.25,156.52,69.29,155.69Z"/><path class="cls-7" d="M67.73,156.32a.82.82,0,0,0-.63-.92c-.37,0-.69.34-.71.83a.84.84,0,0,0,.63.92C67.39,157.17,67.71,156.81,67.73,156.32Z"/><path class="cls-9" d="M65.42,163.52a1.61,1.61,0,0,0-1.22-1.81c-.72-.05-1.34.67-1.38,1.62a1.61,1.61,0,0,0,1.23,1.81C64.77,165.19,65.38,164.47,65.42,163.52Z"/><path class="cls-7" d="M66.09,159.52A2.27,2.27,0,0,0,64.37,157c-1-.07-1.87.94-1.93,2.27a2.26,2.26,0,0,0,1.72,2.53C65.17,161.86,66,160.85,66.09,159.52Z"/><path class="cls-7" d="M69.88,158.39a1.66,1.66,0,0,0-1.27-1.87c-.74-.06-1.39.69-1.43,1.67a1.67,1.67,0,0,0,1.27,1.88C69.2,160.13,69.84,159.38,69.88,158.39Z"/><path class="cls-8" d="M70.57,156a1.15,1.15,0,0,0-.88-1.29c-.5,0-.94.48-1,1.16a1.16,1.16,0,0,0,.88,1.29C70.1,157.15,70.54,156.64,70.57,156Z"/><path class="cls-7" d="M70.15,151.93a1.63,1.63,0,0,0-1.24-1.82c-.72-.06-1.34.67-1.38,1.62a1.63,1.63,0,0,0,1.23,1.83C69.49,153.61,70.11,152.88,70.15,151.93Z"/><path class="cls-6" d="M67.73,153a2,2,0,0,0-1.55-2.29c-.91-.07-1.68.85-1.74,2A2,2,0,0,0,66,155.07C66.9,155.14,67.67,154.23,67.73,153Z"/><path class="cls-8" d="M69,157a2,2,0,0,0-1.51-2.24c-.89-.06-1.65.83-1.7,2A2,2,0,0,0,67.28,159C68.17,159.09,68.93,158.2,69,157Z"/><path class="cls-9" d="M72.53,152.61c.06-1.51-.81-2.8-2-2.88s-2.12,1.06-2.19,2.57.81,2.81,2,2.89S72.47,154.12,72.53,152.61Z"/><path class="cls-9" d="M67.18,151.56a1,1,0,0,0-.77-1.14c-.46,0-.84.43-.87,1a1,1,0,0,0,.77,1.14C66.76,152.62,67.15,152.16,67.18,151.56Z"/><path class="cls-6" d="M64.84,153a1.28,1.28,0,0,0-1-1.45c-.58-.05-1.07.53-1.1,1.29a1.29,1.29,0,0,0,1,1.45C64.32,154.34,64.81,153.77,64.84,153Z"/><path class="cls-6" d="M65,157.47a2.08,2.08,0,0,0-1.58-2.33c-.92-.07-1.71.86-1.76,2.08a2.07,2.07,0,0,0,1.58,2.32C64.19,159.61,65,158.68,65,157.47Z"/><path class="cls-7" d="M66.36,156.46c.06-1.41-.76-2.63-1.84-2.7s-2,1-2,2.41.76,2.64,1.83,2.72S66.3,157.88,66.36,156.46Z"/><path class="cls-7" d="M62.78,155.79a1.87,1.87,0,0,0-1.41-2.1c-.83-.06-1.54.78-1.59,1.87a1.86,1.86,0,0,0,1.42,2.09C62,157.71,62.74,156.87,62.78,155.79Z"/><path class="cls-8" d="M62.09,158.06a.88.88,0,0,0-.67-1c-.39,0-.72.36-.75.88a.89.89,0,0,0,.68,1C61.74,159,62.07,158.57,62.09,158.06Z"/><path class="cls-9" d="M79.07,163.93a2,2,0,0,0-1.53-2.26c-.89-.07-1.66.83-1.71,2A2,2,0,0,0,77.36,166C78.25,166,79,165.11,79.07,163.93Z"/><path class="cls-8" d="M75.84,154.1a2.16,2.16,0,0,0-1.63-2.41c-1-.07-1.77.9-1.82,2.15A2.14,2.14,0,0,0,74,156.25C75,156.32,75.78,155.36,75.84,154.1Z"/><path class="cls-9" d="M75,153a1.17,1.17,0,0,0-.89-1.31c-.52,0-1,.49-1,1.17a1.18,1.18,0,0,0,.89,1.31C74.49,154.21,74.93,153.69,75,153Z"/><path class="cls-7" d="M79.13,159.08a1.57,1.57,0,0,0-1.21-1.78c-.71-.06-1.31.66-1.35,1.59a1.59,1.59,0,0,0,1.21,1.79C78.49,160.73,79.09,160,79.13,159.08Z"/><path class="cls-8" d="M80.83,165.09a2,2,0,0,0-1.5-2.22c-.88-.06-1.64.82-1.69,2a2,2,0,0,0,1.51,2.22C80,167.14,80.78,166.25,80.83,165.09Z"/><path class="cls-7" d="M84,171.8a1,1,0,0,0-.76-1.13c-.45,0-.84.42-.87,1a1,1,0,0,0,.77,1.13C83.6,172.85,84,172.39,84,171.8Z"/><path class="cls-7" d="M82.66,166.31a.85.85,0,0,0-.65-.95c-.37,0-.69.35-.72.85a.86.86,0,0,0,.65.95C82.31,167.18,82.64,166.81,82.66,166.31Z"/><path class="cls-9" d="M82.55,165.34a2.39,2.39,0,0,0-1.81-2.68c-1.08-.08-2,1-2,2.39s.75,2.61,1.81,2.68S82.49,166.75,82.55,165.34Z"/><path class="cls-7" d="M76.45,159.16a1.79,1.79,0,0,0-1.36-2c-.79,0-1.47.75-1.52,1.79a1.79,1.79,0,0,0,1.36,2C75.72,161,76.4,160.21,76.45,159.16Z"/><path class="cls-8" d="M72.06,158.93a1.81,1.81,0,0,0-1.37-2c-.8-.06-1.49.76-1.54,1.82a1.81,1.81,0,0,0,1.38,2C71.33,160.8,72,160,72.06,158.93Z"/><path class="cls-9" d="M75.61,158.39a2.27,2.27,0,0,0-1.72-2.55c-1-.07-1.88.94-1.93,2.27a2.26,2.26,0,0,0,1.72,2.55C74.69,160.73,75.56,159.72,75.61,158.39Z"/><path class="cls-9" d="M76.41,160c.07-1.73-.93-3.21-2.25-3.31s-2.44,1.22-2.52,3,.94,3.22,2.25,3.31S76.33,161.78,76.41,160Z"/><path class="cls-7" d="M76.25,164A1.69,1.69,0,0,0,75,162.1c-.76-.06-1.4.7-1.45,1.7a1.69,1.69,0,0,0,1.29,1.9C75.56,165.76,76.2,165,76.25,164Z"/><path class="cls-9" d="M73.14,168.58a1.7,1.7,0,0,0-1.29-1.9c-.76-.06-1.4.71-1.44,1.7a1.69,1.69,0,0,0,1.28,1.9C72.45,170.34,73.1,169.58,73.14,168.58Z"/><path class="cls-9" d="M77.13,167.47a1.64,1.64,0,0,0-1.25-1.84c-.72-.06-1.35.68-1.39,1.64a1.62,1.62,0,0,0,1.24,1.84C76.46,169.17,77.09,168.43,77.13,167.47Z"/><path class="cls-9" d="M74.65,170.46a1.64,1.64,0,0,0-1.24-1.84c-.74-.06-1.36.68-1.4,1.64a1.63,1.63,0,0,0,1.24,1.84C74,172.16,74.61,171.42,74.65,170.46Z"/><path class="cls-7" d="M80.86,167.71c.07-1.51-.8-2.79-1.94-2.88s-2.12,1.07-2.19,2.57.82,2.79,2,2.88S80.8,169.21,80.86,167.71Z"/><path class="cls-8" d="M81.85,169.78a1.75,1.75,0,0,0-1.33-2c-.78-.06-1.44.73-1.48,1.75a1.72,1.72,0,0,0,1.32,2C81.14,171.59,81.81,170.81,81.85,169.78Z"/><path class="cls-9" d="M83,174.85a1.27,1.27,0,0,0-1-1.44c-.57,0-1.06.53-1.09,1.28a1.27,1.27,0,0,0,1,1.44C82.52,176.18,83,175.6,83,174.85Z"/><path class="cls-9" d="M83.64,176.31a.92.92,0,0,0-.7-1c-.41,0-.76.38-.78.92a.92.92,0,0,0,.7,1C83.27,177.26,83.61,176.84,83.64,176.31Z"/><path class="cls-9" d="M85.35,171a2.13,2.13,0,0,0-1.63-2.41c-1-.07-1.77.9-1.83,2.15a2.15,2.15,0,0,0,1.63,2.41C84.48,173.22,85.3,172.26,85.35,171Z"/><path class="cls-8" d="M82.24,168.73A1.52,1.52,0,0,0,81.09,167c-.68-.05-1.25.63-1.29,1.53a1.52,1.52,0,0,0,1.15,1.7C81.63,170.3,82.2,169.62,82.24,168.73Z"/><path class="cls-8" d="M78.91,174.63a1.52,1.52,0,0,0-1.16-1.71c-.67,0-1.25.63-1.29,1.52a1.52,1.52,0,0,0,1.15,1.71C78.29,176.2,78.87,175.52,78.91,174.63Z"/><path class="cls-8" d="M81.51,175.37a1.51,1.51,0,0,0-1.15-1.7c-.68,0-1.26.63-1.29,1.52a1.5,1.5,0,0,0,1.15,1.7C80.9,176.94,81.47,176.26,81.51,175.37Z"/><path class="cls-8" d="M79.3,164.14a1.06,1.06,0,0,0-.82-1.2c-.47,0-.88.44-.9,1.07a1.06,1.06,0,0,0,.81,1.2C78.86,165.25,79.27,164.77,79.3,164.14Z"/><path class="cls-7" d="M74,158.92c.06-1.51-.82-2.81-2-2.9s-2.14,1.08-2.2,2.59.81,2.82,2,2.91S73.89,160.44,74,158.92Z"/><path class="cls-7" d="M74.54,154.5A2,2,0,0,0,73,152.25c-.89-.06-1.65.83-1.7,2a2,2,0,0,0,1.52,2.24C73.73,156.57,74.49,155.67,74.54,154.5Z"/><path class="cls-6" d="M68.78,153.39c.06-1.42-.76-2.63-1.83-2.71s-2,1-2,2.42a2.41,2.41,0,0,0,1.83,2.7C67.81,155.88,68.72,154.8,68.78,153.39Z"/><path class="cls-6" d="M69.84,158.52a1.8,1.8,0,0,0-1.38-2c-.8-.06-1.49.76-1.54,1.82a1.81,1.81,0,0,0,1.38,2C69.1,160.4,69.79,159.59,69.84,158.52Z"/><path class="cls-8" d="M75.21,165.51A2.27,2.27,0,0,0,73.48,163c-1-.08-1.87.94-1.93,2.27a2.28,2.28,0,0,0,1.73,2.55C74.29,167.86,75.16,166.84,75.21,165.51Z"/><path class="cls-6" d="M79.2,171.67A1.57,1.57,0,0,0,78,169.91c-.7,0-1.29.65-1.34,1.57a1.57,1.57,0,0,0,1.2,1.76C78.56,173.29,79.16,172.59,79.2,171.67Z"/><path class="cls-9" d="M74.63,165.05a1.22,1.22,0,0,0-.93-1.37c-.54,0-1,.51-1,1.23a1.22,1.22,0,0,0,.92,1.37C74.14,166.32,74.6,165.77,74.63,165.05Z"/><path class="cls-9" d="M63.15,154.79a1.23,1.23,0,0,0-.93-1.37c-.54,0-1,.51-1,1.23a1.22,1.22,0,0,0,.92,1.37C62.66,156.06,63.12,155.51,63.15,154.79Z"/><path class="cls-9" d="M77,174.19a1.22,1.22,0,0,0-.92-1.37c-.55,0-1,.51-1,1.22a1.22,1.22,0,0,0,.92,1.37C76.46,175.45,76.92,174.91,77,174.19Z"/><path class="cls-9" d="M75.93,158.52c.07-1.67-.9-3.1-2.17-3.19s-2.35,1.18-2.42,2.85.9,3.1,2.16,3.19S75.86,160.19,75.93,158.52Z"/><path class="cls-9" d="M72.71,168.89c.08-1.67-.89-3.1-2.16-3.2s-2.35,1.18-2.42,2.86.9,3.09,2.16,3.19S72.64,170.56,72.71,168.89Z"/><path class="cls-6" d="M71.77,160.16A1.94,1.94,0,0,0,70.3,158c-.87-.07-1.61.8-1.65,1.93a1.94,1.94,0,0,0,1.47,2.18C71,162.16,71.72,161.29,71.77,160.16Z"/><path class="cls-8" d="M69.44,158a2,2,0,0,0-1.55-2.29c-.9-.06-1.68.85-1.73,2A2,2,0,0,0,67.71,160C68.61,160.1,69.39,159.19,69.44,158Z"/><path class="cls-6" d="M70.33,154.81c.07-1.65-.89-3.07-2.15-3.16s-2.32,1.17-2.4,2.82.89,3.08,2.15,3.17S70.26,156.47,70.33,154.81Z"/><path class="cls-9" d="M66.32,153c.07-1.51-.81-2.8-1.95-2.89s-2.13,1.07-2.19,2.58.81,2.8,1.95,2.89S66.26,154.49,66.32,153Z"/><path class="cls-8" d="M67.19,156.64a.94.94,0,0,0-.71-1.06c-.43,0-.79.4-.81.95a.94.94,0,0,0,.72,1.06C66.81,157.62,67.17,157.2,67.19,156.64Z"/><path class="cls-8" d="M61.71,153.25a1,1,0,0,0-.73-1.06c-.41,0-.78.4-.8.95a.94.94,0,0,0,.72,1.06C61.32,154.24,61.68,153.81,61.71,153.25Z"/><path class="cls-8" d="M62.94,152.68a1,1,0,0,0-.72-1.07c-.42,0-.78.4-.8.95a1,1,0,0,0,.72,1.07C62.56,153.66,62.91,153.24,62.94,152.68Z"/><path class="cls-6" d="M72.2,165.44a2.29,2.29,0,0,0-1.74-2.57c-1-.08-1.89.95-1.95,2.3a2.29,2.29,0,0,0,1.74,2.57C71.27,167.81,72.15,166.79,72.2,165.44Z"/><path class="cls-6" d="M76.33,170.42a1.54,1.54,0,0,0-1.16-1.73c-.69-.05-1.27.65-1.31,1.54A1.54,1.54,0,0,0,75,172C75.71,172,76.3,171.32,76.33,170.42Z"/><path class="cls-7" d="M72.58,163a2.36,2.36,0,0,0-1.8-2.66c-1-.08-2,1-2,2.38a2.37,2.37,0,0,0,1.81,2.66C71.62,165.42,72.52,164.35,72.58,163Z"/><path class="cls-7" d="M74,171.38a2.37,2.37,0,0,0-1.81-2.66c-1.05-.08-2,1-2,2.38a2.36,2.36,0,0,0,1.8,2.66C73,173.84,73.9,172.77,74,171.38Z"/><path class="cls-7" d="M66.65,154.74a.81.81,0,0,0-.61-.9c-.36,0-.66.33-.68.8a.8.8,0,0,0,.61.9C66.32,155.57,66.63,155.21,66.65,154.74Z"/><path class="cls-7" d="M62.33,151a.8.8,0,0,0-.6-.9c-.36,0-.67.33-.69.8a.81.81,0,0,0,.61.9C62,151.78,62.31,151.42,62.33,151Z"/><path class="cls-7" d="M63.85,160.45a1.6,1.6,0,0,0-1.21-1.79c-.71,0-1.31.66-1.35,1.6a1.58,1.58,0,0,0,1.2,1.78C63.21,162.09,63.81,161.38,63.85,160.45Z"/><path class="cls-8" d="M66.83,164.25A2.4,2.4,0,0,0,65,161.54c-1.08-.08-2,1-2.06,2.42a2.41,2.41,0,0,0,1.84,2.71C65.85,166.75,66.78,165.67,66.83,164.25Z"/><path class="cls-7" d="M70.53,165.08c.07-1.54-.82-2.85-2-2.93s-2.16,1.08-2.23,2.61.83,2.84,2,2.93S70.46,166.61,70.53,165.08Z"/><path class="cls-9" d="M69.75,168.88a1.55,1.55,0,0,0-1.18-1.74c-.69,0-1.28.65-1.32,1.55a1.55,1.55,0,0,0,1.18,1.74C69.12,170.48,69.71,169.79,69.75,168.88Z"/><path class="cls-7" d="M82.59,167.89a.94.94,0,0,0-.71-1c-.42,0-.77.39-.8.94a1,1,0,0,0,.71,1.05C82.21,168.86,82.57,168.44,82.59,167.89Z"/><path class="cls-7" d="M82.25,176.76a1.29,1.29,0,0,0-1-1.45c-.57,0-1.06.53-1.1,1.29a1.31,1.31,0,0,0,1,1.46C81.72,178.1,82.22,177.52,82.25,176.76Z"/><path class="cls-7" d="M82.66,175.2a1.45,1.45,0,0,0-1.11-1.64c-.65-.05-1.21.6-1.25,1.46a1.46,1.46,0,0,0,1.11,1.65C82.07,176.72,82.62,176.06,82.66,175.2Z"/><path class="cls-7" d="M77.53,171.43c.06-1.54-.83-2.86-2-3s-2.17,1.09-2.24,2.63.83,2.85,2,2.94S77.46,173,77.53,171.43Z"/><path class="cls-9" d="M81.57,172.16c.07-1.54-.83-2.86-2-2.95s-2.17,1.09-2.23,2.63.82,2.85,2,2.94S81.51,173.69,81.57,172.16Z"/><path class="cls-8" d="M87.17,174.73a2.34,2.34,0,0,0-1.77-2.61c-1-.08-1.93,1-2,2.33a2.34,2.34,0,0,0,1.78,2.62C86.22,177.15,87.11,176.1,87.17,174.73Z"/><path class="cls-6" d="M85.82,174.15A1.05,1.05,0,0,0,85,173c-.46,0-.86.43-.89,1a1.06,1.06,0,0,0,.8,1.17C85.39,175.22,85.79,174.76,85.82,174.15Z"/><path class="cls-9" d="M70.09,160.51c.06-1.5-.8-2.78-1.94-2.87S66,158.71,66,160.2s.8,2.78,1.94,2.87S70,162,70.09,160.51Z"/><path class="cls-8" d="M85.7,175.62a2.13,2.13,0,0,0-1.62-2.39c-1-.07-1.76.88-1.81,2.13a2.12,2.12,0,0,0,1.62,2.39C84.83,177.82,85.64,176.86,85.7,175.62Z"/><path class="cls-7" d="M82.29,168.79a1,1,0,0,0-.75-1.1c-.43,0-.81.41-.83,1a1,1,0,0,0,.74,1.1C81.89,169.81,82.26,169.37,82.29,168.79Z"/><path class="cls-8" d="M76.6,171.49a1,1,0,0,0-.75-1.1c-.44,0-.81.41-.83,1a1,1,0,0,0,.74,1.1C76.2,172.51,76.57,172.07,76.6,171.49Z"/><path class="cls-8" d="M74.7,173.39a1,1,0,0,0-.74-1.1c-.44,0-.82.41-.84,1a1,1,0,0,0,.75,1.1C74.3,174.41,74.68,174,74.7,173.39Z"/><path class="cls-7" d="M76.51,173.4a1,1,0,0,0-.74-1.1c-.44,0-.81.41-.84,1a1,1,0,0,0,.75,1.11C76.12,174.42,76.49,174,76.51,173.4Z"/><path class="cls-13" d="M150.39,122.62c-.3-1.29-.57-3-.92-4.33-3.84-7.26-12-7.75-18.37-8a36.45,36.45,0,0,0-4.32.1c-.79.54-1.57,1.06-2.32,1.49-6.17,3.46-12.58,6.14-18.82,9.31-6.75,3.43-13.61,6.54-20.38,9.92a23.62,23.62,0,0,0-5.19,9.26c-3.59,12.82,2.16,21.08,6.22,32.33.17.48.81.2.67-.32-2.38-8.86-6.87-16.92-5.11-27,1.87-10.77,11.5-16,18.33-19.84,15.74-8.89,33.65-15.52,49.29-2.88A.65.65,0,0,0,150.39,122.62Z"/><path class="cls-13" d="M74.34,146.21c-3-.83-14.31-3.26-14.73,3.52a.93.93,0,0,0,.7,1c1.95.49,4.29-1.52,6.33-1.71a45,45,0,0,1,7.23.4C75.25,149.55,75.77,146.6,74.34,146.21Z"/><path class="cls-13" d="M136,106.71a8.69,8.69,0,0,1-.08,1.77c-.14,1.33,1.48,1.73,1.75.45a7,7,0,0,0,.31-2.42C137.88,104.59,135.81,104.8,136,106.71Z"/><path class="cls-6" d="M177.81,120.34a1.3,1.3,0,0,0,1.09,1.45,1.31,1.31,0,0,0,1.1-1.43c0-.8-.49-1.45-1.09-1.45S177.81,119.54,177.81,120.34Z"/><path class="cls-7" d="M177.7,120.94c0,.72.44,1.31,1,1.31s1-.57,1-1.29a1.19,1.19,0,0,0-1-1.32C178.15,119.64,177.71,120.22,177.7,120.94Z"/><path class="cls-8" d="M186.48,124.69a1.16,1.16,0,0,0,1,1.29c.53,0,1-.57,1-1.28s-.44-1.29-1-1.29S186.48,124,186.48,124.69Z"/><path class="cls-7" d="M180,125.32c0,1,.64,1.87,1.41,1.87s1.42-.83,1.42-1.85a1.68,1.68,0,0,0-1.4-1.87C180.61,123.46,180,124.29,180,125.32Z"/><path class="cls-6" d="M186.42,126.84c0,1,.63,1.87,1.41,1.87s1.42-.82,1.43-1.85a1.47,1.47,0,1,0-2.84,0Z"/><path class="cls-9" d="M182.42,123.6c0,1.68,1,3.05,2.29,3.06s2.31-1.34,2.32-3-1-3-2.3-3.06S182.42,121.93,182.42,123.6Z"/><path class="cls-9" d="M178.54,120.16a1.7,1.7,0,0,0,1.42,1.9c.8,0,1.44-.83,1.44-1.88a1.48,1.48,0,1,0-2.86,0Z"/><path class="cls-9" d="M176.89,118.31a1.43,1.43,0,1,0,1.38-1.81C177.51,116.49,176.89,117.3,176.89,118.31Z"/><path class="cls-8" d="M172.26,114.26a1.55,1.55,0,0,0,1.28,1.7,1.52,1.52,0,0,0,1.29-1.68c0-.94-.57-1.7-1.27-1.7S172.27,113.32,172.26,114.26Z"/><path class="cls-6" d="M172.09,117.37a1.58,1.58,0,0,0,1.31,1.75c.73,0,1.32-.77,1.33-1.73s-.59-1.75-1.32-1.75S172.09,116.41,172.09,117.37Z"/><path class="cls-9" d="M174.33,114.58c0,.75.45,1.36,1,1.36a1.23,1.23,0,0,0,1-1.35c0-.75-.45-1.36-1-1.36S174.33,113.83,174.33,114.58Z"/><path class="cls-9" d="M179,119.82c0,1.75,1.07,3.17,2.39,3.18s2.41-1.4,2.42-3.15-1.07-3.17-2.39-3.18S179,118.07,179,119.82Z"/><path class="cls-6" d="M179.64,123.38c0,1.41.86,2.56,1.93,2.56s1.94-1.13,1.94-2.53-.85-2.56-1.92-2.56S179.65,122,179.64,123.38Z"/><path class="cls-6" d="M175.13,118.47a1.35,1.35,0,1,0,1.3-1.7A1.55,1.55,0,0,0,175.13,118.47Z"/><path class="cls-7" d="M179.35,126c0,1.46.89,2.64,2,2.65s2-1.17,2-2.62-.88-2.65-2-2.66S179.35,124.54,179.35,126Z"/><path class="cls-7" d="M177.57,117.3c0,1.45.89,2.64,2,2.65s2-1.17,2-2.62-.89-2.65-2-2.66S177.58,115.84,177.57,117.3Z"/><path class="cls-7" d="M181.41,123.65c0,1.6,1,2.91,2.19,2.92s2.21-1.29,2.21-2.89-1-2.91-2.19-2.92S181.41,122,181.41,123.65Z"/><path class="cls-9" d="M182.07,119.62a1.56,1.56,0,0,0,1.3,1.73c.72,0,1.31-.76,1.32-1.71s-.58-1.73-1.31-1.73S182.07,118.66,182.07,119.62Z"/><path class="cls-7" d="M173.84,117.5c0,1.62,1,2.93,2.2,2.94s2.22-1.29,2.22-2.9-1-2.93-2.2-2.93S173.84,115.89,173.84,117.5Z"/><path class="cls-8" d="M174.81,117.37c0,.6.37,1.1.82,1.1s.83-.49.84-1.09a.86.86,0,1,0-1.66,0Z"/><path class="cls-8" d="M176.71,115.25a1,1,0,0,0,.82,1.1,1,1,0,0,0,.84-1.09,1,1,0,0,0-.83-1.1C177.08,114.16,176.71,114.64,176.71,115.25Z"/><path class="cls-7" d="M174.82,115.37c0,.6.37,1.09.82,1.09s.83-.48.84-1.08a1,1,0,0,0-.83-1.1C175.19,114.28,174.82,114.76,174.82,115.37Z"/><path class="cls-10" d="M188.31,128.25h-.05a1,1,0,0,1-.92-.8l-.05-.14c0-.07,0-.13,0-.19-2-1-3.17-3.42-4.68-5.27-1.75-2.13-3.12-6.06-5.7-4.69a1.55,1.55,0,0,1-1.92-.69c-.7.38-1.61,0-1.85-1.15a36.7,36.7,0,0,1-.41-3.78c-4.59,1-9.24,6.12-13.35,8.8-6.28,4.1-12.86,7.4-19.24,11.2-12.59,7.49-25.68,13.92-37.69,23a2.43,2.43,0,0,1-.25.2,13,13,0,0,0-3.58,1.56,11.49,11.49,0,0,0-6,8.54,19,19,0,0,0-.2,7.55A14.55,14.55,0,0,0,95.35,180c6.29,8.54,16.18,16,25.33,14.29,5.67-1,11.15-7.13,15.84-11,6.15-5.07,12.47-9.83,18.77-14.57,6-4.52,11.91-9.29,18.1-13.33,4.06-2.65,9.52-2.66,13.07-6.55C190.85,144,190.66,135.78,188.31,128.25Z"/><path class="cls-11" d="M185.27,123.82a19.81,19.81,0,0,0-4.36-3.83c-2.31-1.52-4.88-1.41-7.2-2.83a1.48,1.48,0,0,1-.43-1.66,6.57,6.57,0,0,0,.08-3.92.81.81,0,0,0-.49-.07c-4.64.87-9.35,6.13-13.51,8.84-6.28,4.1-12.86,7.4-19.24,11.2-12.59,7.49-25.68,13.92-37.69,23a2.43,2.43,0,0,1-.25.2,13,13,0,0,0-3.58,1.56,11.49,11.49,0,0,0-6,8.54,19,19,0,0,0-.2,7.55A14.55,14.55,0,0,0,95.35,180c6.29,8.54,16.18,16,25.33,14.29A15,15,0,0,0,126,192c3.35-6.53-5.91-23,2-27.91,6.72-4.13,44.08-38.12,59.3-33.36C186.66,129.23,186.07,125.15,185.27,123.82Z"/><path class="cls-12" d="M116.65,174.84c-1.39-2.55-3.69-6.88-3.31-10.42a15.59,15.59,0,0,1-3-.06c-5.73-.6-10.76-.39-16.09,2.22a11.51,11.51,0,0,0-.22,3.9,16.57,16.57,0,0,0,3.16,7.6c.44.64,1,1.36,1.54,2.07A31.63,31.63,0,0,0,101.5,184c5.38,6.13,17.3,9.7,21.9,4.81C120.94,184.31,118.93,179,116.65,174.84Z"/><path class="cls-9" d="M122.28,190a1.43,1.43,0,1,0-2.76,0c0,1,.62,1.83,1.38,1.83S122.28,191,122.28,190Z"/><path class="cls-9" d="M121.08,190.91a1.45,1.45,0,0,0-1.22-1.6c-.67,0-1.21.72-1.21,1.6s.54,1.6,1.21,1.6A1.45,1.45,0,0,0,121.08,190.91Z"/><path class="cls-8" d="M120.09,182.52a1,1,0,0,0-.82-1.08c-.46,0-.82.48-.82,1.08s.36,1.08.82,1.08A1,1,0,0,0,120.09,182.52Z"/><path class="cls-7" d="M117.93,190.49a.71.71,0,1,0-.69.9A.82.82,0,0,0,117.93,190.49Z"/><path class="cls-8" d="M119.58,186.93a1.2,1.2,0,1,0-1.16,1.53A1.38,1.38,0,0,0,119.58,186.93Z"/><path class="cls-6" d="M119.06,183.37a.74.74,0,1,0-.71.94A.85.85,0,0,0,119.06,183.37Z"/><path class="cls-8" d="M115.24,187.86a1.49,1.49,0,1,0-1.43,1.89A1.7,1.7,0,0,0,115.24,187.86Z"/><path class="cls-9" d="M120.09,189.41c0-.6-.36-1.08-.82-1.08s-.82.48-.82,1.08.36,1.09.82,1.09S120.09,190,120.09,189.41Z"/><path class="cls-6" d="M117.3,185c0-.8-.48-1.44-1.08-1.44s-1.09.64-1.09,1.44a1.29,1.29,0,0,0,1.09,1.43C116.82,186.42,117.3,185.78,117.3,185Z"/><path class="cls-9" d="M117.05,186a1.77,1.77,0,1,0-1.7,2.24A2,2,0,0,0,117.05,186Z"/><path class="cls-6" d="M116.94,181.59c0-1.61-1-2.91-2.22-2.91s-2.21,1.3-2.21,2.91,1,2.92,2.21,2.92S116.94,183.21,116.94,181.59Z"/><path class="cls-8" d="M112.6,177.3a1.18,1.18,0,0,0-1-1.31c-.54,0-1,.58-1,1.31s.44,1.31,1,1.31A1.19,1.19,0,0,0,112.6,177.3Z"/><path class="cls-9" d="M115,183c0-.62-.37-1.12-.84-1.12a1.16,1.16,0,0,0,0,2.23C114.64,184.14,115,183.64,115,183Z"/><path class="cls-8" d="M115.73,183.41c0-1.42-.87-2.58-2-2.58s-2,1.16-2,2.58.88,2.58,2,2.58S115.73,184.84,115.73,183.41Z"/><path class="cls-7" d="M114.76,181.34a1,1,0,1,0-1,1.27A1.16,1.16,0,0,0,114.76,181.34Z"/><path class="cls-8" d="M115.35,175.21a2,2,0,1,0-1.92,2.52A2.29,2.29,0,0,0,115.35,175.21Z"/><path class="cls-9" d="M111.71,175.15a1.59,1.59,0,1,0-1.53,2A1.82,1.82,0,0,0,111.71,175.15Z"/><path class="cls-6" d="M109,183.37c0-.79-.49-1.44-1.09-1.44a1.5,1.5,0,0,0,0,2.89C108.55,184.82,109,184.17,109,183.37Z"/><path class="cls-7" d="M109.14,182.77a1,1,0,1,0-2,0c0,.72.45,1.31,1,1.31S109.14,183.49,109.14,182.77Z"/><path class="cls-8" d="M111.54,180.51c0-1.79-1.11-3.26-2.47-3.26s-2.48,1.47-2.48,3.26,1.11,3.27,2.48,3.27S111.54,182.32,111.54,180.51Z"/><path class="cls-7" d="M114.41,169.5c0-1.6-1-2.89-2.2-2.89S110,167.9,110,169.5s1,2.89,2.19,2.89S114.41,171.09,114.41,169.5Z"/><path class="cls-7" d="M108.76,175.35c0-1.81-1.12-3.27-2.48-3.27s-2.49,1.46-2.49,3.27,1.11,3.27,2.49,3.27S108.76,177.15,108.76,175.35Z"/><path class="cls-9" d="M107.84,175.31c0-1.59-1-2.87-2.17-2.87s-2.18,1.28-2.18,2.87,1,2.86,2.18,2.86S107.84,176.89,107.84,175.31Z"/><path class="cls-8" d="M112.64,174.22a1.67,1.67,0,1,0-3.21,0c0,1.17.72,2.12,1.6,2.12A1.92,1.92,0,0,0,112.64,174.22Z"/><path class="cls-8" d="M110.75,169.93a1.81,1.81,0,1,0-1.74,2.3A2.08,2.08,0,0,0,110.75,169.93Z"/><path class="cls-9" d="M112,165.08a1.1,1.1,0,1,0-2.12,0c0,.78.47,1.4,1.06,1.4A1.27,1.27,0,0,0,112,165.08Z"/><path class="cls-9" d="M105.86,171.74c0-.82-.5-1.48-1.12-1.48s-1.12.66-1.12,1.48a1.16,1.16,0,1,0,2.24,0Z"/><path class="cls-8" d="M100.36,179.09a1.16,1.16,0,0,0-1-1.28c-.54,0-1,.57-1,1.28s.43,1.29,1,1.29A1.17,1.17,0,0,0,100.36,179.09Z"/><path class="cls-7" d="M106.86,178.42c0-1-.63-1.87-1.41-1.87s-1.41.84-1.41,1.87a1.46,1.46,0,1,0,2.82,0Z"/><path class="cls-8" d="M110.08,169.8c0-1.53-1-2.77-2.11-2.77s-2.11,1.24-2.11,2.77,1,2.78,2.11,2.78S110.08,171.34,110.08,169.8Z"/><path class="cls-8" d="M112.69,170.37a1.75,1.75,0,1,0-1.68,2.22A2,2,0,0,0,112.69,170.37Z"/><path class="cls-8" d="M110.78,167.84a1.22,1.22,0,1,0-1.18,1.55A1.4,1.4,0,0,0,110.78,167.84Z"/><path class="cls-6" d="M106.58,171.51c0-1.8-1.11-3.26-2.48-3.26s-2.48,1.46-2.48,3.26,1.11,3.28,2.48,3.28S106.58,173.32,106.58,171.51Z"/><path class="cls-9" d="M103.73,172c0-1.49-.92-2.7-2-2.7s-2,1.21-2,2.7.92,2.69,2,2.69S103.73,173.52,103.73,172Z"/><path class="cls-6" d="M100.4,176.94A1.7,1.7,0,0,0,99,175.07c-.78,0-1.41.84-1.41,1.87s.63,1.87,1.41,1.87A1.7,1.7,0,0,0,100.4,176.94Z"/><path class="cls-9" d="M104.42,180.14c0-1.67-1-3-2.3-3s-2.31,1.36-2.31,3,1,3.05,2.31,3.05S104.42,181.82,104.42,180.14Z"/><path class="cls-9" d="M104.09,171.18c0-.94-.57-1.69-1.28-1.69s-1.28.75-1.28,1.69a1.33,1.33,0,1,0,2.56,0Z"/><path class="cls-8" d="M107,167.48a.79.79,0,1,0-1.52,0c0,.56.34,1,.76,1S107,168,107,167.48Z"/><path class="cls-9" d="M103.7,170.39a1.25,1.25,0,1,0-1.2,1.58C103.17,172,103.7,171.27,103.7,170.39Z"/><path class="cls-7" d="M102.11,171.18c0-.51-.31-.92-.7-.92a.95.95,0,0,0,0,1.83A.83.83,0,0,0,102.11,171.18Z"/><path class="cls-9" d="M100,178.87a1.42,1.42,0,1,0-2.73,0c0,1,.61,1.8,1.36,1.8A1.63,1.63,0,0,0,100,178.87Z"/><path class="cls-7" d="M100.54,174.64a2,2,0,1,0-1.91,2.51A2.27,2.27,0,0,0,100.54,174.64Z"/><path class="cls-7" d="M104.45,173.17A1.47,1.47,0,1,0,103,175,1.68,1.68,0,0,0,104.45,173.17Z"/><path class="cls-8" d="M105.06,170.58c0-.71-.43-1.28-1-1.28s-1,.57-1,1.28.43,1.28,1,1.28S105.06,171.29,105.06,170.58Z"/><path class="cls-7" d="M104.44,166.4a1.64,1.64,0,0,0-1.37-1.81c-.76,0-1.37.81-1.37,1.81a1.42,1.42,0,1,0,2.74,0Z"/><path class="cls-6" d="M102,167.74a1.79,1.79,0,1,0-1.72,2.27A2,2,0,0,0,102,167.74Z"/><path class="cls-8" d="M103.44,171.81c0-1.23-.75-2.22-1.68-2.22a2.3,2.3,0,0,0,0,4.44C102.69,174,103.44,173,103.44,171.81Z"/><path class="cls-9" d="M107,166.93c0-1.59-1-2.87-2.18-2.87s-2.17,1.28-2.17,2.87,1,2.86,2.17,2.86S107,168.51,107,166.93Z"/><path class="cls-9" d="M101.32,166.25c0-.63-.38-1.13-.85-1.13s-.86.5-.86,1.13.38,1.13.86,1.13S101.32,166.88,101.32,166.25Z"/><path class="cls-6" d="M99,167.94a1.3,1.3,0,0,0-1.09-1.44c-.61,0-1.09.64-1.09,1.44a1.13,1.13,0,1,0,2.18,0Z"/><path class="cls-6" d="M99.35,172.58a1.82,1.82,0,1,0-1.75,2.3A2.09,2.09,0,0,0,99.35,172.58Z"/><path class="cls-7" d="M100.69,171.43c0-1.49-.92-2.69-2-2.69s-2,1.2-2,2.69.91,2.69,2,2.69S100.69,172.91,100.69,171.43Z"/><path class="cls-7" d="M96.92,171c0-1.15-.7-2.07-1.57-2.07A2.15,2.15,0,1,0,96.92,171Z"/><path class="cls-8" d="M96.3,173.42c0-.54-.33-1-.74-1a1,1,0,0,0,0,2C96,174.4,96.3,174,96.3,173.42Z"/><path class="cls-9" d="M114.3,178.23a1.77,1.77,0,1,0-1.7,2.25A2,2,0,0,0,114.3,178.23Z"/><path class="cls-8" d="M110.48,168.22a1.88,1.88,0,1,0-1.81,2.39A2.15,2.15,0,0,0,110.48,168.22Z"/><path class="cls-9" d="M109.51,167.14c0-.72-.44-1.3-1-1.3a1.35,1.35,0,0,0,0,2.6C109.07,168.44,109.51,167.86,109.51,167.14Z"/><path class="cls-7" d="M114.14,173.17a1.4,1.4,0,1,0-1.34,1.77A1.6,1.6,0,0,0,114.14,173.17Z"/><path class="cls-8" d="M116.19,179.31a1.73,1.73,0,1,0-1.67,2.2A2,2,0,0,0,116.19,179.31Z"/><path class="cls-7" d="M119.81,186.07a.88.88,0,1,0-.85,1.12A1,1,0,0,0,119.81,186.07Z"/><path class="cls-7" d="M118.15,180.44a.74.74,0,1,0-.72.94A.85.85,0,0,0,118.15,180.44Z"/><path class="cls-9" d="M118,179.44c0-1.47-.91-2.66-2-2.66s-2,1.19-2,2.66.9,2.66,2,2.66S118,180.91,118,179.44Z"/><path class="cls-7" d="M111.34,173.46a1.56,1.56,0,1,0-1.5,2C110.67,175.45,111.34,174.56,111.34,173.46Z"/><path class="cls-8" d="M106.76,173.56a1.59,1.59,0,1,0-1.53,2A1.82,1.82,0,0,0,106.76,173.56Z"/><path class="cls-9" d="M110.43,172.71c0-1.39-.85-2.52-1.91-2.52s-1.91,1.13-1.91,2.52.85,2.53,1.91,2.53S110.43,174.11,110.43,172.71Z"/><path class="cls-9" d="M111.34,174.38c0-1.81-1.12-3.28-2.49-3.28s-2.5,1.47-2.5,3.28,1.12,3.29,2.5,3.29S111.34,176.2,111.34,174.38Z"/><path class="cls-7" d="M111.35,178.53a1.48,1.48,0,1,0-1.43,1.88A1.71,1.71,0,0,0,111.35,178.53Z"/><path class="cls-9" d="M108.31,183.56c0-1.05-.64-1.89-1.43-1.89s-1.43.84-1.43,1.89a1.48,1.48,0,1,0,2.86,0Z"/><path class="cls-9" d="M112.43,182.08a1.44,1.44,0,1,0-2.77,0c0,1,.62,1.83,1.38,1.83A1.65,1.65,0,0,0,112.43,182.08Z"/><path class="cls-9" d="M110,185.4c0-1-.62-1.83-1.38-1.83a1.89,1.89,0,0,0,0,3.65A1.64,1.64,0,0,0,110,185.4Z"/><path class="cls-7" d="M116.34,182c0-1.57-1-2.85-2.16-2.85S112,180.47,112,182s1,2.85,2.17,2.85S116.34,183.62,116.34,182Z"/><path class="cls-8" d="M117.46,184.13c0-1.07-.66-1.95-1.47-1.95a2,2,0,1,0,1.47,1.95Z"/><path class="cls-9" d="M118.93,189.33c0-.79-.48-1.43-1.08-1.43a1.48,1.48,0,0,0,0,2.86C118.45,190.76,118.93,190.12,118.93,189.33Z"/><path class="cls-9" d="M119.62,190.81c0-.56-.34-1-.77-1s-.77.46-.77,1,.34,1,.77,1S119.62,191.37,119.62,190.81Z"/><path class="cls-9" d="M121.18,185.13a1.88,1.88,0,1,0-1.82,2.39A2.17,2.17,0,0,0,121.18,185.13Z"/><path class="cls-8" d="M117.83,183a1.33,1.33,0,1,0-1.29,1.69A1.53,1.53,0,0,0,117.83,183Z"/><path class="cls-8" d="M114.61,189.42a1.33,1.33,0,1,0-1.29,1.69A1.53,1.53,0,0,0,114.61,189.42Z"/><path class="cls-8" d="M117.36,190c0-.94-.57-1.69-1.29-1.69a1.75,1.75,0,1,0,1.29,1.69Z"/><path class="cls-8" d="M114.55,178.44a.94.94,0,1,0-.91,1.19A1.08,1.08,0,0,0,114.55,178.44Z"/><path class="cls-7" d="M108.73,173.41c0-1.59-1-2.88-2.18-2.88s-2.19,1.29-2.19,2.88,1,2.88,2.19,2.88S108.73,175,108.73,173.41Z"/><path class="cls-7" d="M109.14,168.74c0-1.23-.75-2.23-1.68-2.23a2.31,2.31,0,0,0,0,4.45C108.39,171,109.14,170,109.14,168.74Z"/><path class="cls-6" d="M103.08,168c0-1.49-.91-2.68-2-2.68s-2,1.19-2,2.68.91,2.67,2,2.67S103.08,169.51,103.08,168Z"/><path class="cls-6" d="M104.41,173.31a1.58,1.58,0,1,0-1.53,2A1.82,1.82,0,0,0,104.41,173.31Z"/><path class="cls-8" d="M110.34,180.18a2,2,0,1,0-1.92,2.53A2.28,2.28,0,0,0,110.34,180.18Z"/><path class="cls-6" d="M114.78,186.31a1.37,1.37,0,1,0-1.32,1.74A1.57,1.57,0,0,0,114.78,186.31Z"/><path class="cls-9" d="M109.71,179.75a1.07,1.07,0,1,0-1,1.36C109.25,181.11,109.71,180.51,109.71,179.75Z"/><path class="cls-9" d="M97.26,169.93a1.07,1.07,0,1,0-2.06,0c0,.76.46,1.36,1,1.36S97.26,170.69,97.26,169.93Z"/><path class="cls-9" d="M112.54,189.11a1.22,1.22,0,0,0-1-1.35c-.57,0-1,.6-1,1.35s.45,1.36,1,1.36S112.54,189.87,112.54,189.11Z"/><path class="cls-9" d="M110.77,172.83c0-1.75-1.08-3.16-2.4-3.16s-2.41,1.41-2.41,3.16S107,176,108.37,176,110.77,174.58,110.77,172.83Z"/><path class="cls-9" d="M107.88,183.91c0-1.75-1.08-3.17-2.41-3.17s-2.4,1.42-2.4,3.17,1.08,3.17,2.4,3.17S107.88,185.65,107.88,183.91Z"/><path class="cls-6" d="M106.5,174.86a1.7,1.7,0,1,0-1.63,2.16C105.77,177,106.5,176.05,106.5,174.86Z"/><path class="cls-8" d="M104,172.78a1.79,1.79,0,1,0-1.72,2.27A2.06,2.06,0,0,0,104,172.78Z"/><path class="cls-6" d="M104.76,169.39c0-1.73-1.07-3.13-2.38-3.13s-2.38,1.4-2.38,3.13,1.06,3.14,2.38,3.14S104.76,171.13,104.76,169.39Z"/><path class="cls-9" d="M100.5,167.79c0-1.58-1-2.86-2.18-2.86s-2.17,1.28-2.17,2.86,1,2.87,2.17,2.87S100.5,169.38,100.5,167.79Z"/><path class="cls-8" d="M101.57,171.55a1,1,0,0,0-.8-1.05c-.45,0-.8.47-.8,1.05s.35,1.06.8,1.06S101.57,172.13,101.57,171.55Z"/><path class="cls-8" d="M95.68,168.44c0-.58-.35-1.05-.8-1.05a1,1,0,0,0-.8,1.05c0,.58.36,1.06.8,1.06S95.68,169,95.68,168.44Z"/><path class="cls-8" d="M96.94,167.74c0-.58-.35-1.05-.79-1.05a1,1,0,0,0-.8,1.05c0,.59.36,1.06.8,1.06S96.94,168.33,96.94,167.74Z"/><path class="cls-6" d="M107.19,180.35c0-1.41-.86-2.55-1.93-2.55a2.65,2.65,0,0,0,0,5.1C106.33,182.9,107.19,181.76,107.19,180.35Z"/><path class="cls-6" d="M111.73,185.22a1.34,1.34,0,1,0-2.59,0c0,.95.58,1.72,1.29,1.72S111.73,186.17,111.73,185.22Z"/><path class="cls-7" d="M107.48,177.73c0-1.46-.9-2.64-2-2.64s-2,1.18-2,2.64.9,2.64,2,2.64S107.48,179.19,107.48,177.73Z"/><path class="cls-7" d="M109.29,186.42c0-1.46-.9-2.64-2-2.64s-2,1.18-2,2.64.9,2.64,2,2.64S109.29,187.88,109.29,186.42Z"/><path class="cls-7" d="M100.91,169.61a.81.81,0,0,0-.68-.89c-.37,0-.67.39-.67.89s.3.89.67.89A.81.81,0,0,0,100.91,169.61Z"/><path class="cls-7" d="M96.23,166c0-.49-.3-.89-.67-.89a.92.92,0,0,0,0,1.78C95.93,166.88,96.23,166.48,96.23,166Z"/><path class="cls-7" d="M98.25,175.79A1.62,1.62,0,0,0,96.9,174c-.74,0-1.34.8-1.34,1.78s.6,1.77,1.34,1.77A1.61,1.61,0,0,0,98.25,175.79Z"/><path class="cls-8" d="M101.53,179.52c0-1.48-.91-2.69-2-2.69s-2,1.21-2,2.69.92,2.69,2,2.69S101.53,181,101.53,179.52Z"/><path class="cls-7" d="M105.43,180.09c0-1.6-1-2.9-2.21-2.9s-2.2,1.3-2.2,2.9,1,2.91,2.2,2.91S105.43,181.7,105.43,180.09Z"/><path class="cls-9" d="M104.78,184.13c0-.95-.58-1.72-1.3-1.72a1.78,1.78,0,0,0,0,3.44C104.2,185.85,104.78,185.08,104.78,184.13Z"/><path class="cls-7" d="M118.15,182.1a.82.82,0,1,0-.79,1A.94.94,0,0,0,118.15,182.1Z"/><path class="cls-7" d="M118.19,191.39a1.13,1.13,0,1,0-1.09,1.43A1.3,1.3,0,0,0,118.19,191.39Z"/><path class="cls-7" d="M118.55,189.73a1.29,1.29,0,1,0-1.24,1.63A1.47,1.47,0,0,0,118.55,189.73Z"/><path class="cls-7" d="M113,186.18c0-1.61-1-2.91-2.21-2.91s-2.21,1.3-2.21,2.91,1,2.92,2.21,2.92S113,187.79,113,186.18Z"/><path class="cls-9" d="M117.28,186.63c0-1.61-1-2.91-2.22-2.91s-2.21,1.3-2.21,2.91,1,2.91,2.21,2.91S117.28,188.24,117.28,186.63Z"/><path class="cls-8" d="M123.23,188.89c0-1.43-.87-2.6-2-2.6s-2,1.17-2,2.6.89,2.59,2,2.59S123.23,190.32,123.23,188.89Z"/><path class="cls-6" d="M121.8,188.38a.91.91,0,1,0-.88,1.16A1.05,1.05,0,0,0,121.8,188.38Z"/><path class="cls-9" d="M104.77,175.36c0-1.57-1-2.84-2.16-2.84s-2.16,1.27-2.16,2.84,1,2.84,2.16,2.84S104.77,176.93,104.77,175.36Z"/><path class="cls-8" d="M121.74,189.92a1.86,1.86,0,1,0-1.79,2.37C120.94,192.29,121.74,191.23,121.74,189.92Z"/><path class="cls-7" d="M117.87,183.06c0-.6-.37-1.09-.82-1.09a1.13,1.13,0,0,0,0,2.18C117.5,184.15,117.87,183.66,117.87,183.06Z"/><path class="cls-8" d="M112.05,186.33c0-.61-.37-1.1-.83-1.1s-.83.49-.83,1.1a.86.86,0,1,0,1.66,0Z"/><path class="cls-8" d="M110.16,188.46a.86.86,0,1,0-.83,1.09A1,1,0,0,0,110.16,188.46Z"/><path class="cls-7" d="M112.05,188.33a.86.86,0,1,0-.83,1.09A1,1,0,0,0,112.05,188.33Z"/><path class="cls-13" d="M186.92,129.53c-.37-1.33-.73-3.13-1.14-4.45-4.35-7.27-12.91-7.16-19.55-6.9a39.36,39.36,0,0,0-4.51.44c-.8.63-1.59,1.23-2.36,1.73-6.28,4.1-12.86,7.4-19.24,11.2-6.88,4.1-13.91,7.89-20.84,11.95a25.49,25.49,0,0,0-5,10.07c-3.18,13.68,3.2,21.85,7.94,33.28.2.49.85.14.69-.38-2.89-9.06-7.94-17.14-6.56-27.84,1.47-11.4,11.3-17.59,18.26-22.15,16-10.52,34.44-18.83,51.34-6.85A.69.69,0,0,0,186.92,129.53Z"/><path class="cls-13" d="M108.56,160.1c-3.22-.63-15.09-2.29-15.22,4.82a.94.94,0,0,0,.77,1c2.06.35,4.41-1.93,6.53-2.29a47.83,47.83,0,0,1,7.57-.14C109.66,163.51,110.07,160.4,108.56,160.1Z"/><path class="cls-13" d="M171.16,114a8.9,8.9,0,0,1,0,1.86c-.09,1.4,1.62,1.68,1.85.33a7.81,7.81,0,0,0,.22-2.55C173.05,111.68,170.9,112.06,171.16,114Z"/><path class="cls-14" d="M180.44,137.77c-1.27-1.2-2.43-2.45-3.63-3.66-2.34-6.21-8.66-10-15.49-10.13-5.34-.12-12.85-.4-17.57,3-4.47-6.4-11.4-10.67-18.91-12.72-4.58-1.25-11.79-1.58-16.52,1-1.24-3.35-4.9-6.74-7-8.37s-4.63-3.53-7.27-4c-5.56-4.81-14.33-.64-20.28,2C64.2,109.24,50,113.29,42,120.84a6.9,6.9,0,0,0-.86.43.81.81,0,0,0-.39.83c-.28.3-.56.59-.82.89-.45.55,0,1.52.74,1.28,1-.33,2.09-.69,3.12-1.06,4.74.59,9.07,1.1,13.75,2.86a30.9,30.9,0,0,1,13.61,10.11,2.72,2.72,0,0,0,.41.42.73.73,0,0,0,.83.64l.43-.09a3,3,0,0,0,1.91-.45c2.22-.61,4.28-1.3,6.84-.78,2.88.57,5.33,2.66,7.4,4.59,3.86,3.59,6.68,8.16,10.41,11.88a3,3,0,0,0,3.85.5c1.54-.13,3-.49,4.69-.64a36.08,36.08,0,0,1,10.06.5,52.23,52.23,0,0,1,5.27,1.41,5.33,5.33,0,0,0,2.33,1.11c7.26,1.57,9,10.89,16.1,13a1.48,1.48,0,0,0,1.63-.66c2.24-3,1.44-7.25-.11-10.65a32.6,32.6,0,0,1,5.54,4.81c5.19,5.93,13.61-1.88,10-8.05a6.38,6.38,0,0,0,1.84-3.69c2.91,1.77,5.72,3.75,9.5,4.12a4.8,4.8,0,0,0,4.83-4.83c0-.36-.12-.7-.18-1.05C179.89,149.84,184.92,142,180.44,137.77Z"/><path class="cls-15" d="M161.81,124c-.17,0-.32,0-.49,0-5.34-.12-12.85-.4-17.57,3-.25-.35-.53-.68-.79-1-6,3.54-11.81,7.34-18.23,10.22s-15.5,6.21-23,11a16.91,16.91,0,0,0-3.71-8,23.87,23.87,0,0,0-9.31-6.14c4.65-2.22,9.56-3.91,13.1-5.53,6.91-3.16,14.94-7.68,20.12-13.85-4.37-.67-9.82-.5-13.66,1.62l-.12-.25-1.7,1a109,109,0,0,1-19.29,8.4c-5.65,2-11.66,4.77-16,9A25.76,25.76,0,0,0,66,124.25a15.81,15.81,0,0,0-7.23-4.89c3.13-1.53,6.15-3.23,9.18-5a132.3,132.3,0,0,0,18.9-13.6c-4.49.23-9.39,2.52-13.16,4.21C64.2,109.24,50,113.29,42,120.84a6.9,6.9,0,0,0-.86.43.81.81,0,0,0-.39.83c-.28.3-.56.59-.82.89-.45.55,0,1.52.74,1.28,1-.33,2.09-.69,3.12-1.06,4.74.59,9.07,1.1,13.75,2.86a30.9,30.9,0,0,1,13.61,10.11,2.72,2.72,0,0,0,.41.42.73.73,0,0,0,.83.64l.43-.09a3,3,0,0,0,1.91-.45c2.22-.61,4.28-1.3,6.84-.78,2.88.57,5.33,2.66,7.4,4.59,3.86,3.59,6.68,8.16,10.41,11.88a3,3,0,0,0,3.85.5c1.54-.13,3-.49,4.69-.64a36.08,36.08,0,0,1,10.06.5,52.23,52.23,0,0,1,5.27,1.41,5.33,5.33,0,0,0,2.33,1.11c6.52,1.41,8.63,9,14.1,12.11-3.22-8.92-8-17.39-17.22-20.89,2.28-1,4.53-1.88,6.68-2.83C140.14,138.8,152.59,132.43,161.81,124Z"/><path class="cls-16" d="M97.13,114.05a27,27,0,0,0-9.6-2.35c-.61,0-.68,1-.14,1.2l1.4.53a13.14,13.14,0,0,0-2.38.27c-.63-.32-1.26-.63-1.9-.93A8.53,8.53,0,0,0,87.78,111a.62.62,0,0,0-.25-1.1c-1.9-.17-3.82.72-5.61,1.65h0c0-.49-.33-1-.86-.87l-.79.23A25.74,25.74,0,0,0,75,109.6c-.65-.09-.89,1.11-.33,1.44s1.23.68,1.85,1l-1.22.36a34.21,34.21,0,0,1-3.43-2.3c-.64-.52-1.23.7-.6,1.21.44.36.92.72,1.4,1.08a10.42,10.42,0,0,0-4.26-1.65c-.49-.06-.61.56-.39.94L66.48,111c-1.07-.45-1.5,1.51-.47,2l.26.12c-1-.13-2-.29-3-.48-.78-.64-1.55-1.26-2.3-1.85s-1.47.83-.74,1.49c.53.47,1,1,1.56,1.55.05.47.31.89.84.89l.31.3a54.45,54.45,0,0,0-6,2.4l-.16,0a.49.49,0,0,0-.46-.46c-2.59-.13-5.09,1.17-7.69,1.31-.43,0-.41.72,0,.78a15.18,15.18,0,0,0,7.21-.76l.35.11c0,.69.51,1.41,1.26,1,.27-.16.56-.28.84-.42a6.9,6.9,0,0,0,2.52.07c.34-.06.28-.64,0-.74s-.47-.14-.7-.21l.62-.26a.42.42,0,0,0,.4.3c1.54,0,3.08.1,4.62.24a22.73,22.73,0,0,0-2.46,2.35.91.91,0,0,0-.12.85,1.06,1.06,0,0,0,.84,1.21l.51,0-.06.1a.66.66,0,0,0,0,.61c-1.2-.1-2.34.59-3.53.81-.92.17-.71,2,.22,1.92,1.31-.17,2.93-.4,3.82-1.66a.88.88,0,0,0,.12-.64.47.47,0,0,0,.31-.21,4.44,4.44,0,0,1,.64-.78,38.42,38.42,0,0,0,7.36.2,11.07,11.07,0,0,0,1.76.54,5.25,5.25,0,0,0,4.12,1c.47-.11.43-.81.12-1.08a19.91,19.91,0,0,0-1.87-1.41c.26-.11.52-.19.77-.32s.29-.66,0-.92a1,1,0,0,0,1.47.54c1.68-1,4,.88,5.79.63a1.16,1.16,0,0,0,.25-2.18,6.67,6.67,0,0,0-1.05-.4l.1,0c.06,0,.08-.09.12-.13a8.42,8.42,0,0,0,6-.3.5.5,0,0,0,.09-.83c-2.12-1.72-5.07-.42-7.46-1.08-.5-.13-.8.41-.69.87l-1.07,0a14.58,14.58,0,0,1-3.39-.63.83.83,0,0,0-.27,0,23.05,23.05,0,0,1,2.47-.52,6,6,0,0,0,3.5-1.16c.3-.27.45-1,0-1.18a3,3,0,0,0-.53-.18c.46.06.93.07,1.39.11a.9.9,0,0,0,.44,1.17,40,40,0,0,0,5.41,1,20.2,20.2,0,0,0,5.77.63.6.6,0,0,0,.35-1,9.73,9.73,0,0,0-1.51-1.1,8.75,8.75,0,0,0,1.44,0A.57.57,0,0,0,97.13,114.05Zm-23.55,1.46a7.59,7.59,0,0,0,2,1.14,1.51,1.51,0,0,0,.47.88q-2.73-.37-5.47-.54C71.57,116.52,72.59,116.05,73.58,115.51Zm-7-.55a.25.25,0,0,0,.1-.15c1.37.1,2.74.25,4.1.38-.91.54-1.81,1.11-2.71,1.68,0,0-.1,0-.14,0h-.34l-.26-.3.76-.14c.25-.06.16-.47-.06-.49-.43,0-.87-.08-1.31-.09-.19-.21-.4-.42-.6-.63C66.27,115.13,66.43,115.06,66.58,115Zm2.77,4.14c-1-.41-1.44,1.39-.53,1.87l-1-.06a.34.34,0,0,0-.23-.29,1.56,1.56,0,0,0-1.22.2h0c.71-.5,1.39-1.07,2.13-1.58a1.14,1.14,0,0,0,.47-.66c.86.08,1.72.13,2.58.17a10.2,10.2,0,0,0,.77,1.64C71.3,120,70.34,119.5,69.35,119.1Zm9.29.28a1.23,1.23,0,0,0-.29,1.55.47.47,0,0,0-.3-.16,15.25,15.25,0,0,0-2.53,0c-.77-.59-1.49-1.24-2.21-1.91a26.46,26.46,0,0,0,3.78-.23c.39-.06.58-.82.1-.89l-.09,0c.3-.11.62-.18.93-.27-.63.33-.76,1.58.08,1.83Zm-1.25-5.64L77,113.5l1.76-.49a23.94,23.94,0,0,0,2.73.85C80.14,113.81,78.77,113.77,77.39,113.74Z"/><path class="cls-16" d="M131.3,124.28A36.38,36.38,0,0,0,120,121.94c-.71,0-.8,1-.16,1.2l1.65.53a17.05,17.05,0,0,0-2.81.27l-2.23-.94a10.75,10.75,0,0,0,3.85-1.72.6.6,0,0,0-.3-1.1c-2.24-.17-4.49.72-6.6,1.65h0a.82.82,0,0,0-1-.87l-.92.23a33.87,33.87,0,0,0-6.13-1.34c-.76-.09-1,1.1-.38,1.44s1.44.68,2.17,1l-1.43.36a41.51,41.51,0,0,1-4-2.3c-.75-.52-1.45.7-.71,1.21.52.36,1.09.72,1.65,1.08a13.64,13.64,0,0,0-5-1.65c-.58-.06-.71.56-.45.94l-1.86-.67c-1.25-.45-1.76,1.51-.54,2l.29.12c-1.16-.13-2.33-.29-3.5-.48-.92-.64-1.83-1.26-2.71-1.85s-1.73.83-.87,1.49c.62.47,1.23,1,1.84,1.55a.94.94,0,0,0,1,.89l.36.3a67,67,0,0,0-7,2.4l-.19,0a.53.53,0,0,0-.53-.45c-3-.14-6,1.17-9,1.31a.39.39,0,0,0,0,.77,20.6,20.6,0,0,0,8.47-.75l.42.11a1,1,0,0,0,1.48,1c.32-.16.65-.28,1-.42a9.5,9.5,0,0,0,3,.07c.4-.06.33-.64,0-.75s-.55-.13-.82-.2l.73-.26a.52.52,0,0,0,.47.3c1.81,0,3.63.1,5.44.23a24.48,24.48,0,0,0-2.9,2.36.78.78,0,0,0-.14.84,1.1,1.1,0,0,0,1,1.22l.6,0-.07.1a.56.56,0,0,0,0,.61c-1.42-.1-2.76.59-4.16.81-1.08.17-.83,2,.26,1.92,1.54-.17,3.44-.4,4.49-1.66a.78.78,0,0,0,.15-.64.55.55,0,0,0,.36-.21,4.62,4.62,0,0,1,.75-.78,54.16,54.16,0,0,0,8.65.2,13.23,13.23,0,0,0,2.08.53,7,7,0,0,0,4.84,1c.55-.11.51-.81.14-1.08-.72-.53-1.45-1-2.19-1.42.29-.1.6-.18.89-.31.45-.19.35-.67.06-.92a1.31,1.31,0,0,0,1.74.54c2-1,4.72.88,6.8.63a1.12,1.12,0,0,0,.3-2.18,10.59,10.59,0,0,0-1.24-.41l.12,0c.07,0,.09-.09.14-.14a11.38,11.38,0,0,0,7.09-.3.45.45,0,0,0,.11-.82c-2.49-1.72-6-.42-8.77-1.08a.68.68,0,0,0-.81.87l-1.26,0a20,20,0,0,1-4-.63.87.87,0,0,0-.32,0,28.59,28.59,0,0,1,2.91-.52c1.48-.18,2.88-.23,4.12-1.17.35-.27.52-.94,0-1.17a6.55,6.55,0,0,0-.63-.19c.54.07,1.09.08,1.63.12a.85.85,0,0,0,.52,1.16,54.23,54.23,0,0,0,6.37,1,28.14,28.14,0,0,0,6.78.63c.43,0,.84-.63.4-1a11.13,11.13,0,0,0-1.76-1.1,15.79,15.79,0,0,0,1.68,0A.55.55,0,0,0,131.3,124.28Zm-27.69,1.47a10.07,10.07,0,0,0,2.33,1.14,1.5,1.5,0,0,0,.54.88c-2.13-.25-4.28-.43-6.43-.54C101.25,126.76,102.44,126.29,103.61,125.75Zm-8.24-.55c.07,0,.09-.1.13-.15,1.61.1,3.21.24,4.82.38-1.07.54-2.14,1.11-3.19,1.67,0,0-.11,0-.17,0h-.4l-.3-.29.89-.15c.29,0,.19-.46-.07-.49-.51,0-1-.07-1.54-.08-.23-.22-.47-.42-.7-.63C95,125.36,95.2,125.3,95.37,125.2Zm3.27,4.14c-1.18-.41-1.7,1.39-.63,1.87l-1.18-.06a.41.41,0,0,0-.28-.3,2.17,2.17,0,0,0-1.43.21h-.05c.83-.5,1.63-1.08,2.5-1.58a1.15,1.15,0,0,0,.55-.66c1,.08,2,.13,3,.17a9.71,9.71,0,0,0,.89,1.64C100.93,130.18,99.79,129.74,98.64,129.34Zm10.92.28a1.09,1.09,0,0,0-.34,1.55.68.68,0,0,0-.35-.17,22.93,22.93,0,0,0-3,0c-.9-.6-1.75-1.24-2.58-1.92a36.67,36.67,0,0,0,4.44-.22c.46-.06.67-.82.12-.89l-.12,0c.37-.11.73-.18,1.1-.27a1,1,0,0,0,.09,1.83ZM108.09,124c-.14-.09-.29-.16-.43-.24l2.07-.49a32.26,32.26,0,0,0,3.21.85C111.32,124.05,109.71,124,108.09,124Z"/><path class="cls-16" d="M164.88,139a27.87,27.87,0,0,0-10.47-5.34c-.69-.19-1,1.21-.48,1.61l1.48,1a12.82,12.82,0,0,0-2.82-.16l-1.94-1.7a9.64,9.64,0,0,0,4.22-1.62c.55-.39.59-1.37,0-1.55-2.16-.66-4.6.13-6.92,1l0,0c.14-.67-.11-1.49-.77-1.38-.32.06-.65.09-1,.14a26.29,26.29,0,0,0-5.66-3c-.73-.26-1.32,1.31-.76,1.89s1.23,1.2,1.87,1.76l-1.5.22a38.7,38.7,0,0,1-3.35-3.9c-.61-.84-1.61.69-1,1.52.41.59.88,1.18,1.33,1.78a11.19,11.19,0,0,0-4.48-3.19c-.55-.19-.85.63-.69,1.2L130.28,128c-1.11-.85-2.13,1.73-1.05,2.58l.26.22c-1.11-.4-2.22-.83-3.32-1.32-.73-1-1.47-2.06-2.17-3s-1.92.8-1.24,1.86c.48.77.93,1.6,1.39,2.47-.07.65.12,1.28.74,1.39.08.17.18.32.27.48a57.56,57.56,0,0,0-7.54,1.94l-.17-.07a.65.65,0,0,0-.41-.72c-3-.76-6.19.47-9.22.08-.51-.06-.67.89-.21,1.05a15.3,15.3,0,0,0,8.52.58l.38.23c-.23.93.22,2,1.2,1.61.36-.15.72-.25,1.08-.39a6.81,6.81,0,0,0,2.88.66c.42,0,.5-.81.2-1s-.5-.29-.76-.44l.79-.22c0,.25.15.45.39.5a53.56,53.56,0,0,1,5.27,1.35,28.72,28.72,0,0,0-3.46,2.66,1.48,1.48,0,0,0-.36,1.13c-.18.74,0,1.63.66,1.84l.57.19-.1.11a1.06,1.06,0,0,0-.18.83c-1.36-.4-2.86.29-4.29.32-1.11,0-1.35,2.62-.25,2.66,1.55.07,3.48.11,4.85-1.41a1.42,1.42,0,0,0,.31-.85.5.5,0,0,0,.4-.21,6.32,6.32,0,0,1,1-.92,38.13,38.13,0,0,0,8.44,1.9,10.12,10.12,0,0,0,1.9,1.13,5.42,5.42,0,0,0,4.49,2.3c.57,0,.71-1,.42-1.45a27.59,27.59,0,0,0-1.78-2.34c.32-.09.64-.14,1-.26.49-.17.51-.84.3-1.25.18.81.75,1.43,1.57,1.08,2.18-1,4.4,2.08,6.51,2.14,1.29,0,1.89-2,.86-2.92a7.15,7.15,0,0,0-1.11-.78l.13,0a.66.66,0,0,0,.17-.16,8.48,8.48,0,0,0,7,.93.76.76,0,0,0,.32-1.11c-2-2.81-5.75-1.69-8.33-3.12-.54-.3-1,.37-1,1-.4-.09-.81-.17-1.23-.28a14.91,14.91,0,0,1-3.75-1.61.75.75,0,0,0-.31-.08,23,23,0,0,1,3-.16c1.51,0,2.89.24,4.35-.81.42-.3.76-1.19.31-1.6a3.47,3.47,0,0,0-.57-.37c.51.19,1,.31,1.57.46-.28.57-.28,1.38.21,1.69a39.52,39.52,0,0,0,6,2.63c2.18.92,4.14,2,6.5,2.14a.87.87,0,0,0,.65-1.25,12.28,12.28,0,0,0-1.45-1.83,9.35,9.35,0,0,0,1.67.25C165.08,140.43,165.39,139.39,164.88,139Zm-27.58-3.24a8.94,8.94,0,0,0,2,2,2.28,2.28,0,0,0,.3,1.31q-3-1.12-6.17-2C134.72,136.66,136,136.24,137.3,135.73Zm-7.94-2.31a.69.69,0,0,0,.16-.18c1.55.44,3.09.94,4.64,1.43-1.2.53-2.39,1.1-3.57,1.68-.05,0-.12,0-.18,0l-.39-.08c-.06-.16-.15-.31-.21-.46.3,0,.6,0,.9,0s.32-.59.07-.68a12.58,12.58,0,0,0-1.49-.4c-.17-.34-.35-.67-.52-1C129,133.58,129.16,133.52,129.36,133.42Zm2.12,6.26c-1-.79-2,1.57-1.1,2.43-.39-.09-.77-.2-1.16-.31a.49.49,0,0,0-.19-.45,1.63,1.63,0,0,0-1.46,0h0c1-.52,1.89-1.16,2.87-1.68a1.64,1.64,0,0,0,.72-.8c1,.3,2,.56,2.94.81a16.36,16.36,0,0,0,.45,2.4C133.51,141.26,132.5,140.44,131.48,139.68Zm10.65,2.45a1.89,1.89,0,0,0-.74,2,.6.6,0,0,0-.3-.29,16.17,16.17,0,0,0-2.92-.63,36.67,36.67,0,0,1-2-3.09,27.09,27.09,0,0,0,4.42.53c.47,0,.88-1,.35-1.2l-.1,0a11.2,11.2,0,0,1,1.14-.17c-.8.3-1.29,2-.39,2.51Zm0-8-.36-.41,2.16-.27a23.68,23.68,0,0,0,2.93,1.76C145.32,134.86,143.75,134.51,142.17,134.16Z"/><path class="cls-17" d="M82.67,116.56a3.89,3.89,0,0,0,.23.68,1.69,1.69,0,0,0,0,1.87,2.64,2.64,0,0,0,1.57,1.09A1.32,1.32,0,0,0,86,118.49a2.78,2.78,0,0,0-1.09-1.24c.13.18.08.13-.15-.16a1.23,1.23,0,0,0-.65-.35.82.82,0,0,1-.78-.51C83.11,115.84,82.56,116.18,82.67,116.56Z"/><path class="cls-17" d="M70.87,120.6a1.19,1.19,0,0,0-.13.59c0-.27-.12.14-.15.21a9.41,9.41,0,0,0-.25.91c0,.14.15.26.26.17s.41-.19.61-.32l.31-.17-.09,0a2.16,2.16,0,0,0,.36,0,2.34,2.34,0,0,0,2.07-1,1.17,1.17,0,0,0-.53-1.55A1.9,1.9,0,0,0,70.87,120.6Z"/><path class="cls-17" d="M80.16,113.55l0-.07a2,2,0,0,0-.36-.36.2.2,0,0,0-.31.06,1.78,1.78,0,0,0-.21.68,2.05,2.05,0,0,0-.35.71,2,2,0,0,0,.11,1.22,1.41,1.41,0,0,0,1.76.86,1.39,1.39,0,0,0,.7-2.07,2.52,2.52,0,0,0-1-.94C80.17,113.47,80.15,113.51,80.16,113.55Z"/><path class="cls-17" d="M79.89,118.55a2.7,2.7,0,0,0-.32,2.17c.06.33.06.66.14,1a1.3,1.3,0,0,0,.52.7.35.35,0,0,0,.57-.19c.09-.43.12-.83.19-1.26a1.06,1.06,0,0,1,.23-.43c0-.06,0-.08.13-.08a1.25,1.25,0,0,0,.47-.61C82.38,118.67,80.73,117.49,79.89,118.55Z"/><path class="cls-17" d="M73.53,113.54a4.39,4.39,0,0,0-.12.71,1.73,1.73,0,0,0-.86,1.67,2.75,2.75,0,0,0,.87,1.71,1.33,1.33,0,0,0,2.12-.8,2.94,2.94,0,0,0-.37-1.62q0,.35-.06-.21a1.19,1.19,0,0,0-.41-.62.81.81,0,0,1-.44-.81C74.27,113.13,73.62,113.16,73.53,113.54Z"/><path class="cls-17" d="M61.23,111.48a1.33,1.33,0,0,0-.39.46c.1-.24-.17.07-.23.12a8.5,8.5,0,0,0-.66.68c-.11.1,0,.3.15.28s.45,0,.69,0h.35a.23.23,0,0,0-.07-.07,1.48,1.48,0,0,0,.33.17,2.32,2.32,0,0,0,2.32.06,1.15,1.15,0,0,0,.26-1.61A1.9,1.9,0,0,0,61.23,111.48Z"/><path class="cls-17" d="M72.76,109.71s0,0,0-.09a2.77,2.77,0,0,0-.15-.49.2.2,0,0,0-.3-.09,1.53,1.53,0,0,0-.51.5,2.08,2.08,0,0,0-.64.45,1.9,1.9,0,0,0-.49,1.13,1.38,1.38,0,1,0,2.74.1,2.55,2.55,0,0,0-.43-1.3C72.81,109.64,72.77,109.66,72.76,109.71Z"/><path class="cls-17" d="M70.14,114a2.64,2.64,0,0,0-1.31,1.76c-.11.31-.26.6-.35.92a1.41,1.41,0,0,0,.13.88.35.35,0,0,0,.59.09c.28-.32.5-.66.76-1a1.13,1.13,0,0,1,.41-.27s.08,0,.15,0a1.2,1.2,0,0,0,.71-.31C72.28,115.27,71.38,113.44,70.14,114Z"/><path class="cls-17" d="M94.81,126a5.54,5.54,0,0,0-.69.22,1.69,1.69,0,0,0-1.87,0,2.69,2.69,0,0,0-1.12,1.55,1.32,1.32,0,0,0,1.68,1.51,2.79,2.79,0,0,0,1.27-1.06c-.19.12-.14.08.15-.15a1.13,1.13,0,0,0,.37-.65.82.82,0,0,1,.52-.76C95.52,126.46,95.19,125.9,94.81,126Z"/><path class="cls-17" d="M91,114.12a1.38,1.38,0,0,0-.59-.14c.26,0-.14-.12-.21-.15a7.69,7.69,0,0,0-.9-.27c-.15,0-.26.14-.19.26s.19.41.32.62.11.2.16.31l0-.1a1.53,1.53,0,0,0,0,.37,2.3,2.3,0,0,0,1,2.09,1.15,1.15,0,0,0,1.55-.5A1.9,1.9,0,0,0,91,114.12Z"/><path class="cls-17" d="M97.86,123.56l.08,0a2.45,2.45,0,0,0,.36-.36.2.2,0,0,0,0-.31,1.81,1.81,0,0,0-.68-.22,1.81,1.81,0,0,0-1.92-.28,1.38,1.38,0,1,0,1.16,2.49,2.61,2.61,0,0,0,1-1C98,123.57,97.91,123.54,97.86,123.56Z"/><path class="cls-17" d="M92.87,123.18a2.73,2.73,0,0,0-2.17-.36c-.32.05-.65.05-1,.11a1.51,1.51,0,0,0-.72.52.35.35,0,0,0,.19.57c.42.1.82.14,1.25.21a1.22,1.22,0,0,1,.43.24s.08,0,.08.13a1.18,1.18,0,0,0,.59.49C92.7,125.67,93.91,124,92.87,123.18Z"/><path class="cls-18" d="M79.43,112.54c.89.68.52,1.91,1.23,2.72.48.55,1.63.63,1.86-.22.38-1.44-1.7-3.45-3.09-2.85a.1.1,0,0,0-.07.1A.2.2,0,0,0,79.43,112.54Z"/><path class="cls-17" d="M80.32,113.11a4,4,0,0,0-.45-.75,3.4,3.4,0,0,1,1.5,1.32c.09.14.87,1.72.39,1.71s-.58-.64-.7-1C80.87,114,80.53,113.57,80.32,113.11Z"/><path class="cls-18" d="M76.12,116.6c1.24.72.95,2.35,2,3.27.68.62,2.16.55,2.32-.57.28-1.87-2.67-4.11-4.35-3.15a.13.13,0,0,0-.07.14A.28.28,0,0,0,76.12,116.6Z"/><path class="cls-17" d="M77.33,117.19a4.88,4.88,0,0,0-.68-.89,4.29,4.29,0,0,1,2.1,1.45c.14.17,1.38,2.06.76,2.12s-.83-.73-1-1.12C78.16,118.18,77.67,117.74,77.33,117.19Z"/><path class="cls-18" d="M92.09,120.77c.89.49.71,1.65,1.46,2.28.5.43,1.54.35,1.64-.44.16-1.34-2-2.87-3.15-2.16a.09.09,0,0,0,0,.1A.18.18,0,0,0,92.09,120.77Z"/><path class="cls-17" d="M93,121.16a3.61,3.61,0,0,0-.5-.61,3,3,0,0,1,1.52,1c.1.12,1,1.44.57,1.49s-.6-.5-.76-.78S93.21,121.55,93,121.16Z"/><path class="cls-18" d="M85.48,116.26c1.24,1.35.27,3.21,1.17,4.71.6,1,2.42,1.48,3,.19,1-2.17-1.69-6-4.09-5.46a.17.17,0,0,0-.13.15A.33.33,0,0,0,85.48,116.26Z"/><path class="cls-17" d="M86.73,117.43a5.92,5.92,0,0,0-.49-1.33,5.48,5.48,0,0,1,2,2.55c.1.26.88,3,.12,2.85s-.74-1.19-.85-1.74C87.37,119,86.94,118.23,86.73,117.43Z"/><path class="cls-18" d="M85.56,122.73a.12.12,0,0,0,0-.14c-.55-1.71-4-2-4.94-.57-.59.86.37,1.83,1.23,1.84,1.28,0,2.09-1.28,3.39-1A.25.25,0,0,0,85.56,122.73Z"/><path class="cls-17" d="M82.34,122.86c-.39.14-1.07.49-1.41.12s1.64-1,1.84-1a4,4,0,0,1,2.34.33,4,4,0,0,0-1,.18C83.52,122.67,82.91,122.67,82.34,122.86Z"/><path class="cls-18" d="M90.93,124.58a.11.11,0,0,0,0-.12c-.52-1.29-3.17-1.35-3.86-.17-.41.69.39,1.39,1.05,1.36,1-.06,1.56-1.11,2.58-1A.19.19,0,0,0,90.93,124.58Z"/><path class="cls-17" d="M88.44,124.85c-.29.12-.8.43-1.08.16s1.22-.82,1.37-.85a3.07,3.07,0,0,1,1.83.13,3.55,3.55,0,0,0-.78.19C89.35,124.64,88.87,124.66,88.44,124.85Z"/><path class="cls-18" d="M88.85,114.31a.15.15,0,0,0,0-.17c-.77-2-4.8-2.07-5.84-.29-.62,1.05.58,2.12,1.58,2.07,1.5-.09,2.36-1.67,3.91-1.43A.32.32,0,0,0,88.85,114.31Z"/><path class="cls-17" d="M85.08,114.71c-.44.19-1.23.65-1.65.24s1.85-1.23,2.09-1.28a4.66,4.66,0,0,1,2.77.2,5.22,5.22,0,0,0-1.18.29C86.45,114.39,85.72,114.43,85.08,114.71Z"/><path class="cls-18" d="M76.6,123.2c1,.82.52,2.22,1.3,3.19.53.64,1.85.78,2.15-.18.5-1.63-1.8-4-3.43-3.41a.12.12,0,0,0-.08.12A.26.26,0,0,0,76.6,123.2Z"/><path class="cls-17" d="M77.6,123.9a4.17,4.17,0,0,0-.48-.88,3.94,3.94,0,0,1,1.67,1.57c.09.18.92,2,.37,2s-.64-.76-.77-1.14C78.2,124.9,77.83,124.43,77.6,123.9Z"/><path class="cls-17" d="M114.29,126.22a5.3,5.3,0,0,0,.23.67,1.71,1.71,0,0,0,0,1.88,2.66,2.66,0,0,0,1.58,1.09,1.32,1.32,0,0,0,1.47-1.71,2.81,2.81,0,0,0-1.09-1.25q.2.28-.15-.15a1.08,1.08,0,0,0-.65-.35.83.83,0,0,1-.78-.51C114.74,125.5,114.18,125.83,114.29,126.22Z"/><path class="cls-17" d="M102.49,130.25a1.37,1.37,0,0,0-.13.59c0-.26-.12.15-.15.22a9.21,9.21,0,0,0-.25.9c0,.15.15.26.26.18s.41-.2.61-.32l.31-.18-.09,0h.36a2.32,2.32,0,0,0,2.07-1.06A1.14,1.14,0,0,0,105,129,1.89,1.89,0,0,0,102.49,130.25Z"/><path class="cls-17" d="M111.79,123.21l-.06-.07a2,2,0,0,0-.36-.36.2.2,0,0,0-.31.06,1.78,1.78,0,0,0-.21.68,2.19,2.19,0,0,0-.35.7,1.93,1.93,0,0,0,.12,1.23,1.38,1.38,0,1,0,2.45-1.22,2.56,2.56,0,0,0-1-.93C111.79,123.12,111.77,123.17,111.79,123.21Z"/><path class="cls-17" d="M111.51,128.21a2.69,2.69,0,0,0-.32,2.17c.06.33.06.66.14,1a1.39,1.39,0,0,0,.53.71.34.34,0,0,0,.56-.2c.1-.42.13-.82.19-1.25a1.06,1.06,0,0,1,.23-.43c0-.06,0-.08.13-.08a1.24,1.24,0,0,0,.47-.61C114,128.33,112.35,127.15,111.51,128.21Z"/><path class="cls-17" d="M105.15,123.2c-.05.24-.09.47-.12.71a1.72,1.72,0,0,0-.86,1.66,2.69,2.69,0,0,0,.88,1.71,1.32,1.32,0,0,0,2.11-.8,2.84,2.84,0,0,0-.37-1.61q0,.33-.06-.21a1.09,1.09,0,0,0-.41-.62.79.79,0,0,1-.43-.81C105.89,122.78,105.24,122.81,105.15,123.2Z"/><path class="cls-17" d="M92.86,121.14a1.26,1.26,0,0,0-.4.46c.1-.24-.17.07-.23.12a7,7,0,0,0-.65.68c-.12.1,0,.29.14.27s.45,0,.69,0h.35l-.06-.06a1.23,1.23,0,0,0,.32.17,2.32,2.32,0,0,0,2.32,0,1.15,1.15,0,0,0,.26-1.61A1.89,1.89,0,0,0,92.86,121.14Z"/><path class="cls-17" d="M104.38,119.37a.34.34,0,0,0,0-.09,2.77,2.77,0,0,0-.15-.49.2.2,0,0,0-.3-.09,1.63,1.63,0,0,0-.51.5,1.92,1.92,0,0,0-.64.45,2,2,0,0,0-.48,1.13,1.39,1.39,0,0,0,1.13,1.59,1.41,1.41,0,0,0,1.61-1.49,2.62,2.62,0,0,0-.44-1.3C104.43,119.29,104.39,119.32,104.38,119.37Z"/><path class="cls-17" d="M101.76,123.63a2.69,2.69,0,0,0-1.31,1.76c-.11.32-.26.61-.35.93a1.37,1.37,0,0,0,.13.87.35.35,0,0,0,.59.1c.28-.33.5-.66.76-1A1,1,0,0,1,102,126c0-.05.08-.06.15,0a1.34,1.34,0,0,0,.71-.31C103.9,124.92,103,123.1,101.76,123.63Z"/><path class="cls-17" d="M126.43,135.65c-.24.06-.46.14-.69.22a1.73,1.73,0,0,0-1.87,0,2.71,2.71,0,0,0-1.12,1.56,1.32,1.32,0,0,0,1.68,1.51,2.79,2.79,0,0,0,1.27-1.06q-.28.18.15-.15a1.13,1.13,0,0,0,.37-.65.81.81,0,0,1,.52-.76C127.14,136.12,126.81,135.55,126.43,135.65Z"/><path class="cls-17" d="M122.63,123.78a1.2,1.2,0,0,0-.59-.14c.26,0-.14-.12-.21-.15a7.15,7.15,0,0,0-.9-.27c-.15,0-.26.14-.18.26s.18.41.31.61l.17.31a.32.32,0,0,1,0-.09,1.15,1.15,0,0,0,0,.37,2.3,2.3,0,0,0,1,2.08,1.14,1.14,0,0,0,1.55-.5A1.89,1.89,0,0,0,122.63,123.78Z"/><path class="cls-17" d="M129.48,133.22l.08-.06a2,2,0,0,0,.36-.35.19.19,0,0,0,0-.31,1.62,1.62,0,0,0-.68-.23,2.15,2.15,0,0,0-.69-.36,1.92,1.92,0,0,0-1.23.09,1.38,1.38,0,1,0,1.17,2.48,2.63,2.63,0,0,0,.95-1C129.57,133.22,129.53,133.2,129.48,133.22Z"/><path class="cls-17" d="M124.49,132.84a2.67,2.67,0,0,0-2.16-.36c-.33.05-.66.05-1,.11a1.37,1.37,0,0,0-.71.52.35.35,0,0,0,.18.57c.42.1.82.14,1.25.21a1.22,1.22,0,0,1,.43.24c.05,0,.08.05.08.13a1.24,1.24,0,0,0,.59.49C124.32,135.33,125.53,133.7,124.49,132.84Z"/><path class="cls-18" d="M111.05,122.2c.89.67.52,1.91,1.23,2.72.48.55,1.63.62,1.86-.23.38-1.43-1.69-3.44-3.09-2.85a.12.12,0,0,0-.07.11A.21.21,0,0,0,111.05,122.2Z"/><path class="cls-17" d="M111.94,122.77a4,4,0,0,0-.45-.75,3.39,3.39,0,0,1,1.5,1.31c.09.15.87,1.73.39,1.72s-.58-.64-.7-1C112.49,123.61,112.15,123.22,111.94,122.77Z"/><path class="cls-18" d="M107.74,126.25c1.24.73,1,2.36,2,3.28.69.62,2.16.54,2.32-.57.28-1.88-2.67-4.12-4.35-3.16a.17.17,0,0,0-.07.15A.26.26,0,0,0,107.74,126.25Z"/><path class="cls-17" d="M109,126.84a4.81,4.81,0,0,0-.68-.88,4.29,4.29,0,0,1,2.1,1.45c.14.17,1.38,2.06.76,2.12s-.83-.73-1-1.12C109.79,127.84,109.3,127.4,109,126.84Z"/><path class="cls-18" d="M123.71,130.42c.89.49.71,1.65,1.46,2.29.5.43,1.54.35,1.64-.44.16-1.34-2-2.88-3.15-2.16a.08.08,0,0,0,0,.1A.18.18,0,0,0,123.71,130.42Z"/><path class="cls-17" d="M124.58,130.82a3.31,3.31,0,0,0-.5-.62,3.11,3.11,0,0,1,1.52,1c.1.12,1,1.44.57,1.49s-.6-.5-.76-.77S124.83,131.2,124.58,130.82Z"/><path class="cls-18" d="M117.1,125.92c1.24,1.34.27,3.2,1.17,4.71.6,1,2.42,1.47,3,.18,1-2.17-1.69-6-4.09-5.45a.16.16,0,0,0-.13.15A.35.35,0,0,0,117.1,125.92Z"/><path class="cls-17" d="M118.36,127.09a6.83,6.83,0,0,0-.49-1.33,5.53,5.53,0,0,1,2,2.55c.1.25.88,3,.12,2.85s-.74-1.2-.84-1.75C119,128.61,118.56,127.88,118.36,127.09Z"/><path class="cls-18" d="M117.18,132.39a.13.13,0,0,0,0-.14c-.55-1.71-4-2-4.94-.57-.59.86.37,1.83,1.23,1.84,1.28,0,2.09-1.28,3.4-1A.24.24,0,0,0,117.18,132.39Z"/><path class="cls-17" d="M114,132.52c-.38.14-1.07.49-1.41.11s1.64-.94,1.85-1a3.93,3.93,0,0,1,2.33.33,4.44,4.44,0,0,0-1,.17C115.14,132.33,114.53,132.32,114,132.52Z"/><path class="cls-18" d="M122.55,134.23a.09.09,0,0,0,0-.11c-.51-1.29-3.17-1.35-3.86-.18-.41.7.39,1.4,1,1.37,1-.07,1.56-1.11,2.58-1A.2.2,0,0,0,122.55,134.23Z"/><path class="cls-17" d="M120.06,134.5c-.29.13-.8.44-1.08.17s1.22-.82,1.37-.85a3,3,0,0,1,1.83.13,3.07,3.07,0,0,0-.78.19C121,134.3,120.49,134.32,120.06,134.5Z"/><path class="cls-18" d="M120.47,124a.14.14,0,0,0,0-.16c-.77-2-4.8-2.07-5.84-.3-.62,1.06.58,2.13,1.58,2.07,1.51-.08,2.37-1.66,3.91-1.43A.29.29,0,0,0,120.47,124Z"/><path class="cls-17" d="M116.7,124.37c-.44.18-1.22.65-1.64.24s1.85-1.24,2.08-1.29a4.73,4.73,0,0,1,2.77.21,5.21,5.21,0,0,0-1.18.28C118.07,124.05,117.35,124.09,116.7,124.37Z"/><path class="cls-18" d="M108.23,132.86c1,.82.51,2.22,1.3,3.18.52.65,1.84.79,2.14-.18.51-1.63-1.8-4-3.43-3.4a.12.12,0,0,0-.07.12A.23.23,0,0,0,108.23,132.86Z"/><path class="cls-17" d="M109.22,133.56a4.24,4.24,0,0,0-.48-.89,4,4,0,0,1,1.67,1.58c.1.17.93,2,.37,2s-.63-.76-.77-1.14C109.83,134.55,109.45,134.09,109.22,133.56Z"/><path class="cls-17" d="M143,135.11a5.37,5.37,0,0,0,.11.7,1.7,1.7,0,0,0-.26,1.86,2.62,2.62,0,0,0,1.37,1.33,1.32,1.32,0,0,0,1.74-1.44,2.74,2.74,0,0,0-.87-1.41c.1.2.06.15-.13-.18a1.13,1.13,0,0,0-.58-.45.81.81,0,0,1-.68-.63C143.6,134.47,143,134.71,143,135.11Z"/><path class="cls-17" d="M130.74,137.16a1.31,1.31,0,0,0-.23.56c0-.26-.13.13-.18.19a9.37,9.37,0,0,0-.4.85.18.18,0,0,0,.24.22c.21-.11.43-.13.65-.22l.33-.12-.08,0a2.08,2.08,0,0,0,.36.06,2.34,2.34,0,0,0,2.21-.71,1.15,1.15,0,0,0-.28-1.61A1.89,1.89,0,0,0,130.74,137.16Z"/><path class="cls-17" d="M141.06,131.73l0-.08a2.4,2.4,0,0,0-.3-.41.2.2,0,0,0-.31,0,1.61,1.61,0,0,0-.32.64,1.87,1.87,0,0,0-.46.63,1.92,1.92,0,0,0-.09,1.23,1.38,1.38,0,1,0,2.62-.8,2.6,2.6,0,0,0-.83-1.08C141.08,131.65,141.05,131.69,141.06,131.73Z"/><path class="cls-17" d="M140,136.62a2.7,2.7,0,0,0-.67,2.09c0,.33,0,.66,0,1a1.44,1.44,0,0,0,.41.78.34.34,0,0,0,.59-.1c.16-.4.26-.79.39-1.2a1,1,0,0,1,.3-.39c0-.06.06-.07.14-.06a1.3,1.3,0,0,0,.57-.52C142.41,137.14,141,135.71,140,136.62Z"/><path class="cls-17" d="M134.52,130.64a5.49,5.49,0,0,0-.24.68,1.72,1.72,0,0,0-1.12,1.5,2.74,2.74,0,0,0,.59,1.83,1.32,1.32,0,0,0,2.21-.45,2.82,2.82,0,0,0-.1-1.65q0,.34,0-.21a1.13,1.13,0,0,0-.29-.68.8.8,0,0,1-.3-.88C135.31,130.35,134.67,130.27,134.52,130.64Z"/><path class="cls-17" d="M122.72,126.59a1.25,1.25,0,0,0-.46.39c.14-.22-.18,0-.25.08a8.6,8.6,0,0,0-.75.56.17.17,0,0,0,.09.3c.25,0,.44.1.68.12l.35.05,0-.08a1.28,1.28,0,0,0,.29.23,2.31,2.31,0,0,0,2.28.43,1.15,1.15,0,0,0,.52-1.54A1.9,1.9,0,0,0,122.72,126.59Z"/><path class="cls-17" d="M134.38,126.73a.22.22,0,0,0,0-.09,3,3,0,0,0-.07-.51A.2.2,0,0,0,134,126a1.83,1.83,0,0,0-.59.41,2.16,2.16,0,0,0-.7.34,2,2,0,0,0-.67,1,1.38,1.38,0,1,0,2.69.55,2.59,2.59,0,0,0-.21-1.35C134.44,126.67,134.4,126.69,134.38,126.73Z"/><path class="cls-17" d="M131.1,130.51a2.69,2.69,0,0,0-1.58,1.52c-.16.29-.35.56-.5.86a1.39,1.39,0,0,0,0,.88.35.35,0,0,0,.57.2c.33-.28.6-.58.91-.88a1.08,1.08,0,0,1,.45-.2s.08,0,.15,0a1.2,1.2,0,1,0,0-2.39Z"/><path class="cls-17" d="M153.47,146.4a5.52,5.52,0,0,0-.71.11,1.71,1.71,0,0,0-1.85-.31,2.71,2.71,0,0,0-1.36,1.35,1.32,1.32,0,0,0,1.41,1.77,2.86,2.86,0,0,0,1.43-.84c-.21.09-.15.05.17-.13a1.09,1.09,0,0,0,.47-.57.81.81,0,0,1,.64-.67C154.09,147,153.87,146.37,153.47,146.4Z"/><path class="cls-17" d="M151.66,134.07a1.23,1.23,0,0,0-.56-.24c.27,0-.12-.14-.17-.18-.28-.19-.56-.26-.85-.42s-.28.1-.22.23.11.44.2.66l.12.33a.59.59,0,0,1,0-.08,1.43,1.43,0,0,0-.06.36,2.31,2.31,0,0,0,.65,2.22,1.14,1.14,0,0,0,1.61-.24A1.89,1.89,0,0,0,151.66,134.07Z"/><path class="cls-17" d="M156.88,144.5l.08,0a2.09,2.09,0,0,0,.42-.29.2.2,0,0,0,0-.32,1.74,1.74,0,0,0-.63-.33,2.21,2.21,0,0,0-.63-.47,2,2,0,0,0-1.22-.12,1.39,1.39,0,1,0,.74,2.65,2.64,2.64,0,0,0,1.1-.82C157,144.52,156.93,144.49,156.88,144.5Z"/><path class="cls-17" d="M152,143.31a2.72,2.72,0,0,0-2.08-.71c-.33,0-.65-.06-1,0a1.41,1.41,0,0,0-.79.39.35.35,0,0,0,.09.59c.4.17.78.28,1.2.42a1.13,1.13,0,0,1,.38.31c.06,0,.08.05.06.14a1.18,1.18,0,0,0,.51.57C151.45,145.74,152.91,144.33,152,143.31Z"/><path class="cls-18" d="M140.5,130.61c.77.81.2,2,.77,2.89.38.62,1.51.88,1.87.08.61-1.35-1.11-3.67-2.58-3.32a.11.11,0,0,0-.08.1A.19.19,0,0,0,140.5,130.61Z"/><path class="cls-17" d="M141.28,131.32a3.34,3.34,0,0,0-.32-.81,3.39,3.39,0,0,1,1.27,1.54c.06.16.57,1.85.1,1.76s-.46-.73-.53-1.07C141.69,132.25,141.41,131.81,141.28,131.32Z"/><path class="cls-18" d="M136.57,134.07c1.11.92.55,2.48,1.42,3.56.57.72,2,.89,2.38-.18.58-1.81-2-4.5-3.77-3.83a.14.14,0,0,0-.09.14A.25.25,0,0,0,136.57,134.07Z"/><path class="cls-17" d="M137.67,134.86a4.72,4.72,0,0,0-.53-1,4.3,4.3,0,0,1,1.84,1.77c.11.19,1,2.26.4,2.22s-.7-.86-.84-1.27C138.33,136,137.92,135.45,137.67,134.86Z"/><path class="cls-18" d="M151.64,140.8c.8.63.44,1.74,1.07,2.49.42.51,1.47.6,1.69-.17.38-1.29-1.47-3.15-2.75-2.64a.1.1,0,0,0-.06.09A.2.2,0,0,0,151.64,140.8Z"/><path class="cls-17" d="M152.44,141.33a4,4,0,0,0-.4-.69,3.06,3.06,0,0,1,1.34,1.23c.08.13.76,1.58.33,1.56s-.52-.59-.63-.89S152.62,141.75,152.44,141.33Z"/><path class="cls-18" d="M145.86,135.27c1,1.53-.26,3.21.38,4.84.44,1.1,2.15,1.85,3,.68,1.38-2-.69-6.19-3.15-6a.16.16,0,0,0-.15.13A.32.32,0,0,0,145.86,135.27Z"/><path class="cls-17" d="M146.91,136.63a6.1,6.1,0,0,0-.27-1.39,5.46,5.46,0,0,1,1.56,2.84c.06.27.38,3.12-.35,2.84s-.53-1.3-.54-1.87C147.29,138.23,147,137.45,146.91,136.63Z"/><path class="cls-18" d="M144.88,141.67a.14.14,0,0,0,.08-.13c-.27-1.78-3.58-2.64-4.79-1.37-.72.75.07,1.87.91,2,1.26.22,2.28-.92,3.52-.43A.24.24,0,0,0,144.88,141.67Z"/><path class="cls-17" d="M141.68,141.27c-.4.08-1.13.31-1.4-.12s1.77-.66,2-.65a3.93,3.93,0,0,1,2.26.7,4.52,4.52,0,0,0-1,0C142.88,141.28,142.28,141.17,141.68,141.27Z"/><path class="cls-18" d="M149.88,144.37a.11.11,0,0,0,0-.11c-.29-1.36-2.9-1.85-3.77-.81-.52.62.15,1.45.81,1.52,1,.1,1.72-.83,2.7-.52A.19.19,0,0,0,149.88,144.37Z"/><path class="cls-17" d="M147.38,144.23c-.31.08-.86.29-1.09,0s1.33-.61,1.49-.61a3.1,3.1,0,0,1,1.78.42,3.61,3.61,0,0,0-.8.07C148.31,144.17,147.83,144.12,147.38,144.23Z"/><path class="cls-18" d="M149.5,133.9a.17.17,0,0,0,.08-.16c-.45-2.07-4.4-2.83-5.72-1.25-.79.94.22,2.19,1.22,2.31,1.5.16,2.6-1.26,4.09-.78A.3.3,0,0,0,149.5,133.9Z"/><path class="cls-17" d="M145.72,133.68c-.47.11-1.31.44-1.66,0s2-.91,2.27-.92a4.66,4.66,0,0,1,2.7.66,5.52,5.52,0,0,0-1.22.08C147.12,133.59,146.4,133.51,145.72,133.68Z"/><path class="cls-18" d="M136,140.67c.86,1,.14,2.28.76,3.35.41.73,1.69,1.08,2.15.18.76-1.53-1.12-4.27-2.83-3.93a.13.13,0,0,0-.09.11A.23.23,0,0,0,136,140.67Z"/><path class="cls-17" d="M136.84,141.52a4.45,4.45,0,0,0-.33-1,3.93,3.93,0,0,1,1.39,1.83c.06.19.58,2.15,0,2s-.5-.85-.57-1.25C137.27,142.6,137,142.09,136.84,141.52Z"/></g></g></svg>