<svg id="Capa_1" data-name="Capa 1" xmlns="http://www.w3.org/2000/svg" viewBox="0 0 59 43"><title>itacate</title><g id="_2jL0Hs" data-name="2jL0Hs"><path d="M55.27,12.82H10.19a7.2,7.2,0,0,1-1.92-.18A1.57,1.57,0,0,1,7,10.6,3.67,3.67,0,0,1,8.62,9C9,8.73,9.69,8.9,10.24,8.9H55.13a4.74,4.74,0,0,0-4.54-5.28c-.74-.06-1.49,0-2.24,0H9.86c-.4,0-.92.15-1.17,0C8,3.07,7.2,2.52,7,1.82,6.67.81,7.4,0,8.45-.25A6.14,6.14,0,0,1,9.94-.31c13.28,0,26.55,0,39.83,0a9.27,9.27,0,0,1,9.5,9.51c-.19,8.23,0,16.47-.05,24.71A8.89,8.89,0,0,1,50,43.12q-20.28,0-40.58,0A8.89,8.89,0,0,1,.12,33.93c0-8.34,0-16.67,0-25,0-1.18.3-2.09,1.57-2.35S4,7.24,4,8.81c0,2.15,0,4.3,0,6.44,0,6,0,12.08,0,18.12,0,3.85,2,5.84,5.77,5.85H49.6c3.73,0,5.73-2,5.73-5.72,0-6.39,0-12.78,0-19.17C55.34,13.88,55.3,13.44,55.27,12.82Z"/></g></svg>