<svg id="Capa_1" data-name="Capa 1" xmlns="http://www.w3.org/2000/svg" viewBox="0 0 43 51"><defs><style>.cls-1{fill:#123283;}.cls-2{fill:#5199db;}.cls-3{fill:#1d2668;}</style></defs><title>itacate</title><g id="wHI6Uu"><path class="cls-1" d="M11,45.42H.93A1.25,1.25,0,0,1-.21,44.26,7.19,7.19,0,0,1,0,42.8q.57-3.69,1.17-7.38.68-4.31,1.37-8.61l1.35-8.62c.51-3.17,1-6.35,1.52-9.52.35-2.2.71-4.39,1-6.59A2.56,2.56,0,0,1,6.81.92,2.23,2.23,0,0,1,8.51,0H24.79a26.79,26.79,0,0,1,5.78.57,13.89,13.89,0,0,1,3.49,1.21,9,9,0,0,1,2.27,1.59,9.34,9.34,0,0,1,2.6,4.56,12,12,0,0,1,.19,3.77c0,.43-.11.85-.17,1.28a11.67,11.67,0,0,0-2.36-.92,13.09,13.09,0,0,0-2.07-.42l-1.31-.16a14.7,14.7,0,0,0-1.75-.12c-4.42,0-8.84,0-13.26,0a2.06,2.06,0,0,0-.89.18,1.91,1.91,0,0,0-1.16,1.42c-.09.5-.16,1-.24,1.51s-.19,1.16-.28,1.74-.18,1.08-.27,1.62-.21,1.32-.31,2-.21,1.42-.32,2.13l-.27,1.66-.27,1.66c-.11.66-.22,1.32-.32,2s-.21,1.21-.27,1.81c0,.22-.19.44,0,.67a3.87,3.87,0,0,0-.15.56c-.07.49-.15,1-.23,1.46-.21,1.31-.43,2.63-.64,4L12,39.15c-.21,1.33-.43,2.66-.64,4C11.24,43.9,11.11,44.66,11,45.42Z"/><path class="cls-2" d="M11,45.42c.12-.76.25-1.52.37-2.28.21-1.33.43-2.66.64-4l.54-3.48c.21-1.32.43-2.64.64-4,.08-.49.16-1,.23-1.46a3.87,3.87,0,0,1,.15-.56c.1-.15.18-.32.3-.47a2.34,2.34,0,0,1,1.83-.86c2.21,0,4.42.07,6.63-.06.69,0,1.37-.12,2.05-.21a19.67,19.67,0,0,0,5.16-1.42A14.53,14.53,0,0,0,35,22.62a17.76,17.76,0,0,0,3.22-6.24A32.09,32.09,0,0,0,39,13a4.67,4.67,0,0,1,1.19.72,7.36,7.36,0,0,1,2.32,3,9.13,9.13,0,0,1,.66,2.39A15.58,15.58,0,0,1,43,23.87a19.63,19.63,0,0,1-1.32,4.51,15,15,0,0,1-1.89,3.21,13.45,13.45,0,0,1-2.37,2.34,13.84,13.84,0,0,1-4.3,2.12,14.93,14.93,0,0,1-1.86.48c-.71.13-1.43.18-2.15.26a28.82,28.82,0,0,1-3.35.08,2.46,2.46,0,0,0-1.36.37,1.77,1.77,0,0,0-.83,1.24c-.42,2.62-.83,5.24-1.25,7.85-.17,1-.33,2.09-.52,3.12a2,2,0,0,1-2,1.64c-2.71,0-5.42,0-8.14,0a1.27,1.27,0,0,1-1.09-.47.91.91,0,0,1-.17-.39,4,4,0,0,1,.1-1.25C10.61,47.79,10.8,46.61,11,45.42Z"/><path class="cls-3" d="M39,13a32.09,32.09,0,0,1-.78,3.36A17.76,17.76,0,0,1,35,22.62a14.53,14.53,0,0,1-5.44,4.06,19.67,19.67,0,0,1-5.16,1.42c-.68.09-1.36.17-2.05.21-2.21.13-4.42,0-6.63.06a2.34,2.34,0,0,0-1.83.86c-.12.15-.2.32-.3.47-.15-.23,0-.45,0-.67.06-.6.17-1.2.27-1.81s.21-1.32.32-2l.27-1.66.27-1.66c.11-.71.21-1.42.32-2.13s.2-1.32.31-2,.19-1.08.27-1.62.19-1.16.28-1.74.15-1,.24-1.51a1.91,1.91,0,0,1,1.16-1.42,2.06,2.06,0,0,1,.89-.18c4.42,0,8.84,0,13.26,0a14.7,14.7,0,0,1,1.75.12l1.31.16a13.09,13.09,0,0,1,2.07.42A11.67,11.67,0,0,1,39,13S39,13,39,13Z"/></g></svg>