<?xml version="1.0" encoding="utf-8"?>
<!-- Generator: Adobe Illustrator 24.0.3, SVG Export Plug-In . SVG Version: 6.00 Build 0)  -->
<svg version="1.1" id="Capa_1" xmlns="http://www.w3.org/2000/svg" xmlns:xlink="http://www.w3.org/1999/xlink" x="0px" y="0px"
	 viewBox="0 0 428.4 216" style="enable-background:new 0 0 428.4 216;" xml:space="preserve">
<style type="text/css">
	.st0{fill:#F23B36;}
	.st1{fill:#4BA072;}
	.st2{fill:#B5DDEA;}
	.st3{opacity:0.5;fill:#B5DDEA;enable-background:new    ;}
	.st4{fill:#72B2C1;}
	.st5{fill:#E1F7FF;}
	.st6{fill:#C0EBF9;}
	.st7{fill:#FFFFFF;}
	.st8{fill:#F99B06;}
	.st9{opacity:0.7;fill:#F99B06;enable-background:new    ;}
	.st10{fill:#B8E3F2;}
	.st11{fill:#56BFED;}
	.st12{fill:#207EB7;}
	.st13{opacity:0.4;fill:#56BFED;enable-background:new    ;}
	.st14{opacity:0.8;fill:#56BFED;enable-background:new    ;}
	.st15{fill:#A131AD;}
	.st16{opacity:0.6;fill:#A131AD;enable-background:new    ;}
	.st17{fill:#FDFF99;}
	.st18{opacity:0.4;fill:#F4CE2F;enable-background:new    ;}
	.st19{fill:#F4CE2F;}
	.st20{fill:#D6AD76;}
	.st21{opacity:0.5;fill:#D6AD76;enable-background:new    ;}
	.st22{fill:#FCF5CD;}
	.st23{fill:#DBD5B6;}
	.st24{opacity:0.5;fill:#DBD5B6;enable-background:new    ;}
	.st25{fill:#EA153E;}
	.st26{fill:#D30D3C;}
	.st27{fill:#F7E492;}
	.st28{fill:#605D51;}
	.st29{font-family:'Helvetica-Bold';}
	.st30{font-size:35px;}
	.st31{letter-spacing:1;}
</style>
<title>tienda</title>
<g>
	<g id="Capa_1_1_">
		<path class="st0" d="M20.8,0h386.7c11.5,0,20.8,9.3,20.8,20.9v174.3c0,11.5-9.3,20.9-20.8,20.9H20.8C9.3,216,0,206.7,0,195.1V20.9
			C0,9.3,9.3,0,20.8,0z"/>
		<path class="st1" d="M206.4,112.8c0,0,0.4-36,6-51.9c3.5-9.6,9.2-18.3,16.8-25.3c0,0-10.9,14.7-13.8,42.8s-2.2,32.6-2.2,32.6
			L206.4,112.8z"/>
		<path class="st1" d="M217,51.1c-1.8,3.1-3.3,6.4-4.5,9.8c-3.9,10.9-5.2,31.2-5.7,42.9l6.5,1.3l0,0c0.2-4,0.6-10.8,1.7-21.7
			C210.5,79.3,211,68.5,217,51.1z"/>
		<path class="st1" d="M203.9,144l-19.4-93.1L167.7,27c0,0,16.1,12.7,21.5,23.9s17.3,74.6,17.3,74.6L203.9,144z"/>
		<path class="st1" d="M203.9,144l2.5-18.5c0,0-3.3-17.8-7.2-36.2c-0.6,3.9-1.6,7.6-2.9,3.8c-2.3-6.8-8.2-39.9-10.7-43.4
			S167.7,27,167.7,27l16.9,23.9L203.9,144z"/>
		<polygon class="st1" points="208.6,153.5 196.9,62.1 210.1,31.1 202.5,61.3 213.4,146.4 		"/>
		<path class="st1" d="M200.1,62.1C200,64.3,206,102,206,102l-4.1-0.7l6.7,52.2l4.8-7l-10.8-85.2l7.6-30.2
			C210.1,31.1,200.2,59.9,200.1,62.1z"/>
		<path class="st1" d="M217.4,183.3c0,0-23.8-112-43.1-123.4s-44-3-44-3s28.9-1.6,42.1,6c10.1,17.2,38.8,121.3,38.8,121.3
			L217.4,183.3z"/>
		<path class="st1" d="M172.3,62.9c10.1,17.2,38.8,121.3,38.8,121.3l6.3-0.8c0,0-8.3-39.1-19.1-73.5c-2.6-1.4-4.8-2.5-5.5-2.5
			c-2.2,0-15.1-40.8-18.6-44.8c-2.6-3-10.9-4.7-22.6-5.1C159.1,58.2,167,59.8,172.3,62.9z"/>
		
			<rect x="138.8" y="81.2" transform="matrix(0.949 -0.3153 0.3153 0.949 -33.5935 52.9414)" class="st2" width="15.9" height="98.3"/>
		<polygon class="st3" points="134.3,82.7 164,172 153.5,175.5 154.8,179.4 169.9,174.4 138.9,81.1 		"/>
		<polygon class="st4" points="138.7,81.2 126.9,71.5 123.8,86.2 		"/>
		<polygon class="st2" points="169.5,71 156.1,61.8 126.9,71.5 138.7,81.2 		"/>
		<polygon class="st3" points="126.9,71.5 138.7,81.2 143.2,79.7 131.4,70 		"/>
		
			<rect x="125.2" y="60.7" transform="matrix(0.949 -0.3153 0.3153 0.949 -12.9367 47.5656)" class="st5" width="30.7" height="6.1"/>
		<polygon class="st6" points="126.9,65.1 128.3,69.1 155.5,60 156.1,61.8 126.9,71.5 125,65.7 		"/>
		<path class="st3" d="M150.9,69.4c0.8,2.5-0.5,5.3-3.1,6.1s-5.3-0.5-6.1-3.1c-0.8-2.5,0.5-5.3,3.1-6.1
			C147.4,65.5,150.1,66.8,150.9,69.4C150.9,69.4,150.9,69.4,150.9,69.4z"/>
		<path class="st5" d="M152.7,68.6c0.8,2.5-0.5,5.3-3.1,6.1c-2.5,0.8-5.3-0.5-6.1-3.1s0.5-5.3,3.1-6.1c0,0,0,0,0,0
			C149.1,64.7,151.9,66.1,152.7,68.6z"/>
		
			<rect x="153.4" y="73.6" transform="matrix(0.949 -0.3153 0.3153 0.949 -30.0454 59.7386)" class="st5" width="32.4" height="98.3"/>
		<polygon class="st3" points="143.5,79.6 173.1,168.8 199.1,160.1 200.5,164.2 169.7,174.5 138.7,81.2 		"/>
		<path class="st4" d="M151.4,69.1c0.6,1.8-0.4,3.7-2.2,4.3c-1.8,0.6-3.7-0.4-4.3-2.2c-0.6-1.8,0.4-3.7,2.2-4.3
			C148.8,66.3,150.8,67.2,151.4,69.1C151.4,69,151.4,69,151.4,69.1z"/>
		<path class="st7" d="M155.8,92.8l11.3-3.7c2.6-0.9,5.5,0.5,6.3,3.2l14.1,42.5c0.9,2.6-0.5,5.5-3.2,6.3l-11.3,3.7
			c-2.6,0.9-5.5-0.5-6.3-3.2l-14.1-42.5C151.7,96.5,153.2,93.7,155.8,92.8z"/>
		<path class="st8" d="M218.4,173.2c6.5,10.5,3.2,24.3-7.3,30.8s-24.3,3.2-30.8-7.3s-3.2-24.3,7.3-30.8c0,0,0,0,0,0
			C198.2,159.4,211.9,162.7,218.4,173.2z"/>
		<path class="st9" d="M199.9,162.6c10.4,6.7,13.4,20.5,6.7,30.9c-4.2,6.6-11.6,10.5-19.4,10.3c10.4,6.7,24.3,3.7,30.9-6.7
			c6.7-10.4,3.7-24.3-6.7-30.9C208,163.9,204,162.7,199.9,162.6z"/>
		<path class="st9" d="M192,167.5c0.5,0.8-0.5,2.2-2.1,3.2s-3.4,1.2-3.8,0.5s0.5-2.2,2.1-3.2S191.5,166.7,192,167.5z"/>
		<rect x="227.2" y="39.6" class="st10" width="13.6" height="6.6"/>
		<path class="st10" d="M240.1,44.8c-1.7,0-5.9,0.2-6,0.2s-4.3-0.2-6-0.2c-20.1,33.2-17.6,80-17.6,80v61.5c0,16.9,6,20.9,12.3,18.9
			c5.7,4.7,11.1,2.9,11.3,2.8c0.2,0.1,5.6,1.9,11.3-2.8c6.3,2,12.3-2,12.3-18.9v-61.5C257.8,124.8,260.2,78,240.1,44.8z"/>
		<path class="st11" d="M239.2,50h-10.4c-17.3,28.5-15.1,68.8-15.1,68.8v66.7c0,14.5,5.2,17.9,10.6,16.2c4.9,4,9.5,2.4,9.7,2.4
			s4.9,1.6,9.7-2.4c5.4,1.7,10.6-1.7,10.6-16.2v-66.7C254.4,118.8,256.5,78.5,239.2,50z"/>
		<path class="st12" d="M210.4,124.8v20h47.3v-20c0.3-8.9-0.1-17.8-1.1-26.6h-45C210.5,107,210.1,115.9,210.4,124.8z"/>
		<path class="st7" d="M217.6,102.9h33c1.1,0,2,0.9,2,2v33c0,1.1-0.9,2-2,2h-33c-1.1,0-2-0.9-2-2v-33
			C215.6,103.8,216.5,102.9,217.6,102.9z"/>
		<path class="st13" d="M240.9,46.1v-6.6h-13.7v5.2l0,0c0,0,0,0.1,0,0.2v0.7c0,0.3-0.1,0.5-0.2,0.8h11.1c3.9,9.3,9.5,27.9,10.8,61
			c1.1,29.5-11.5,83.4-38.4,75.7v3.1c0,16.9,6,20.9,12.3,18.9c5.7,4.7,11.1,2.9,11.3,2.8c0.2,0.1,5.6,1.9,11.3-2.8
			c6.3,2,12.3-2,12.3-18.9v-61.5C257.7,124.8,260.1,79.2,240.9,46.1z"/>
		<path class="st11" d="M242.8,42.6v-7.3c0-1.1-0.9-2-2-2h-13.5c-1.1,0-2,0.9-2,2v7.3H242.8z"/>
		<path class="st12" d="M228.6,39.1c0,0.5-0.4,0.9-0.9,0.9c0,0,0,0,0,0l0,0c-0.5,0-0.9-0.4-0.9-0.9c0,0,0,0,0,0V36
			c0-0.5,0.4-0.9,0.9-0.9c0,0,0,0,0,0l0,0c0.5,0,0.9,0.4,0.9,0.9c0,0,0,0,0,0V39.1z"/>
		<path class="st12" d="M231.8,39.1c0,0.5-0.4,0.9-0.9,0.9l0,0l0,0c-0.5,0-0.9-0.4-0.9-0.9c0,0,0,0,0,0V36c0-0.5,0.4-0.9,0.9-0.9
			c0,0,0,0,0,0l0,0c0.5,0,0.9,0.4,0.9,0.9c0,0,0,0,0,0V39.1z"/>
		<path class="st12" d="M234.9,39.1c0,0.5-0.4,0.9-0.9,0.9l0,0l0,0c-0.5,0-0.9-0.4-0.9-0.9c0,0,0,0,0,0V36c0-0.5,0.4-0.9,0.9-0.9
			c0,0,0,0,0,0l0,0c0.5,0,0.9,0.4,0.9,0.9c0,0,0,0,0,0V39.1z"/>
		<path class="st12" d="M238.1,39.1c0,0.5-0.4,0.9-0.9,0.9c0,0,0,0,0,0l0,0c-0.5,0-0.9-0.4-0.9-0.9c0,0,0,0,0,0V36
			c0-0.5,0.4-0.9,0.9-0.9l0,0l0,0c0.5,0,0.9,0.4,0.9,0.9c0,0,0,0,0,0V39.1z"/>
		<path class="st12" d="M241.3,39.1c0,0.5-0.4,0.9-0.9,0.9l0,0c-0.5,0-0.9-0.4-0.9-0.9c0,0,0,0,0,0V36c0-0.5,0.4-0.9,0.9-0.9
			c0,0,0,0,0,0l0,0c0.5,0,0.9,0.4,0.9,0.9c0,0,0,0,0,0L241.3,39.1z"/>
		<path class="st14" d="M240.9,33.3c0,0.1,0,0.2,0,0.2v7.3h-15.6v1.8h17.6v-7.3C242.8,34.2,242,33.3,240.9,33.3z"/>
		<path class="st15" d="M169,190.4c5.1,1.4,8.4,5.6,7.4,9.3s-6,5.6-11.1,4.1s-8.4-5.6-7.3-9.3S163.9,189,169,190.4z"/>
		<path class="st16" d="M160.2,191.4c1.8-0.3,3.6-0.2,5.3,0.3c5.1,1.4,8.4,5.6,7.3,9.3c-0.4,1.3-1.2,2.4-2.3,3.1
			c2.9-0.5,5.1-2.1,5.8-4.5c1-3.7-2.2-7.9-7.4-9.3C166,189.4,162.8,189.8,160.2,191.4z"/>
		<path class="st16" d="M160.1,193.7c0.4,0.1,0.6,0.8,0.4,1.6s-0.7,1.2-1.2,1.1s-0.6-0.8-0.4-1.6S159.6,193.6,160.1,193.7z"/>
		<path class="st15" d="M185.9,189.6c-2.5,4.7-7.3,7-10.7,5.1s-4.1-7.1-1.6-11.7s7.3-7,10.7-5.2S188.4,184.9,185.9,189.6z"/>
		<path class="st16" d="M186.8,180.8c-0.1,1.8-0.6,3.5-1.5,5.1c-2.5,4.7-7.3,7-10.7,5.1c-1.2-0.6-2.1-1.7-2.5-2.9
			c-0.1,2.9,0.9,5.5,3.1,6.6c3.4,1.8,8.2-0.5,10.7-5.1C187.5,186.9,187.8,183.7,186.8,180.8z"/>
		<path class="st16" d="M184.6,180.2c-0.2,0.4-0.9,0.4-1.6,0.1s-1-1-0.8-1.4s0.9-0.4,1.6-0.1S184.8,179.8,184.6,180.2z"/>
		<path class="st15" d="M187.9,197.5c-2.5,4.7-7.3,7-10.7,5.1s-4.1-7.1-1.6-11.7s7.3-7,10.7-5.2S190.4,192.8,187.9,197.5z"/>
		<path class="st16" d="M188.8,188.7c-0.1,1.8-0.6,3.5-1.5,5.1c-2.5,4.7-7.3,7-10.7,5.2c-1.2-0.7-2.1-1.7-2.5-3
			c-0.1,2.9,0.9,5.5,3.1,6.6c3.4,1.8,8.2-0.5,10.7-5.1C189.5,194.8,189.8,191.6,188.8,188.7z"/>
		<path class="st16" d="M186.6,188.1c-0.2,0.4-0.9,0.4-1.6,0.1s-1-1-0.8-1.4s0.9-0.4,1.6-0.1S186.8,187.7,186.6,188.1z"/>
		<path class="st15" d="M164.2,180.8c1.8,5,0.2,10.1-3.4,11.4s-8-1.7-9.8-6.7s-0.2-10.1,3.4-11.4S162.4,175.8,164.2,180.8z"/>
		<path class="st16" d="M158.3,174.2c1.3,1.3,2.2,2.8,2.8,4.5c1.8,5,0.3,10.1-3.4,11.4c-1.3,0.4-2.6,0.4-3.9-0.1
			c2.1,2.1,4.7,3,7,2.2c3.6-1.3,5.2-6.4,3.4-11.4C163.3,177.9,161.1,175.4,158.3,174.2z"/>
		<path class="st16" d="M156.4,175.4c0.1,0.4-0.3,1-1,1.2s-1.4,0.1-1.6-0.3s0.3-1,1-1.2S156.2,175,156.4,175.4z"/>
		<path class="st15" d="M179.6,175.1c-0.7,4.3-3.9,7.4-7,6.9s-5.1-4.5-4.4-8.8s3.9-7.4,7-6.9S180.3,170.7,179.6,175.1z"/>
		<path class="st16" d="M177.9,167.9c0.4,1.4,0.5,2.9,0.2,4.4c-0.7,4.3-3.9,7.4-7,6.9c-1.1-0.2-2.1-0.8-2.8-1.6
			c0.7,2.3,2.2,4.1,4.2,4.4c3.2,0.5,6.3-2.6,7-6.9C180.1,172.6,179.5,169.9,177.9,167.9z"/>
		<path class="st16" d="M176,168c-0.1,0.4-0.6,0.6-1.2,0.5s-1.1-0.5-1-0.9s0.6-0.6,1.2-0.5S176.1,167.6,176,168z"/>
		<path class="st15" d="M168.1,171.9c0.5,4.4-1.7,8.2-4.9,8.6s-6.2-2.9-6.7-7.3s1.7-8.2,4.9-8.6S167.7,167.5,168.1,171.9z"/>
		<path class="st16" d="M164.6,165.4c0.8,1.3,1.3,2.7,1.4,4.2c0.5,4.4-1.7,8.2-4.9,8.6c-1.1,0.1-2.2-0.2-3.1-0.8
			c1.3,2.1,3.2,3.3,5.2,3.1c3.2-0.4,5.4-4.2,4.9-8.6C168,169.3,166.7,167,164.6,165.4z"/>
		<path class="st16" d="M162.8,166.1c0,0.4-0.4,0.7-1.1,0.8s-1.2-0.2-1.2-0.5s0.4-0.7,1.1-0.8S162.8,165.7,162.8,166.1z"/>
		<path class="st15" d="M173.9,186.3c0,4.8-2.8,8.7-6.3,8.7s-6.3-3.9-6.3-8.7s2.8-8.7,6.3-8.7S173.9,181.5,173.9,186.3z"/>
		<path class="st16" d="M170.8,178.9c0.7,1.5,1,3.1,1,4.7c0,4.8-2.8,8.7-6.3,8.7c-1.2,0-2.4-0.5-3.3-1.2c1.1,2.4,3.1,4,5.3,4
			c3.5,0,6.3-3.9,6.3-8.7C174,183.6,172.9,180.8,170.8,178.9z"/>
		<path class="st16" d="M168.8,179.4c0,0.4-0.6,0.7-1.2,0.7s-1.2-0.3-1.2-0.7s0.6-0.7,1.2-0.7S168.8,179,168.8,179.4z"/>
		<rect x="251" y="63.6" class="st17" width="11.5" height="7.8"/>
		<path class="st17" d="M274.2,154.7c-6.3-13.3,2.2-30.5,2.2-30.5V88.9c0,0-4-12.3-14.3-19.2c-1.8-0.1-3.6,0.3-5.3,0.9
			c-1.7-0.7-3.5-1-5.3-0.9c-10.3,6.9-14.3,19.2-14.3,19.2v35.3c0,0,8.5,17.2,2.2,30.5s-0.6,42.2-0.6,44.2s-2.2,6.3,3.2,6.3h29.7
			c5.5,0,3.2-4.2,3.2-6.3S280.4,168,274.2,154.7z"/>
		<rect x="251" y="63.6" class="st18" width="11.5" height="3.7"/>
		<path class="st19" d="M249.9,57.2h13.7c0.4,0,0.8,0.4,0.8,0.8v6.7c0,0.4-0.4,0.8-0.8,0.8h-13.7c-0.4,0-0.8-0.4-0.8-0.8V58
			C249.1,57.5,249.4,57.2,249.9,57.2z"/>
		<path class="st19" d="M263.6,57.2h-1.4v5.6c0,0.4-0.4,0.8-0.8,0.8h-12.3v1.1c0,0.4,0.4,0.8,0.8,0.8h13.7c0.4,0,0.8-0.4,0.8-0.8V58
			C264.4,57.6,264.1,57.2,263.6,57.2C263.6,57.2,263.6,57.2,263.6,57.2z"/>
		<path class="st19" d="M237.1,88.9v35.3h39.4V88.9c0,0-0.1-0.2-0.2-0.6h-38.9C237.2,88.6,237.1,88.9,237.1,88.9z"/>
		<path class="st19" d="M245.4,98.2h22.8c0.4,0,0.8,0.4,0.8,0.8v1.8c0,0.4-0.4,0.8-0.8,0.8h-22.8c-0.4,0-0.8-0.4-0.8-0.8V99
			C244.6,98.5,244.9,98.2,245.4,98.2z"/>
		<path class="st19" d="M245.4,104.9h22.8c0.4,0,0.8,0.4,0.8,0.8v1.8c0,0.4-0.4,0.8-0.8,0.8h-22.8c-0.4,0-0.8-0.4-0.8-0.8v-1.8
			C244.6,105.3,244.9,104.9,245.4,104.9z"/>
		<path class="st18" d="M241.9,205.2h29.7c5.5,0,3.2-4.2,3.2-6.3s5.7-30.9-0.6-44.2s2.2-30.5,2.2-30.5V88.9c0,0-4-12.1-14-19h-11.3
			l-0.4,0.3c13.8,3.2,21.1,26,20.9,38.9c-0.2,14.3-8.9,49.3-3.4,65.7c4.8,14.5-8,24.7-31.3,16c0.7,4.3,1.8,7.3,1.8,8.2
			C238.7,201,236.4,205.2,241.9,205.2z"/>
		<path class="st20" d="M218.6,114.2c0,8.7-5.9,14.1-13.3,14.1s-13.3-5.3-13.3-14.1s7.9-17.5,13.3-17.5S218.6,105.5,218.6,114.2z"/>
		<path class="st21" d="M211.7,99.8c-0.9,6.5-6.5,11.3-13,11.1c-2,0-4-0.4-5.8-1.3c-0.5,1.5-0.7,3.1-0.7,4.6
			c0,8.7,5.9,14.1,13.3,14.1s13.3-5.3,13.3-14.1C218.6,108.7,215.4,103.1,211.7,99.8z"/>
		<path class="st20" d="M254.8,114.2c0,8.7-5.9,14.1-13.3,14.1s-13.3-5.3-13.3-14.1s7.9-17.5,13.3-17.5S254.8,105.5,254.8,114.2z"/>
		<path class="st21" d="M247.9,99.8c-0.9,6.5-6.5,11.3-13,11.1c-2,0-4-0.4-5.8-1.3c-0.5,1.5-0.7,3.1-0.7,4.6
			c0,8.7,5.9,14.1,13.3,14.1s13.3-5.3,13.3-14.1C254.8,108.7,251.6,103.1,247.9,99.8z"/>
		<path class="st20" d="M291,114.2c0,8.7-5.9,14.1-13.2,14.1s-13.3-5.3-13.3-14.1s7.9-17.5,13.3-17.5S291,105.5,291,114.2z"/>
		<path class="st21" d="M284,99.8c-0.9,6.5-6.5,11.3-13,11.1c-2,0-4-0.4-5.8-1.3c-0.5,1.5-0.7,3.1-0.7,4.6c0,8.7,5.9,14.1,13.3,14.1
			s13.2-5.3,13.2-14.1C291,108.7,287.8,103.1,284,99.8z"/>
		<path class="st22" d="M265.4,115.2c-1.4-0.1-2.6,0.9-2.7,2.3c0,0.3,0,0.7,0.1,1l4.9,17.9c0.6,1.9,2.3,3.2,4.3,3.3h12.1
			c2-0.1,3.7-1.4,4.3-3.3l4.5-17.8c0.4-1.3-0.3-2.8-1.6-3.2c-0.3-0.1-0.6-0.1-0.9-0.1L265.4,115.2z"/>
		<path class="st22" d="M229.1,115.2c-1.4-0.1-2.6,0.9-2.7,2.3c0,0.3,0,0.7,0.1,1l4.8,17.9c0.6,1.9,2.3,3.2,4.3,3.3h12.1
			c2-0.1,3.7-1.4,4.3-3.3l4.5-17.8c0.4-1.3-0.3-2.8-1.7-3.2c-0.3-0.1-0.6-0.1-0.9-0.1L229.1,115.2z"/>
		<path class="st22" d="M192.8,115.2c-1.4-0.1-2.6,0.9-2.7,2.3c0,0.3,0,0.7,0.1,1l4.8,17.9c0.6,1.9,2.3,3.2,4.3,3.3h12.1
			c2-0.1,3.7-1.4,4.3-3.3l4.5-17.8c0.4-1.3-0.3-2.8-1.6-3.2c-0.3-0.1-0.6-0.1-0.9-0.1L192.8,115.2z"/>
		<path class="st23" d="M217.7,115.2h-24.9c-1.4-0.1-2.6,0.9-2.7,2.3c0,0.3,0,0.7,0.1,1l0.9,3.4c0.1,0,0.2,0,0.3,0H213
			c0.9-0.1,1.7,0.6,1.7,1.5c0,0.2,0,0.4-0.1,0.6l-2.9,11.3c-0.4,1.2-1.4,2-2.7,2.1h-13.4h-0.2c0.8,1.4,2.3,2.3,3.9,2.4h12.1
			c2-0.1,3.7-1.4,4.3-3.3l4.5-17.8c0.5-1.3-0.2-2.8-1.6-3.2C218.3,115.3,218,115.2,217.7,115.2z"/>
		<path class="st23" d="M254,115.2h-24.9c-1.4-0.1-2.6,0.9-2.7,2.3c0,0.3,0,0.7,0.1,1l0.9,3.4c0.1,0,0.2,0,0.3,0h21.6
			c0.9-0.1,1.7,0.6,1.7,1.5c0,0.2,0,0.4-0.1,0.6l-2.9,11.3c-0.4,1.2-1.4,2-2.7,2.1H232h-0.2c0.8,1.4,2.3,2.3,3.9,2.4h12.1
			c2-0.1,3.7-1.4,4.3-3.3l4.5-17.8c0.5-1.3-0.2-2.8-1.6-3.2C254.7,115.3,254.3,115.2,254,115.2z"/>
		<path class="st23" d="M290.3,115.2h-24.9c-1.4-0.1-2.6,0.9-2.7,2.3c0,0.3,0,0.7,0.1,1l0.9,3.4c0.1,0,0.2,0,0.3,0h21.6
			c0.9-0.1,1.7,0.6,1.7,1.5c0,0.2,0,0.4-0.1,0.6l-2.8,11.3c-0.4,1.2-1.4,2.1-2.7,2.1h-13.5h-0.2c0.8,1.4,2.3,2.3,3.9,2.4h12.1
			c2-0.1,3.7-1.4,4.3-3.3l4.5-17.8c0.4-1.3-0.3-2.8-1.6-3.2C290.9,115.3,290.6,115.2,290.3,115.2z"/>
		<path class="st22" d="M302.2,116.2c0,2.1-1.7,3.8-3.9,3.8l0,0H186.6c-2.1,0-3.9-1.7-3.9-3.8c0,0,0,0,0,0l0,0
			c0-2.1,1.7-3.8,3.9-3.8l0,0h111.8C300.5,112.3,302.2,114,302.2,116.2L302.2,116.2z"/>
		<path class="st24" d="M298.7,112.3c0.2,0.5,0.3,1,0.3,1.5c0,2.1-1.7,3.8-3.9,3.8l0,0H183.4H183c0.6,1.4,2,2.4,3.6,2.4h111.8
			c2.1,0,3.8-1.8,3.8-3.9C302.1,114.2,300.6,112.6,298.7,112.3L298.7,112.3z"/>
		<path class="st25" d="M279.7,131.1l-62.3,0.6c-6.5-0.3-13.1-0.3-19.6,0.1l-54.7-0.7c-4.5,0.2-8,3.9-7.9,8.5c0,0.6,0.1,1.2,0.3,1.8
			l12.1,64.1c1.4,5.5,6.3,9.4,12,9.6h103.8c5.7-0.2,10.6-4.1,12-9.6l12.1-64.1c1.1-4.3-1.4-8.8-5.8-9.9
			C280.9,131.2,280.3,131.2,279.7,131.1z M174.9,199.7c0,1.5-1.2,2.7-2.7,2.7h-5.7c-1.5,0-2.7-1.2-2.7-2.7v-41.5
			c0-1.5,1.2-2.7,2.7-2.7h5.7c1.5,0,2.7,1.2,2.7,2.7V199.7z M195.9,199.7c0,1.5-1.2,2.7-2.7,2.7h-5.7c-1.5,0-2.7-1.2-2.7-2.7v-41.5
			c0-1.5,1.2-2.7,2.7-2.7h5.7c1.5,0,2.7,1.2,2.7,2.7V199.7z M216.9,199.7c0,1.5-1.2,2.7-2.7,2.7h-5.7c-1.5,0-2.7-1.2-2.7-2.7v-41.5
			c0-1.5,1.2-2.7,2.7-2.7h5.7c1.5,0,2.7,1.2,2.7,2.7V199.7z M237.9,199.7c0,1.5-1.2,2.7-2.7,2.7h-5.7c-1.5,0-2.7-1.2-2.7-2.7v-41.5
			c0-1.5,1.2-2.7,2.7-2.7h5.7c1.5,0,2.7,1.2,2.7,2.7V199.7z M258.9,199.7c0,1.5-1.2,2.7-2.7,2.7l0,0h-5.7c-1.5,0-2.7-1.2-2.7-2.7
			v-41.5c0-1.5,1.2-2.7,2.7-2.7h5.7c1.5,0,2.7,1.2,2.7,2.7l0,0V199.7z"/>
		<path class="st26" d="M279.7,131.1l-62.3,0.6c-6.5-0.3-13.1-0.3-19.6,0.1l-54.7-0.7c-4.5,0.2-8,3.9-7.9,8.5c0,0.6,0.1,1.2,0.3,1.8
			l1.8,9.5h127.7c-1.3,6.3-3.3,12.5-5.9,18.4v30.5c0,1.5-1.2,2.7-2.7,2.7l0,0h-5.7c-1.5,0-2.7-1.2-2.7-2.7v-13.2
			c-2.9,3.2-6.2,6-9.8,8.4v4.8c0,1.5-1.2,2.7-2.7,2.7h-5.7c-1.2,0-2.2-0.8-2.6-1.9c-14.8,5.6-32.9,5.6-52.6,0.9
			c-0.5,0.6-1.3,1-2.1,1h-5.8c-1.5,0-2.7-1.2-2.7-2.7v-1.2c-6.4-2-12.7-4.4-18.9-7l2.6,14c1.4,5.5,6.3,9.4,12,9.6h103.8
			c5.7-0.2,10.6-4.1,12-9.6l10.3-54.6l0,0l1.8-9.5c1.2-4.3-1.4-8.8-5.7-10C281,131.2,280.3,131.2,279.7,131.1z"/>
		<path class="st25" d="M126.4,126h169.9c1.5,0,2.7,1.2,2.7,2.7v15.6c0,1.5-1.2,2.7-2.7,2.7H126.4c-1.5,0-2.7-1.2-2.7-2.7v-15.6
			C123.7,127.2,124.9,126,126.4,126z"/>
		<path class="st25" d="M182.2,116.9c-3,0-5.4,2.4-5.4,5.3c0,0,0,0,0,0v4.7c0,3,2.4,5.4,5.4,5.4c3,0,5.4-2.4,5.4-5.4l0,0v-4.7
			C187.6,119.3,185.2,116.9,182.2,116.9L182.2,116.9z M182.2,123.8c-1.4,0-2.6-1.2-2.6-2.6c0-1.4,1.2-2.6,2.6-2.6s2.6,1.2,2.6,2.6
			c0,0,0,0,0,0C184.8,122.7,183.7,123.8,182.2,123.8C182.2,123.8,182.2,123.8,182.2,123.8z"/>
		<g>
			<path class="st25" d="M181.9,123h-56.8c-1.1,0-1.9-0.9-1.9-1.9s0.9-1.9,1.9-1.9h56.8c1.1,0,1.9,0.9,1.9,1.9S182.9,123,181.9,123z
				"/>
		</g>
		<path class="st25" d="M235.1,122.3v4.7c0,3,2.4,5.4,5.4,5.4c3,0,5.4-2.4,5.4-5.4l0,0v-4.7c0-3-2.4-5.4-5.4-5.4
			C237.5,116.9,235.1,119.3,235.1,122.3z M237.9,121.3c0-1.4,1.2-2.6,2.6-2.6s2.6,1.2,2.6,2.6c0,1.4-1.2,2.6-2.6,2.6c0,0,0,0,0,0
			C239.1,123.9,237.9,122.7,237.9,121.3C237.9,121.3,237.9,121.2,237.9,121.3L237.9,121.3z"/>
		<g>
			<path class="st25" d="M297.7,123h-56.8c-1.1,0-1.9-0.9-1.9-1.9s0.9-1.9,1.9-1.9h56.8c1.1,0,1.9,0.9,1.9,1.9S298.7,123,297.7,123z
				"/>
		</g>
		<path class="st19" d="M301.3,157.5c-3.1-3.1-5.8-6.5-8-10.3l-5.4,3.5c0,0,4.5,6.4,4.7,11.3C297.2,166,301.3,157.5,301.3,157.5z"/>
		<path class="st27" d="M297.9,158.6c0,0,2.3,0.9,3.4-1c18.6,9.7,32.7,18.2,52.1,8.1s27.1-23.4,27.1-23.4l1,0.9
			c0,0-7.6,29-28.5,38.6s-42-4.9-42-4.9l-14.5-12.4L297.9,158.6z"/>
		<path class="st19" d="M381.4,143.1c0,0-11.9,31.5-41.8,32.9s-42-17.2-42-17.2l-3.5,1.2c-4.6-0.4-0.9,13.1,7.7,20.7
			s31.4,22.1,58.2,6.7s28.9-30.9,26.5-43.5C384.9,142.7,381.4,143.1,381.4,143.1z"/>
		<path class="st19" d="M386.6,143.9c-1.7-1.2-5.1-0.8-5.1-0.8s-11.9,31.5-41.8,32.9c-11.7,0.5-20.7-2-27.3-5.3c0,0-0.1,0-0.1,0.1
			c17.5,12.8,42.2,3,45.9,5.1c3.1,1.8,2.5,10.4-19.5,18.2c7.6-0.5,14.9-2.8,21.4-6.6C386.9,172.1,388.9,156.5,386.6,143.9z"/>
		<path class="st28" d="M380.5,142.2l1,0.9l5.1,0.8c-0.3-1.6-1.7-2.9-3.3-3C380.5,140.8,380.5,142.2,380.5,142.2z"/>
		<path class="st19" d="M297,157.1c-2.1-4.5-3.6-9.3-4.6-14.2l-7.2,1.6c0,0,2.3,8.6,0.6,14C289.3,164.5,297,157.1,297,157.1z"/>
		<path class="st27" d="M292.9,156.8c0,0,2.1,1.8,4.1,0.3c16.1,17.8,27.9,32.6,52.7,29.5s38.4-14.3,38.4-14.3l0.7,1.4
			c0,0-19.8,28.1-46,30s-43.1-22-43.1-22l-10.6-19L292.9,156.8z"/>
		<path class="st19" d="M388.8,173.7c0,0-25.4,29.1-58,18.5S292.6,157,292.6,157l-4.3-0.1c-4.8-2.2-6.2,13.7,0,25.3
			c6.1,11.4,24.8,36.2,59.8,30.5s43.4-21.7,45.9-36.1C392.6,174.6,388.8,173.7,388.8,173.7z"/>
		<path class="st19" d="M394,176.6c-1.4-2-5.2-2.9-5.2-2.9s-25.4,29.1-58,18.5c-12.8-4.1-21.4-10.4-27.1-16.5h-0.2
			c13.7,20.8,44.1,20.1,47.2,23.8c2.7,3.1-1.5,12.1-28.1,11.8c8.3,2.4,17.1,2.9,25.6,1.4C383.1,206.9,391.4,191,394,176.6z"/>
		<path class="st28" d="M388.1,172.3l0.7,1.4l5.2,2.9c0,0,0.6-3.3-2.3-4.6S388.1,172.3,388.1,172.3z"/>
		<path class="st8" d="M140.6,170.3c7.9,12.8,3.9,29.6-8.9,37.5s-29.6,3.9-37.5-8.9c-7.9-12.8-3.9-29.6,8.9-37.5c0,0,0,0,0,0
			C115.9,153.5,132.7,157.5,140.6,170.3C140.6,170.3,140.6,170.3,140.6,170.3z"/>
		<path class="st9" d="M118,157.4c12.7,8.1,16.3,25,8.2,37.7c-5.1,8-14.1,12.7-23.5,12.5c12.7,8.1,29.5,4.5,37.7-8.2
			c8.1-12.7,4.5-29.5-8.2-37.7C127.9,159,123,157.5,118,157.4z"/>
		<path class="st9" d="M108.4,163.3c0.6,0.9-0.6,2.7-2.6,3.9s-4.1,1.5-4.7,0.6s0.6-2.6,2.6-3.9S107.9,162.4,108.4,163.3z"/>
		<path class="st15" d="M83.2,197.2c6.2,1.7,10.2,6.8,8.9,11.3s-7.3,6.8-13.5,5s-10.2-6.8-8.9-11.3S77,195.4,83.2,197.2z"/>
		<path class="st16" d="M72.4,198.5c2.2-0.4,4.4-0.2,6.5,0.4c6.2,1.7,10.2,6.8,8.9,11.3c-0.4,1.6-1.4,2.9-2.8,3.8
			c3.5-0.6,6.2-2.6,7-5.4c1.3-4.5-2.7-9.6-8.9-11.3C79.1,196,75.1,196.6,72.4,198.5z"/>
		<path class="st16" d="M72.3,201.2c0.5,0.1,0.8,1,0.5,1.9s-0.9,1.5-1.4,1.4s-0.8-1-0.5-1.9S71.8,201.1,72.3,201.2z"/>
		<path class="st15" d="M103.8,196.2c-3,5.7-8.9,8.5-13,6.3s-5-8.6-2-14.3s8.8-8.5,13-6.3S106.8,190.5,103.8,196.2z"/>
		<path class="st16" d="M104.8,185.5c-0.1,2.2-0.7,4.3-1.8,6.2c-3,5.7-8.8,8.5-13,6.3c-1.4-0.8-2.5-2.1-3.1-3.6
			c-0.2,3.5,1.1,6.6,3.8,8.1c4.1,2.2,10-0.6,13-6.3C105.8,192.5,106,188.4,104.8,185.5z"/>
		<path class="st16" d="M102.1,184.7c-0.3,0.5-1.1,0.5-2,0.1s-1.3-1.2-1-1.7s1.1-0.5,2-0.1S102.4,184.2,102.1,184.7z"/>
		<path class="st15" d="M106.2,205.8c-3,5.7-8.9,8.5-13,6.3s-5-8.6-2-14.3s8.8-8.5,13-6.3S109.2,200.1,106.2,205.8z"/>
		<path class="st16" d="M107.3,195.1c-0.1,2.2-0.7,4.3-1.8,6.2c-3,5.7-8.8,8.5-13,6.3c-1.4-0.8-2.5-2.1-3.1-3.6
			c-0.2,3.5,1.1,6.6,3.8,8.1c4.1,2.2,10-0.6,13-6.3C108.2,202.1,108.5,198,107.3,195.1z"/>
		<path class="st16" d="M104.6,194.3c-0.3,0.5-1.1,0.5-2,0.1s-1.3-1.2-1-1.7s1.1-0.5,2-0.1S104.9,193.9,104.6,194.3z"/>
		<path class="st15" d="M77.4,185.5c2.2,6.1,0.3,12.3-4.1,13.8s-9.8-2.1-11.9-8.1s-0.3-12.3,4.1-13.8S75.2,179.4,77.4,185.5z"/>
		<path class="st16" d="M70.2,177.5c1.5,1.6,2.7,3.4,3.4,5.5c2.2,6.1,0.3,12.3-4.1,13.8c-1.5,0.5-3.2,0.5-4.7-0.1
			c2.5,2.5,5.7,3.6,8.5,2.6c4.4-1.6,6.3-7.8,4.1-13.8C76,181.5,73.2,178.6,70.2,177.5z"/>
		<path class="st16" d="M67.8,179c0.2,0.5-0.4,1.2-1.2,1.5s-1.7,0.1-1.9-0.4s0.4-1.2,1.3-1.5S67.6,178.5,67.8,179z"/>
		<path class="st15" d="M96.1,178.5c-0.9,5.3-4.7,9-8.5,8.4s-6.3-5.4-5.4-10.7s4.7-9,8.6-8.4S97,173.3,96.1,178.5z"/>
		<path class="st16" d="M94.1,169.8c0.5,1.8,0.6,3.6,0.3,5.4c-0.9,5.3-4.7,9-8.6,8.4c-1.3-0.2-2.5-1-3.4-2c0.8,2.8,2.7,4.9,5.1,5.3
			c3.8,0.6,7.7-3.1,8.5-8.4C96.7,175.5,96,172.3,94.1,169.8z"/>
		<path class="st16" d="M91.8,169.9c-0.1,0.4-0.8,0.7-1.5,0.6s-1.3-0.6-1.2-1s0.8-0.7,1.5-0.6S91.8,169.5,91.8,169.9z"/>
		<path class="st15" d="M82.1,174.7c0.6,5.3-2.1,10-5.9,10.4s-7.5-3.5-8.1-8.8s2.1-10,5.9-10.4S81.5,169.4,82.1,174.7z"/>
		<path class="st16" d="M77.8,166.8c0.9,1.6,1.5,3.3,1.7,5.1c0.6,5.3-2.1,10-5.9,10.4c-1.3,0.1-2.7-0.2-3.8-1c1.6,2.5,3.9,4,6.4,3.7
			c3.9-0.4,6.5-5.1,5.9-10.4C81.9,171.5,80.3,168.7,77.8,166.8z"/>
		<path class="st16" d="M75.6,167.6c0,0.5-0.5,0.9-1.3,1s-1.4-0.2-1.5-0.7s0.5-0.9,1.3-1S75.6,167.1,75.6,167.6z"/>
		<path class="st15" d="M89.1,192.2c0,5.8-3.4,10.6-7.7,10.6s-7.7-4.7-7.7-10.6s3.4-10.6,7.7-10.6S89.1,186.4,89.1,192.2z"/>
		<path class="st16" d="M85.4,183.2c0.8,1.8,1.2,3.8,1.2,5.8c0,5.8-3.4,10.6-7.7,10.6c-1.5,0-2.9-0.6-4-1.5c1.4,2.9,3.8,4.8,6.5,4.8
			c4.2,0,7.7-4.7,7.7-10.6C89.3,188.9,87.9,185.6,85.4,183.2z"/>
		<path class="st16" d="M83,183.8c0,0.5-0.7,0.9-1.5,0.9s-1.5-0.4-1.5-0.9s0.7-0.9,1.5-0.9S83,183.3,83,183.8z"/>
		<text transform="matrix(1 0 0 1 74.25 153.6835)" class="st5 st29 st30 st31">Pr</text>
		<text transform="matrix(1 0 0 1 113.31 153.6835)" class="st5 st29 st30">รณ</text>
		<text transform="matrix(1 0 0 1 135.4 153.6835)" class="st5 st29 st30 st31">ximamen</text>
		<text transform="matrix(1 0 0 1 299.37 153.6835)" class="st5 st29 st30 st31">t</text>
		<text transform="matrix(1 0 0 1 312.25 153.6835)" class="st5 st29 st30 st31">e</text>
	</g>
</g>
</svg>
